<svg width="359" height="269" viewBox="0 0 359 269" fill="none" xmlns="http://www.w3.org/2000/svg">
<path fill-rule="evenodd" clip-rule="evenodd" d="M234.158 41.2909C234.158 32.03 241.666 24.5226 250.926 24.5226C260.187 24.5226 267.695 32.03 267.695 41.2909C267.695 50.5518 260.187 58.0592 250.926 58.0592C241.666 58.0592 234.158 50.5518 234.158 41.2909ZM246.181 43.2565C246.976 45.1757 248.849 46.4272 250.926 46.4271V46.4272C252.289 46.4272 253.595 45.886 254.558 44.9228C255.522 43.9596 256.063 42.6531 256.063 41.2909C256.063 39.2135 254.811 37.3406 252.892 36.5456C250.973 35.7506 248.764 36.1901 247.295 37.659C245.826 39.128 245.386 41.3372 246.181 43.2565Z" fill="#CDE2FD"/>
<path fill-rule="evenodd" clip-rule="evenodd" d="M49.467 146.33C49.467 137.069 56.9744 129.562 66.2353 129.562C75.4962 129.562 83.0037 137.069 83.0037 146.33C83.0037 155.591 75.4962 163.098 66.2353 163.098C56.9744 163.098 49.467 155.591 49.467 146.33ZM61.49 148.295C62.285 150.215 64.1579 151.466 66.2353 151.466C67.5975 151.466 68.9039 150.925 69.8672 149.962C70.8304 148.998 71.3715 147.692 71.3715 146.33C71.3715 144.252 70.1201 142.38 68.2008 141.585C66.2816 140.79 64.0724 141.229 62.6034 142.698C61.1345 144.167 60.695 146.376 61.49 148.295Z" fill="#CDE2FD"/>
<path fill-rule="evenodd" clip-rule="evenodd" d="M312.225 159.812C312.225 155.177 315.983 151.419 320.618 151.419C322.844 151.419 324.979 152.303 326.553 153.877C328.127 155.451 329.011 157.586 329.011 159.812C329.011 164.448 325.253 168.205 320.618 168.205C315.983 168.205 312.225 164.448 312.225 159.812ZM318.243 160.796C318.641 161.757 319.578 162.383 320.618 162.383C321.3 162.383 321.954 162.112 322.436 161.63C322.918 161.148 323.189 160.494 323.189 159.812C323.189 158.772 322.563 157.835 321.602 157.437C320.641 157.039 319.535 157.259 318.8 157.994C318.065 158.73 317.845 159.835 318.243 160.796Z" fill="#CDE2FD"/>
<circle cx="253.819" cy="94.904" r="4.43283" fill="#AED3FF"/>
<circle cx="128.953" cy="185.457" r="4.43283" fill="#AED3FF"/>
<path d="M50.3623 63.6546H46.6631V59.9554C46.6631 58.6196 45.5802 57.5367 44.2444 57.5367C42.9087 57.5367 41.8258 58.6196 41.8258 59.9554V63.6546H38.1266C36.7908 63.6546 35.708 64.7374 35.7079 66.0732C35.7079 67.409 36.7908 68.4919 38.1266 68.4919H41.8258V72.1911C41.8258 73.5269 42.9087 74.6097 44.2444 74.6097C45.5802 74.6097 46.6631 73.5269 46.6631 72.1911V68.4919H50.3623C51.6981 68.4919 52.7809 67.409 52.7809 66.0732C52.7809 64.7374 51.6981 63.6546 50.3623 63.6546Z" fill="#AFD3FF"/>
<path d="M180.203 153.7H176.504V150.001C176.504 148.665 175.421 147.583 174.085 147.583C172.749 147.583 171.666 148.665 171.666 150.001V153.7H167.967C166.631 153.7 165.548 154.783 165.548 156.119C165.548 157.455 166.631 158.538 167.967 158.538H171.666V162.237C171.666 163.573 172.749 164.656 174.085 164.656C175.421 164.656 176.504 163.573 176.504 162.237V158.538H180.203C180.844 158.538 181.459 158.283 181.913 157.829C182.367 157.376 182.621 156.76 182.621 156.119C182.621 154.783 181.539 153.7 180.203 153.7Z" fill="#D9E9FF"/>
<path d="M197.285 66.9155H193.586V63.2164C193.586 61.8806 192.503 60.7977 191.168 60.7977C189.832 60.7977 188.749 61.8806 188.749 63.2164V66.9156H185.05C183.714 66.9156 182.631 67.9984 182.631 69.3342C182.631 70.67 183.714 71.7529 185.05 71.7529H188.749V75.4521C188.749 76.7879 189.832 77.8707 191.168 77.8707C192.503 77.8707 193.586 76.7879 193.586 75.4521V71.7529H197.285C198.621 71.7529 199.704 70.67 199.704 69.3342C199.704 67.9984 198.621 66.9155 197.285 66.9155Z" fill="#AFD3FF"/>
<path d="M46.0045 210.887L45.2487 210.132L46.0045 209.376C46.2774 209.103 46.2774 208.66 46.0045 208.387C45.7315 208.115 45.289 208.115 45.0161 208.387L44.2603 209.143L43.5045 208.387C43.2316 208.115 42.7891 208.115 42.5162 208.387C42.2432 208.66 42.2432 209.103 42.5162 209.376L43.272 210.132L42.5162 210.887C42.2432 211.16 42.2432 211.603 42.5162 211.876C42.7891 212.149 43.2316 212.149 43.5045 211.876L44.2603 211.12L45.0161 211.876C45.289 212.149 45.7315 212.149 46.0045 211.876C46.2774 211.603 46.2774 211.16 46.0045 210.887Z" fill="#AFD3FF"/>
<path d="M154.916 33.6899C154.917 33.2586 154.652 32.8712 154.25 32.7153C150.768 31.399 148.02 28.6502 146.703 25.1682C146.547 24.7661 146.16 24.5015 145.729 24.5026C145.297 24.5015 144.91 24.7661 144.754 25.1682C143.438 28.6502 140.689 31.399 137.207 32.7153C136.805 32.8712 136.54 33.2586 136.541 33.6899C136.54 34.1211 136.805 34.5085 137.207 34.6645C140.689 35.9807 143.438 38.7295 144.754 42.2116C144.91 42.6136 145.297 42.8782 145.729 42.8772C146.16 42.8782 146.547 42.6136 146.703 42.2116C148.02 38.7295 150.768 35.9807 154.25 34.6645C154.652 34.5085 154.917 34.1211 154.916 33.6899Z" fill="#D9E9FF"/>
<path d="M316.31 104.078C316.311 103.646 316.047 103.259 315.645 103.103C312.163 101.787 309.414 99.0379 308.098 95.5558C307.942 95.1538 307.554 94.8892 307.123 94.8903C306.692 94.8892 306.304 95.1538 306.148 95.5559C304.832 99.0379 302.083 101.787 298.601 103.103C298.199 103.259 297.935 103.646 297.936 104.078C297.935 104.509 298.199 104.896 298.601 105.052C302.083 106.368 304.832 109.117 306.148 112.599C306.304 113.001 306.692 113.266 307.123 113.265C307.554 113.266 307.942 113.001 308.098 112.599C309.414 109.117 312.163 106.368 315.645 105.052C316.047 104.896 316.311 104.509 316.31 104.078Z" fill="#D9E9FF"/>
<mask id="mask0_0_897" style="mask-type:alpha" maskUnits="userSpaceOnUse" x="0" y="0" width="359" height="269">
<rect width="358.4" height="268.8" fill="white"/>
</mask>
<g mask="url(#mask0_0_897)">
<path d="M277.86 66.8067L250.292 34.3312C249.655 33.5803 248.721 33.1473 247.737 33.1473C246.753 33.1473 245.819 33.5803 245.182 34.3312L217.614 66.8067C215.757 68.9938 217.306 72.3602 220.168 72.3602H237.015V107.348H258.459V72.3602H275.306C278.168 72.3602 279.717 68.9938 277.86 66.8067Z" fill="#DAE9FF" stroke="#143C9A" stroke-width="1.0752" stroke-linecap="round" stroke-linejoin="round"/>
<rect x="132.168" y="83.4604" width="185.894" height="135.71" rx="6.26924" fill="white"/>
<mask id="mask1_0_897" style="mask-type:alpha" maskUnits="userSpaceOnUse" x="132" y="83" width="187" height="137">
<rect x="132.168" y="83.4604" width="185.894" height="135.71" rx="6.26924" fill="white"/>
</mask>
<g mask="url(#mask1_0_897)">
<rect x="123.242" y="78.4668" width="206.875" height="24.0871" fill="white"/>
<mask id="mask2_0_897" style="mask-type:alpha" maskUnits="userSpaceOnUse" x="123" y="78" width="208" height="25">
<rect x="123.242" y="78.4668" width="206.875" height="24.0871" fill="white"/>
</mask>
<g mask="url(#mask2_0_897)">
<path d="M115.216 103.71C311.438 105.473 332.069 92.3592 321.973 68.382C311.877 44.4047 336.02 92.3829 336.02 92.3829L331.63 115.166L274.125 116.929L146.669 114.285" fill="#DAE9FF"/>
</g>
<rect x="123.242" y="78.4668" width="206.875" height="24.0871" stroke="#143C9A" stroke-width="1.0752" stroke-linecap="round" stroke-linejoin="round"/>
</g>
<rect x="132.168" y="83.4604" width="185.894" height="135.71" rx="6.26924" stroke="#143C9A" stroke-width="1.0752" stroke-linecap="round" stroke-linejoin="round"/>
<ellipse cx="143.267" cy="92.3829" rx="3.40206" ry="3.41478" fill="white" stroke="#143C9A" stroke-width="1.0752" stroke-linecap="round" stroke-linejoin="round"/>
<ellipse cx="153.561" cy="92.3829" rx="3.40206" ry="3.41478" fill="white" stroke="#143C9A" stroke-width="1.0752" stroke-linecap="round" stroke-linejoin="round"/>
<ellipse cx="163.855" cy="92.3829" rx="3.40206" ry="3.41478" fill="white" stroke="#143C9A" stroke-width="1.0752" stroke-linecap="round" stroke-linejoin="round"/>
<rect x="260.804" y="111.16" width="42.5527" height="91.7797" rx="4.03953" fill="white"/>
<mask id="mask3_0_897" style="mask-type:alpha" maskUnits="userSpaceOnUse" x="260" y="111" width="44" height="92">
<rect x="260.804" y="111.16" width="42.5527" height="91.7797" rx="4.03953" fill="white"/>
</mask>
<g mask="url(#mask3_0_897)">
<path d="M303.357 180.996C303.924 205.057 261.758 204.438 261.758 204.438L295.491 211.611L308.655 205.264" fill="#DAE9FF"/>
</g>
<rect x="260.804" y="111.16" width="42.5527" height="91.7797" rx="4.03953" stroke="#143C9A" stroke-width="1.0752" stroke-linecap="round" stroke-linejoin="round"/>
<rect x="269.789" y="155.55" width="24.5826" height="5.94833" rx="2.96861" fill="white" stroke="#143C9A" stroke-width="1.0752" stroke-linecap="round" stroke-linejoin="round"/>
<rect x="269.789" y="141.55" width="24.5826" height="5.94833" rx="2.96861" fill="white" stroke="#143C9A" stroke-width="1.0752" stroke-linecap="round" stroke-linejoin="round"/>
<rect x="269.789" y="127.55" width="24.5826" height="5.94833" rx="2.96861" fill="white" stroke="#143C9A" stroke-width="1.0752" stroke-linecap="round" stroke-linejoin="round"/>
<rect x="269.789" y="168.273" width="24.5826" height="5.94833" rx="2.96861" fill="white" stroke="#143C9A" stroke-width="1.0752" stroke-linecap="round" stroke-linejoin="round"/>
<rect x="269.789" y="180.996" width="24.5826" height="5.94833" rx="2.96861" fill="white" stroke="#143C9A" stroke-width="1.0752" stroke-linecap="round" stroke-linejoin="round"/>
<rect x="143.958" y="111.16" width="108.173" height="91.7797" rx="6.44062" fill="white"/>
<rect x="143.958" y="111.16" width="108.173" height="91.7797" rx="6.44062" stroke="#143C9A" stroke-width="1.0752" stroke-linecap="round" stroke-linejoin="round"/>
<rect x="151.138" y="118.62" width="70.2148" height="44.4452" rx="4.59201" fill="white" stroke="#143C9A" stroke-width="1.0752" stroke-linecap="round" stroke-linejoin="round"/>
<path d="M181.611 127.32L163.54 153.846H199.681L181.611 127.32Z" fill="#DAE9FF" stroke="#143C9A" stroke-width="1.0752" stroke-linecap="round" stroke-linejoin="round"/>
<path d="M197.132 136.316L185.191 153.845H209.074L197.132 136.316Z" fill="#DAE9FF" stroke="#143C9A" stroke-width="1.0752" stroke-linecap="round" stroke-linejoin="round"/>
<ellipse cx="195.577" cy="128.655" rx="4.08742" ry="4.1027" fill="white" stroke="#143C9A" stroke-width="1.0752" stroke-linecap="round" stroke-linejoin="round"/>
<rect x="150.559" y="171.16" width="48.3913" height="3.57149" rx="1.78241" fill="white" stroke="#143C9A" stroke-width="1.0752" stroke-linecap="round" stroke-linejoin="round"/>
<rect x="150.582" y="182.827" width="86.8265" height="3.57149" rx="1.78241" fill="white" stroke="#143C9A" stroke-width="1.0752" stroke-linecap="round" stroke-linejoin="round"/>
<path d="M153.782 193.686L155.02 194.506" stroke="#143C9A" stroke-width="1.0752" stroke-linecap="round" stroke-linejoin="round"/>
<path d="M284.178 89.6471L290.349 92.1246" stroke="#143C9A" stroke-width="1.0752" stroke-linecap="round" stroke-linejoin="round"/>
<path d="M126.304 183.429H124.649C117.204 180.976 94.8706 168.712 84.9442 158.083C75.0191 146.637 70.0558 136.008 70.0558 123.743V74.6872C70.0558 73.0523 70.8832 71.4169 72.5359 70.5997L124.649 52.6123H127.129L178.413 70.5997C180.068 71.4169 180.895 73.0523 180.895 74.6872V122.109C180.895 135.19 176.761 145.819 166.007 156.448C156.907 168.712 134.574 180.976 127.958 183.429H126.304Z" fill="white" stroke="#143C9A" stroke-width="1.0752" stroke-linecap="round" stroke-linejoin="round"/>
<path opacity="0.23" d="M126.183 173.044H124.77C118.414 170.95 99.3466 160.48 90.8719 151.406C82.3984 141.633 78.1609 132.559 78.1609 122.088V80.2063C78.1609 78.8105 78.8673 77.4143 80.2783 76.7166L124.77 61.3599H126.887L170.671 76.7166C172.084 77.4143 172.79 78.8105 172.79 80.2063V120.692C172.79 131.861 169.26 140.935 160.079 150.01C152.31 160.48 133.243 170.951 127.595 173.044L126.183 173.044Z" fill="white"/>
<mask id="mask4_0_897" style="mask-type:alpha" maskUnits="userSpaceOnUse" x="78" y="61" width="95" height="113">
<path fill-rule="evenodd" clip-rule="evenodd" d="M126.183 173.044H124.77C118.414 170.95 99.3466 160.48 90.8719 151.406C82.3984 141.633 78.1609 132.559 78.1609 122.088V80.2063C78.1609 78.8105 78.8673 77.4143 80.2783 76.7166L124.77 61.3599H126.887L170.671 76.7166C172.084 77.4143 172.79 78.8105 172.79 80.2063V120.692C172.79 131.861 169.26 140.935 160.079 150.01C152.31 160.48 133.243 170.951 127.595 173.044L126.183 173.044Z" fill="white"/>
</mask>
<g mask="url(#mask4_0_897)">
<g opacity="0.06">
<path d="M165.437 57.3278L74.8191 207.504L141.641 213.721L205.856 122.89L180.895 73.8688L167.067 63.5442" fill="white"/>
<path d="M165.437 57.3278L74.8191 207.504L141.641 213.721L205.856 122.89L180.895 73.8688L167.067 63.5442" stroke="#143C9A" stroke-width="1.0752" stroke-linecap="round" stroke-linejoin="round"/>
</g>
</g>
<path opacity="0.23" fill-rule="evenodd" clip-rule="evenodd" d="M126.183 173.044H124.77C118.414 170.95 99.3466 160.48 90.8719 151.406C82.3984 141.633 78.1609 132.559 78.1609 122.088V80.2063C78.1609 78.8105 78.8673 77.4143 80.2783 76.7166L124.77 61.3599H126.887L170.671 76.7166C172.084 77.4143 172.79 78.8105 172.79 80.2063V120.692C172.79 131.861 169.26 140.935 160.079 150.01C152.31 160.48 133.243 170.951 127.595 173.044L126.183 173.044Z" stroke="#143C9A" stroke-width="1.0752" stroke-linecap="round" stroke-linejoin="round"/>
<path fill-rule="evenodd" clip-rule="evenodd" d="M140.394 102.791V102.79H137.099V95.278C137.099 88.9885 131.889 83.8785 125.476 83.8785C119.068 83.8785 113.85 88.9952 113.85 95.2793V102.791H110.556C108.975 102.791 107.688 104.054 107.688 105.603V126.165C107.688 127.722 108.975 128.985 110.556 128.985H140.394C141.981 128.985 143.263 127.722 143.263 126.165V105.603C143.269 104.054 141.981 102.791 140.394 102.791ZM127.093 116.421V120.909C127.089 121.115 126.921 121.279 126.716 121.279H124.247C124.042 121.278 123.875 121.114 123.871 120.909V116.421C122.709 115.841 121.906 114.672 121.906 113.31C121.906 111.377 123.505 109.803 125.482 109.803C127.458 109.803 129.057 111.377 129.057 113.309C129.048 114.635 128.286 115.842 127.093 116.421ZM132.644 102.791V102.788L132.651 95.4656C132.651 91.5883 129.44 88.4351 125.487 88.4351C121.535 88.4351 118.319 91.5883 118.319 95.4656V102.791H132.644Z" fill="white"/>
<path d="M140.394 102.79H140.931C140.931 102.493 140.691 102.252 140.394 102.252V102.79ZM140.394 102.791H139.856C139.856 103.088 140.097 103.329 140.394 103.329V102.791ZM137.099 102.79H136.562C136.562 103.087 136.802 103.327 137.099 103.327V102.79ZM113.85 102.791V103.329C114.147 103.329 114.388 103.088 114.388 102.791H113.85ZM143.263 105.603L142.725 105.601V105.603H143.263ZM127.093 120.909L127.63 120.92V120.909H127.093ZM127.093 116.421L126.858 115.938C126.673 116.028 126.555 116.215 126.555 116.421H127.093ZM126.716 121.279V121.817H126.716L126.716 121.279ZM124.247 121.279L124.246 121.817H124.247V121.279ZM123.871 120.909H123.333L123.334 120.92L123.871 120.909ZM123.871 116.421H124.409C124.409 116.218 124.293 116.031 124.111 115.94L123.871 116.421ZM129.057 113.309L129.594 113.312V113.309H129.057ZM132.644 102.788L132.107 102.788V102.788H132.644ZM132.644 102.791V103.329C132.941 103.329 133.182 103.088 133.182 102.791H132.644ZM132.651 95.4656L133.188 95.4661V95.4656H132.651ZM118.319 102.791H117.781C117.781 103.088 118.022 103.329 118.319 103.329V102.791ZM139.856 102.79V102.791H140.931V102.79H139.856ZM137.099 103.327H140.394V102.252H137.099V103.327ZM136.562 95.278V102.79H137.637V95.278H136.562ZM125.476 84.4161C131.602 84.4161 136.562 89.2952 136.562 95.278H137.637C137.637 88.6818 132.176 83.3409 125.476 83.3409V84.4161ZM114.388 95.2793C114.388 89.302 119.355 84.4161 125.476 84.4161V83.3409C118.781 83.3409 113.313 88.6885 113.313 95.2793H114.388ZM114.388 102.791V95.2793H113.313V102.791H114.388ZM110.556 103.329H113.85V102.253H110.556V103.329ZM108.226 105.603C108.226 104.36 109.262 103.329 110.556 103.329V102.253C108.688 102.253 107.151 103.747 107.151 105.603H108.226ZM108.226 126.165V105.603H107.151V126.165H108.226ZM110.556 128.447C109.263 128.447 108.226 127.416 108.226 126.165H107.151C107.151 128.027 108.687 129.522 110.556 129.522V128.447ZM140.394 128.447H110.556V129.522H140.394V128.447ZM142.725 126.165C142.725 127.416 141.693 128.447 140.394 128.447V129.522C142.27 129.522 143.801 128.027 143.801 126.165H142.725ZM142.725 105.603V126.165H143.801V105.603H142.725ZM140.394 103.329C141.696 103.329 142.73 104.361 142.725 105.601L143.801 105.605C143.808 103.746 142.267 102.253 140.394 102.253V103.329ZM127.63 120.909V116.421H126.555V120.909H127.63ZM126.716 121.817C127.214 121.817 127.621 121.418 127.63 120.92L126.555 120.899C126.557 120.811 126.628 120.741 126.716 120.741L126.716 121.817ZM124.247 121.817H126.716V120.741H124.247V121.817ZM123.334 120.92C123.343 121.417 123.748 121.815 124.246 121.817L124.249 120.741C124.336 120.742 124.407 120.811 124.409 120.899L123.334 120.92ZM123.333 116.421V120.909H124.409V116.421H123.333ZM121.369 113.31C121.369 114.892 122.302 116.239 123.631 116.902L124.111 115.94C123.116 115.443 122.444 114.451 122.444 113.31H121.369ZM125.482 109.265C123.218 109.265 121.369 111.071 121.369 113.31H122.444C122.444 111.683 123.793 110.341 125.482 110.341V109.265ZM129.594 113.309C129.594 111.071 127.745 109.265 125.482 109.265V110.341C127.17 110.341 128.519 111.683 128.519 113.309H129.594ZM127.328 116.905C128.705 116.236 129.584 114.844 129.594 113.312L128.519 113.305C128.511 114.427 127.868 115.448 126.858 115.938L127.328 116.905ZM132.107 102.788V102.791H133.182V102.788H132.107ZM132.113 95.4652L132.107 102.788L133.182 102.789L133.188 95.4661L132.113 95.4652ZM125.487 88.9727C129.153 88.9727 132.113 91.8945 132.113 95.4656H133.188C133.188 91.2821 129.728 87.8975 125.487 87.8975V88.9727ZM118.856 95.4656C118.856 91.8951 121.822 88.9727 125.487 88.9727V87.8975C121.248 87.8975 117.781 91.2815 117.781 95.4656H118.856ZM118.856 102.791V95.4656H117.781V102.791H118.856ZM132.644 102.253H118.319V103.329H132.644V102.253Z" fill="#143C9A"/>
<path d="M126.304 185.933H124.649C117.204 183.48 94.8706 171.216 84.9442 160.587C75.0191 149.141 70.0558 138.512 70.0558 126.247V77.1911C70.0558 75.5562 70.8832 73.9208 72.5359 73.1036L124.649 55.1162H127.129L178.413 73.1036C180.068 73.9208 180.895 75.5562 180.895 77.1911V124.613C180.895 137.694 176.761 148.323 166.007 158.952C156.907 171.216 134.574 183.48 127.958 185.933L126.304 185.933Z" fill="white"/>
<mask id="mask5_0_897" style="mask-type:alpha" maskUnits="userSpaceOnUse" x="70" y="55" width="111" height="131">
<path fill-rule="evenodd" clip-rule="evenodd" d="M126.304 185.933H124.649C117.204 183.48 94.8706 171.216 84.9442 160.587C75.0191 149.141 70.0558 138.512 70.0558 126.247V77.1911C70.0558 75.5562 70.8832 73.9208 72.5359 73.1036L124.649 55.1162H127.129L178.413 73.1036C180.068 73.9208 180.895 75.5562 180.895 77.1911V124.613C180.895 137.694 176.761 148.323 166.007 158.952C156.907 171.216 134.574 183.48 127.958 185.933L126.304 185.933Z" fill="white"/>
</mask>
<g mask="url(#mask5_0_897)">
<path d="M97.6171 173.044C136.121 189.426 157.217 171.758 180.895 131.269C204.573 90.7806 183.06 173.044 183.06 173.044L154.456 190.898L114.363 197.278L104.829 176.367" fill="#DAE9FF"/>
</g>
<path fill-rule="evenodd" clip-rule="evenodd" d="M126.304 185.933H124.649C117.204 183.48 94.8706 171.216 84.9442 160.587C75.0191 149.141 70.0558 138.512 70.0558 126.247V77.1911C70.0558 75.5562 70.8832 73.9208 72.5359 73.1036L124.649 55.1162H127.129L178.413 73.1036C180.068 73.9208 180.895 75.5562 180.895 77.1911V124.613C180.895 137.694 176.761 148.323 166.007 158.952C156.907 171.216 134.574 183.48 127.958 185.933L126.304 185.933Z" stroke="#143C9A" stroke-width="1.0752" stroke-linecap="round" stroke-linejoin="round"/>
<path d="M126.183 176.367H124.77C118.414 174.273 99.3466 163.802 90.8719 154.728C82.3984 144.956 78.1609 135.881 78.1609 125.41V83.5286C78.1609 82.1328 78.8673 80.7365 80.2783 80.0389L124.77 64.6821H126.887L170.671 80.0389C172.084 80.7365 172.79 82.1328 172.79 83.5286V124.015C172.79 135.183 169.26 144.257 160.079 153.332C152.31 163.802 133.243 174.273 127.595 176.367H126.183Z" fill="#AFD3FF"/>
<mask id="mask6_0_897" style="mask-type:alpha" maskUnits="userSpaceOnUse" x="78" y="64" width="95" height="113">
<path fill-rule="evenodd" clip-rule="evenodd" d="M126.183 176.367H124.77C118.414 174.273 99.3466 163.802 90.8719 154.728C82.3984 144.956 78.1609 135.881 78.1609 125.41V83.5286C78.1609 82.1328 78.8673 80.7365 80.2783 80.0389L124.77 64.6821H126.887L170.671 80.0389C172.084 80.7365 172.79 82.1328 172.79 83.5286V124.015C172.79 135.183 169.26 144.257 160.079 153.332C152.31 163.802 133.243 174.273 127.595 176.367H126.183Z" fill="white"/>
</mask>
<g mask="url(#mask6_0_897)">
<path opacity="0.06" d="M165.437 60.65L74.8191 210.827L141.641 217.043L205.856 126.212L180.895 77.1912L167.067 66.8666" fill="white"/>
</g>
<path fill-rule="evenodd" clip-rule="evenodd" d="M126.183 176.367H124.77C118.414 174.273 99.3466 163.802 90.8719 154.728C82.3984 144.956 78.1609 135.881 78.1609 125.41V83.5286C78.1609 82.1328 78.8673 80.7365 80.2783 80.0389L124.77 64.6821H126.887L170.671 80.0389C172.084 80.7365 172.79 82.1328 172.79 83.5286V124.015C172.79 135.183 169.26 144.257 160.079 153.332C152.31 163.802 133.243 174.273 127.595 176.367H126.183Z" stroke="#143C9A" stroke-width="1.0752" stroke-linecap="round" stroke-linejoin="round"/>
<path fill-rule="evenodd" clip-rule="evenodd" d="M140.394 107.346V107.348C141.981 107.348 143.269 108.61 143.263 110.16V130.721C143.263 132.278 141.981 133.541 140.394 133.541H110.556C108.975 133.541 107.688 132.278 107.688 130.721V110.16C107.688 108.61 108.975 107.348 110.556 107.348H113.85V99.8358C113.85 93.5517 119.068 88.4351 125.476 88.4351C131.889 88.4351 137.099 93.545 137.099 99.8346V107.346H140.394ZM132.644 107.348V107.345L132.651 100.022C132.651 96.1448 129.44 92.9916 125.487 92.9916C121.535 92.9916 118.319 96.1448 118.319 100.022V107.348H132.644Z" fill="white"/>
<path d="M140.394 107.348H139.856C139.856 107.644 140.097 107.885 140.394 107.885V107.348ZM140.394 107.346H140.931C140.931 107.049 140.691 106.809 140.394 106.809V107.346ZM143.263 110.16L142.725 110.157V110.16H143.263ZM113.85 107.348V107.885C114.147 107.885 114.388 107.644 114.388 107.348H113.85ZM137.099 107.346H136.562C136.562 107.643 136.802 107.884 137.099 107.884V107.346ZM132.644 107.345L132.107 107.344V107.345H132.644ZM132.644 107.348V107.885C132.941 107.885 133.182 107.644 133.182 107.348H132.644ZM132.651 100.022L133.188 100.023V100.022H132.651ZM118.319 107.348H117.781C117.781 107.644 118.022 107.885 118.319 107.885V107.348ZM140.931 107.348V107.346H139.856V107.348H140.931ZM143.801 110.162C143.808 108.302 142.267 106.81 140.394 106.81V107.885C141.696 107.885 142.73 108.918 142.725 110.157L143.801 110.162ZM143.801 130.721V110.16H142.725V130.721H143.801ZM140.394 134.079C142.27 134.079 143.801 132.583 143.801 130.721H142.725C142.725 131.973 141.693 133.004 140.394 133.004V134.079ZM110.556 134.079H140.394V133.004H110.556V134.079ZM107.151 130.721C107.151 132.584 108.687 134.079 110.556 134.079V133.004C109.263 133.004 108.226 131.973 108.226 130.721H107.151ZM107.151 110.16V130.721H108.226V110.16H107.151ZM110.556 106.81C108.688 106.81 107.151 108.303 107.151 110.16H108.226C108.226 108.917 109.262 107.885 110.556 107.885V106.81ZM113.85 106.81H110.556V107.885H113.85V106.81ZM113.313 99.8358V107.348H114.388V99.8358H113.313ZM125.476 87.8975C118.781 87.8975 113.313 93.245 113.313 99.8358H114.388C114.388 93.8585 119.355 88.9727 125.476 88.9727V87.8975ZM137.637 99.8346C137.637 93.2383 132.176 87.8975 125.476 87.8975V88.9727C131.602 88.9727 136.562 93.8517 136.562 99.8346H137.637ZM137.637 107.346V99.8346H136.562V107.346H137.637ZM140.394 106.809H137.099V107.884H140.394V106.809ZM132.107 107.345V107.348H133.182V107.345H132.107ZM132.113 100.022L132.107 107.344L133.182 107.345L133.188 100.023L132.113 100.022ZM125.487 93.5292C129.153 93.5292 132.113 96.451 132.113 100.022H133.188C133.188 95.8386 129.728 92.454 125.487 92.454V93.5292ZM118.856 100.022C118.856 96.4516 121.822 93.5292 125.487 93.5292V92.454C121.248 92.454 117.781 95.838 117.781 100.022H118.856ZM118.856 107.348V100.022H117.781V107.348H118.856ZM132.644 106.81H118.319V107.885H132.644V106.81Z" fill="#143C9A"/>
<path d="M127.093 120.978V125.466C127.089 125.671 126.921 125.836 126.716 125.836H124.247C124.042 125.835 123.875 125.671 123.871 125.466V120.978C122.709 120.398 121.906 119.228 121.906 117.867C121.906 115.933 123.505 114.359 125.482 114.359C127.458 114.359 129.057 115.933 129.057 117.865C129.048 119.192 128.286 120.398 127.093 120.978Z" fill="#DAE9FF"/>
<mask id="mask7_0_897" style="mask-type:alpha" maskUnits="userSpaceOnUse" x="121" y="114" width="9" height="12">
<path fill-rule="evenodd" clip-rule="evenodd" d="M127.093 120.978V125.466C127.089 125.671 126.921 125.836 126.716 125.836H124.247C124.042 125.835 123.875 125.671 123.871 125.466V120.978C122.709 120.398 121.906 119.228 121.906 117.867C121.906 115.933 123.505 114.359 125.482 114.359C127.458 114.359 129.057 115.933 129.057 117.865C129.048 119.192 128.286 120.398 127.093 120.978Z" fill="white"/>
</mask>
<g mask="url(#mask7_0_897)">
<path d="M125.935 121.757V126.245C125.931 126.45 125.763 126.615 125.558 126.615H123.089C122.884 126.614 122.717 126.45 122.713 126.245V121.757C121.551 121.177 120.748 120.007 120.748 118.646C120.748 116.712 122.347 115.139 124.324 115.139C126.299 115.139 127.899 116.712 127.899 118.644C127.889 119.971 127.128 121.178 125.935 121.757Z" fill="white"/>
</g>
<path fill-rule="evenodd" clip-rule="evenodd" d="M127.093 120.978V125.466C127.089 125.671 126.921 125.836 126.716 125.836H124.247C124.042 125.835 123.875 125.671 123.871 125.466V120.978C122.709 120.398 121.906 119.228 121.906 117.867C121.906 115.933 123.505 114.359 125.482 114.359C127.458 114.359 129.057 115.933 129.057 117.865C129.048 119.192 128.286 120.398 127.093 120.978V120.978Z" stroke="#143C9A" stroke-width="1.0752" stroke-linecap="round" stroke-linejoin="round"/>
<path d="M104.035 83.8329C103.363 86.8201 102.008 89.6109 100.076 91.9861" stroke="#143C9A" stroke-width="1.0752" stroke-linecap="round" stroke-linejoin="round"/>
<path d="M144.461 156.494L141.202 159.439" stroke="#143C9A" stroke-width="1.0752" stroke-linecap="round" stroke-linejoin="round"/>
<path d="M211.704 194.421L222.814 226.346L206.482 227.476L197.248 200.29L211.704 194.421Z" fill="white"/>
<mask id="mask8_0_897" style="mask-type:alpha" maskUnits="userSpaceOnUse" x="197" y="194" width="26" height="34">
<path fill-rule="evenodd" clip-rule="evenodd" d="M211.704 194.421L222.814 226.346L206.482 227.476L197.248 200.29L211.704 194.421Z" fill="white"/>
</mask>
<g mask="url(#mask8_0_897)">
<path d="M197.218 210.1C205 209.544 209.809 200.249 213.215 198.764C216.622 197.279 202.515 196.81 202.515 196.81L195.007 200.416" fill="#DAE9FF"/>
</g>
<path fill-rule="evenodd" clip-rule="evenodd" d="M211.704 194.421L222.814 226.346L206.482 227.476L197.248 200.29L211.704 194.421V194.421Z" stroke="#143C9A" stroke-width="1.0752" stroke-linecap="round" stroke-linejoin="round"/>
<path d="M196.95 205.853L216.622 197.279C216.622 197.279 209.796 176.63 209.02 175.768C207.901 174.523 188.408 181.95 188.408 181.95L196.95 205.853Z" fill="#DAE9FF"/>
<mask id="mask9_0_897" style="mask-type:alpha" maskUnits="userSpaceOnUse" x="188" y="175" width="29" height="31">
<path fill-rule="evenodd" clip-rule="evenodd" d="M196.95 205.853L216.622 197.279C216.622 197.279 209.796 176.63 209.02 175.768C207.901 174.523 188.408 181.95 188.408 181.95L196.95 205.853Z" fill="white"/>
</mask>
<g mask="url(#mask9_0_897)">
<path d="M197.248 220.117C205.504 206.414 199.982 186.116 199.982 186.116L185.953 202.216L197.248 220.117Z" fill="#DAE9FF"/>
<path d="M193.194 204.421L217.356 192.677L219.056 199.564L190.918 210.53" fill="#DAE9FF"/>
<path d="M193.194 204.421L217.356 192.677L219.056 199.564L190.918 210.53" stroke="#143C9A" stroke-width="1.0752" stroke-linecap="round" stroke-linejoin="round"/>
</g>
<path fill-rule="evenodd" clip-rule="evenodd" d="M196.95 205.853L216.622 197.279C216.622 197.279 209.796 176.63 209.02 175.768C207.901 174.523 188.408 181.95 188.408 181.95L196.95 205.853Z" stroke="#143C9A" stroke-width="1.0752" stroke-linecap="round" stroke-linejoin="round"/>
<path d="M208.921 175.715C204.016 173.875 183.748 174.216 173.84 174.168C171.385 174.157 169.093 175.395 167.756 177.455L134.825 228.132L188.408 230.276C188.408 230.276 198.156 208.715 204.3 192.678" fill="#DAE9FF"/>
<mask id="mask10_0_897" style="mask-type:alpha" maskUnits="userSpaceOnUse" x="134" y="174" width="75" height="57">
<path fill-rule="evenodd" clip-rule="evenodd" d="M208.921 175.715C204.016 173.875 183.748 174.216 173.84 174.168C171.385 174.157 169.093 175.395 167.756 177.455L134.825 228.132L188.408 230.276C188.408 230.276 198.156 208.715 204.3 192.678" fill="white"/>
</mask>
<g mask="url(#mask10_0_897)">
<path d="M162.622 200.792C136.725 234.938 195.58 223.898 195.58 223.898L190.087 237.502L104.161 230.276L138.688 194.421" fill="#DAE9FF"/>
<ellipse cx="190.918" cy="174.825" rx="18.8502" ry="8.56684" transform="rotate(-83.682 190.918 174.825)" fill="#DAE9FF" stroke="#143C9A" stroke-width="1.0752" stroke-linecap="round" stroke-linejoin="round"/>
<path d="M180.795 199.349L173.037 215.956L191.245 214.396L180.795 199.349Z" fill="#DAE9FF" stroke="#143C9A" stroke-width="1.0752" stroke-linecap="round" stroke-linejoin="round"/>
<ellipse cx="174.393" cy="204.13" rx="6.75838" ry="6.78367" fill="#AFD3FF" stroke="#143C9A" stroke-width="1.0752" stroke-linecap="round" stroke-linejoin="round"/>
<rect x="183.846" y="198.001" width="9.83097" height="9.86775" fill="#AFD3FF" stroke="#143C9A" stroke-width="1.0752" stroke-linecap="round" stroke-linejoin="round"/>
</g>
<path d="M208.921 175.715C204.016 173.875 183.748 174.216 173.84 174.168C171.385 174.157 169.093 175.395 167.756 177.455L134.825 228.132L188.408 230.276C188.408 230.276 198.156 208.715 204.3 192.678" stroke="#143C9A" stroke-width="1.0752" stroke-linecap="round" stroke-linejoin="round"/>
<path d="M83.3164 224.56C85.3872 223.52 167.635 177.024 167.635 177.024L157.999 203.483L116.966 224.56L83.3164 224.56Z" fill="white"/>
<mask id="mask11_0_897" style="mask-type:alpha" maskUnits="userSpaceOnUse" x="83" y="177" width="85" height="48">
<path fill-rule="evenodd" clip-rule="evenodd" d="M83.3164 224.56C85.3872 223.52 167.635 177.024 167.635 177.024L157.999 203.483L116.966 224.56L83.3164 224.56Z" fill="white"/>
</mask>
<g mask="url(#mask11_0_897)">
<path d="M144.119 189.201C135.102 186.043 153.449 202.522 136.22 214.743C119.138 226.861 157.198 210.267 157.198 210.267L154.974 195.694" fill="#DAE9FF"/>
</g>
<path fill-rule="evenodd" clip-rule="evenodd" d="M83.3164 224.56C85.3872 223.52 167.635 177.024 167.635 177.024L157.999 203.483L116.966 224.56L83.3164 224.56Z" stroke="#143C9A" stroke-width="1.0752" stroke-linecap="round" stroke-linejoin="round"/>
<path d="M170.8 174.825L141.039 189.463L149.84 210.53L161.109 205.761" fill="#DAE9FF"/>
<mask id="mask12_0_897" style="mask-type:alpha" maskUnits="userSpaceOnUse" x="141" y="174" width="30" height="37">
<path fill-rule="evenodd" clip-rule="evenodd" d="M170.8 174.825L141.039 189.463L149.84 210.53L161.109 205.761" fill="white"/>
</mask>
<g mask="url(#mask12_0_897)">
<path d="M143.593 186.436L154.775 212.199L140.425 212.51L135.484 185.255" fill="#DAE9FF"/>
<path d="M143.593 186.436L154.775 212.199L140.425 212.51L135.484 185.255" stroke="#143C9A" stroke-width="1.0752" stroke-linecap="round" stroke-linejoin="round"/>
</g>
<path d="M170.8 174.825L141.039 189.463L149.84 210.53L161.109 205.761" stroke="#143C9A" stroke-width="1.0752" stroke-linecap="round" stroke-linejoin="round"/>
<path d="M265.625 223.84H214.633L236.677 191.485C237.536 190.221 238.965 189.464 240.494 189.463H285.978C286.58 189.465 287.131 189.8 287.411 190.332C287.691 190.865 287.654 191.509 287.314 192.006L265.625 223.84Z" fill="white"/>
<path fill-rule="evenodd" clip-rule="evenodd" d="M265.625 223.84H214.633L236.677 191.485C237.536 190.221 238.965 189.464 240.494 189.463H285.978C286.58 189.465 287.131 189.8 287.411 190.332C287.691 190.865 287.654 191.509 287.314 192.006L265.625 223.84Z" stroke="#143C9A" stroke-width="1.0752" stroke-linecap="round" stroke-linejoin="round"/>
<path d="M252.796 210.591C249.649 210.591 248.666 206.974 251.005 204L251.839 202.941C252.971 201.502 254.625 200.605 256.149 200.605C259.296 200.605 260.279 204.222 257.939 207.196L257.106 208.255C255.974 209.695 254.32 210.591 252.796 210.591Z" fill="white" stroke="#143C9A" stroke-width="1.0752" stroke-linecap="round" stroke-linejoin="round"/>
<path d="M265.169 225.628H188.525L188.695 225.083C189.233 223.351 190.834 222.17 192.648 222.168H266.249L265.169 225.628Z" fill="white" stroke="#143C9A" stroke-width="1.0752" stroke-linecap="round" stroke-linejoin="round"/>
<path d="M204.845 162.269L197.248 177.274C197.248 177.274 194.361 191.434 189.12 190.784C183.878 190.134 184.072 174.156 184.072 174.156L191.838 156.424L204.845 162.269Z" fill="white"/>
<mask id="mask13_0_897" style="mask-type:alpha" maskUnits="userSpaceOnUse" x="184" y="156" width="21" height="35">
<path fill-rule="evenodd" clip-rule="evenodd" d="M204.845 162.269L197.248 177.274C197.248 177.274 194.361 191.434 189.12 190.784C183.878 190.134 184.072 174.156 184.072 174.156L191.838 156.424L204.845 162.269Z" fill="white"/>
</mask>
<g mask="url(#mask13_0_897)">
<path d="M194.779 161.201C191.182 177.024 198.697 176.559 197.771 182.436C197.229 185.873 204.427 160.127 204.427 160.127L191.838 156.424" fill="#DAE9FF"/>
</g>
<path fill-rule="evenodd" clip-rule="evenodd" d="M204.845 162.269L197.248 177.274C197.248 177.274 194.361 191.434 189.12 190.784C183.878 190.134 184.072 174.156 184.072 174.156L191.838 156.424L204.845 162.269Z" stroke="#143C9A" stroke-width="1.0752" stroke-linecap="round" stroke-linejoin="round"/>
<path d="M190.918 158.707V144.61C190.916 143.808 191.566 143.156 192.368 143.155H209.413C210.216 143.156 210.865 143.808 210.863 144.61V160.227C210.863 165.755 206.398 170.237 200.891 170.237C198.243 170.239 195.704 169.184 193.839 167.305" fill="white"/>
<mask id="mask14_0_897" style="mask-type:alpha" maskUnits="userSpaceOnUse" x="190" y="143" width="21" height="28">
<path fill-rule="evenodd" clip-rule="evenodd" d="M190.918 158.707V144.61C190.916 143.808 191.566 143.156 192.368 143.155H209.413C210.216 143.156 210.865 143.808 210.863 144.61V160.227C210.863 165.755 206.398 170.237 200.891 170.237C198.243 170.239 195.704 169.184 193.839 167.305" fill="white"/>
</mask>
<g mask="url(#mask14_0_897)">
<path d="M201.436 162.949C201.271 163.811 201.738 164.67 202.552 165.001L201.436 162.949Z" fill="white"/>
<path d="M201.436 162.949C201.271 163.811 201.738 164.67 202.552 165.001" stroke="#143C9A" stroke-width="1.0752" stroke-linecap="round" stroke-linejoin="round"/>
</g>
<path d="M190.918 158.707V144.61C190.916 143.808 191.566 143.156 192.368 143.155H209.413C210.216 143.156 210.865 143.808 210.863 144.61V160.227C210.863 165.755 206.398 170.237 200.891 170.237V170.237C198.243 170.239 195.704 169.184 193.839 167.305" stroke="#143C9A" stroke-width="1.0752" stroke-linecap="round" stroke-linejoin="round"/>
<path d="M211.904 131.023C210.66 131.024 209.428 131.259 208.27 131.715C206.558 130.331 204.423 129.577 202.221 129.579C196.996 129.579 192.748 133.737 192.557 138.936C192.55 138.936 192.545 138.935 192.539 138.935C187.952 138.935 184.234 142.667 184.234 147.271C184.234 151.875 187.952 155.607 192.539 155.607C196.512 155.6 199.926 152.783 200.685 148.883C202.196 149.141 203.748 149.024 205.204 148.542C207.036 150.211 209.426 151.137 211.904 151.137C217.438 151.137 221.924 146.634 221.924 141.08C221.924 135.525 217.438 131.023 211.904 131.023Z" fill="#AFD3FF" stroke="#143C9A" stroke-width="1.0752" stroke-linecap="round" stroke-linejoin="round"/>
<path d="M192.031 159.482C191.056 159.012 190.227 158.283 189.636 157.376C188.04 154.972 188.355 151.948 190.339 150.622C192.323 149.296 195.224 150.17 196.819 152.574C197.306 153.3 197.63 154.123 197.77 154.986" fill="white"/>
<path d="M192.031 159.482C191.056 159.012 190.227 158.283 189.636 157.376C188.04 154.972 188.355 151.948 190.339 150.622C192.323 149.296 195.224 150.17 196.819 152.574C197.306 153.3 197.63 154.123 197.77 154.986" stroke="#143C9A" stroke-width="1.0752" stroke-linecap="round" stroke-linejoin="round"/>
<rect x="70.1244" y="224.56" width="201.102" height="11.0929" fill="#AFD3FF"/>
<rect x="70.1244" y="224.56" width="201.102" height="11.0929" stroke="#143C9A" stroke-width="1.0752" stroke-linecap="round" stroke-linejoin="round"/>
<path d="M192.787 153.433C192.413 153.522 192.103 153.784 191.952 154.138C191.801 154.492 191.827 154.897 192.023 155.229" stroke="#143C9A" stroke-width="1.0752" stroke-linecap="round" stroke-linejoin="round"/>
<path d="M198.905 145.49C199.525 146.21 200.167 146.971 200.378 147.899C200.52 148.522 200.456 149.172 200.391 149.807" stroke="#143C9A" stroke-width="1.0752" stroke-linecap="round" stroke-linejoin="round"/>
<path d="M207.998 131.816C207.228 132.36 206.608 133.089 206.194 133.937" stroke="#143C9A" stroke-width="1.0752" stroke-linecap="round" stroke-linejoin="round"/>
<path d="M210.945 141.548C211.926 141.815 212.939 141.942 213.955 141.928" stroke="#143C9A" stroke-width="1.0752" stroke-linecap="round" stroke-linejoin="round"/>
<path d="M161.927 214.261C162.271 215.791 163.071 217.18 164.22 218.246" stroke="#143C9A" stroke-width="1.0752" stroke-linecap="round" stroke-linejoin="round"/>
<path d="M205.056 183.013L204.268 183.534" stroke="#143C9A" stroke-width="1.0752" stroke-linecap="round" stroke-linejoin="round"/>
<path d="M122.143 205.341L125.02 208.492" stroke="#143C9A" stroke-width="1.0752" stroke-linecap="round" stroke-linejoin="round"/>
<path d="M214.479 212.429L213.432 212.954" stroke="#143C9A" stroke-width="1.0752" stroke-linecap="round" stroke-linejoin="round"/>
<path d="M106.698 182.687C106.704 176.192 102.539 170.428 96.3705 168.394C95.5416 160.878 89.195 155.031 81.4853 155.031C76.9707 155.029 72.6979 157.07 69.8627 160.583C68.277 159.899 66.568 159.547 64.841 159.549C59.3818 159.549 54.727 162.999 52.9186 167.845C45.7865 168.998 40.3381 175.203 40.3381 182.687C40.3381 190.991 47.0448 197.723 55.3178 197.723V197.737H92.7827V197.681C100.558 197.132 106.698 190.631 106.698 182.687Z" fill="#DAE9FF" stroke="#143C9A" stroke-width="1.0752" stroke-linecap="round" stroke-linejoin="round"/>
</g>
<path d="M239.882 128.044L234.448 135.925" stroke="#143C9A" stroke-width="1.0752" stroke-linecap="round" stroke-linejoin="round"/>
<path d="M253.131 54.129L247.697 60.8017" stroke="#143C9A" stroke-width="1.0752" stroke-linecap="round" stroke-linejoin="round"/>
<path d="M244.01 199.413L242.8 201.23" stroke="#143C9A" stroke-width="1.0752" stroke-linecap="round" stroke-linejoin="round"/>
<path d="M83.5569 180.019L79.9164 183.037" stroke="#143C9A" stroke-width="1.0752" stroke-linecap="round" stroke-linejoin="round"/>
</svg>
