<svg width="302" height="291" viewBox="0 0 302 291" fill="none" xmlns="http://www.w3.org/2000/svg">
<path fill-rule="evenodd" clip-rule="evenodd" d="M151 117.612L301 204.037L151 290.463L1 204.037L151 117.612Z" stroke="#3364ED" stroke-width="0.540117" stroke-linecap="round" stroke-linejoin="round" stroke-dasharray="2.16 2.16 2.16 2.16"/>
<path fill-rule="evenodd" clip-rule="evenodd" d="M25.1449 218.289C25.5914 217.516 26.5794 217.249 27.3541 217.693L50.9411 231.217C51.7191 231.663 51.9868 232.656 51.5384 233.433C51.0919 234.206 50.1038 234.473 49.3291 234.028L25.7421 220.505C24.9641 220.059 24.6965 219.066 25.1449 218.289Z" fill="url(#paint0_linear_4_988)"/>
<path fill-rule="evenodd" clip-rule="evenodd" d="M50.1895 234.286C51.0851 234.286 51.8111 233.561 51.8111 232.666C51.8111 231.771 51.0851 231.045 50.1895 231.045C49.2939 231.045 48.5679 231.771 48.5679 232.666C48.5679 233.561 49.2939 234.286 50.1895 234.286Z" fill="#3DBEFF"/>
<path fill-rule="evenodd" clip-rule="evenodd" d="M252.531 231.793C252.084 231.02 251.096 230.753 250.321 231.197L226.734 244.721C225.956 245.167 225.689 246.16 226.137 246.937C226.584 247.71 227.572 247.977 228.346 247.532L251.933 234.009C252.711 233.563 252.979 232.57 252.531 231.793Z" fill="url(#paint1_linear_4_988)"/>
<path fill-rule="evenodd" clip-rule="evenodd" d="M251.811 233.746C250.915 233.746 250.189 233.021 250.189 232.126C250.189 231.231 250.915 230.505 251.811 230.505C252.706 230.505 253.432 231.231 253.432 232.126C253.432 233.021 252.706 233.746 251.811 233.746Z" fill="#3DBEFF"/>
<path fill-rule="evenodd" clip-rule="evenodd" d="M151 107.889L301 194.315L151 280.74L1 194.315L151 107.889Z" fill="#D7E2F6"/>
<path fill-rule="evenodd" clip-rule="evenodd" d="M168.973 103.874L169.243 104.341L151 114.872L169.007 125.266L187.351 114.677L187.622 115.145L169.547 125.578L187.284 135.815L205.189 125.48L205.46 125.948L187.824 136.127L206.372 146.833L224.649 136.283L224.919 136.751L206.912 147.145L225.189 157.695L243.568 147.087L243.838 147.554L225.73 158.007L244.475 168.827L262.486 158.43L262.757 158.898L245.015 169.138L263.292 179.688L281.406 169.233L281.676 169.701L263.833 180L281.676 190.299L281.405 190.767L263.292 180.312L245.285 190.706L263.298 201.103L263.027 201.57L244.745 191.018L227.008 201.256L245.46 211.906L245.189 212.374L226.468 201.568L207.921 212.273L226 222.709L225.73 223.177L207.38 212.585L189.103 223.135L207.081 233.512L206.811 233.98L188.563 223.447L169.818 234.267L188.162 244.856L187.892 245.323L169.277 234.579L151 245.129L169.243 255.659L168.973 256.127L150.46 245.441L131.946 256.127L131.676 255.659L149.919 245.129L131.642 234.579L113.027 245.323L112.757 244.856L131.102 234.267L112.357 223.447L94.1083 233.98L93.8379 233.512L111.816 223.135L93.5389 212.585L75.1893 223.177L74.9189 222.709L92.9986 212.273L74.4511 201.568L55.7298 212.374L55.4595 211.906L73.9107 201.256L56.174 191.018L37.8919 201.57L37.6216 201.103L55.6337 190.706L37.6267 180.312L19.5135 190.767L19.2432 190.299L37.0864 180L19.2433 169.701L19.5136 169.233L37.6267 179.688L55.9039 169.138L38.1622 158.898L38.4326 158.43L56.4443 168.827L75.1894 158.007L57.0812 147.554L57.3515 147.087L75.7298 157.695L94.007 147.145L76.0001 136.751L76.2705 136.283L94.5474 146.833L113.095 136.127L95.4596 125.948L95.7299 125.48L113.635 135.815L131.372 125.577L113.297 115.145L113.568 114.677L131.912 125.266L149.919 114.872L131.676 104.341L131.946 103.874L150.459 114.56L168.973 103.874ZM150.459 115.184L132.453 125.577L150.46 135.971L168.466 125.578L150.459 115.184ZM131.912 125.889L114.176 136.127L132.183 146.521L149.919 136.283L131.912 125.889ZM113.635 136.439L95.0877 147.145L113.095 157.539L131.642 146.833L113.635 136.439ZM94.5474 147.457L76.2701 158.007L94.2771 168.4L112.554 157.851L94.5474 147.457ZM75.7298 158.319L56.9846 169.138L74.9916 179.532L93.7367 168.712L75.7298 158.319ZM56.4443 169.45L38.1671 180L56.174 190.394L74.4513 179.844L56.4443 169.45ZM151 136.283L169.007 125.889L186.743 136.127L168.737 146.521L151 136.283ZM132.723 146.833L150.46 136.595L168.196 146.833L150.46 157.071L132.723 146.833ZM113.635 157.851L132.183 147.145L149.919 157.383L131.372 168.088L113.635 157.851ZM94.8174 168.712L113.095 158.163L130.831 168.4L112.554 178.95L94.8174 168.712ZM75.532 179.844L94.2771 169.024L112.014 179.262L93.2687 190.082L75.532 179.844ZM56.7144 190.706L74.9916 180.156L92.7283 190.394L74.4511 200.944L56.7144 190.706ZM187.284 136.439L169.277 146.833L187.824 157.539L205.831 147.145L187.284 136.439ZM168.737 147.145L151 157.383L169.547 168.088L187.284 157.851L168.737 147.145ZM150.46 157.695L131.912 168.4L150.46 179.106L169.007 168.4L150.46 157.695ZM131.372 168.712L113.094 179.262L131.642 189.968L149.919 179.418L131.372 168.712ZM112.554 179.574L93.809 190.394L112.357 201.1L131.102 190.28L112.554 179.574ZM93.2687 190.706L74.9914 201.256L93.5389 211.961L111.816 201.412L93.2687 190.706ZM188.365 157.851L206.372 147.457L224.649 158.007L206.642 168.4L188.365 157.851ZM170.088 168.4L187.824 158.163L206.102 168.712L188.365 178.95L170.088 168.4ZM151 179.418L169.547 168.712L187.825 179.262L169.277 189.968L151 179.418ZM132.182 190.28L150.46 179.73L168.737 190.28L150.46 200.83L132.182 190.28ZM112.897 201.412L131.642 190.592L149.919 201.142L131.174 211.961L112.897 201.412ZM94.0793 212.273L112.357 201.724L130.634 212.273L112.357 222.823L94.0793 212.273ZM225.189 158.319L207.182 168.712L225.927 179.532L243.934 169.138L225.189 158.319ZM206.642 169.024L188.905 179.262L207.65 190.082L225.387 179.844L206.642 169.024ZM188.365 179.574L169.817 190.28L188.562 201.1L207.11 190.394L188.365 179.574ZM169.277 190.592L151 201.142L169.745 211.961L188.022 201.412L169.277 190.592ZM150.46 201.453L131.714 212.273L150.459 223.093L169.205 212.273L150.46 201.453ZM131.174 212.585L112.897 223.135L131.642 233.955L149.919 223.405L131.174 212.585ZM226.468 179.844L244.475 169.45L262.752 180L244.745 190.394L226.468 179.844ZM208.191 190.394L225.927 180.156L244.205 190.706L226.468 200.944L208.191 190.394ZM189.103 201.412L207.65 190.706L225.928 201.256L207.38 211.961L189.103 201.412ZM170.285 212.273L188.562 201.723L206.84 212.273L188.563 222.823L170.285 212.273ZM151 223.405L169.745 212.585L188.022 223.135L169.277 233.955L151 223.405ZM132.182 234.267L150.459 223.717L168.737 234.267L150.46 244.817L132.182 234.267Z" fill="#96CFFF"/>
<mask id="mask0_4_988" style="mask-type:alpha" maskUnits="userSpaceOnUse" x="19" y="103" width="263" height="154">
<path fill-rule="evenodd" clip-rule="evenodd" d="M168.973 103.874L169.243 104.341L151 114.872L169.007 125.266L187.351 114.677L187.622 115.145L169.547 125.578L187.284 135.815L205.189 125.48L205.46 125.948L187.824 136.127L206.372 146.833L224.649 136.283L224.919 136.751L206.912 147.145L225.189 157.695L243.568 147.087L243.838 147.554L225.73 158.007L244.475 168.827L262.486 158.43L262.757 158.898L245.015 169.138L263.292 179.688L281.406 169.233L281.676 169.701L263.833 180L281.676 190.299L281.405 190.767L263.292 180.312L245.285 190.706L263.298 201.103L263.027 201.57L244.745 191.018L227.008 201.256L245.46 211.906L245.189 212.374L226.468 201.568L207.921 212.273L226 222.709L225.73 223.177L207.38 212.585L189.103 223.135L207.081 233.512L206.811 233.98L188.563 223.447L169.818 234.267L188.162 244.856L187.892 245.323L169.277 234.579L151 245.129L169.243 255.659L168.973 256.127L150.46 245.441L131.946 256.127L131.676 255.659L149.919 245.129L131.642 234.579L113.027 245.323L112.757 244.856L131.102 234.267L112.357 223.447L94.1083 233.98L93.8379 233.512L111.816 223.135L93.5389 212.585L75.1893 223.177L74.9189 222.709L92.9986 212.273L74.4511 201.568L55.7298 212.374L55.4595 211.906L73.9107 201.256L56.174 191.018L37.8919 201.57L37.6216 201.103L55.6337 190.706L37.6267 180.312L19.5135 190.767L19.2432 190.299L37.0864 180L19.2433 169.701L19.5136 169.233L37.6267 179.688L55.9039 169.138L38.1622 158.898L38.4326 158.43L56.4443 168.827L75.1894 158.007L57.0812 147.554L57.3515 147.087L75.7298 157.695L94.007 147.145L76.0001 136.751L76.2705 136.283L94.5474 146.833L113.095 136.127L95.4596 125.948L95.7299 125.48L113.635 135.815L131.372 125.577L113.297 115.145L113.568 114.677L131.912 125.266L149.919 114.872L131.676 104.341L131.946 103.874L150.459 114.56L168.973 103.874ZM150.459 115.184L132.453 125.577L150.46 135.971L168.466 125.578L150.459 115.184ZM131.912 125.889L114.176 136.127L132.183 146.521L149.919 136.283L131.912 125.889ZM113.635 136.439L95.0877 147.145L113.095 157.539L131.642 146.833L113.635 136.439ZM94.5474 147.457L76.2701 158.007L94.2771 168.4L112.554 157.851L94.5474 147.457ZM75.7298 158.319L56.9846 169.138L74.9916 179.532L93.7367 168.712L75.7298 158.319ZM56.4443 169.45L38.1671 180L56.174 190.394L74.4513 179.844L56.4443 169.45ZM151 136.283L169.007 125.889L186.743 136.127L168.737 146.521L151 136.283ZM132.723 146.833L150.46 136.595L168.196 146.833L150.46 157.071L132.723 146.833ZM113.635 157.851L132.183 147.145L149.919 157.383L131.372 168.088L113.635 157.851ZM94.8174 168.712L113.095 158.163L130.831 168.4L112.554 178.95L94.8174 168.712ZM75.532 179.844L94.2771 169.024L112.014 179.262L93.2687 190.082L75.532 179.844ZM56.7144 190.706L74.9916 180.156L92.7283 190.394L74.4511 200.944L56.7144 190.706ZM187.284 136.439L169.277 146.833L187.824 157.539L205.831 147.145L187.284 136.439ZM168.737 147.145L151 157.383L169.547 168.088L187.284 157.851L168.737 147.145ZM150.46 157.695L131.912 168.4L150.46 179.106L169.007 168.4L150.46 157.695ZM131.372 168.712L113.094 179.262L131.642 189.968L149.919 179.418L131.372 168.712ZM112.554 179.574L93.809 190.394L112.357 201.1L131.102 190.28L112.554 179.574ZM93.2687 190.706L74.9914 201.256L93.5389 211.961L111.816 201.412L93.2687 190.706ZM188.365 157.851L206.372 147.457L224.649 158.007L206.642 168.4L188.365 157.851ZM170.088 168.4L187.824 158.163L206.102 168.712L188.365 178.95L170.088 168.4ZM151 179.418L169.547 168.712L187.825 179.262L169.277 189.968L151 179.418ZM132.182 190.28L150.46 179.73L168.737 190.28L150.46 200.83L132.182 190.28ZM112.897 201.412L131.642 190.592L149.919 201.142L131.174 211.961L112.897 201.412ZM94.0793 212.273L112.357 201.724L130.634 212.273L112.357 222.823L94.0793 212.273ZM225.189 158.319L207.182 168.712L225.927 179.532L243.934 169.138L225.189 158.319ZM206.642 169.024L188.905 179.262L207.65 190.082L225.387 179.844L206.642 169.024ZM188.365 179.574L169.817 190.28L188.562 201.1L207.11 190.394L188.365 179.574ZM169.277 190.592L151 201.142L169.745 211.961L188.022 201.412L169.277 190.592ZM150.46 201.453L131.714 212.273L150.459 223.093L169.205 212.273L150.46 201.453ZM131.174 212.585L112.897 223.135L131.642 233.955L149.919 223.405L131.174 212.585ZM226.468 179.844L244.475 169.45L262.752 180L244.745 190.394L226.468 179.844ZM208.191 190.394L225.927 180.156L244.205 190.706L226.468 200.944L208.191 190.394ZM189.103 201.412L207.65 190.706L225.928 201.256L207.38 211.961L189.103 201.412ZM170.285 212.273L188.562 201.723L206.84 212.273L188.563 222.823L170.285 212.273ZM151 223.405L169.745 212.585L188.022 223.135L169.277 233.955L151 223.405ZM132.182 234.267L150.459 223.717L168.737 234.267L150.46 244.817L132.182 234.267Z" fill="white"/>
</mask>
<g mask="url(#mask0_4_988)">
<path fill-rule="evenodd" clip-rule="evenodd" d="M150.73 195.395C192.226 195.395 225.865 166.132 225.865 130.035C225.865 93.9383 192.226 64.6758 150.73 64.6758C109.234 64.6758 75.5947 93.9383 75.5947 130.035C75.5947 166.132 109.234 195.395 150.73 195.395Z" fill="url(#paint2_radial_4_988)"/>
</g>
<path d="M1.5372 179.73L150.73 93.4496L299.922 179.73L150.73 266.011L1.5372 179.73Z" stroke="#3364ED" stroke-width="0.540117" stroke-linecap="round"/>
<path fill-rule="evenodd" clip-rule="evenodd" d="M150.73 266.156L300.459 179.73V185.672L150.73 272.098V266.156Z" fill="url(#paint3_linear_4_988)"/>
<path fill-rule="evenodd" clip-rule="evenodd" d="M1 179.19L150.73 265.616V271.558L1 185.132V179.19Z" fill="url(#paint4_linear_4_988)"/>
<path d="M244.805 169.085L262.659 179.589" stroke="#3364ED" stroke-width="0.540117"/>
<path d="M262.492 92.0131V179.884" stroke="#3768EE" stroke-width="0.540117" stroke-dasharray="2.16 2.16 2.16 2.16"/>
<path fill-rule="evenodd" clip-rule="evenodd" d="M262.081 90.0634L280.459 100.326V117.612L262.081 107.349V90.0634Z" fill="url(#paint5_linear_4_988)"/>
<path fill-rule="evenodd" clip-rule="evenodd" d="M271 98.9296C272.055 99.5483 272.911 101.261 272.911 102.755C272.911 104.248 272.055 104.958 271 104.339C269.944 103.72 269.088 102.007 269.088 100.514C269.088 99.0201 269.944 98.3109 271 98.9296ZM269.722 103.742C270.503 104.898 271.497 105.481 272.277 105.24C273.973 107.14 273.973 108.865 273.973 110.59L268.027 107.104C268.027 105.379 268.027 103.655 269.722 103.742Z" fill="#3767EF"/>
<path d="M56.5964 168.917L37.2246 179.973" stroke="#3364ED" stroke-width="0.540117"/>
<path d="M37.6279 129.953V179.884" stroke="#3768EE" stroke-width="0.540117" stroke-dasharray="2.16 2.16 2.16 2.16"/>
<path fill-rule="evenodd" clip-rule="evenodd" d="M38.2974 128.415L19.919 138.678V155.963L38.2974 145.7V128.415Z" fill="url(#paint6_linear_4_988)"/>
<path d="M180.934 196.935L207.037 212.024V200.859" stroke="#3364ED" stroke-width="0.540117"/>
<path fill-rule="evenodd" clip-rule="evenodd" d="M206.945 200.796C208.139 200.796 209.108 199.829 209.108 198.636C209.108 197.442 208.139 196.475 206.945 196.475C205.751 196.475 204.783 197.442 204.783 198.636C204.783 199.829 205.751 200.796 206.945 200.796Z" fill="white" stroke="#3364ED" stroke-width="0.540117"/>
<path d="M113.89 244.422L131.495 234.259L150.558 244.962L169.378 234.259V221.246" stroke="#3364ED" stroke-width="0.540117"/>
<path fill-rule="evenodd" clip-rule="evenodd" d="M169.378 222.943C170.721 222.943 171.81 221.855 171.81 220.512C171.81 219.17 170.721 218.082 169.378 218.082C168.035 218.082 166.946 219.17 166.946 220.512C166.946 221.855 168.035 222.943 169.378 222.943Z" fill="white" stroke="#3364ED" stroke-width="0.540117"/>
<path d="M159.33 195.38L112.717 223.19L93.6233 211.922V202.109" stroke="#3364ED" stroke-width="0.540117"/>
<path fill-rule="evenodd" clip-rule="evenodd" d="M93.7025 201.877C95.0458 201.877 96.1349 200.788 96.1349 199.446C96.1349 198.104 95.0458 197.015 93.7025 197.015C92.3591 197.015 91.27 198.104 91.27 199.446C91.27 200.788 92.3591 201.877 93.7025 201.877Z" fill="white" stroke="#3364ED" stroke-width="0.540117"/>
<path fill-rule="evenodd" clip-rule="evenodd" d="M113.432 58.7341L150.729 80.3405V157.584L113.432 135.977V58.7341Z" fill="url(#paint7_linear_4_988)"/>
<path fill-rule="evenodd" clip-rule="evenodd" d="M116.675 60.3546L117.215 60.9143V137.598L116.675 137.038V60.3546ZM120.458 62.5152L120.999 63.075V139.758L120.458 139.199V62.5152ZM124.242 64.6759L124.783 65.2356V141.919L124.242 141.359V64.6759ZM128.026 66.8365L128.567 67.3963V144.08L128.026 143.52V66.8365ZM131.81 68.9972L132.351 69.5569V146.24L131.81 145.68V68.9972ZM135.594 71.1578L136.134 71.7176V148.401L135.594 147.841V71.1578ZM139.378 73.3185L139.918 73.8782V150.562L139.378 150.002V73.3185ZM143.161 75.4791L143.702 76.0388V152.722L143.161 152.162V75.4791ZM146.945 77.6398L147.486 78.1995V154.883L146.945 154.323V77.6398Z" fill="url(#paint8_linear_4_988)"/>
<path fill-rule="evenodd" clip-rule="evenodd" d="M146.405 82.5012L148.026 83.5815V88.4429L146.405 87.3626V82.5012Z" fill="#79DAFF"/>
<path fill-rule="evenodd" clip-rule="evenodd" d="M142.621 99.7863L144.243 100.867V105.728L142.621 104.648V99.7863Z" fill="#79DAFF"/>
<path fill-rule="evenodd" clip-rule="evenodd" d="M138.837 121.393L140.459 122.473V127.335L138.837 126.254V121.393Z" fill="#79DAFF"/>
<path fill-rule="evenodd" clip-rule="evenodd" d="M131.27 86.2823L132.891 87.3626V92.2241L131.27 91.1438V86.2823Z" fill="#79DAFF"/>
<path fill-rule="evenodd" clip-rule="evenodd" d="M131.27 107.349L132.891 108.429V110.59L131.27 109.509V107.349Z" fill="#FF7777"/>
<path fill-rule="evenodd" clip-rule="evenodd" d="M138.837 80.8807L140.459 81.961V84.1217L138.837 83.0414V80.8807Z" fill="#FF7777"/>
<path fill-rule="evenodd" clip-rule="evenodd" d="M127.486 66.8365L129.108 67.9168V70.0775L127.486 68.9972V66.8365Z" fill="#FF7777"/>
<path fill-rule="evenodd" clip-rule="evenodd" d="M119.918 81.4208L121.54 82.5012V84.6618L119.918 83.5815V81.4208Z" fill="#FF7777"/>
<path fill-rule="evenodd" clip-rule="evenodd" d="M123.702 97.0855L125.324 98.1659V103.027L123.702 101.947V97.0855Z" fill="#79DAFF"/>
<path fill-rule="evenodd" clip-rule="evenodd" d="M119.918 66.2963L121.54 67.3766V72.2381L119.918 71.1578V66.2963Z" fill="#79DAFF"/>
<path fill-rule="evenodd" clip-rule="evenodd" d="M150.729 37.1276L188.027 58.7341L150.729 80.3405L113.432 58.7341L150.729 37.1276Z" fill="url(#paint9_linear_4_988)"/>
<path fill-rule="evenodd" clip-rule="evenodd" d="M188.027 58.7341L150.73 80.3405V157.584L188.027 135.977V58.7341Z" fill="url(#paint10_linear_4_988)"/>
<path fill-rule="evenodd" clip-rule="evenodd" d="M183.162 88.4429L156.135 104.108V114.911L183.162 99.2462V88.4429ZM183.162 103.567L156.135 119.232V130.035L183.162 114.371V103.567ZM156.135 134.357L183.162 118.692V129.495L156.135 145.16V134.357Z" fill="white" fill-opacity="0.11"/>
<path fill-rule="evenodd" clip-rule="evenodd" d="M183.162 66.8365L179.919 68.7171V70.6176L183.162 68.7371V66.8365Z" fill="#FF5730"/>
<path fill-rule="evenodd" clip-rule="evenodd" d="M150.729 0H166.945V58.9454L150.729 68.3395L134.513 58.9454V0.284836H150.729V0Z" fill="url(#paint11_linear_4_988)"/>
<path fill-rule="evenodd" clip-rule="evenodd" d="M150.729 49.5513L166.945 58.9454L150.729 68.3395L134.513 58.9454L150.729 49.5513Z" fill="url(#paint12_linear_4_988)"/>
<path fill-rule="evenodd" clip-rule="evenodd" d="M141.27 46.3104C141.718 46.3104 142.081 45.9476 142.081 45.5001C142.081 45.0526 141.718 44.6899 141.27 44.6899C140.822 44.6899 140.459 45.0526 140.459 45.5001C140.459 45.9476 140.822 46.3104 141.27 46.3104Z" fill="#EFF7FF"/>
<path fill-rule="evenodd" clip-rule="evenodd" d="M159.378 40.9088C159.676 40.9088 159.918 40.6669 159.918 40.3686C159.918 40.0703 159.676 39.8284 159.378 39.8284C159.079 39.8284 158.837 40.0703 158.837 40.3686C158.837 40.6669 159.079 40.9088 159.378 40.9088Z" fill="#EFF7FF"/>
<path fill-rule="evenodd" clip-rule="evenodd" d="M153.432 31.1859C153.731 31.1859 153.973 30.944 153.973 30.6457C153.973 30.3474 153.731 30.1055 153.432 30.1055C153.134 30.1055 152.892 30.3474 152.892 30.6457C152.892 30.944 153.134 31.1859 153.432 31.1859Z" fill="#EFF7FF"/>
<path fill-rule="evenodd" clip-rule="evenodd" d="M143.702 37.1276C144.001 37.1276 144.243 36.8858 144.243 36.5875C144.243 36.2891 144.001 36.0473 143.702 36.0473C143.404 36.0473 143.162 36.2891 143.162 36.5875C143.162 36.8858 143.404 37.1276 143.702 37.1276Z" fill="#EFF7FF"/>
<path opacity="0.3" fill-rule="evenodd" clip-rule="evenodd" d="M130.73 125.174L93.4327 103.567V147.32L130.73 168.927V125.174Z" fill="#3364ED"/>
<path opacity="0.701597" fill-rule="evenodd" clip-rule="evenodd" d="M93.4324 190.533L56.1351 168.927L93.973 146.78L131.27 168.387L93.4324 190.533Z" fill="#3364ED"/>
<path opacity="0.5" fill-rule="evenodd" clip-rule="evenodd" d="M56.1353 125.174L93.4326 103.567V147.32L56.1353 168.927V125.174Z" fill="#3364ED"/>
<path fill-rule="evenodd" clip-rule="evenodd" d="M64.2439 129.816L93.7034 146.882V181.441L64.2439 164.375V129.816Z" fill="url(#paint13_linear_4_988)"/>
<path fill-rule="evenodd" clip-rule="evenodd" d="M93.7034 112.75L123.163 129.816L93.7034 146.882L64.2439 129.816L93.7034 112.75Z" fill="url(#paint14_linear_4_988)"/>
<path fill-rule="evenodd" clip-rule="evenodd" d="M123.163 129.816L93.7034 146.882V181.441L123.163 164.375V129.816Z" fill="url(#paint15_linear_4_988)"/>
<path fill-rule="evenodd" clip-rule="evenodd" d="M56.1353 125.174L93.4325 146.78V190.533L56.1353 168.927V125.174Z" stroke="url(#paint16_linear_4_988)" stroke-width="1.08023" stroke-linejoin="round"/>
<path fill-rule="evenodd" clip-rule="evenodd" d="M130.73 125.174L93.4327 146.78V190.533L130.73 168.927V125.174Z" stroke="url(#paint17_linear_4_988)" stroke-width="1.08023" stroke-linejoin="round"/>
<path fill-rule="evenodd" clip-rule="evenodd" d="M93.4328 103.567L130.73 125.174L93.4328 146.78L56.1355 125.174L93.4328 103.567Z" stroke="url(#paint18_linear_4_988)" stroke-width="1.08023" stroke-linejoin="round"/>
<path fill-rule="evenodd" clip-rule="evenodd" d="M89.649 130.035C90.246 130.035 90.73 129.552 90.73 128.955C90.73 128.358 90.246 127.875 89.649 127.875C89.0519 127.875 88.5679 128.358 88.5679 128.955C88.5679 129.552 89.0519 130.035 89.649 130.035Z" fill="#A2FF74"/>
<path fill-rule="evenodd" clip-rule="evenodd" d="M105.865 131.116C106.462 131.116 106.946 130.632 106.946 130.035C106.946 129.439 106.462 128.955 105.865 128.955C105.268 128.955 104.784 129.439 104.784 130.035C104.784 130.632 105.268 131.116 105.865 131.116Z" fill="#A2FF74"/>
<path fill-rule="evenodd" clip-rule="evenodd" d="M98.2979 124.634C98.8949 124.634 99.379 124.15 99.379 123.553C99.379 122.957 98.8949 122.473 98.2979 122.473C97.7008 122.473 97.2168 122.957 97.2168 123.553C97.2168 124.15 97.7008 124.634 98.2979 124.634Z" fill="#A2FF74"/>
<path fill-rule="evenodd" clip-rule="evenodd" d="M96.1355 135.977C96.7326 135.977 97.2166 135.493 97.2166 134.897C97.2166 134.3 96.7326 133.816 96.1355 133.816C95.5385 133.816 95.0544 134.3 95.0544 134.897C95.0544 135.493 95.5385 135.977 96.1355 135.977Z" fill="#A2FF74"/>
<path fill-rule="evenodd" clip-rule="evenodd" d="M79.9192 131.116C80.5163 131.116 81.0003 130.632 81.0003 130.035C81.0003 129.439 80.5163 128.955 79.9192 128.955C79.3222 128.955 78.8381 129.439 78.8381 130.035C78.8381 130.632 79.3222 131.116 79.9192 131.116Z" fill="#A2FF74"/>
<path fill-rule="evenodd" clip-rule="evenodd" d="M187.486 96.0052L225.865 118.152V179.73L187.486 157.584V96.0052Z" fill="url(#paint19_linear_4_988)" stroke="url(#paint20_linear_4_988)" stroke-width="1.08023" stroke-linejoin="round"/>
<path fill-rule="evenodd" clip-rule="evenodd" d="M192.351 110.049L195.054 111.67V115.451L192.351 113.83V110.049Z" fill="url(#paint21_linear_4_988)"/>
<path fill-rule="evenodd" clip-rule="evenodd" d="M198.838 124.094L201.54 125.714V129.495L198.838 127.875V124.094Z" fill="url(#paint22_linear_4_988)"/>
<path fill-rule="evenodd" clip-rule="evenodd" d="M208.027 135.437L210.729 137.057V140.839L208.027 139.218V135.437Z" fill="url(#paint23_linear_4_988)"/>
<path fill-rule="evenodd" clip-rule="evenodd" d="M212.351 149.481L215.054 151.102V154.883L212.351 153.262V149.481Z" fill="url(#paint24_linear_4_988)"/>
<path fill-rule="evenodd" clip-rule="evenodd" d="M192.892 137.057L195.594 138.678V142.459L192.892 140.839V137.057Z" fill="url(#paint25_linear_4_988)"/>
<path fill-rule="evenodd" clip-rule="evenodd" d="M205.324 112.21L208.027 113.831V117.612L205.324 115.991V112.21Z" fill="url(#paint26_linear_4_988)"/>
<path fill-rule="evenodd" clip-rule="evenodd" d="M216.135 124.094L218.837 125.714V129.495L216.135 127.875V124.094Z" fill="url(#paint27_linear_4_988)"/>
<path fill-rule="evenodd" clip-rule="evenodd" d="M205.865 85.202L244.784 107.349L225.865 118.152L187.486 96.0052L205.865 85.202Z" fill="url(#paint28_linear_4_988)" stroke="#5AC8FF" stroke-width="1.08023" stroke-linejoin="round"/>
<path fill-rule="evenodd" clip-rule="evenodd" d="M244.783 107.889L225.865 118.692V179.73L244.783 168.927V107.889Z" fill="url(#paint29_linear_4_988)" stroke="url(#paint30_linear_4_988)" stroke-width="1.08023" stroke-linejoin="round"/>
<path fill-rule="evenodd" clip-rule="evenodd" d="M230.73 122.262L241 116.531V117.823L230.73 123.553V122.262Z" fill="white"/>
<path fill-rule="evenodd" clip-rule="evenodd" d="M230.73 127.663L241 121.933V123.225L230.73 128.955V127.663Z" fill="white"/>
<path fill-rule="evenodd" clip-rule="evenodd" d="M230.73 133.065L241 127.335V128.626L230.73 134.357V133.065Z" fill="white"/>
<path fill-rule="evenodd" clip-rule="evenodd" d="M230.73 138.467L241 132.736V134.028L230.73 139.758V138.467Z" fill="white"/>
<path fill-rule="evenodd" clip-rule="evenodd" d="M230.73 143.868L241 138.138V139.429L230.73 145.16V143.868Z" fill="white"/>
<path fill-rule="evenodd" clip-rule="evenodd" d="M141.541 128.415L167.486 143.539V205.118L141.541 189.993V128.415Z" fill="url(#paint31_linear_4_988)"/>
<path fill-rule="evenodd" clip-rule="evenodd" d="M193.432 128.415L167.486 143.539V205.118L193.432 189.993V128.415Z" fill="url(#paint32_linear_4_988)"/>
<path fill-rule="evenodd" clip-rule="evenodd" d="M167.486 113.29L193.432 128.415L167.486 143.539L141.541 128.415L167.486 113.29Z" fill="url(#paint33_linear_4_988)"/>
<path fill-rule="evenodd" clip-rule="evenodd" d="M167.757 85.7421H179.378V127.986L167.757 134.719L167.757 134.719L156.135 127.986V85.9463H167.757V85.7421Z" fill="url(#paint34_linear_4_988)"/>
<path fill-rule="evenodd" clip-rule="evenodd" d="M167.757 121.393L179.378 128.125L167.757 134.858L156.135 128.125L167.757 121.393Z" fill="url(#paint35_linear_4_988)"/>
<path fill-rule="evenodd" clip-rule="evenodd" d="M167.593 110.049L159.919 120.859L167.593 125.417V110.049Z" fill="url(#paint36_linear_4_988)"/>
<path fill-rule="evenodd" clip-rule="evenodd" d="M167.486 110.049L175.16 120.859L167.486 125.417V110.049Z" fill="url(#paint37_linear_4_988)"/>
<path fill-rule="evenodd" clip-rule="evenodd" d="M161.811 112.75C162.259 112.75 162.622 112.387 162.622 111.94C162.622 111.492 162.259 111.13 161.811 111.13C161.363 111.13 161 111.492 161 111.94C161 112.387 161.363 112.75 161.811 112.75Z" fill="#EFF7FF"/>
<path fill-rule="evenodd" clip-rule="evenodd" d="M172.892 108.429C173.19 108.429 173.432 108.187 173.432 107.889C173.432 107.59 173.19 107.349 172.892 107.349C172.593 107.349 172.351 107.59 172.351 107.889C172.351 108.187 172.593 108.429 172.892 108.429Z" fill="#EFF7FF"/>
<path fill-rule="evenodd" clip-rule="evenodd" d="M169.649 97.6257C169.947 97.6257 170.189 97.3838 170.189 97.0855C170.189 96.7872 169.947 96.5453 169.649 96.5453C169.35 96.5453 169.108 96.7872 169.108 97.0855C169.108 97.3838 169.35 97.6257 169.649 97.6257Z" fill="#EFF7FF"/>
<path fill-rule="evenodd" clip-rule="evenodd" d="M164.243 103.567C164.542 103.567 164.784 103.326 164.784 103.027C164.784 102.729 164.542 102.487 164.243 102.487C163.945 102.487 163.703 102.729 163.703 103.027C163.703 103.326 163.945 103.567 164.243 103.567Z" fill="#EFF7FF"/>
<path fill-rule="evenodd" clip-rule="evenodd" d="M138.297 150.561H124.243V200.256C124.243 202.345 127.389 204.037 131.27 204.037C135.151 204.037 138.297 202.345 138.297 200.256V150.561Z" fill="url(#paint38_linear_4_988)"/>
<path fill-rule="evenodd" clip-rule="evenodd" d="M131.27 153.802C135.151 153.802 138.297 152.11 138.297 150.021C138.297 147.933 135.151 146.24 131.27 146.24C127.389 146.24 124.243 147.933 124.243 150.021C124.243 152.11 127.389 153.802 131.27 153.802Z" fill="url(#paint39_linear_4_988)"/>
<mask id="path-90-inside-1_4_988" fill="white">
<path fill-rule="evenodd" clip-rule="evenodd" d="M157.757 177.57H143.703V211.06C143.703 213.148 146.849 214.841 150.73 214.841C154.611 214.841 157.757 213.148 157.757 211.06V177.57Z"/>
</mask>
<path fill-rule="evenodd" clip-rule="evenodd" d="M157.757 177.57H143.703V211.06C143.703 213.148 146.849 214.841 150.73 214.841C154.611 214.841 157.757 213.148 157.757 211.06V177.57Z" fill="url(#paint40_linear_4_988)"/>
<path d="M143.703 177.57V176.489C143.106 176.489 142.622 176.973 142.622 177.57H143.703ZM157.757 177.57H158.837C158.837 176.973 158.353 176.489 157.757 176.489V177.57ZM157.757 211.06H158.837H157.757ZM143.703 178.65H157.757V176.489H143.703V178.65ZM144.783 211.06V177.57H142.622V211.06H144.783ZM142.622 211.06C142.622 212.692 143.835 213.924 145.249 214.684C146.707 215.469 148.646 215.921 150.73 215.921V213.76C148.932 213.76 147.358 213.366 146.273 212.782C145.143 212.174 144.783 211.515 144.783 211.06H142.622ZM150.73 215.921C152.813 215.921 154.753 215.469 156.21 214.684C157.624 213.924 158.837 212.692 158.837 211.06H156.676C156.676 211.515 156.316 212.174 155.187 212.782C154.101 213.366 152.527 213.76 150.73 213.76V215.921ZM156.676 177.57V211.06H158.837V177.57H156.676Z" fill="url(#paint41_linear_4_988)" mask="url(#path-90-inside-1_4_988)"/>
<path fill-rule="evenodd" clip-rule="evenodd" d="M150.73 180.81C154.611 180.81 157.757 179.118 157.757 177.029C157.757 174.941 154.611 173.248 150.73 173.248C146.849 173.248 143.703 174.941 143.703 177.029C143.703 179.118 146.849 180.81 150.73 180.81Z" fill="url(#paint42_linear_4_988)"/>
<path fill-rule="evenodd" clip-rule="evenodd" d="M56.135 196.475C62.4042 196.475 67.4864 193.936 67.4864 190.803C67.4864 187.671 62.4042 185.132 56.135 185.132C49.8659 185.132 44.7837 187.671 44.7837 190.803C44.7837 193.936 49.8659 196.475 56.135 196.475Z" fill="#3667EF" fill-opacity="0.27"/>
<path fill-rule="evenodd" clip-rule="evenodd" d="M55.8645 191.344C56.6109 191.344 57.2159 191.041 57.2159 190.668C57.2159 190.295 56.6109 189.993 55.8645 189.993C55.1182 189.993 54.5132 190.295 54.5132 190.668C54.5132 191.041 55.1182 191.344 55.8645 191.344Z" fill="#3667EF"/>
<path fill-rule="evenodd" clip-rule="evenodd" d="M50.7297 169.467L62.0811 175.949V189.993L50.7297 183.511V169.467Z" fill="#83C6FF"/>
<path fill-rule="evenodd" clip-rule="evenodd" d="M50.7297 174.869L62.0811 181.351V189.993L50.7297 183.511V174.869Z" fill="url(#paint43_linear_4_988)"/>
<path d="M51.4944 175.464L61.6195 181.081" stroke="#008AFF" stroke-width="0.540117"/>
<path d="M51.2699 183.198V170.397L61.541 176.263V189.063L51.2699 183.198Z" stroke="#3465EE" stroke-width="1.08023"/>
<path fill-rule="evenodd" clip-rule="evenodd" d="M244.514 199.446C253.918 199.446 261.541 195.637 261.541 190.938C261.541 186.24 253.918 182.431 244.514 182.431C235.11 182.431 227.487 186.24 227.487 190.938C227.487 195.637 235.11 199.446 244.514 199.446Z" fill="#3667EF" fill-opacity="0.27"/>
<path fill-rule="evenodd" clip-rule="evenodd" d="M244.514 191.344C245.26 191.344 245.865 191.041 245.865 190.668C245.865 190.295 245.26 189.993 244.514 189.993C243.767 189.993 243.162 190.295 243.162 190.668C243.162 191.041 243.767 191.344 244.514 191.344Z" fill="#3667EF"/>
<path d="M239.378 180.558V170.93L250.19 177.003V186.923L245.012 187.787L239.378 180.558Z" fill="#83C6FF" stroke="#3465EE" stroke-width="1.08023"/>
<path fill-rule="evenodd" clip-rule="evenodd" d="M248.838 183.697L244.784 184.147L240.73 179.028L241.676 178.332L244.784 182.257L247.892 181.912L248.838 183.697Z" fill="#3767EF"/>
<path fill-rule="evenodd" clip-rule="evenodd" d="M247.487 181.18L244.784 181.48L242.082 178.067L243.027 177.371L244.784 179.59L246.541 179.395L247.487 181.18Z" fill="#3767EF"/>
<path fill-rule="evenodd" clip-rule="evenodd" d="M246.136 178.596L244.784 178.746L243.433 177.039L244.784 176.045L246.136 178.596Z" fill="#3767EF"/>
<defs>
<linearGradient id="paint0_linear_4_988" x1="50.4911" y1="230.87" x2="22.9417" y2="214.964" gradientUnits="userSpaceOnUse">
<stop stop-color="#9DDEFF"/>
<stop offset="1" stop-color="#E8F4FF" stop-opacity="0.01"/>
</linearGradient>
<linearGradient id="paint1_linear_4_988" x1="253.296" y1="233.119" x2="228.363" y2="247.514" gradientUnits="userSpaceOnUse">
<stop stop-color="#9DDEFF"/>
<stop offset="1" stop-color="#E8F4FF" stop-opacity="0.01"/>
</linearGradient>
<radialGradient id="paint2_radial_4_988" cx="0" cy="0" r="1" gradientUnits="userSpaceOnUse" gradientTransform="translate(150.73 130.035) scale(80.0591 68.8962)">
<stop stop-color="#425991"/>
<stop offset="1" stop-color="#3364ED" stop-opacity="0.01"/>
</radialGradient>
<linearGradient id="paint3_linear_4_988" x1="220.305" y1="315.452" x2="305.654" y2="186.875" gradientUnits="userSpaceOnUse">
<stop stop-color="#3364ED"/>
<stop offset="1" stop-color="#C3E4FF"/>
</linearGradient>
<linearGradient id="paint4_linear_4_988" x1="-68.5941" y1="228.41" x2="16.7441" y2="357.006" gradientUnits="userSpaceOnUse">
<stop stop-color="#3364ED"/>
<stop offset="1" stop-color="#C3E4FF"/>
</linearGradient>
<linearGradient id="paint5_linear_4_988" x1="258.518" y1="114.842" x2="278.333" y2="119.968" gradientUnits="userSpaceOnUse">
<stop stop-color="#5DCAFF"/>
<stop offset="1" stop-color="#C5EBFF"/>
</linearGradient>
<linearGradient id="paint6_linear_4_988" x1="41.8609" y1="153.193" x2="22.045" y2="158.32" gradientUnits="userSpaceOnUse">
<stop stop-color="#5DCAFF"/>
<stop offset="1" stop-color="#C5EBFF"/>
</linearGradient>
<linearGradient id="paint7_linear_4_988" x1="113.432" y1="58.7341" x2="113.432" y2="157.584" gradientUnits="userSpaceOnUse">
<stop stop-color="#7496D5"/>
<stop offset="1" stop-color="#3E5489"/>
</linearGradient>
<linearGradient id="paint8_linear_4_988" x1="139.769" y1="0.66232" x2="90.6803" y2="9.45489" gradientUnits="userSpaceOnUse">
<stop stop-color="#64CEFF"/>
<stop offset="1" stop-color="#74D7FF" stop-opacity="0.01"/>
</linearGradient>
<linearGradient id="paint9_linear_4_988" x1="188.027" y1="37.1276" x2="113.432" y2="37.1276" gradientUnits="userSpaceOnUse">
<stop stop-color="#8AE3FF"/>
<stop offset="1" stop-color="#52C4FF"/>
</linearGradient>
<linearGradient id="paint10_linear_4_988" x1="154.719" y1="157.392" x2="113.844" y2="77.8815" gradientUnits="userSpaceOnUse">
<stop stop-color="#3B4D82"/>
<stop offset="1" stop-color="#364F8B"/>
</linearGradient>
<linearGradient id="paint11_linear_4_988" x1="137.642" y1="13.1875" x2="137.642" y2="68.3395" gradientUnits="userSpaceOnUse">
<stop stop-color="#4DAEFF" stop-opacity="0.01"/>
<stop offset="1" stop-color="#2C94EB"/>
</linearGradient>
<linearGradient id="paint12_linear_4_988" x1="134.513" y1="49.5513" x2="134.513" y2="68.3395" gradientUnits="userSpaceOnUse">
<stop stop-color="#7792C4"/>
<stop offset="1" stop-color="#425991"/>
</linearGradient>
<linearGradient id="paint13_linear_4_988" x1="74.7705" y1="128.04" x2="59.7358" y2="142.571" gradientUnits="userSpaceOnUse">
<stop stop-color="#FF7E7E"/>
<stop offset="1" stop-color="#77D1FF"/>
</linearGradient>
<linearGradient id="paint14_linear_4_988" x1="123.163" y1="112.75" x2="64.2439" y2="112.75" gradientUnits="userSpaceOnUse">
<stop stop-color="#8AE3FF"/>
<stop offset="1" stop-color="#52C4FF"/>
</linearGradient>
<linearGradient id="paint15_linear_4_988" x1="109.307" y1="132.614" x2="125.009" y2="144.665" gradientUnits="userSpaceOnUse">
<stop stop-color="#FFA6B1"/>
<stop offset="1" stop-color="#31ACEC"/>
</linearGradient>
<linearGradient id="paint16_linear_4_988" x1="85.803" y1="172.155" x2="85.803" y2="133.536" gradientUnits="userSpaceOnUse">
<stop stop-color="white"/>
<stop offset="1" stop-color="#5AC8FF"/>
</linearGradient>
<linearGradient id="paint17_linear_4_988" x1="98.9388" y1="179.306" x2="98.9388" y2="133.244" gradientUnits="userSpaceOnUse">
<stop stop-color="white"/>
<stop offset="1" stop-color="#5AC8FF"/>
</linearGradient>
<linearGradient id="paint18_linear_4_988" x1="130.73" y1="146.78" x2="130.73" y2="103.567" gradientUnits="userSpaceOnUse">
<stop stop-color="white"/>
<stop offset="1" stop-color="#5AC8FF"/>
</linearGradient>
<linearGradient id="paint19_linear_4_988" x1="196.96" y1="126.149" x2="196.96" y2="168.537" gradientUnits="userSpaceOnUse">
<stop stop-color="#5DCAFF"/>
<stop offset="1" stop-color="#57C6FF" stop-opacity="0.36815"/>
</linearGradient>
<linearGradient id="paint20_linear_4_988" x1="217.898" y1="155.308" x2="217.898" y2="106.343" gradientUnits="userSpaceOnUse">
<stop stop-color="white"/>
<stop offset="1" stop-color="#5AC8FF"/>
</linearGradient>
<linearGradient id="paint21_linear_4_988" x1="192.351" y1="110.049" x2="192.351" y2="115.451" gradientUnits="userSpaceOnUse">
<stop stop-color="white"/>
<stop offset="1" stop-color="white" stop-opacity="0.01"/>
</linearGradient>
<linearGradient id="paint22_linear_4_988" x1="198.838" y1="124.094" x2="198.838" y2="129.495" gradientUnits="userSpaceOnUse">
<stop stop-color="white"/>
<stop offset="1" stop-color="white" stop-opacity="0.01"/>
</linearGradient>
<linearGradient id="paint23_linear_4_988" x1="208.027" y1="135.437" x2="208.027" y2="140.839" gradientUnits="userSpaceOnUse">
<stop stop-color="white"/>
<stop offset="1" stop-color="white" stop-opacity="0.01"/>
</linearGradient>
<linearGradient id="paint24_linear_4_988" x1="212.351" y1="149.481" x2="212.351" y2="154.883" gradientUnits="userSpaceOnUse">
<stop stop-color="white"/>
<stop offset="1" stop-color="white" stop-opacity="0.01"/>
</linearGradient>
<linearGradient id="paint25_linear_4_988" x1="192.892" y1="137.057" x2="192.892" y2="142.459" gradientUnits="userSpaceOnUse">
<stop stop-color="white"/>
<stop offset="1" stop-color="white" stop-opacity="0.01"/>
</linearGradient>
<linearGradient id="paint26_linear_4_988" x1="205.324" y1="112.21" x2="205.324" y2="117.612" gradientUnits="userSpaceOnUse">
<stop stop-color="white"/>
<stop offset="1" stop-color="white" stop-opacity="0.01"/>
</linearGradient>
<linearGradient id="paint27_linear_4_988" x1="216.135" y1="124.094" x2="216.135" y2="129.495" gradientUnits="userSpaceOnUse">
<stop stop-color="white"/>
<stop offset="1" stop-color="white" stop-opacity="0.01"/>
</linearGradient>
<linearGradient id="paint28_linear_4_988" x1="174.422" y1="120.45" x2="245.811" y2="159.015" gradientUnits="userSpaceOnUse">
<stop stop-color="#5AC8FF"/>
<stop offset="1" stop-color="#57C6FF" stop-opacity="0.36815"/>
</linearGradient>
<linearGradient id="paint29_linear_4_988" x1="240.113" y1="133.754" x2="240.113" y2="170.126" gradientUnits="userSpaceOnUse">
<stop stop-color="#5DCAFF"/>
<stop offset="1" stop-color="#57C6FF" stop-opacity="0.36815"/>
</linearGradient>
<linearGradient id="paint30_linear_4_988" x1="228.052" y1="167.516" x2="228.052" y2="112.285" gradientUnits="userSpaceOnUse">
<stop stop-color="white"/>
<stop offset="1" stop-color="#5AC8FF"/>
</linearGradient>
<linearGradient id="paint31_linear_4_988" x1="144.369" y1="136.308" x2="144.369" y2="196.289" gradientUnits="userSpaceOnUse">
<stop stop-color="#6EB5FF"/>
<stop offset="1" stop-color="#5582FF"/>
</linearGradient>
<linearGradient id="paint32_linear_4_988" x1="170.261" y1="204.969" x2="136.601" y2="146.269" gradientUnits="userSpaceOnUse">
<stop stop-color="#3364ED"/>
<stop offset="1" stop-color="#5582FF"/>
</linearGradient>
<linearGradient id="paint33_linear_4_988" x1="193.432" y1="113.29" x2="141.541" y2="113.29" gradientUnits="userSpaceOnUse">
<stop stop-color="#8AE3FF"/>
<stop offset="1" stop-color="#52C4FF"/>
</linearGradient>
<linearGradient id="paint34_linear_4_988" x1="158.378" y1="95.1932" x2="158.378" y2="134.719" gradientUnits="userSpaceOnUse">
<stop stop-color="#4DAEFF" stop-opacity="0.01"/>
<stop offset="1" stop-color="#2C94EB"/>
</linearGradient>
<linearGradient id="paint35_linear_4_988" x1="156.135" y1="121.393" x2="156.135" y2="134.858" gradientUnits="userSpaceOnUse">
<stop stop-color="#7792C4"/>
<stop offset="1" stop-color="#425991"/>
</linearGradient>
<linearGradient id="paint36_linear_4_988" x1="163.842" y1="106.211" x2="155.449" y2="111.608" gradientUnits="userSpaceOnUse">
<stop stop-color="#A9F2FF"/>
<stop offset="1" stop-color="#70E1FF"/>
</linearGradient>
<linearGradient id="paint37_linear_4_988" x1="171.237" y1="106.211" x2="179.63" y2="111.608" gradientUnits="userSpaceOnUse">
<stop stop-color="#72CFDF"/>
<stop offset="1" stop-color="#3DC1E4"/>
</linearGradient>
<linearGradient id="paint38_linear_4_988" x1="138.297" y1="150.561" x2="124.243" y2="150.561" gradientUnits="userSpaceOnUse">
<stop stop-color="#3B4D82"/>
<stop offset="1" stop-color="#4D75D3"/>
</linearGradient>
<linearGradient id="paint39_linear_4_988" x1="138.297" y1="146.24" x2="124.243" y2="146.24" gradientUnits="userSpaceOnUse">
<stop stop-color="#8AE3FF"/>
<stop offset="1" stop-color="#52C4FF"/>
</linearGradient>
<linearGradient id="paint40_linear_4_988" x1="156.817" y1="209.858" x2="156.817" y2="177.57" gradientUnits="userSpaceOnUse">
<stop stop-color="#5DCAFF"/>
<stop offset="1" stop-color="white"/>
</linearGradient>
<linearGradient id="paint41_linear_4_988" x1="154.871" y1="212.636" x2="154.871" y2="190.673" gradientUnits="userSpaceOnUse">
<stop stop-color="white"/>
<stop offset="1" stop-color="#5AC8FF"/>
</linearGradient>
<linearGradient id="paint42_linear_4_988" x1="157.757" y1="173.248" x2="143.703" y2="173.248" gradientUnits="userSpaceOnUse">
<stop stop-color="#8AE3FF"/>
<stop offset="1" stop-color="#52C4FF"/>
</linearGradient>
<linearGradient id="paint43_linear_4_988" x1="55.1808" y1="174.624" x2="51.0181" y2="183.897" gradientUnits="userSpaceOnUse">
<stop stop-color="white"/>
<stop offset="1" stop-color="white" stop-opacity="0.01"/>
</linearGradient>
</defs>
</svg>
