<svg width="359" height="269" viewBox="0 0 359 269" fill="none" xmlns="http://www.w3.org/2000/svg">
<path fill-rule="evenodd" clip-rule="evenodd" d="M234.158 41.2908C234.158 32.0299 241.666 24.5225 250.926 24.5225C260.187 24.5225 267.695 32.0299 267.695 41.2908C267.695 50.5517 260.187 58.0591 250.926 58.0591C241.666 58.0591 234.158 50.5517 234.158 41.2908ZM246.181 43.2563C246.976 45.1756 248.849 46.427 250.926 46.427V46.427C252.289 46.427 253.595 45.8859 254.558 44.9227C255.522 43.9594 256.063 42.653 256.063 41.2908C256.063 39.2134 254.811 37.3405 252.892 36.5455C250.973 35.7505 248.764 36.1899 247.295 37.6589C245.826 39.1279 245.386 41.3371 246.181 43.2563Z" fill="#CDE2FD"/>
<path fill-rule="evenodd" clip-rule="evenodd" d="M32.7118 141.223C32.7118 131.962 40.2192 124.454 49.4801 124.454C58.741 124.454 66.2484 131.962 66.2484 141.223C66.2484 150.484 58.741 157.991 49.4801 157.991C40.2192 157.991 32.7118 150.484 32.7118 141.223ZM44.7348 143.188C45.5298 145.108 47.4027 146.359 49.4801 146.359C50.8423 146.359 52.1487 145.818 53.112 144.855C54.0752 143.891 54.6163 142.585 54.6163 141.223C54.6163 139.145 53.3649 137.272 51.4456 136.477C49.5264 135.682 47.3172 136.122 45.8482 137.591C44.3793 139.06 43.9398 141.269 44.7348 143.188Z" fill="#CDE2FD"/>
<path fill-rule="evenodd" clip-rule="evenodd" d="M304.441 160.722C305.741 157.586 308.801 155.541 312.196 155.541C314.422 155.541 316.556 156.425 318.131 157.999C319.705 159.573 320.589 161.708 320.589 163.934C320.589 167.329 318.544 170.389 315.408 171.688C312.271 172.987 308.661 172.269 306.261 169.869C303.86 167.468 303.142 163.858 304.441 160.722ZM309.625 163.934C309.625 165.354 310.776 166.505 312.196 166.505C312.878 166.505 313.531 166.234 314.014 165.752C314.496 165.27 314.767 164.616 314.767 163.934C314.767 162.514 313.616 161.363 312.196 161.363C310.776 161.363 309.625 162.514 309.625 163.934Z" fill="#CDE2FD"/>
<circle cx="253.819" cy="94.904" r="4.43283" fill="#AED3FF"/>
<circle cx="128.953" cy="185.457" r="4.43283" fill="#AED3FF"/>
<path d="M102.778 48.6913H99.0791V44.9922C99.0791 43.6564 97.9962 42.5735 96.6604 42.5735C95.3246 42.5735 94.2418 43.6564 94.2418 44.9922V48.6913H90.5426C89.2068 48.6913 88.1239 49.7742 88.1239 51.11C88.1239 52.4458 89.2068 53.5287 90.5426 53.5287H94.2418V57.2278C94.2418 58.5636 95.3246 59.6465 96.6604 59.6465C97.9962 59.6465 99.0791 58.5636 99.0791 57.2278V53.5287H102.778C104.114 53.5287 105.197 52.4458 105.197 51.11C105.197 49.7742 104.114 48.6913 102.778 48.6913Z" fill="#AFD3FF"/>
<path d="M219.985 113.47H216.286V109.771C216.286 108.435 215.203 107.352 213.867 107.352C212.532 107.352 211.449 108.435 211.449 109.771V113.47H207.75C206.414 113.47 205.331 114.553 205.331 115.889C205.331 117.224 206.414 118.307 207.75 118.307H211.449V122.006C211.449 123.342 212.532 124.425 213.867 124.425C215.203 124.425 216.286 123.342 216.286 122.006V118.307H219.985C220.627 118.307 221.242 118.052 221.695 117.599C222.149 117.145 222.404 116.53 222.404 115.889C222.404 114.553 221.321 113.47 219.985 113.47Z" fill="#D9E9FF"/>
<path d="M237.068 221.834H233.369V218.135C233.369 216.799 232.286 215.716 230.95 215.716C229.614 215.716 228.531 216.799 228.531 218.135V221.834H224.832C223.496 221.834 222.414 222.917 222.414 224.253C222.414 225.588 223.496 226.671 224.832 226.671H228.531V230.37C228.531 231.706 229.614 232.789 230.95 232.789C232.286 232.789 233.369 231.706 233.369 230.37V226.671H237.068C238.404 226.671 239.487 225.588 239.487 224.253C239.487 223.611 239.232 222.996 238.778 222.542C238.325 222.089 237.709 221.834 237.068 221.834Z" fill="#AFD3FF"/>
<path d="M91.7901 194.58L91.0343 193.824L91.7901 193.069C92.063 192.796 92.063 192.353 91.7901 192.08C91.5171 191.807 91.0747 191.807 90.8017 192.08L90.0459 192.836L89.2901 192.08C89.0172 191.807 88.5747 191.807 88.3018 192.08C88.0288 192.353 88.0288 192.796 88.3018 193.069L89.0576 193.824L88.3018 194.58C88.0288 194.853 88.0288 195.296 88.3018 195.568C88.5747 195.841 89.0172 195.841 89.2901 195.568L90.0459 194.813L90.8017 195.568C91.0747 195.841 91.5171 195.841 91.7901 195.568C92.063 195.296 92.063 194.853 91.7901 194.58Z" fill="#AFD3FF"/>
<path d="M185.201 49.2803C185.202 48.8491 184.937 48.4617 184.535 48.3057C181.053 46.9894 178.304 44.2407 176.988 40.7586C176.832 40.3566 176.445 40.092 176.013 40.093C175.582 40.092 175.195 40.3566 175.039 40.7586C173.723 44.2407 170.974 46.9894 167.492 48.3057C167.09 48.4617 166.825 48.8491 166.826 49.2803C166.825 49.7116 167.09 50.099 167.492 50.2549C170.974 51.5712 173.723 54.3199 175.039 57.802C175.195 58.2041 175.582 58.4686 176.013 58.4676C176.445 58.4686 176.832 58.2041 176.988 57.802C178.304 54.32 181.053 51.5712 184.535 50.2549C184.937 50.099 185.202 49.7116 185.201 49.2803Z" fill="#D9E9FF"/>
<path d="M316.31 104.078C316.311 103.646 316.047 103.259 315.645 103.103C312.163 101.787 309.414 99.038 308.098 95.556C307.942 95.1539 307.554 94.8894 307.123 94.8904C306.692 94.8894 306.304 95.1539 306.148 95.556C304.832 99.038 302.083 101.787 298.601 103.103C298.199 103.259 297.935 103.646 297.936 104.078C297.935 104.509 298.199 104.896 298.601 105.052C302.083 106.369 304.832 109.117 306.148 112.599C306.304 113.001 306.692 113.266 307.123 113.265C307.554 113.266 307.942 113.001 308.098 112.599C309.414 109.117 312.163 106.369 315.645 105.052C316.047 104.896 316.311 104.509 316.31 104.078Z" fill="#D9E9FF"/>
<mask id="mask0_0_1646" style="mask-type:alpha" maskUnits="userSpaceOnUse" x="0" y="0" width="359" height="269">
<rect width="358.4" height="268.8" fill="white"/>
</mask>
<g mask="url(#mask0_0_1646)">
<path d="M294.125 58.9062C294.135 49.3952 288.036 40.9531 279.003 37.9743C277.79 26.9657 268.496 18.4026 257.207 18.4026C250.339 18.4026 244.211 21.5737 240.189 26.5347C237.867 25.5328 235.365 25.0172 232.836 25.0198C224.842 25.0198 218.026 30.0732 215.378 37.1705C204.935 38.8589 196.957 47.9456 196.957 58.9062C196.957 71.0677 206.777 80.9266 218.891 80.9266V80.948H273.75V80.8652C285.135 80.0615 294.125 70.5409 294.125 58.9062Z" fill="#DAE9FF" stroke="#143C9A" stroke-width="1.0752" stroke-linecap="round" stroke-linejoin="round"/>
<path d="M268.211 58.2172L247.463 33.7729C246.985 33.2078 246.282 32.8818 245.541 32.8818C244.8 32.8818 244.097 33.2078 243.619 33.7729L222.871 58.2172C221.474 59.8635 222.64 62.3974 224.794 62.3974H237.472V88.7324H253.61V62.3974H266.288C268.442 62.3974 269.608 59.8635 268.211 58.2172Z" fill="white" stroke="#143C9A" stroke-width="1.0752" stroke-linecap="round" stroke-linejoin="round"/>
<path d="M139.528 222.551L108.634 222.585L173.744 157.114L219.484 179.22L251.428 129.615L269.768 141.519L227.365 207.363L178.243 183.62L139.528 222.551Z" fill="#AFD3FF"/>
<mask id="mask1_0_1646" style="mask-type:alpha" maskUnits="userSpaceOnUse" x="108" y="129" width="162" height="94">
<path fill-rule="evenodd" clip-rule="evenodd" d="M139.528 222.551L108.634 222.585L173.744 157.114L219.484 179.22L251.428 129.615L269.768 141.519L227.365 207.363L178.243 183.62L139.528 222.551Z" fill="white"/>
</mask>
<g mask="url(#mask1_0_1646)">
<mask id="mask2_0_1646" style="mask-type:alpha" maskUnits="userSpaceOnUse" x="247" y="129" width="40" height="59">
<path fill-rule="evenodd" clip-rule="evenodd" d="M251.428 129.615C235.178 133.505 271.348 139.615 251.817 175.232C232.285 210.849 286.901 155.572 286.901 155.572L277.136 133.868" fill="white"/>
</mask>
<g mask="url(#mask2_0_1646)">
<path d="M247.351 152.113C247.131 152.112 246.932 152.244 246.847 152.446C246.763 152.649 246.809 152.883 246.964 153.039C247.119 153.195 247.353 153.242 247.556 153.158C247.759 153.074 247.892 152.876 247.892 152.656C247.892 152.512 247.835 152.374 247.734 152.272C247.632 152.17 247.494 152.113 247.351 152.113Z" fill="#AFD3FF"/>
<path d="M250.374 152.113C250.154 152.112 249.955 152.244 249.871 152.446C249.786 152.649 249.832 152.883 249.987 153.039C250.142 153.195 250.376 153.242 250.579 153.158C250.782 153.074 250.915 152.876 250.915 152.656C250.915 152.512 250.858 152.374 250.757 152.272C250.655 152.17 250.518 152.113 250.374 152.113Z" fill="#AFD3FF"/>
<path d="M253.397 152.113C253.177 152.112 252.978 152.243 252.893 152.446C252.809 152.649 252.855 152.883 253.01 153.039C253.165 153.195 253.399 153.242 253.602 153.158C253.805 153.074 253.938 152.876 253.938 152.656C253.938 152.356 253.696 152.113 253.397 152.113Z" fill="#AFD3FF"/>
<path d="M256.42 152.113C256.2 152.112 256.001 152.244 255.917 152.446C255.832 152.649 255.878 152.883 256.033 153.039C256.188 153.195 256.422 153.242 256.625 153.158C256.828 153.074 256.961 152.876 256.961 152.656C256.961 152.512 256.904 152.374 256.803 152.272C256.702 152.17 256.564 152.113 256.42 152.113Z" fill="#AFD3FF"/>
<path d="M259.443 152.113C259.223 152.112 259.024 152.244 258.94 152.446C258.855 152.649 258.901 152.883 259.056 153.039C259.211 153.195 259.445 153.242 259.648 153.158C259.852 153.074 259.984 152.876 259.984 152.656C259.984 152.512 259.927 152.374 259.826 152.272C259.725 152.17 259.587 152.113 259.443 152.113Z" fill="#AFD3FF"/>
<path d="M262.466 152.113C262.246 152.112 262.047 152.244 261.963 152.446C261.878 152.649 261.924 152.883 262.079 153.039C262.234 153.195 262.468 153.242 262.671 153.158C262.875 153.074 263.007 152.876 263.007 152.656C263.008 152.356 262.765 152.113 262.466 152.113Z" fill="#AFD3FF"/>
<path d="M265.489 152.113C265.269 152.112 265.071 152.244 264.986 152.446C264.901 152.649 264.947 152.883 265.102 153.039C265.257 153.195 265.491 153.242 265.694 153.158C265.898 153.074 266.03 152.876 266.03 152.656C266.03 152.512 265.974 152.374 265.872 152.272C265.771 152.17 265.633 152.113 265.489 152.113Z" fill="#AFD3FF"/>
<path d="M268.512 152.113C268.292 152.112 268.094 152.244 268.009 152.446C267.924 152.649 267.97 152.883 268.125 153.039C268.28 153.195 268.514 153.242 268.717 153.158C268.921 153.074 269.053 152.876 269.053 152.656C269.054 152.356 268.812 152.113 268.512 152.113Z" fill="#AFD3FF"/>
<path d="M247.351 157.861C247.131 157.86 246.932 157.992 246.847 158.195C246.763 158.398 246.809 158.632 246.964 158.787C247.119 158.943 247.353 158.99 247.556 158.906C247.759 158.822 247.892 158.624 247.892 158.404C247.892 158.26 247.835 158.122 247.734 158.02C247.632 157.918 247.494 157.861 247.351 157.861Z" fill="#AFD3FF"/>
<ellipse cx="250.374" cy="158.404" rx="0.541059" ry="0.543119" fill="#AFD3FF"/>
<path d="M253.397 157.861C253.177 157.86 252.978 157.992 252.893 158.195C252.809 158.397 252.855 158.631 253.01 158.787C253.165 158.943 253.399 158.99 253.602 158.906C253.805 158.822 253.938 158.624 253.938 158.404C253.938 158.105 253.696 157.861 253.397 157.861Z" fill="#AFD3FF"/>
<ellipse cx="256.42" cy="158.404" rx="0.541059" ry="0.543119" fill="#AFD3FF"/>
<ellipse cx="259.443" cy="158.404" rx="0.541059" ry="0.543119" fill="#AFD3FF"/>
<ellipse cx="262.466" cy="158.404" rx="0.541059" ry="0.543119" fill="#AFD3FF"/>
<ellipse cx="265.489" cy="158.404" rx="0.541059" ry="0.543119" fill="#AFD3FF"/>
<ellipse cx="268.512" cy="158.404" rx="0.541059" ry="0.543119" fill="#AFD3FF"/>
<path d="M247.351 160.735C247.131 160.734 246.932 160.866 246.847 161.069C246.763 161.272 246.809 161.506 246.964 161.661C247.119 161.817 247.353 161.864 247.556 161.78C247.759 161.696 247.892 161.498 247.892 161.278C247.892 161.134 247.835 160.996 247.734 160.894C247.632 160.792 247.494 160.735 247.351 160.735Z" fill="#AFD3FF"/>
<ellipse cx="250.374" cy="161.278" rx="0.541059" ry="0.543119" fill="#AFD3FF"/>
<path d="M253.397 160.735C253.177 160.734 252.978 160.866 252.894 161.069C252.809 161.272 252.855 161.505 253.01 161.661C253.165 161.817 253.399 161.864 253.602 161.78C253.805 161.696 253.938 161.498 253.938 161.278C253.938 160.979 253.696 160.736 253.397 160.735Z" fill="#AFD3FF"/>
<ellipse cx="256.42" cy="161.278" rx="0.541059" ry="0.543119" fill="#AFD3FF"/>
<ellipse cx="259.443" cy="161.278" rx="0.541059" ry="0.543119" fill="#AFD3FF"/>
<ellipse cx="262.466" cy="161.278" rx="0.541059" ry="0.543119" fill="#AFD3FF"/>
<ellipse cx="265.489" cy="161.278" rx="0.541059" ry="0.543119" fill="#AFD3FF"/>
<ellipse cx="268.512" cy="161.278" rx="0.541059" ry="0.543119" fill="#AFD3FF"/>
<path d="M247.351 146.364C247.131 146.363 246.932 146.495 246.847 146.698C246.763 146.901 246.809 147.135 246.964 147.291C247.119 147.447 247.353 147.493 247.556 147.409C247.759 147.326 247.892 147.127 247.892 146.907C247.892 146.764 247.835 146.626 247.734 146.524C247.632 146.422 247.494 146.365 247.351 146.364Z" fill="#AFD3FF"/>
<ellipse cx="250.374" cy="146.907" rx="0.541059" ry="0.543182" fill="#AFD3FF"/>
<path d="M253.397 146.364C253.177 146.363 252.978 146.495 252.893 146.698C252.809 146.901 252.855 147.135 253.01 147.291C253.165 147.447 253.399 147.493 253.602 147.41C253.805 147.326 253.938 147.127 253.938 146.907C253.938 146.608 253.696 146.365 253.397 146.364Z" fill="#AFD3FF"/>
<ellipse cx="256.42" cy="146.907" rx="0.541059" ry="0.543182" fill="#AFD3FF"/>
<ellipse cx="259.443" cy="146.907" rx="0.541059" ry="0.543182" fill="#AFD3FF"/>
<ellipse cx="262.466" cy="146.907" rx="0.541059" ry="0.543182" fill="#AFD3FF"/>
<ellipse cx="265.489" cy="146.907" rx="0.541059" ry="0.543182" fill="#AFD3FF"/>
<ellipse cx="268.512" cy="146.907" rx="0.541059" ry="0.543182" fill="#AFD3FF"/>
<path d="M247.351 149.238C247.131 149.237 246.932 149.369 246.847 149.572C246.763 149.775 246.809 150.009 246.964 150.165C247.119 150.321 247.353 150.367 247.556 150.284C247.759 150.2 247.892 150.001 247.892 149.781C247.892 149.638 247.835 149.5 247.734 149.398C247.632 149.296 247.494 149.239 247.351 149.238Z" fill="#AFD3FF"/>
<ellipse cx="250.374" cy="149.782" rx="0.541059" ry="0.543182" fill="#AFD3FF"/>
<path d="M253.397 149.238C253.177 149.237 252.978 149.369 252.893 149.572C252.809 149.775 252.855 150.009 253.01 150.165C253.165 150.321 253.399 150.367 253.602 150.284C253.805 150.2 253.938 150.001 253.938 149.781C253.938 149.482 253.696 149.239 253.397 149.238Z" fill="#AFD3FF"/>
<ellipse cx="256.42" cy="149.782" rx="0.541059" ry="0.543182" fill="#AFD3FF"/>
<ellipse cx="259.443" cy="149.782" rx="0.541059" ry="0.543182" fill="#AFD3FF"/>
<ellipse cx="262.466" cy="149.782" rx="0.541059" ry="0.543182" fill="#AFD3FF"/>
<ellipse cx="265.489" cy="149.782" rx="0.541059" ry="0.543182" fill="#AFD3FF"/>
<ellipse cx="268.512" cy="149.782" rx="0.541059" ry="0.543182" fill="#AFD3FF"/>
<path d="M247.351 154.987C247.131 154.986 246.932 155.118 246.847 155.321C246.763 155.524 246.809 155.758 246.964 155.913C247.119 156.069 247.353 156.116 247.556 156.032C247.759 155.948 247.892 155.75 247.892 155.53C247.892 155.386 247.835 155.248 247.734 155.146C247.632 155.044 247.494 154.987 247.351 154.987Z" fill="#AFD3FF"/>
<path d="M250.374 154.987C250.154 154.986 249.955 155.118 249.871 155.321C249.786 155.524 249.832 155.758 249.987 155.913C250.142 156.069 250.376 156.116 250.579 156.032C250.782 155.948 250.915 155.75 250.915 155.53C250.915 155.231 250.673 154.987 250.374 154.987Z" fill="#AFD3FF"/>
<path d="M253.397 154.987C253.177 154.986 252.978 155.118 252.893 155.321C252.809 155.523 252.855 155.757 253.01 155.913C253.165 156.069 253.399 156.116 253.602 156.032C253.805 155.948 253.938 155.75 253.938 155.53C253.938 155.231 253.696 154.987 253.397 154.987Z" fill="#AFD3FF"/>
<path d="M256.42 154.987C256.2 154.986 256.001 155.118 255.917 155.321C255.832 155.524 255.878 155.758 256.033 155.913C256.188 156.069 256.422 156.116 256.625 156.032C256.829 155.948 256.961 155.75 256.961 155.53C256.962 155.231 256.719 154.987 256.42 154.987Z" fill="#AFD3FF"/>
<path d="M259.443 154.987C259.223 154.986 259.024 155.118 258.94 155.321C258.855 155.524 258.901 155.758 259.056 155.913C259.211 156.069 259.445 156.116 259.648 156.032C259.852 155.948 259.984 155.75 259.984 155.53C259.985 155.231 259.742 154.987 259.443 154.987Z" fill="#AFD3FF"/>
<path d="M262.466 154.987C262.246 154.986 262.048 155.118 261.963 155.321C261.878 155.524 261.924 155.758 262.079 155.913C262.234 156.069 262.468 156.116 262.671 156.032C262.875 155.948 263.007 155.75 263.007 155.53C263.008 155.231 262.765 154.987 262.466 154.987Z" fill="#AFD3FF"/>
<path d="M265.489 154.987C265.269 154.986 265.071 155.118 264.986 155.321C264.901 155.524 264.947 155.758 265.102 155.913C265.257 156.069 265.491 156.116 265.694 156.032C265.898 155.948 266.03 155.75 266.03 155.53C266.031 155.231 265.788 154.987 265.489 154.987Z" fill="#AFD3FF"/>
<path d="M268.512 154.987C268.292 154.986 268.094 155.118 268.009 155.321C267.924 155.524 267.97 155.758 268.125 155.913C268.28 156.069 268.514 156.116 268.717 156.032C268.921 155.948 269.053 155.75 269.053 155.53C269.054 155.231 268.812 154.987 268.512 154.987Z" fill="#AFD3FF"/>
<path d="M247.351 163.609C247.131 163.608 246.932 163.74 246.847 163.943C246.763 164.146 246.809 164.38 246.964 164.536C247.119 164.691 247.353 164.738 247.556 164.654C247.759 164.57 247.892 164.372 247.892 164.152C247.892 164.009 247.835 163.871 247.734 163.769C247.632 163.667 247.494 163.609 247.351 163.609Z" fill="#AFD3FF"/>
<path d="M250.374 163.609C250.154 163.608 249.955 163.74 249.871 163.943C249.786 164.146 249.832 164.38 249.987 164.536C250.142 164.691 250.376 164.738 250.579 164.654C250.782 164.57 250.915 164.372 250.915 164.152C250.915 164.009 250.858 163.871 250.757 163.769C250.655 163.667 250.518 163.609 250.374 163.609Z" fill="#AFD3FF"/>
<path d="M253.397 163.609C253.177 163.608 252.978 163.74 252.893 163.943C252.809 164.146 252.855 164.38 253.01 164.536C253.165 164.691 253.399 164.738 253.602 164.654C253.805 164.57 253.938 164.372 253.938 164.152C253.938 163.853 253.696 163.61 253.397 163.609Z" fill="#AFD3FF"/>
<path d="M256.42 163.609C256.2 163.608 256.001 163.74 255.917 163.943C255.832 164.146 255.878 164.38 256.033 164.536C256.188 164.691 256.422 164.738 256.625 164.654C256.828 164.57 256.961 164.372 256.961 164.152C256.961 164.009 256.904 163.871 256.803 163.769C256.702 163.667 256.564 163.609 256.42 163.609Z" fill="#AFD3FF"/>
<path d="M259.443 163.609C259.223 163.608 259.024 163.74 258.94 163.943C258.855 164.146 258.901 164.38 259.056 164.536C259.211 164.691 259.445 164.738 259.648 164.654C259.851 164.57 259.984 164.372 259.984 164.152C259.984 164.009 259.928 163.871 259.826 163.769C259.725 163.667 259.587 163.609 259.443 163.609Z" fill="#AFD3FF"/>
<path d="M262.466 163.609C262.246 163.608 262.047 163.74 261.963 163.943C261.878 164.146 261.924 164.38 262.079 164.536C262.234 164.691 262.468 164.738 262.671 164.654C262.875 164.57 263.007 164.372 263.007 164.152C263.008 163.853 262.765 163.61 262.466 163.609Z" fill="#AFD3FF"/>
<path d="M265.489 163.609C265.269 163.608 265.071 163.74 264.986 163.943C264.901 164.146 264.947 164.38 265.102 164.536C265.257 164.691 265.491 164.738 265.694 164.654C265.898 164.57 266.03 164.372 266.03 164.152C266.03 164.009 265.974 163.871 265.872 163.769C265.771 163.667 265.633 163.609 265.489 163.609Z" fill="#AFD3FF"/>
<path d="M268.512 163.609C268.292 163.608 268.094 163.74 268.009 163.943C267.924 164.146 267.97 164.38 268.125 164.536C268.28 164.691 268.514 164.738 268.717 164.654C268.921 164.57 269.053 164.372 269.053 164.152C269.054 163.853 268.812 163.61 268.512 163.609Z" fill="#AFD3FF"/>
<path d="M247.351 131.994C247.131 131.993 246.932 132.125 246.847 132.328C246.763 132.531 246.809 132.765 246.964 132.92C247.119 133.076 247.353 133.123 247.556 133.039C247.759 132.955 247.892 132.757 247.892 132.537C247.892 132.393 247.835 132.255 247.734 132.153C247.632 132.052 247.494 131.994 247.351 131.994Z" fill="#AFD3FF"/>
<ellipse cx="250.374" cy="132.537" rx="0.541059" ry="0.543119" fill="#AFD3FF"/>
<path d="M253.397 131.994C253.177 131.993 252.978 132.125 252.894 132.328C252.809 132.531 252.855 132.764 253.01 132.92C253.165 133.076 253.399 133.123 253.602 133.039C253.805 132.955 253.938 132.757 253.938 132.537C253.938 132.238 253.696 131.995 253.397 131.994Z" fill="#AFD3FF"/>
<ellipse cx="256.42" cy="132.537" rx="0.541059" ry="0.543119" fill="#AFD3FF"/>
<ellipse cx="259.443" cy="132.537" rx="0.541059" ry="0.543119" fill="#AFD3FF"/>
<ellipse cx="262.466" cy="132.537" rx="0.541059" ry="0.543119" fill="#AFD3FF"/>
<ellipse cx="265.489" cy="132.537" rx="0.541059" ry="0.543119" fill="#AFD3FF"/>
<ellipse cx="268.512" cy="132.537" rx="0.541059" ry="0.543119" fill="#AFD3FF"/>
<path d="M247.351 137.742C247.131 137.741 246.932 137.873 246.847 138.076C246.763 138.279 246.809 138.513 246.964 138.668C247.119 138.824 247.353 138.871 247.556 138.787C247.759 138.703 247.892 138.505 247.892 138.285C247.892 138.141 247.835 138.003 247.734 137.901C247.632 137.8 247.494 137.742 247.351 137.742Z" fill="#AFD3FF"/>
<ellipse cx="250.374" cy="138.285" rx="0.541059" ry="0.543119" fill="#AFD3FF"/>
<path d="M253.397 137.742C253.177 137.741 252.978 137.873 252.894 138.076C252.809 138.279 252.855 138.513 253.01 138.668C253.165 138.824 253.399 138.871 253.602 138.787C253.805 138.703 253.938 138.505 253.938 138.285C253.938 137.986 253.696 137.743 253.397 137.742Z" fill="#AFD3FF"/>
<ellipse cx="256.42" cy="138.285" rx="0.541059" ry="0.543119" fill="#AFD3FF"/>
<ellipse cx="259.443" cy="138.285" rx="0.541059" ry="0.543119" fill="#AFD3FF"/>
<ellipse cx="262.466" cy="138.285" rx="0.541059" ry="0.543119" fill="#AFD3FF"/>
<ellipse cx="265.489" cy="138.285" rx="0.541059" ry="0.543119" fill="#AFD3FF"/>
<ellipse cx="268.512" cy="138.285" rx="0.541059" ry="0.543119" fill="#AFD3FF"/>
<path d="M247.351 140.616C247.131 140.615 246.932 140.747 246.847 140.95C246.763 141.153 246.809 141.387 246.964 141.543C247.119 141.698 247.353 141.745 247.556 141.661C247.759 141.577 247.892 141.379 247.892 141.159C247.892 141.016 247.835 140.878 247.734 140.776C247.632 140.674 247.494 140.616 247.351 140.616Z" fill="#AFD3FF"/>
<path d="M250.374 140.616C250.154 140.615 249.955 140.747 249.871 140.95C249.786 141.153 249.832 141.387 249.987 141.543C250.142 141.698 250.376 141.745 250.579 141.661C250.782 141.577 250.915 141.379 250.915 141.159C250.915 141.016 250.858 140.878 250.757 140.776C250.655 140.674 250.518 140.616 250.374 140.616Z" fill="#AFD3FF"/>
<path d="M253.397 140.616C253.177 140.615 252.978 140.747 252.893 140.95C252.809 141.153 252.855 141.387 253.01 141.543C253.165 141.698 253.399 141.745 253.602 141.661C253.805 141.577 253.938 141.379 253.938 141.159C253.938 140.86 253.696 140.617 253.397 140.616Z" fill="#AFD3FF"/>
<path d="M256.42 140.616C256.2 140.615 256.001 140.747 255.917 140.95C255.832 141.153 255.878 141.387 256.033 141.543C256.188 141.698 256.422 141.745 256.625 141.661C256.828 141.577 256.961 141.379 256.961 141.159C256.961 141.016 256.904 140.878 256.803 140.776C256.702 140.674 256.564 140.616 256.42 140.616Z" fill="#AFD3FF"/>
<path d="M259.443 140.616C259.223 140.615 259.024 140.747 258.94 140.95C258.855 141.153 258.901 141.387 259.056 141.543C259.211 141.698 259.445 141.745 259.648 141.661C259.851 141.577 259.984 141.379 259.984 141.159C259.984 141.016 259.928 140.878 259.826 140.776C259.725 140.674 259.587 140.616 259.443 140.616Z" fill="#AFD3FF"/>
<path d="M262.466 140.616C262.246 140.615 262.047 140.747 261.963 140.95C261.878 141.153 261.924 141.387 262.079 141.543C262.234 141.698 262.468 141.745 262.671 141.661C262.875 141.577 263.007 141.379 263.007 141.159C263.008 140.86 262.765 140.617 262.466 140.616Z" fill="#AFD3FF"/>
<path d="M265.489 140.616C265.269 140.615 265.071 140.747 264.986 140.95C264.901 141.153 264.947 141.387 265.102 141.543C265.257 141.698 265.491 141.745 265.694 141.661C265.898 141.577 266.03 141.379 266.03 141.159C266.03 141.016 265.974 140.878 265.872 140.776C265.771 140.674 265.633 140.616 265.489 140.616Z" fill="#AFD3FF"/>
<path d="M268.512 140.616C268.292 140.615 268.094 140.747 268.009 140.95C267.924 141.153 267.97 141.387 268.125 141.543C268.28 141.698 268.514 141.745 268.717 141.661C268.921 141.577 269.053 141.379 269.053 141.159C269.054 140.86 268.812 140.617 268.512 140.616Z" fill="#AFD3FF"/>
<path d="M247.351 129.12C247.131 129.119 246.932 129.251 246.847 129.453C246.763 129.656 246.809 129.89 246.964 130.046C247.119 130.202 247.353 130.249 247.556 130.165C247.759 130.081 247.892 129.883 247.892 129.663C247.892 129.519 247.835 129.381 247.734 129.279C247.632 129.177 247.494 129.12 247.351 129.12Z" fill="#AFD3FF"/>
<path d="M250.374 129.12C250.154 129.119 249.955 129.251 249.871 129.453C249.786 129.656 249.832 129.89 249.987 130.046C250.142 130.202 250.376 130.249 250.579 130.165C250.782 130.081 250.915 129.883 250.915 129.663C250.915 129.519 250.858 129.381 250.757 129.279C250.655 129.177 250.518 129.12 250.374 129.12Z" fill="#AFD3FF"/>
<path d="M253.397 129.12C253.177 129.119 252.978 129.25 252.893 129.453C252.809 129.656 252.855 129.89 253.01 130.046C253.165 130.202 253.399 130.249 253.602 130.165C253.805 130.081 253.938 129.883 253.938 129.663C253.938 129.363 253.696 129.12 253.397 129.12Z" fill="#AFD3FF"/>
<path d="M256.42 129.12C256.2 129.119 256.001 129.251 255.917 129.453C255.832 129.656 255.878 129.89 256.033 130.046C256.188 130.202 256.422 130.249 256.625 130.165C256.828 130.081 256.961 129.883 256.961 129.663C256.961 129.519 256.904 129.381 256.803 129.279C256.702 129.177 256.564 129.12 256.42 129.12Z" fill="#AFD3FF"/>
<path d="M259.443 129.12C259.223 129.119 259.024 129.251 258.94 129.453C258.855 129.656 258.901 129.89 259.056 130.046C259.211 130.202 259.445 130.249 259.648 130.165C259.852 130.081 259.984 129.883 259.984 129.663C259.984 129.519 259.927 129.381 259.826 129.279C259.725 129.177 259.587 129.12 259.443 129.12Z" fill="#AFD3FF"/>
<path d="M262.466 129.12C262.246 129.119 262.047 129.251 261.963 129.453C261.878 129.656 261.924 129.89 262.079 130.046C262.234 130.202 262.468 130.249 262.671 130.165C262.875 130.081 263.007 129.883 263.007 129.663C263.008 129.363 262.765 129.12 262.466 129.12Z" fill="#AFD3FF"/>
<path d="M265.489 129.12C265.269 129.119 265.071 129.251 264.986 129.453C264.901 129.656 264.947 129.89 265.102 130.046C265.257 130.202 265.491 130.249 265.694 130.165C265.898 130.081 266.03 129.883 266.03 129.663C266.03 129.519 265.974 129.381 265.872 129.279C265.771 129.177 265.633 129.12 265.489 129.12Z" fill="#AFD3FF"/>
<path d="M268.512 129.12C268.292 129.119 268.094 129.251 268.009 129.453C267.924 129.656 267.97 129.89 268.125 130.046C268.28 130.202 268.514 130.249 268.717 130.165C268.921 130.081 269.053 129.883 269.053 129.663C269.054 129.363 268.812 129.12 268.512 129.12Z" fill="#AFD3FF"/>
<path d="M247.351 134.868C247.131 134.867 246.932 134.999 246.847 135.202C246.763 135.405 246.809 135.639 246.964 135.794C247.119 135.95 247.353 135.997 247.556 135.913C247.759 135.829 247.892 135.631 247.892 135.411C247.892 135.267 247.835 135.129 247.734 135.027C247.632 134.926 247.494 134.868 247.351 134.868Z" fill="#AFD3FF"/>
<ellipse cx="250.374" cy="135.411" rx="0.541059" ry="0.543119" fill="#AFD3FF"/>
<path d="M253.397 134.868C253.177 134.867 252.978 134.999 252.894 135.202C252.809 135.405 252.855 135.639 253.01 135.794C253.165 135.95 253.399 135.997 253.602 135.913C253.805 135.829 253.938 135.631 253.938 135.411C253.938 135.112 253.696 134.869 253.397 134.868Z" fill="#AFD3FF"/>
<ellipse cx="256.42" cy="135.411" rx="0.541059" ry="0.543119" fill="#AFD3FF"/>
<ellipse cx="259.443" cy="135.411" rx="0.541059" ry="0.543119" fill="#AFD3FF"/>
<ellipse cx="262.466" cy="135.411" rx="0.541059" ry="0.543119" fill="#AFD3FF"/>
<ellipse cx="265.489" cy="135.411" rx="0.541059" ry="0.543119" fill="#AFD3FF"/>
<ellipse cx="268.512" cy="135.411" rx="0.541059" ry="0.543119" fill="#AFD3FF"/>
<path d="M247.351 143.49C247.131 143.489 246.932 143.621 246.847 143.824C246.763 144.027 246.809 144.261 246.964 144.417C247.119 144.572 247.353 144.619 247.556 144.535C247.759 144.451 247.892 144.253 247.892 144.033C247.892 143.89 247.835 143.752 247.734 143.65C247.632 143.548 247.494 143.491 247.351 143.49Z" fill="#AFD3FF"/>
<path d="M250.374 143.49C250.154 143.489 249.955 143.621 249.871 143.824C249.786 144.027 249.832 144.261 249.987 144.417C250.142 144.572 250.376 144.619 250.579 144.535C250.782 144.451 250.915 144.253 250.915 144.033C250.915 143.89 250.858 143.752 250.757 143.65C250.655 143.548 250.518 143.491 250.374 143.49Z" fill="#AFD3FF"/>
<path d="M253.397 143.49C253.177 143.489 252.978 143.621 252.893 143.824C252.809 144.027 252.855 144.261 253.01 144.417C253.165 144.572 253.399 144.619 253.602 144.535C253.805 144.452 253.938 144.253 253.938 144.033C253.938 143.734 253.696 143.491 253.397 143.49Z" fill="#AFD3FF"/>
<path d="M256.42 143.49C256.2 143.489 256.001 143.621 255.917 143.824C255.832 144.027 255.878 144.261 256.033 144.417C256.188 144.572 256.422 144.619 256.625 144.535C256.828 144.451 256.961 144.253 256.961 144.033C256.961 143.89 256.904 143.752 256.803 143.65C256.702 143.548 256.564 143.491 256.42 143.49Z" fill="#AFD3FF"/>
<path d="M259.443 143.49C259.223 143.489 259.024 143.621 258.94 143.824C258.855 144.027 258.901 144.261 259.056 144.417C259.211 144.572 259.445 144.619 259.648 144.535C259.851 144.451 259.984 144.253 259.984 144.033C259.984 143.89 259.928 143.752 259.826 143.65C259.725 143.548 259.587 143.491 259.443 143.49Z" fill="#AFD3FF"/>
<path d="M262.466 143.49C262.246 143.489 262.047 143.621 261.963 143.824C261.878 144.027 261.924 144.261 262.079 144.417C262.234 144.572 262.468 144.619 262.671 144.535C262.875 144.451 263.007 144.253 263.007 144.033C263.008 143.734 262.765 143.491 262.466 143.49Z" fill="#AFD3FF"/>
<path d="M265.489 143.49C265.269 143.489 265.071 143.621 264.986 143.824C264.901 144.027 264.947 144.261 265.102 144.417C265.257 144.572 265.491 144.619 265.694 144.535C265.898 144.451 266.03 144.253 266.03 144.033C266.03 143.89 265.974 143.752 265.872 143.65C265.771 143.548 265.633 143.491 265.489 143.49Z" fill="#AFD3FF"/>
<path d="M268.512 143.49C268.292 143.489 268.094 143.621 268.009 143.824C267.924 144.027 267.97 144.261 268.125 144.417C268.28 144.572 268.514 144.619 268.717 144.535C268.921 144.451 269.053 144.253 269.053 144.033C269.054 143.734 268.812 143.491 268.512 143.49Z" fill="#AFD3FF"/>
<path d="M247.351 183.728C247.131 183.727 246.932 183.859 246.847 184.062C246.763 184.265 246.809 184.498 246.964 184.654C247.119 184.81 247.353 184.857 247.556 184.773C247.759 184.689 247.892 184.491 247.892 184.271C247.892 184.127 247.835 183.989 247.734 183.887C247.632 183.785 247.494 183.728 247.351 183.728Z" fill="#AFD3FF"/>
<ellipse cx="250.374" cy="184.271" rx="0.541059" ry="0.543119" fill="#AFD3FF"/>
<path d="M253.397 183.728C253.177 183.727 252.978 183.859 252.894 184.062C252.809 184.264 252.855 184.498 253.01 184.654C253.165 184.81 253.399 184.857 253.602 184.773C253.805 184.689 253.938 184.491 253.938 184.271C253.938 183.972 253.696 183.728 253.397 183.728Z" fill="#AFD3FF"/>
<ellipse cx="256.42" cy="184.271" rx="0.541059" ry="0.543119" fill="#AFD3FF"/>
<ellipse cx="259.443" cy="184.271" rx="0.541059" ry="0.543119" fill="#AFD3FF"/>
<ellipse cx="262.466" cy="184.271" rx="0.541059" ry="0.543119" fill="#AFD3FF"/>
<ellipse cx="265.489" cy="184.271" rx="0.541059" ry="0.543119" fill="#AFD3FF"/>
<ellipse cx="268.512" cy="184.271" rx="0.541059" ry="0.543119" fill="#AFD3FF"/>
<path d="M247.351 172.231C247.131 172.23 246.932 172.362 246.847 172.565C246.763 172.768 246.808 173.002 246.964 173.158C247.119 173.314 247.353 173.36 247.556 173.276C247.759 173.192 247.892 172.994 247.892 172.774C247.892 172.631 247.835 172.493 247.734 172.391C247.632 172.289 247.494 172.231 247.351 172.231V172.231Z" fill="#AFD3FF"/>
<ellipse cx="250.374" cy="172.774" rx="0.541059" ry="0.543182" fill="#AFD3FF"/>
<path d="M253.397 172.231C253.177 172.23 252.978 172.362 252.893 172.565C252.809 172.768 252.855 173.002 253.01 173.158C253.165 173.314 253.399 173.36 253.602 173.276C253.805 173.193 253.938 172.994 253.938 172.774C253.938 172.475 253.696 172.232 253.397 172.231Z" fill="#AFD3FF"/>
<ellipse cx="256.42" cy="172.774" rx="0.541059" ry="0.543182" fill="#AFD3FF"/>
<ellipse cx="259.443" cy="172.774" rx="0.541059" ry="0.543182" fill="#AFD3FF"/>
<ellipse cx="262.466" cy="172.774" rx="0.541059" ry="0.543182" fill="#AFD3FF"/>
<ellipse cx="265.489" cy="172.774" rx="0.541059" ry="0.543182" fill="#AFD3FF"/>
<ellipse cx="268.512" cy="172.774" rx="0.541059" ry="0.543182" fill="#AFD3FF"/>
<path d="M247.351 177.979C247.131 177.979 246.932 178.11 246.847 178.313C246.763 178.516 246.809 178.75 246.964 178.906C247.119 179.062 247.353 179.109 247.556 179.025C247.759 178.941 247.892 178.742 247.892 178.523C247.892 178.379 247.835 178.241 247.734 178.139C247.632 178.037 247.494 177.98 247.351 177.979Z" fill="#AFD3FF"/>
<path d="M250.374 177.979C250.154 177.979 249.955 178.11 249.871 178.313C249.786 178.516 249.832 178.75 249.987 178.906C250.142 179.062 250.376 179.109 250.579 179.025C250.782 178.941 250.915 178.742 250.915 178.523C250.915 178.379 250.858 178.241 250.757 178.139C250.655 178.037 250.518 177.98 250.374 177.979Z" fill="#AFD3FF"/>
<path d="M253.397 177.979C253.177 177.979 252.978 178.11 252.893 178.313C252.809 178.516 252.855 178.75 253.01 178.906C253.165 179.062 253.399 179.109 253.602 179.025C253.805 178.941 253.938 178.743 253.938 178.523C253.938 178.223 253.696 177.98 253.397 177.979Z" fill="#AFD3FF"/>
<path d="M256.42 177.979C256.2 177.979 256.001 178.11 255.917 178.313C255.832 178.516 255.878 178.75 256.033 178.906C256.188 179.062 256.422 179.109 256.625 179.025C256.828 178.941 256.961 178.742 256.961 178.523C256.961 178.379 256.904 178.241 256.803 178.139C256.702 178.037 256.564 177.98 256.42 177.979Z" fill="#AFD3FF"/>
<path d="M259.443 177.979C259.223 177.979 259.024 178.11 258.94 178.313C258.855 178.516 258.901 178.75 259.056 178.906C259.211 179.062 259.445 179.109 259.648 179.025C259.852 178.941 259.984 178.742 259.984 178.523C259.984 178.379 259.927 178.241 259.826 178.139C259.725 178.037 259.587 177.98 259.443 177.979Z" fill="#AFD3FF"/>
<path d="M262.466 177.979C262.246 177.979 262.047 178.11 261.963 178.313C261.878 178.516 261.924 178.75 262.079 178.906C262.234 179.062 262.468 179.109 262.671 179.025C262.875 178.941 263.007 178.742 263.007 178.523C263.008 178.223 262.765 177.98 262.466 177.979Z" fill="#AFD3FF"/>
<path d="M265.489 177.979C265.269 177.979 265.071 178.11 264.986 178.313C264.901 178.516 264.947 178.75 265.102 178.906C265.257 179.062 265.491 179.109 265.694 179.025C265.898 178.941 266.03 178.742 266.03 178.523C266.03 178.379 265.974 178.241 265.872 178.139C265.771 178.037 265.633 177.98 265.489 177.979Z" fill="#AFD3FF"/>
<path d="M268.512 177.979C268.292 177.979 268.094 178.11 268.009 178.313C267.924 178.516 267.97 178.75 268.125 178.906C268.28 179.062 268.514 179.109 268.717 179.025C268.921 178.941 269.053 178.742 269.053 178.523C269.054 178.223 268.812 177.98 268.512 177.979Z" fill="#AFD3FF"/>
<path d="M247.351 180.854C247.131 180.853 246.932 180.985 246.847 181.188C246.763 181.39 246.809 181.624 246.964 181.78C247.119 181.936 247.353 181.983 247.556 181.899C247.759 181.815 247.892 181.617 247.892 181.397C247.892 181.253 247.835 181.115 247.734 181.013C247.632 180.911 247.494 180.854 247.351 180.854Z" fill="#AFD3FF"/>
<ellipse cx="250.374" cy="181.397" rx="0.541059" ry="0.543119" fill="#AFD3FF"/>
<path d="M253.397 180.854C253.177 180.853 252.978 180.985 252.894 181.188C252.809 181.39 252.855 181.624 253.01 181.78C253.165 181.936 253.399 181.983 253.602 181.899C253.805 181.815 253.938 181.617 253.938 181.397C253.938 181.098 253.696 180.854 253.397 180.854Z" fill="#AFD3FF"/>
<ellipse cx="256.42" cy="181.397" rx="0.541059" ry="0.543119" fill="#AFD3FF"/>
<ellipse cx="259.443" cy="181.397" rx="0.541059" ry="0.543119" fill="#AFD3FF"/>
<ellipse cx="262.466" cy="181.397" rx="0.541059" ry="0.543119" fill="#AFD3FF"/>
<ellipse cx="265.489" cy="181.397" rx="0.541059" ry="0.543119" fill="#AFD3FF"/>
<ellipse cx="268.512" cy="181.397" rx="0.541059" ry="0.543119" fill="#AFD3FF"/>
<path d="M247.351 166.483C247.131 166.482 246.932 166.614 246.847 166.817C246.763 167.02 246.809 167.254 246.964 167.41C247.119 167.565 247.353 167.612 247.556 167.528C247.759 167.444 247.892 167.246 247.892 167.026C247.892 166.883 247.835 166.745 247.734 166.643C247.632 166.541 247.494 166.483 247.351 166.483Z" fill="#AFD3FF"/>
<path d="M250.374 166.483C250.154 166.482 249.955 166.614 249.871 166.817C249.786 167.02 249.832 167.254 249.987 167.41C250.142 167.565 250.376 167.612 250.579 167.528C250.782 167.444 250.915 167.246 250.915 167.026C250.915 166.883 250.858 166.745 250.757 166.643C250.655 166.541 250.518 166.483 250.374 166.483Z" fill="#AFD3FF"/>
<path d="M253.397 166.483C253.177 166.482 252.978 166.614 252.893 166.817C252.809 167.02 252.855 167.254 253.01 167.41C253.165 167.565 253.399 167.612 253.602 167.528C253.805 167.444 253.938 167.246 253.938 167.026C253.938 166.727 253.696 166.484 253.397 166.483Z" fill="#AFD3FF"/>
<path d="M256.42 166.483C256.2 166.482 256.001 166.614 255.917 166.817C255.832 167.02 255.878 167.254 256.033 167.41C256.188 167.565 256.422 167.612 256.625 167.528C256.828 167.444 256.961 167.246 256.961 167.026C256.961 166.883 256.904 166.745 256.803 166.643C256.702 166.541 256.564 166.483 256.42 166.483Z" fill="#AFD3FF"/>
<path d="M259.443 166.483C259.223 166.482 259.024 166.614 258.94 166.817C258.855 167.02 258.901 167.254 259.056 167.41C259.211 167.565 259.445 167.612 259.648 167.528C259.851 167.444 259.984 167.246 259.984 167.026C259.984 166.883 259.928 166.745 259.826 166.643C259.725 166.541 259.587 166.483 259.443 166.483Z" fill="#AFD3FF"/>
<path d="M262.466 166.483C262.246 166.482 262.047 166.614 261.963 166.817C261.878 167.02 261.924 167.254 262.079 167.41C262.234 167.565 262.468 167.612 262.671 167.528C262.875 167.444 263.007 167.246 263.007 167.026C263.008 166.727 262.765 166.484 262.466 166.483Z" fill="#AFD3FF"/>
<path d="M265.489 166.483C265.269 166.482 265.071 166.614 264.986 166.817C264.901 167.02 264.947 167.254 265.102 167.41C265.257 167.565 265.491 167.612 265.694 167.528C265.898 167.444 266.03 167.246 266.03 167.026C266.03 166.883 265.974 166.745 265.872 166.643C265.771 166.541 265.633 166.483 265.489 166.483Z" fill="#AFD3FF"/>
<path d="M268.512 166.483C268.292 166.482 268.094 166.614 268.009 166.817C267.924 167.02 267.97 167.254 268.125 167.41C268.28 167.565 268.514 167.612 268.717 167.528C268.921 167.444 269.053 167.246 269.053 167.026C269.054 166.727 268.812 166.484 268.512 166.483Z" fill="#AFD3FF"/>
<path d="M247.351 169.357C247.131 169.356 246.932 169.488 246.847 169.691C246.763 169.894 246.809 170.128 246.964 170.284C247.119 170.439 247.353 170.486 247.556 170.402C247.759 170.318 247.892 170.12 247.892 169.9C247.892 169.757 247.835 169.619 247.734 169.517C247.632 169.415 247.494 169.357 247.351 169.357Z" fill="#AFD3FF"/>
<path d="M250.374 169.357C250.154 169.356 249.955 169.488 249.871 169.691C249.786 169.894 249.832 170.128 249.987 170.284C250.142 170.439 250.376 170.486 250.579 170.402C250.782 170.318 250.915 170.12 250.915 169.9C250.915 169.757 250.858 169.619 250.757 169.517C250.655 169.415 250.518 169.357 250.374 169.357Z" fill="#AFD3FF"/>
<path d="M253.397 169.357C253.177 169.356 252.978 169.488 252.893 169.691C252.809 169.894 252.855 170.128 253.01 170.284C253.165 170.439 253.399 170.486 253.602 170.402C253.805 170.318 253.938 170.12 253.938 169.9C253.938 169.601 253.696 169.358 253.397 169.357Z" fill="#AFD3FF"/>
<path d="M256.42 169.357C256.2 169.356 256.001 169.488 255.917 169.691C255.832 169.894 255.878 170.128 256.033 170.284C256.188 170.439 256.422 170.486 256.625 170.402C256.828 170.318 256.961 170.12 256.961 169.9C256.961 169.757 256.904 169.619 256.803 169.517C256.702 169.415 256.564 169.357 256.42 169.357Z" fill="#AFD3FF"/>
<path d="M259.443 169.357C259.223 169.356 259.024 169.488 258.94 169.691C258.855 169.894 258.901 170.128 259.056 170.284C259.211 170.439 259.445 170.486 259.648 170.402C259.851 170.318 259.984 170.12 259.984 169.9C259.984 169.757 259.928 169.619 259.826 169.517C259.725 169.415 259.587 169.357 259.443 169.357Z" fill="#AFD3FF"/>
<path d="M262.466 169.357C262.246 169.356 262.047 169.488 261.963 169.691C261.878 169.894 261.924 170.128 262.079 170.284C262.234 170.439 262.468 170.486 262.671 170.402C262.875 170.318 263.007 170.12 263.007 169.9C263.008 169.601 262.765 169.358 262.466 169.357Z" fill="#AFD3FF"/>
<path d="M265.489 169.357C265.269 169.356 265.071 169.488 264.986 169.691C264.901 169.894 264.947 170.128 265.102 170.284C265.257 170.439 265.491 170.486 265.694 170.402C265.898 170.318 266.03 170.12 266.03 169.9C266.03 169.757 265.974 169.619 265.872 169.517C265.771 169.415 265.633 169.357 265.489 169.357Z" fill="#AFD3FF"/>
<path d="M268.512 169.357C268.292 169.356 268.094 169.488 268.009 169.691C267.924 169.894 267.97 170.128 268.125 170.284C268.28 170.439 268.514 170.486 268.717 170.402C268.921 170.318 269.053 170.12 269.053 169.9C269.054 169.601 268.812 169.358 268.512 169.357Z" fill="#AFD3FF"/>
<path d="M247.351 175.105C247.131 175.105 246.932 175.236 246.847 175.439C246.763 175.642 246.809 175.876 246.964 176.032C247.119 176.188 247.353 176.235 247.556 176.151C247.759 176.067 247.892 175.868 247.892 175.649C247.892 175.505 247.835 175.367 247.734 175.265C247.632 175.163 247.494 175.106 247.351 175.105Z" fill="#AFD3FF"/>
<path d="M250.374 175.105C250.154 175.105 249.955 175.236 249.871 175.439C249.786 175.642 249.832 175.876 249.987 176.032C250.142 176.188 250.376 176.235 250.579 176.151C250.782 176.067 250.915 175.868 250.915 175.649C250.915 175.505 250.858 175.367 250.757 175.265C250.655 175.163 250.518 175.106 250.374 175.105Z" fill="#AFD3FF"/>
<path d="M253.397 175.105C253.177 175.105 252.978 175.236 252.893 175.439C252.809 175.642 252.855 175.876 253.01 176.032C253.165 176.188 253.399 176.235 253.602 176.151C253.805 176.067 253.938 175.868 253.938 175.649C253.938 175.349 253.696 175.106 253.397 175.105Z" fill="#AFD3FF"/>
<path d="M256.42 175.105C256.2 175.105 256.001 175.236 255.917 175.439C255.832 175.642 255.878 175.876 256.033 176.032C256.188 176.188 256.422 176.235 256.625 176.151C256.828 176.067 256.961 175.868 256.961 175.649C256.961 175.505 256.904 175.367 256.803 175.265C256.702 175.163 256.564 175.106 256.42 175.105Z" fill="#AFD3FF"/>
<path d="M259.443 175.105C259.223 175.105 259.024 175.236 258.94 175.439C258.855 175.642 258.901 175.876 259.056 176.032C259.211 176.188 259.445 176.235 259.648 176.151C259.852 176.067 259.984 175.868 259.984 175.649C259.984 175.505 259.927 175.367 259.826 175.265C259.725 175.163 259.587 175.106 259.443 175.105Z" fill="#AFD3FF"/>
<path d="M262.466 175.105C262.246 175.105 262.047 175.236 261.963 175.439C261.878 175.642 261.924 175.876 262.079 176.032C262.234 176.188 262.468 176.235 262.671 176.151C262.875 176.067 263.007 175.868 263.007 175.649C263.008 175.349 262.765 175.106 262.466 175.105Z" fill="#AFD3FF"/>
<path d="M265.489 175.105C265.269 175.105 265.071 175.236 264.986 175.439C264.901 175.642 264.947 175.876 265.102 176.032C265.257 176.188 265.491 176.235 265.694 176.151C265.898 176.067 266.03 175.868 266.03 175.649C266.03 175.505 265.974 175.367 265.872 175.265C265.771 175.163 265.633 175.106 265.489 175.105Z" fill="#AFD3FF"/>
<path d="M268.512 175.105C268.292 175.105 268.094 175.236 268.009 175.439C267.924 175.642 267.97 175.876 268.125 176.032C268.28 176.188 268.514 176.235 268.717 176.151C268.921 176.067 269.053 175.868 269.053 175.649C269.054 175.349 268.812 175.106 268.512 175.105Z" fill="#AFD3FF"/>
<path d="M247.351 186.602C247.131 186.601 246.932 186.733 246.847 186.936C246.763 187.139 246.809 187.372 246.964 187.528C247.119 187.684 247.353 187.731 247.556 187.647C247.759 187.563 247.892 187.365 247.892 187.145C247.892 187.001 247.835 186.863 247.734 186.761C247.632 186.659 247.494 186.602 247.351 186.602Z" fill="#AFD3FF"/>
<path d="M250.374 186.602C250.154 186.601 249.955 186.733 249.871 186.936C249.786 187.139 249.832 187.372 249.987 187.528C250.142 187.684 250.376 187.731 250.579 187.647C250.782 187.563 250.915 187.365 250.915 187.145C250.915 187.001 250.858 186.863 250.757 186.761C250.655 186.659 250.518 186.602 250.374 186.602Z" fill="#AFD3FF"/>
<path d="M253.397 186.602C253.177 186.601 252.978 186.733 252.893 186.936C252.809 187.138 252.855 187.372 253.01 187.528C253.165 187.684 253.399 187.731 253.602 187.647C253.805 187.563 253.938 187.365 253.938 187.145C253.938 186.846 253.696 186.602 253.397 186.602Z" fill="#AFD3FF"/>
<path d="M256.42 186.602C256.2 186.601 256.001 186.733 255.917 186.936C255.832 187.139 255.878 187.372 256.033 187.528C256.188 187.684 256.422 187.731 256.625 187.647C256.828 187.563 256.961 187.365 256.961 187.145C256.961 187.001 256.904 186.863 256.803 186.761C256.702 186.659 256.564 186.602 256.42 186.602Z" fill="#AFD3FF"/>
<path d="M259.443 186.602C259.223 186.601 259.024 186.733 258.94 186.936C258.855 187.139 258.901 187.372 259.056 187.528C259.211 187.684 259.445 187.731 259.648 187.647C259.851 187.563 259.984 187.365 259.984 187.145C259.984 187.001 259.928 186.863 259.826 186.761C259.725 186.659 259.587 186.602 259.443 186.602Z" fill="#AFD3FF"/>
<path d="M262.466 186.602C262.246 186.601 262.047 186.733 261.963 186.936C261.878 187.139 261.924 187.372 262.079 187.528C262.234 187.684 262.468 187.731 262.671 187.647C262.875 187.563 263.007 187.365 263.007 187.145C263.008 186.846 262.765 186.602 262.466 186.602Z" fill="#AFD3FF"/>
<path d="M265.489 186.602C265.269 186.601 265.071 186.733 264.986 186.936C264.901 187.139 264.947 187.372 265.102 187.528C265.257 187.684 265.491 187.731 265.694 187.647C265.898 187.563 266.03 187.365 266.03 187.145C266.03 187.001 265.974 186.863 265.872 186.761C265.771 186.659 265.633 186.602 265.489 186.602Z" fill="#AFD3FF"/>
<path d="M268.512 186.602C268.292 186.601 268.094 186.733 268.009 186.936C267.924 187.139 267.97 187.372 268.125 187.528C268.28 187.684 268.514 187.731 268.717 187.647C268.921 187.563 269.053 187.365 269.053 187.145C269.054 186.846 268.812 186.602 268.512 186.602Z" fill="#AFD3FF"/>
</g>
<path d="M197.2 206.492L178.243 183.62L171.278 180.589C171.278 180.589 177.548 186.399 170.796 198.261C164.044 210.123 181.165 200.924 181.165 200.924" fill="#DAE9FF"/>
<path d="M211.547 169.816L219.484 179.22L226.588 182.98C226.588 182.98 223.483 176.353 224.689 169.816C225.895 163.28 214.32 170.18 214.32 170.18" fill="#DAE9FF"/>
</g>
<path fill-rule="evenodd" clip-rule="evenodd" d="M139.528 222.551L108.634 222.585L173.744 157.114L219.484 179.22L251.428 129.615L269.768 141.519L227.365 207.363L178.243 183.62L139.528 222.551V222.551Z" stroke="#143C9A" stroke-width="1.0752" stroke-linecap="round" stroke-linejoin="round"/>
<path d="M276.789 112.387L233.076 123.71L283.309 157.234L276.789 112.387Z" fill="white"/>
<mask id="mask3_0_1646" style="mask-type:alpha" maskUnits="userSpaceOnUse" x="233" y="112" width="51" height="46">
<path fill-rule="evenodd" clip-rule="evenodd" d="M276.789 112.387L233.076 123.711L283.309 157.234L276.789 112.387Z" fill="white"/>
</mask>
<g mask="url(#mask3_0_1646)">
<path d="M220.71 131.111C220.71 131.111 251.956 118.82 276.789 112.387C285.441 110.146 256.338 108.268 255.434 108.812C254.529 109.357 226.859 115.53 226.859 115.53" fill="#DAE9FF"/>
</g>
<path fill-rule="evenodd" clip-rule="evenodd" d="M276.789 112.387L233.076 123.71L283.309 157.234L276.789 112.387V112.387Z" stroke="#143C9A" stroke-width="1.0752" stroke-linecap="round" stroke-linejoin="round"/>
<path d="M228.054 183.536L218.283 178.639L228.054 183.536Z" fill="white"/>
<path d="M228.054 183.536L218.283 178.639" stroke="#143C9A" stroke-width="1.0752" stroke-linecap="round" stroke-linejoin="round"/>
<path d="M170.363 179.905L180.166 184.549L170.363 179.905Z" fill="white"/>
<path d="M170.363 179.905L180.166 184.549" stroke="#143C9A" stroke-width="1.0752" stroke-linecap="round" stroke-linejoin="round"/>
<path d="M270.553 133.242L267.646 134.295" stroke="#143C9A" stroke-width="1.0752" stroke-linecap="round" stroke-linejoin="round"/>
<path d="M198.22 182.251L205.769 185.625" stroke="#143C9A" stroke-width="1.0752" stroke-linecap="round" stroke-linejoin="round"/>
<path fill-rule="evenodd" clip-rule="evenodd" d="M140.348 110.781V110.784C144.04 110.784 147.036 113.721 147.021 117.325V165.16C147.021 168.783 144.04 171.721 140.348 171.721H70.9457C67.268 171.721 64.2751 168.783 64.2751 165.16V117.325C64.2751 113.721 67.268 110.784 70.9457 110.784H78.6083V93.3081C78.6083 78.6887 90.7446 66.7852 105.648 66.7852C120.567 66.7852 132.685 78.6731 132.685 93.3052V110.781H140.348ZM122.322 110.784V110.777L122.337 93.7416C122.337 84.7212 114.87 77.3857 105.675 77.3857C96.4828 77.3857 89.0017 84.7213 89.0017 93.7416V110.784H122.322Z" fill="white"/>
<mask id="mask4_0_1646" style="mask-type:alpha" maskUnits="userSpaceOnUse" x="64" y="66" width="84" height="106">
<path fill-rule="evenodd" clip-rule="evenodd" d="M140.348 110.784V110.781H132.685V93.3052C132.685 78.6731 120.567 66.7852 105.648 66.7852C90.7446 66.7852 78.6083 78.6887 78.6083 93.3081V110.784H70.9457C67.268 110.784 64.2751 113.721 64.2751 117.325V165.16C64.2751 168.783 67.268 171.721 70.9457 171.721H140.348C144.04 171.721 147.021 168.783 147.021 165.16V117.325C147.036 113.721 144.04 110.784 140.348 110.784ZM122.322 110.777V110.784H89.0017V93.7416C89.0017 84.7213 96.4828 77.3857 105.675 77.3857C114.87 77.3857 122.337 84.7212 122.337 93.7416L122.322 110.777Z" fill="white"/>
</mask>
<g mask="url(#mask4_0_1646)">
<path d="M47.094 175.04C145.604 171.202 144.961 181.275 145.604 116.825C146.247 52.3761 165.009 175.499 165.009 175.499L147.199 197.551L38.1607 192.498" fill="#DAE9FF"/>
</g>
<path d="M140.348 110.784H139.81C139.81 111.08 140.051 111.321 140.348 111.321V110.784ZM140.348 110.781H140.885C140.885 110.484 140.645 110.243 140.348 110.243V110.781ZM132.685 110.781H132.147C132.147 111.077 132.388 111.318 132.685 111.318V110.781ZM78.6083 110.784V111.321C78.9052 111.321 79.1459 111.08 79.1459 110.784H78.6083ZM147.021 117.325L146.484 117.323V117.325H147.021ZM122.322 110.777L121.785 110.777V110.777H122.322ZM122.322 110.784V111.321C122.619 111.321 122.86 111.08 122.86 110.784H122.322ZM89.0017 110.784H88.4641C88.4641 111.08 88.7048 111.321 89.0017 111.321V110.784ZM122.337 93.7416L122.875 93.7421V93.7416H122.337ZM140.885 110.784V110.781H139.81V110.784H140.885ZM140.348 110.243H132.685V111.318H140.348V110.243ZM133.223 110.781V93.3052H132.147V110.781H133.223ZM133.223 93.3052C133.223 78.3665 120.854 66.2476 105.648 66.2476V67.3228C120.279 67.3228 132.147 78.9797 132.147 93.3052H133.223ZM105.648 66.2476C90.4576 66.2476 78.0707 78.3821 78.0707 93.3081H79.1459C79.1459 78.9954 91.0317 67.3228 105.648 67.3228V66.2476ZM78.0707 93.3081V110.784H79.1459V93.3081H78.0707ZM78.6083 110.246H70.9457V111.321H78.6083V110.246ZM70.9457 110.246C66.9809 110.246 63.7375 113.414 63.7375 117.325H64.8127C64.8127 114.027 67.5551 111.321 70.9457 111.321V110.246ZM63.7375 117.325V165.16H64.8127V117.325H63.7375ZM63.7375 165.16C63.7375 169.088 66.9798 172.258 70.9457 172.258V171.183C67.5561 171.183 64.8127 168.477 64.8127 165.16H63.7375ZM70.9457 172.258H140.348V171.183H70.9457V172.258ZM140.348 172.258C144.329 172.258 147.559 169.088 147.559 165.16H146.484C146.484 168.478 143.752 171.183 140.348 171.183V172.258ZM147.559 165.16V117.325H146.484V165.16H147.559ZM147.559 117.328C147.575 113.413 144.326 110.246 140.348 110.246V111.321C143.755 111.321 146.497 114.028 146.484 117.323L147.559 117.328ZM121.785 110.777V110.784H122.86V110.777H121.785ZM122.322 110.246H89.0017V111.321H122.322V110.246ZM89.5393 110.784V93.7416H88.4641V110.784H89.5393ZM89.5393 93.7416C89.5393 85.0279 96.7698 77.9233 105.675 77.9233V76.8481C96.1957 76.8481 88.4641 84.4146 88.4641 93.7416H89.5393ZM105.675 77.9233C114.583 77.9233 121.799 85.0273 121.799 93.7416H122.875C122.875 84.4151 115.158 76.8481 105.675 76.8481V77.9233ZM121.799 93.7411L121.785 110.777L122.86 110.778L122.875 93.7421L121.799 93.7411Z" fill="#143C9A"/>
<path d="M109.41 137.744V148.185C109.401 148.663 109.011 149.045 108.533 149.045H102.791C102.314 149.044 101.925 148.662 101.916 148.185V137.744C99.213 136.394 97.3459 133.674 97.3459 130.506C97.3459 126.008 101.066 122.347 105.663 122.347C110.258 122.347 113.978 126.008 113.978 130.503C113.978 133.674 112.113 136.394 109.41 137.744Z" fill="#DAE9FF"/>
<mask id="mask5_0_1646" style="mask-type:alpha" maskUnits="userSpaceOnUse" x="97" y="122" width="17" height="28">
<path fill-rule="evenodd" clip-rule="evenodd" d="M109.41 137.744V148.185C109.401 148.663 109.011 149.045 108.533 149.045H102.791C102.314 149.044 101.925 148.662 101.916 148.185V137.744C99.213 136.394 97.3459 133.674 97.3459 130.506C97.3459 126.008 101.066 122.347 105.663 122.347C110.258 122.347 113.978 126.008 113.978 130.503C113.978 133.674 112.113 136.394 109.41 137.744Z" fill="white"/>
</mask>
<g mask="url(#mask5_0_1646)">
<path d="M107.274 137.744V148.185C107.265 148.663 106.875 149.045 106.397 149.045H100.655C100.178 149.044 99.7899 148.662 99.7806 148.185V137.744C97.0774 136.394 95.2104 133.674 95.2104 130.506C95.2104 126.008 98.93 122.347 103.527 122.347C108.123 122.347 111.842 126.008 111.842 130.503C111.842 133.674 109.977 136.394 107.274 137.744Z" fill="white"/>
</g>
<path fill-rule="evenodd" clip-rule="evenodd" d="M109.41 137.744V148.185C109.401 148.663 109.011 149.045 108.533 149.045H102.791C102.314 149.044 101.925 148.662 101.916 148.185V137.744C99.213 136.394 97.3459 133.674 97.3459 130.506C97.3459 126.008 101.066 122.347 105.663 122.347C110.258 122.347 113.978 126.008 113.978 130.503C113.978 133.674 112.113 136.394 109.41 137.744Z" stroke="#143C9A" stroke-width="1.0752" stroke-linecap="round" stroke-linejoin="round"/>
<path d="M80.1642 116.683C79.2918 118.57 78.118 120.302 76.6889 121.812" stroke="#143C9A" stroke-width="1.0752" stroke-linecap="round" stroke-linejoin="round"/>
<path d="M137.506 117.755C136.567 118.854 135.521 119.859 134.385 120.754" stroke="#143C9A" stroke-width="1.0752" stroke-linecap="round" stroke-linejoin="round"/>
<path d="M196.231 70.0698C202.356 66.2332 205.875 60.0264 207.392 58.8438C208.908 57.6612 219.3 58.4208 220.113 57.5343C220.925 56.6478 219.333 60.5793 215.511 61.2504C211.689 61.9216 210.914 62.3518 210.914 62.3518C210.914 62.3518 207.445 71.534 205.476 73.2076C203.507 74.8813 191.883 82.6421 191.883 82.6421L196.231 70.0698Z" fill="white" stroke="#143C9A" stroke-width="1.0752" stroke-linecap="round" stroke-linejoin="round"/>
<path d="M199.647 67.028C199.647 67.028 206.255 75.6244 204.87 80.4566L163.762 98.5358L132.999 57.784C132.999 57.784 147.077 56.7589 150.727 56.3765C154.651 55.9655 167.263 78.1049 171.665 77.9243C173.864 77.8341 199.647 67.028 199.647 67.028Z" fill="#DAE9FF"/>
<mask id="mask6_0_1646" style="mask-type:alpha" maskUnits="userSpaceOnUse" x="132" y="56" width="74" height="43">
<path fill-rule="evenodd" clip-rule="evenodd" d="M199.647 67.028C199.647 67.028 206.255 75.6244 204.87 80.4566L163.762 98.5358L132.999 57.784C132.999 57.784 147.077 56.7589 150.727 56.3765C154.651 55.9655 167.263 78.1049 171.665 77.9243C173.864 77.8341 199.647 67.028 199.647 67.028Z" fill="white"/>
</mask>
<g mask="url(#mask6_0_1646)">
<path d="M154.968 71.0225C167.631 92.2308 176.029 103.725 189.636 87.6784L176.029 103.725L146.384 100.028V93.4714" fill="#DAE9FF"/>
<ellipse cx="171.916" cy="77.4532" rx="0.994676" ry="0.998583" fill="#AFD3FF"/>
<ellipse cx="199.601" cy="79.46" rx="0.994676" ry="0.998583" fill="#AFD3FF"/>
</g>
<path fill-rule="evenodd" clip-rule="evenodd" d="M199.647 67.028C199.647 67.028 206.255 75.6244 204.87 80.4566L163.762 98.5358L132.999 57.784C132.999 57.784 147.077 56.7589 150.727 56.3765C154.651 55.9655 167.263 78.1049 171.665 77.9243C173.864 77.8341 199.647 67.028 199.647 67.028Z" stroke="#143C9A" stroke-width="1.0752" stroke-linecap="round" stroke-linejoin="round"/>
<path d="M249.836 204.469L259.725 201.188L250.229 181.3L238.194 185.293L249.836 204.469Z" fill="white"/>
<mask id="mask7_0_1646" style="mask-type:alpha" maskUnits="userSpaceOnUse" x="238" y="181" width="22" height="24">
<path fill-rule="evenodd" clip-rule="evenodd" d="M249.836 204.469L259.725 201.188L250.229 181.3L238.194 185.293L249.836 204.469Z" fill="white"/>
</mask>
<g mask="url(#mask7_0_1646)">
<path d="M232.828 201.083C254.45 194.057 253.941 189.074 253.941 189.074L245.541 188.16L238.194 193.931" fill="#DAE9FF"/>
</g>
<path fill-rule="evenodd" clip-rule="evenodd" d="M249.836 204.469L259.725 201.188L250.229 181.3L238.194 185.293L249.836 204.469V204.469Z" stroke="#143C9A" stroke-width="1.0752" stroke-linecap="round" stroke-linejoin="round"/>
<path d="M286.919 200.5C285.05 197.044 282.053 196.615 278.338 197.09C270.136 198.139 260.382 198.644 257.706 195.423L245.541 198.871L251.216 209.007C251.993 210.393 253.789 211.165 255.171 210.706L286.919 200.5Z" fill="#AFD3FF" stroke="#143C9A" stroke-width="1.0752" stroke-linecap="round" stroke-linejoin="round"/>
<path d="M234.267 195.619C247.005 194.475 255.482 188.04 255.482 188.04L232.416 137.136C231.08 134.103 228.556 131.662 225.358 130.311L160.254 106.95L161.725 111.626L164.639 128.95L212.246 148.548L234.267 195.619Z" fill="white"/>
<path fill-rule="evenodd" clip-rule="evenodd" d="M234.267 195.619C247.005 194.475 255.482 188.04 255.482 188.04L232.416 137.136C231.08 134.103 228.556 131.662 225.358 130.311L160.254 106.95L161.725 111.626L164.639 128.95L212.246 148.548L234.267 195.619Z" stroke="#143C9A" stroke-width="1.0752" stroke-linecap="round" stroke-linejoin="round"/>
<path d="M191.775 225.117L200.822 230.077L205.44 205.562L194.567 198.699L191.775 225.117Z" fill="white"/>
<mask id="mask8_0_1646" style="mask-type:alpha" maskUnits="userSpaceOnUse" x="191" y="198" width="15" height="33">
<path fill-rule="evenodd" clip-rule="evenodd" d="M191.775 225.117L200.822 230.077L205.44 205.562L194.567 198.699L191.775 225.117Z" fill="white"/>
</mask>
<g mask="url(#mask8_0_1646)">
<path d="M187.089 212.814C200.267 217.769 204.233 215.248 204.233 215.248L196.94 209.552L187.281 210.242" fill="#DAE9FF"/>
</g>
<path fill-rule="evenodd" clip-rule="evenodd" d="M191.775 225.117L200.822 230.077L205.44 205.562L194.567 198.699L191.775 225.117V225.117Z" stroke="#143C9A" stroke-width="1.0752" stroke-linecap="round" stroke-linejoin="round"/>
<path d="M216.996 250.397C218.556 246.87 216.984 244.302 214.231 241.726C208.154 236.04 201.519 228.829 202.377 224.823L191.854 217.531L189.542 230.077C188.933 231.511 189.465 233.362 190.713 234.15L216.996 250.397Z" fill="#AFD3FF" stroke="#143C9A" stroke-width="1.0752" stroke-linecap="round" stroke-linejoin="round"/>
<path d="M187.458 208.521C187.458 208.521 201.174 218.288 207.745 214.285L216.948 145.764C217.614 141.065 215.113 136.341 210.666 133.898L160.255 106.95L136.831 111.636L135.343 117.434C132.919 126.883 138.8 136.798 148.755 140.047L193.396 152.673L187.458 208.521Z" fill="white"/>
<mask id="mask9_0_1646" style="mask-type:alpha" maskUnits="userSpaceOnUse" x="134" y="106" width="84" height="110">
<path fill-rule="evenodd" clip-rule="evenodd" d="M187.458 208.521C187.458 208.521 201.174 218.288 207.745 214.285L216.948 145.764C217.614 141.065 215.113 136.341 210.666 133.898L160.255 106.95L136.831 111.636L135.343 117.434C132.919 126.883 138.8 136.798 148.755 140.047L193.396 152.673L187.458 208.521Z" fill="white"/>
</mask>
<g mask="url(#mask9_0_1646)">
<ellipse cx="218.154" cy="143.162" rx="7.95739" ry="2.36028" fill="white" stroke="#143C9A" stroke-width="1.0752" stroke-linecap="round" stroke-linejoin="round"/>
</g>
<path fill-rule="evenodd" clip-rule="evenodd" d="M187.458 208.521C187.458 208.521 201.174 218.288 207.745 214.285L216.948 145.764C217.614 141.065 215.113 136.341 210.666 133.898L160.255 106.95L136.831 111.636L135.343 117.434C132.919 126.883 138.8 136.798 148.755 140.047L193.396 152.673L187.458 208.521Z" stroke="#143C9A" stroke-width="1.0752" stroke-linecap="round" stroke-linejoin="round"/>
<path d="M147.585 57.2113C143.235 55.9735 125.923 56.749 123.848 62.4364C122.995 64.7751 116.902 82.3245 128.286 130.324C135.542 134.96 166.77 107.213 166.77 107.213C166.857 107.172 160.943 86.7869 155.362 72.0526" fill="#DAE9FF"/>
<mask id="mask10_0_1646" style="mask-type:alpha" maskUnits="userSpaceOnUse" x="121" y="56" width="46" height="75">
<path fill-rule="evenodd" clip-rule="evenodd" d="M147.585 57.2116C143.235 55.9738 125.923 56.7492 123.848 62.4366C122.995 64.7753 116.902 82.3248 128.286 130.325C135.542 134.96 166.77 107.213 166.77 107.213C166.857 107.172 160.943 86.7872 155.362 72.0528" fill="white"/>
</mask>
<g mask="url(#mask10_0_1646)">
<path d="M166.77 107.213C121.735 104.93 122.426 143.651 146.366 127.887C170.307 112.124 141.609 136.602 140.605 137.2C139.601 137.798 118.162 141.385 118.162 141.385L108.389 114.773C108.389 114.773 122.926 96.0161 125.011 97.6255C127.095 99.235 161.336 99.5747 161.336 99.5747" fill="#DAE9FF"/>
<path d="M161.97 116.594C164.381 107.032 145.932 62.4292 145.932 62.4292L161.97 116.594Z" fill="#AFD3FF"/>
<path d="M161.97 116.594C164.381 107.032 145.932 62.4292 145.932 62.4292" stroke="#143C9A" stroke-width="1.0752" stroke-linecap="round" stroke-linejoin="round"/>
</g>
<path d="M147.585 57.2113C143.235 55.9735 125.923 56.749 123.848 62.4364C122.995 64.7751 116.902 82.3245 128.286 130.324C135.542 134.96 166.77 107.213 166.77 107.213C166.857 107.172 160.943 86.7869 155.362 72.0526" stroke="#143C9A" stroke-width="1.0752" stroke-linecap="round" stroke-linejoin="round"/>
<path d="M137.985 79.46C136.374 90.4138 150.396 91.1653 157.74 91.8174C165.083 92.4696 148.208 92.3862 155.387 92.6281C162.566 92.8699 144.235 97.6255 144.235 97.6255L125.923 96.0386L127.926 81.6012L137.985 79.46Z" fill="#DAE9FF"/>
<path d="M167.606 93.9259C174.815 93.545 180.887 89.8234 182.784 89.5254C184.681 89.2275 193.409 94.9417 194.547 94.5608C195.686 94.1799 192.397 96.8465 188.729 95.5767C185.061 94.3069 184.175 94.3068 184.175 94.3068C184.175 94.3068 176.713 100.656 174.183 101.164C171.653 101.672 157.74 102.815 157.74 102.815L167.606 93.9259Z" fill="white"/>
<mask id="mask11_0_1646" style="mask-type:alpha" maskUnits="userSpaceOnUse" x="157" y="89" width="38" height="14">
<path fill-rule="evenodd" clip-rule="evenodd" d="M167.605 93.9259C174.815 93.545 180.887 89.8234 182.784 89.5254C184.681 89.2275 193.409 94.9417 194.547 94.5608C195.686 94.1799 192.397 96.8465 188.729 95.5767C185.061 94.3069 184.175 94.3068 184.175 94.3068C184.175 94.3068 176.713 100.656 174.183 101.164C171.653 101.672 157.74 102.815 157.74 102.815L167.605 93.9259Z" fill="white"/>
</mask>
<g mask="url(#mask11_0_1646)">
<path d="M173.864 104.713C175.002 95.9984 172.687 91.7205 172.687 91.7205L167.678 101.899L172.821 105.258" fill="#DAE9FF"/>
</g>
<path fill-rule="evenodd" clip-rule="evenodd" d="M167.606 93.9259C174.815 93.545 180.887 89.8234 182.784 89.5254C184.681 89.2275 193.409 94.9417 194.547 94.5608C195.686 94.1799 192.397 96.8465 188.729 95.5767C185.061 94.3069 184.175 94.3068 184.175 94.3068C184.175 94.3068 176.713 100.656 174.183 101.164C171.653 101.672 157.74 102.815 157.74 102.815L167.606 93.9259Z" stroke="#143C9A" stroke-width="1.0752" stroke-linecap="round" stroke-linejoin="round"/>
<path d="M137.985 79.4601C136.491 85.1923 130.303 91.3571 130.303 91.3571L172.687 91.7207C172.687 91.7207 173.699 103.657 170.157 107.213H117.379C113.437 107.208 109.958 104.637 108.796 100.87C108.147 98.7785 108.278 96.5231 109.165 94.5209L123.848 62.4365" fill="#DAE9FF"/>
<path d="M137.985 79.4601C136.491 85.1923 130.303 91.3571 130.303 91.3571L172.687 91.7207C172.687 91.7207 173.699 103.657 170.157 107.213H117.379C113.437 107.208 109.958 104.637 108.796 100.87V100.87C108.147 98.7785 108.278 96.5231 109.165 94.5209L123.848 62.4365" stroke="#143C9A" stroke-width="1.0752" stroke-linecap="round" stroke-linejoin="round"/>
<path d="M178.26 101.792L173.864 102.344V101.033L202.579 87.8608V89.6539L178.26 101.792Z" fill="#AFD3FF" stroke="#143C9A" stroke-width="1.0752" stroke-linecap="round" stroke-linejoin="round"/>
<path d="M202.579 48.2734V89.6541H234.18V58.2303C234.182 56.3985 233.033 54.7629 231.309 54.1432L206.72 45.3422C205.769 45.0039 204.712 45.1497 203.889 45.7329C203.065 46.3162 202.576 47.2639 202.579 48.2734Z" fill="#AFD3FF"/>
<mask id="mask12_0_1646" style="mask-type:alpha" maskUnits="userSpaceOnUse" x="202" y="45" width="33" height="45">
<path fill-rule="evenodd" clip-rule="evenodd" d="M202.579 48.2732V89.6539H234.18V58.2301C234.182 56.3983 233.033 54.7626 231.309 54.143L206.72 45.3419C205.769 45.0037 204.712 45.1494 203.889 45.7327C203.065 46.316 202.576 47.2637 202.579 48.2732Z" fill="white"/>
</mask>
<g mask="url(#mask12_0_1646)">
<path d="M227.298 41.8108C258.645 74.7862 213.553 92.2159 213.553 92.2159L246.347 100.689L250.205 69.1864L236.702 52.12" fill="#AFD3FF"/>
<ellipse cx="212.834" cy="68.4193" rx="6.2303" ry="6.25478" fill="white" stroke="#143C9A" stroke-width="1.0752" stroke-linecap="round" stroke-linejoin="round"/>
<path d="M230.531 65.9809L222.236 69.6452L218.586 61.3173L226.881 57.6531L230.531 65.9809Z" fill="#AFD3FF" stroke="#143C9A" stroke-width="1.0752" stroke-linecap="round" stroke-linejoin="round"/>
<path d="M223.552 77.1597L220.139 74.926L222.363 71.4988L225.777 73.7324L223.552 77.1597Z" fill="#DAE9FF" stroke="#143C9A" stroke-width="1.0752" stroke-linecap="round" stroke-linejoin="round"/>
</g>
<path fill-rule="evenodd" clip-rule="evenodd" d="M202.579 48.2734V89.6541H234.18V58.2303C234.182 56.3985 233.033 54.7629 231.309 54.1432L206.72 45.3422C205.769 45.0039 204.712 45.1497 203.889 45.7329C203.065 46.3162 202.576 47.2639 202.579 48.2734Z" stroke="#143C9A" stroke-width="1.0752" stroke-linecap="round" stroke-linejoin="round"/>
<path d="M173.864 102.344L202.579 89.6541H234.18L204.777 103.034L173.864 102.344Z" fill="#AFD3FF" stroke="#143C9A" stroke-width="1.0752" stroke-linecap="round" stroke-linejoin="round"/>
<path d="M145.932 62.4292L144.47 50.2437L132.999 41.8108V57.7839" fill="white"/>
<mask id="mask13_0_1646" style="mask-type:alpha" maskUnits="userSpaceOnUse" x="132" y="41" width="14" height="22">
<path fill-rule="evenodd" clip-rule="evenodd" d="M145.932 62.4292L144.47 50.2437L132.999 41.8108V57.7839" fill="white"/>
</mask>
<g mask="url(#mask13_0_1646)">
<path d="M147.508 62.8445C144.114 57.6224 135.899 46.1116 135.899 46.1116L146.5 51.7882C146.5 51.7882 148.956 65.0727 147.508 62.8445Z" fill="#DAE9FF"/>
</g>
<path d="M145.932 62.4292L144.47 50.2437L132.999 41.8108V57.7839" stroke="#143C9A" stroke-width="1.0752" stroke-linecap="round" stroke-linejoin="round"/>
<path d="M132.345 43.5052L130.927 34.9959L150.011 32.5146C150.011 32.5146 152.074 45.8285 148.43 51.7206C146.22 55.2929 141.023 52.9901 137.274 50.6231" fill="white"/>
<mask id="mask14_0_1646" style="mask-type:alpha" maskUnits="userSpaceOnUse" x="130" y="32" width="21" height="22">
<path fill-rule="evenodd" clip-rule="evenodd" d="M132.345 43.5052L130.927 34.9959L150.011 32.5146C150.011 32.5146 152.074 45.8285 148.43 51.7206C146.22 55.2929 141.023 52.9901 137.274 50.6231" fill="white"/>
</mask>
<g mask="url(#mask14_0_1646)">
<ellipse opacity="0.27" cx="152.57" cy="45.5288" rx="2.16823" ry="2.91643" transform="rotate(-68.5873 152.57 45.5288)" fill="#DAE9FF"/>
<path d="M143.717 46.5186C143.682 47.1784 144.118 47.7712 144.758 47.9347L143.717 46.5186Z" fill="white"/>
<path d="M143.717 46.5186C143.682 47.1784 144.118 47.7712 144.758 47.9347" stroke="#143C9A" stroke-width="1.0752" stroke-linecap="round" stroke-linejoin="round"/>
</g>
<path d="M132.345 43.5052L130.927 34.9959L150.011 32.5146C150.011 32.5146 152.074 45.8285 148.43 51.7206C146.22 55.2929 141.023 52.9901 137.274 50.6231" stroke="#143C9A" stroke-width="1.0752" stroke-linecap="round" stroke-linejoin="round"/>
<path d="M134.074 42.601C145.086 43.8516 135.385 32.0775 150.011 33.6722C168.525 35.6908 163.994 26.0336 159.166 26.4933C150.262 27.3409 163.532 24.1718 149.028 23.9364C142.564 23.8315 122.703 27.2656 130.927 41.8108C134.048 47.3321 133.765 45.1515 134.074 42.601Z" fill="#AFD3FF" stroke="#143C9A" stroke-width="1.0752" stroke-linecap="round" stroke-linejoin="round"/>
<path d="M137.846 42.5182C137.635 41.9693 137.333 41.4599 136.953 41.0116C135.409 39.1746 132.932 38.5942 131.42 39.7154C129.909 40.8365 129.934 43.2346 131.478 45.0716C132.463 46.2443 133.829 46.9049 135.081 46.9377" fill="white"/>
<path d="M137.846 42.5182C137.635 41.9693 137.333 41.4599 136.953 41.0116C135.409 39.1746 132.932 38.5942 131.42 39.7154C129.909 40.8365 129.934 43.2346 131.478 45.0716C132.463 46.2443 133.829 46.9049 135.081 46.9377" stroke="#143C9A" stroke-width="1.0752" stroke-linecap="round" stroke-linejoin="round"/>
<path d="M131.225 58.0178C131.225 58.0178 131.927 55.3247 132.999 54.803L145.932 62.4293L144.845 64.6587L131.225 58.0178Z" fill="#DAE9FF" stroke="#143C9A" stroke-width="1.0752" stroke-linecap="round" stroke-linejoin="round"/>
<path d="M147.585 64.042L145.932 62.4292L145.335 54.3538C146.987 54.5715 148.195 56.3707 148.195 56.3707L147.585 64.042Z" fill="#DAE9FF" stroke="#143C9A" stroke-width="1.0752" stroke-linecap="round" stroke-linejoin="round"/>
<ellipse cx="166.401" cy="103.794" rx="0.994676" ry="0.998583" fill="#AFD3FF"/>
<ellipse cx="160.629" cy="103.794" rx="0.994676" ry="0.998583" fill="#AFD3FF"/>
<path d="M134.029 41.7009C133.524 41.9197 133.289 42.6106 133.557 43.0936" stroke="#143C9A" stroke-width="1.0752" stroke-linecap="round" stroke-linejoin="round"/>
<path d="M136.199 33.7117L136.561 34.0748" stroke="#143C9A" stroke-width="1.0752" stroke-linecap="round" stroke-linejoin="round"/>
<path d="M148.768 28.6299C150.555 29.1631 152.434 29.3155 154.283 29.0774" stroke="#143C9A" stroke-width="1.0752" stroke-linecap="round" stroke-linejoin="round"/>
<path d="M127.973 91.1694C128.718 91.4796 129.539 91.5555 130.328 91.3868" stroke="#143C9A" stroke-width="1.0752" stroke-linecap="round" stroke-linejoin="round"/>
<path d="M171.769 78.093L172.269 79.74" stroke="#143C9A" stroke-width="1.0752" stroke-linecap="round" stroke-linejoin="round"/>
<path d="M193.794 152.712C195.542 151.918 197.046 150.67 198.148 149.099" stroke="#143C9A" stroke-width="1.0752" stroke-linecap="round" stroke-linejoin="round"/>
<path d="M259.725 196.79C261.076 179.958 268.276 191.894 261.24 197.274C261.24 197.274 269.576 193.757 270.48 194.302" stroke="#143C9A" stroke-width="1.0752" stroke-linecap="round" stroke-linejoin="round"/>
<path d="M202.491 229.594C203.842 212.762 211.042 224.697 204.006 230.077C204.006 230.077 212.342 226.56 213.246 227.105" stroke="#143C9A" stroke-width="1.0752" stroke-linecap="round" stroke-linejoin="round"/>
</g>
<path d="M157.48 125.045C160.365 126.671 164.201 126.421 166.852 124.435" stroke="#143C9A" stroke-width="1.0752" stroke-linecap="round" stroke-linejoin="round"/>
<path d="M136.566 70.801L135.657 72.9202" stroke="#143C9A" stroke-width="1.0752" stroke-linecap="round" stroke-linejoin="round"/>
<path d="M226.807 82.0227L225.892 83.2284" stroke="#143C9A" stroke-width="1.0752" stroke-linecap="round" stroke-linejoin="round"/>
<path d="M249.434 49.2524L245.52 52.9078" stroke="#143C9A" stroke-width="1.0752" stroke-linecap="round" stroke-linejoin="round"/>
<path d="M224.696 188.308L222.273 190.123" stroke="#143C9A" stroke-width="1.0752" stroke-linecap="round" stroke-linejoin="round"/>
<path d="M125.956 155.564L125.279 159.183" stroke="#143C9A" stroke-width="1.0752" stroke-linecap="round" stroke-linejoin="round"/>
</svg>
