<svg width="303" height="319" viewBox="0 0 303 319" fill="none" xmlns="http://www.w3.org/2000/svg">
<path d="M137.281 24.5137L140.213 22.8342L140.355 23.0828L141.19 22.6046L142.025 23.0828L142.167 22.8342L145.099 24.5137L144.957 24.7623L146.911 25.8819L147.054 25.6333L149.986 27.3128L149.843 27.5614L151.798 28.681L151.94 28.4324L154.872 30.1119L154.73 30.3605L156.684 31.4801L156.826 31.2315L159.758 32.911L159.616 33.1596L161.57 34.2792L161.713 34.0306L164.645 35.7101L164.502 35.9587L166.457 37.0783L166.599 36.8297L169.531 38.5092L169.389 38.7578L171.343 39.8774L171.486 39.6288L174.417 41.3083L174.275 41.5569L176.229 42.6765L176.372 42.4279L179.304 44.1074L179.161 44.356L181.116 45.4756L181.258 45.227L184.19 46.9065L184.048 47.1551L186.002 48.2747L186.145 48.0261L189.076 49.7056L188.934 49.9542L190.889 51.0738L191.031 50.8252L193.963 52.5047L193.82 52.7533L195.775 53.8729L195.917 53.6243L198.849 55.3038L198.707 55.5524L200.661 56.672L200.804 56.4234L203.735 58.1029L203.593 58.3515L205.548 59.4711L205.69 59.2225L208.622 60.902L208.479 61.1506L210.434 62.2702L210.576 62.0216L213.508 63.7011L213.366 63.9497L215.32 65.0693L215.463 64.8207L218.395 66.5002L218.252 66.7488L220.207 67.8684L220.349 67.6198L223.281 69.2993L223.138 69.5479L225.093 70.6675L225.235 70.4189L228.167 72.0984L228.025 72.347L229.979 73.4666L230.122 73.218L233.054 74.8975L232.911 75.1461L234.866 76.2657L235.008 76.0171L237.94 77.6966L237.798 77.9452L239.752 79.0648L239.894 78.8162L242.826 80.4957L242.684 80.7443L244.638 81.8639L244.781 81.6153L247.713 83.2948L247.57 83.5434L249.525 84.663L249.667 84.4144L252.599 86.0939L252.457 86.3425L254.411 87.4621L254.554 87.2135L257.485 88.893L257.343 89.1416L259.297 90.2612L259.44 90.0126L262.372 91.6921L262.229 91.9407L264.184 93.0603L264.326 92.8117L267.258 94.4912L267.116 94.7398L267.949 95.217V96.1969H268.235V99.6345H267.949V101.926H268.235V105.364H267.949V107.656H268.235V111.093H267.949V113.385H268.235V116.823H267.949V119.115H268.235V122.552H267.949V124.844H268.235V128.282H267.949V130.573H268.235V134.011H267.949V136.303H268.235V139.74H267.949V142.032H268.235V145.47H267.949V147.762H268.235V151.199H267.949V153.491H268.235V156.929H267.949V159.22H268.235V162.658H267.949V164.95H268.235V168.387H267.949V170.679H268.235V174.117H267.949V176.409H268.235V179.846H267.949V182.138H268.235V185.576H267.949V187.867H268.235V191.305H267.949V193.597H268.235V197.035H267.949V199.326H268.235V202.764H267.949V205.056H268.235V208.493H267.949V210.785H268.235V214.223H267.949V216.515H268.235V219.952H267.949V222.244H268.235V225.682H267.949V227.973H268.235V231.411H267.949V233.703H268.235V237.14H267.949V239.432H268.235V242.87H267.949V243.85L267.115 244.332L267.258 244.58L264.326 246.273L264.183 246.025L262.228 247.153L262.372 247.401L259.44 249.094L259.297 248.846L257.342 249.974L257.485 250.222L254.554 251.915L254.41 251.667L252.456 252.795L252.599 253.043L249.667 254.736L249.524 254.488L247.569 255.616L247.713 255.864L244.781 257.557L244.638 257.309L242.683 258.438L242.826 258.686L239.894 260.378L239.751 260.13L237.797 261.259L237.94 261.507L235.008 263.199L234.865 262.951L232.91 264.08L233.054 264.328L230.122 266.021L229.979 265.772L228.024 266.901L228.167 267.149L225.235 268.842L225.092 268.594L223.138 269.722L223.281 269.97L220.349 271.663L220.206 271.415L218.251 272.543L218.395 272.791L215.463 274.484L215.319 274.236L213.365 275.364L213.508 275.612L210.576 277.305L210.433 277.057L208.479 278.185L208.622 278.434L205.69 280.126L205.547 279.878L203.592 281.007L203.735 281.255L200.804 282.947L200.66 282.699L198.706 283.828L198.849 284.076L195.917 285.769L195.774 285.52L193.82 286.649L193.963 286.897L191.031 288.59L190.888 288.342L188.933 289.47L189.076 289.718L186.145 291.411L186.001 291.163L184.047 292.291L184.19 292.539L181.258 294.232L181.115 293.984L179.16 295.112L179.304 295.36L176.372 297.053L176.229 296.805L174.274 297.933L174.417 298.182L171.486 299.874L171.342 299.626L169.388 300.755L169.531 301.003L166.599 302.695L166.456 302.447L164.501 303.576L164.645 303.824L161.713 305.516L161.57 305.268L159.615 306.397L159.758 306.645L156.826 308.338L156.683 308.09L154.729 309.218L154.872 309.466L151.94 311.159L151.797 310.911L149.842 312.039L149.986 312.287L147.054 313.98L146.911 313.732L144.956 314.86L145.099 315.108L142.167 316.801L142.024 316.553L141.19 317.034L140.356 316.553L140.213 316.801L137.281 315.108L137.424 314.86L135.47 313.732L135.327 313.98L132.395 312.287L132.538 312.039L130.583 310.911L130.44 311.159L127.508 309.466L127.652 309.218L125.697 308.09L125.554 308.338L122.622 306.645L122.765 306.397L120.811 305.268L120.667 305.516L117.736 303.824L117.879 303.576L115.924 302.447L115.781 302.695L112.849 301.003L112.993 300.755L111.038 299.626L110.895 299.874L107.963 298.182L108.106 297.933L106.152 296.805L106.008 297.053L103.077 295.36L103.22 295.112L101.265 293.984L101.122 294.232L98.1903 292.539L98.3335 292.291L96.379 291.163L96.2357 291.411L93.3039 289.718L93.4472 289.47L91.4926 288.342L91.3494 288.59L88.4176 286.897L88.5608 286.649L86.6063 285.52L86.463 285.769L83.5312 284.076L83.6745 283.828L81.7199 282.699L81.5767 282.947L78.6449 281.255L78.7881 281.007L76.8336 279.878L76.6903 280.126L73.7585 278.434L73.9018 278.185L71.9472 277.057L71.804 277.305L68.8722 275.612L69.0154 275.364L67.0609 274.236L66.9176 274.484L63.9858 272.791L64.1291 272.543L62.1745 271.415L62.0313 271.663L59.0995 269.97L59.2427 269.722L57.2882 268.594L57.1449 268.842L54.2131 267.149L54.3564 266.901L52.4018 265.772L52.2586 266.021L49.3268 264.328L49.47 264.08L47.5155 262.951L47.3722 263.199L44.4404 261.507L44.5837 261.259L42.6291 260.13L42.4859 260.378L39.5541 258.686L39.6973 258.438L37.7428 257.309L37.5995 257.557L34.6677 255.864L34.8109 255.616L32.8564 254.488L32.7132 254.736L29.7813 253.043L29.9246 252.795L27.9701 251.667L27.8268 251.915L24.895 250.222L25.0382 249.974L23.0837 248.846L22.9405 249.094L20.0086 247.401L20.1519 247.153L18.1973 246.025L18.0541 246.273L15.1223 244.58L15.2655 244.332L14.4315 243.85V242.87H14.145V239.432H14.4315V237.14H14.145V233.703H14.4315V231.411H14.145V227.973H14.4315V225.682H14.145V222.244H14.4315V219.952H14.145V216.514H14.4315V214.223H14.145V210.785H14.4315V208.493H14.145V205.056H14.4315V202.764H14.145V199.326H14.4315V197.035H14.145V193.597H14.4315V191.305H14.145V187.867H14.4315V185.576H14.145V182.138H14.4315V179.846H14.145V176.409H14.4315V174.117H14.145V170.679H14.4315V168.387H14.145V164.95H14.4315V162.658H14.145V159.22H14.4315V156.929H14.145V153.491H14.4315V151.199H14.145V147.762H14.4315V145.47H14.145V142.032H14.4315V139.74H14.145V136.303H14.4315V134.011H14.145V130.573H14.4315V128.282H14.145V124.844H14.4315V122.552H14.145V119.115H14.4315V116.823H14.145V113.385H14.4315V111.093H14.145V107.656H14.4315V105.364H14.145V101.926H14.4315V99.6345H14.145V96.1969H14.4315V95.217L15.2647 94.7398L15.1223 94.4912L18.0541 92.8117L18.1965 93.0603L20.151 91.9407L20.0086 91.6921L22.9404 90.0126L23.0829 90.2612L25.0374 89.1416L24.895 88.893L27.8268 87.2135L27.9692 87.4621L29.9237 86.3425L29.7813 86.0939L32.7132 84.4144L32.8556 84.663L34.8101 83.5434L34.6677 83.2948L37.5995 81.6153L37.7419 81.8639L39.6965 80.7443L39.554 80.4957L42.4859 78.8162L42.6283 79.0648L44.5828 77.9452L44.4404 77.6966L47.3722 76.0171L47.5146 76.2657L49.4692 75.1461L49.3268 74.8975L52.2586 73.218L52.401 73.4666L54.3555 72.347L54.2131 72.0984L57.1449 70.4189L57.2873 70.6675L59.2419 69.5479L59.0995 69.2993L62.0313 67.6198L62.1737 67.8684L64.1282 66.7488L63.9858 66.5002L66.9176 64.8207L67.06 65.0693L69.0146 63.9497L68.8722 63.7011L71.804 62.0216L71.9464 62.2702L73.9009 61.1506L73.7585 60.902L76.6903 59.2225L76.8327 59.4711L78.7873 58.3515L78.6449 58.1029L81.5767 56.4234L81.7191 56.672L83.6736 55.5524L83.5312 55.3038L86.463 53.6243L86.6054 53.8729L88.56 52.7533L88.4176 52.5047L91.3494 50.8252L91.4918 51.0738L93.4463 49.9542L93.3039 49.7056L96.2357 48.0261L96.3781 48.2747L98.3327 47.1551L98.1903 46.9065L101.122 45.227L101.264 45.4756L103.219 44.356L103.077 44.1074L106.008 42.4279L106.151 42.6765L108.105 41.5569L107.963 41.3083L110.895 39.6288L111.037 39.8774L112.992 38.7578L112.849 38.5092L115.781 36.8297L115.924 37.0783L117.878 35.9587L117.736 35.7101L120.667 34.0306L120.81 34.2792L122.764 33.1596L122.622 32.911L125.554 31.2315L125.696 31.4801L127.651 30.3605L127.508 30.1119L130.44 28.4324L130.583 28.681L132.537 27.5614L132.395 27.3128L135.327 25.6333L135.469 25.8819L137.423 24.7623L137.281 24.5137Z" fill="#F3F7FF" stroke="#3364ED" stroke-width="0.572992" stroke-dasharray="2.29 3.44 2.29 3.44"/>
<mask id="mask0_15_2741" style="mask-type:alpha" maskUnits="userSpaceOnUse" x="14" y="22" width="255" height="296">
<path d="M137.281 24.5137L140.213 22.8342L140.355 23.0828L141.19 22.6046L142.025 23.0828L142.167 22.8342L145.099 24.5137L144.957 24.7623L146.911 25.8819L147.054 25.6333L149.986 27.3128L149.843 27.5614L151.798 28.681L151.94 28.4324L154.872 30.1119L154.73 30.3605L156.684 31.4801L156.826 31.2315L159.758 32.911L159.616 33.1596L161.57 34.2792L161.713 34.0306L164.645 35.7101L164.502 35.9587L166.457 37.0783L166.599 36.8297L169.531 38.5092L169.389 38.7578L171.343 39.8774L171.486 39.6288L174.417 41.3083L174.275 41.5569L176.229 42.6765L176.372 42.4279L179.304 44.1074L179.161 44.356L181.116 45.4756L181.258 45.227L184.19 46.9065L184.048 47.1551L186.002 48.2747L186.145 48.0261L189.076 49.7056L188.934 49.9542L190.889 51.0738L191.031 50.8252L193.963 52.5047L193.82 52.7533L195.775 53.8729L195.917 53.6243L198.849 55.3038L198.707 55.5524L200.661 56.672L200.804 56.4234L203.735 58.1029L203.593 58.3515L205.548 59.4711L205.69 59.2225L208.622 60.902L208.479 61.1506L210.434 62.2702L210.576 62.0216L213.508 63.7011L213.366 63.9497L215.32 65.0693L215.463 64.8207L218.395 66.5002L218.252 66.7488L220.207 67.8684L220.349 67.6198L223.281 69.2993L223.138 69.5479L225.093 70.6675L225.235 70.4189L228.167 72.0984L228.025 72.347L229.979 73.4666L230.122 73.218L233.054 74.8975L232.911 75.1461L234.866 76.2657L235.008 76.0171L237.94 77.6966L237.798 77.9452L239.752 79.0648L239.894 78.8162L242.826 80.4957L242.684 80.7443L244.638 81.8639L244.781 81.6153L247.713 83.2948L247.57 83.5434L249.525 84.663L249.667 84.4144L252.599 86.0939L252.457 86.3425L254.411 87.4621L254.554 87.2135L257.485 88.893L257.343 89.1416L259.297 90.2612L259.44 90.0126L262.372 91.6921L262.229 91.9407L264.184 93.0603L264.326 92.8117L267.258 94.4912L267.116 94.7398L267.949 95.217V96.1969H268.235V99.6345H267.949V101.926H268.235V105.364H267.949V107.656H268.235V111.093H267.949V113.385H268.235V116.823H267.949V119.115H268.235V122.552H267.949V124.844H268.235V128.282H267.949V130.573H268.235V134.011H267.949V136.303H268.235V139.74H267.949V142.032H268.235V145.47H267.949V147.762H268.235V151.199H267.949V153.491H268.235V156.929H267.949V159.22H268.235V162.658H267.949V164.95H268.235V168.387H267.949V170.679H268.235V174.117H267.949V176.409H268.235V179.846H267.949V182.138H268.235V185.576H267.949V187.867H268.235V191.305H267.949V193.597H268.235V197.035H267.949V199.326H268.235V202.764H267.949V205.056H268.235V208.493H267.949V210.785H268.235V214.223H267.949V216.515H268.235V219.952H267.949V222.244H268.235V225.682H267.949V227.973H268.235V231.411H267.949V233.703H268.235V237.14H267.949V239.432H268.235V242.87H267.949V243.85L267.115 244.332L267.258 244.58L264.326 246.273L264.183 246.025L262.228 247.153L262.372 247.401L259.44 249.094L259.297 248.846L257.342 249.974L257.485 250.222L254.554 251.915L254.41 251.667L252.456 252.795L252.599 253.043L249.667 254.736L249.524 254.488L247.569 255.616L247.713 255.864L244.781 257.557L244.638 257.309L242.683 258.438L242.826 258.686L239.894 260.378L239.751 260.13L237.797 261.259L237.94 261.507L235.008 263.199L234.865 262.951L232.91 264.08L233.054 264.328L230.122 266.021L229.979 265.772L228.024 266.901L228.167 267.149L225.235 268.842L225.092 268.594L223.138 269.722L223.281 269.97L220.349 271.663L220.206 271.415L218.251 272.543L218.395 272.791L215.463 274.484L215.319 274.236L213.365 275.364L213.508 275.612L210.576 277.305L210.433 277.057L208.479 278.185L208.622 278.434L205.69 280.126L205.547 279.878L203.592 281.007L203.735 281.255L200.804 282.947L200.66 282.699L198.706 283.828L198.849 284.076L195.917 285.769L195.774 285.52L193.82 286.649L193.963 286.897L191.031 288.59L190.888 288.342L188.933 289.47L189.076 289.718L186.145 291.411L186.001 291.163L184.047 292.291L184.19 292.539L181.258 294.232L181.115 293.984L179.16 295.112L179.304 295.36L176.372 297.053L176.229 296.805L174.274 297.933L174.417 298.182L171.486 299.874L171.342 299.626L169.388 300.755L169.531 301.003L166.599 302.695L166.456 302.447L164.501 303.576L164.645 303.824L161.713 305.516L161.57 305.268L159.615 306.397L159.758 306.645L156.826 308.338L156.683 308.09L154.729 309.218L154.872 309.466L151.94 311.159L151.797 310.911L149.842 312.039L149.986 312.287L147.054 313.98L146.911 313.732L144.956 314.86L145.099 315.108L142.167 316.801L142.024 316.553L141.19 317.034L140.356 316.553L140.213 316.801L137.281 315.108L137.424 314.86L135.47 313.732L135.327 313.98L132.395 312.287L132.538 312.039L130.583 310.911L130.44 311.159L127.508 309.466L127.652 309.218L125.697 308.09L125.554 308.338L122.622 306.645L122.765 306.397L120.811 305.268L120.667 305.516L117.736 303.824L117.879 303.576L115.924 302.447L115.781 302.695L112.849 301.003L112.993 300.755L111.038 299.626L110.895 299.874L107.963 298.182L108.106 297.933L106.152 296.805L106.008 297.053L103.077 295.36L103.22 295.112L101.265 293.984L101.122 294.232L98.1903 292.539L98.3335 292.291L96.379 291.163L96.2357 291.411L93.3039 289.718L93.4472 289.47L91.4926 288.342L91.3494 288.59L88.4176 286.897L88.5608 286.649L86.6063 285.52L86.463 285.769L83.5312 284.076L83.6745 283.828L81.7199 282.699L81.5767 282.947L78.6449 281.255L78.7881 281.007L76.8336 279.878L76.6903 280.126L73.7585 278.434L73.9018 278.185L71.9472 277.057L71.804 277.305L68.8722 275.612L69.0154 275.364L67.0609 274.236L66.9176 274.484L63.9858 272.791L64.1291 272.543L62.1745 271.415L62.0313 271.663L59.0995 269.97L59.2427 269.722L57.2882 268.594L57.1449 268.842L54.2131 267.149L54.3564 266.901L52.4018 265.772L52.2586 266.021L49.3268 264.328L49.47 264.08L47.5155 262.951L47.3722 263.199L44.4404 261.507L44.5837 261.259L42.6291 260.13L42.4859 260.378L39.5541 258.686L39.6973 258.438L37.7428 257.309L37.5995 257.557L34.6677 255.864L34.8109 255.616L32.8564 254.488L32.7132 254.736L29.7813 253.043L29.9246 252.795L27.9701 251.667L27.8268 251.915L24.895 250.222L25.0382 249.974L23.0837 248.846L22.9405 249.094L20.0086 247.401L20.1519 247.153L18.1973 246.025L18.0541 246.273L15.1223 244.58L15.2655 244.332L14.4315 243.85V242.87H14.145V239.432H14.4315V237.14H14.145V233.703H14.4315V231.411H14.145V227.973H14.4315V225.682H14.145V222.244H14.4315V219.952H14.145V216.514H14.4315V214.223H14.145V210.785H14.4315V208.493H14.145V205.056H14.4315V202.764H14.145V199.326H14.4315V197.035H14.145V193.597H14.4315V191.305H14.145V187.867H14.4315V185.576H14.145V182.138H14.4315V179.846H14.145V176.409H14.4315V174.117H14.145V170.679H14.4315V168.387H14.145V164.95H14.4315V162.658H14.145V159.22H14.4315V156.929H14.145V153.491H14.4315V151.199H14.145V147.762H14.4315V145.47H14.145V142.032H14.4315V139.74H14.145V136.303H14.4315V134.011H14.145V130.573H14.4315V128.282H14.145V124.844H14.4315V122.552H14.145V119.115H14.4315V116.823H14.145V113.385H14.4315V111.093H14.145V107.656H14.4315V105.364H14.145V101.926H14.4315V99.6345H14.145V96.1969H14.4315V95.217L15.2647 94.7398L15.1223 94.4912L18.0541 92.8117L18.1965 93.0603L20.151 91.9407L20.0086 91.6921L22.9404 90.0126L23.0829 90.2612L25.0374 89.1416L24.895 88.893L27.8268 87.2135L27.9692 87.4621L29.9237 86.3425L29.7813 86.0939L32.7132 84.4144L32.8556 84.663L34.8101 83.5434L34.6677 83.2948L37.5995 81.6153L37.7419 81.8639L39.6965 80.7443L39.554 80.4957L42.4859 78.8162L42.6283 79.0648L44.5828 77.9452L44.4404 77.6966L47.3722 76.0171L47.5146 76.2657L49.4692 75.1461L49.3268 74.8975L52.2586 73.218L52.401 73.4666L54.3555 72.347L54.2131 72.0984L57.1449 70.4189L57.2873 70.6675L59.2419 69.5479L59.0995 69.2993L62.0313 67.6198L62.1737 67.8684L64.1282 66.7488L63.9858 66.5002L66.9176 64.8207L67.06 65.0693L69.0146 63.9497L68.8722 63.7011L71.804 62.0216L71.9464 62.2702L73.9009 61.1506L73.7585 60.902L76.6903 59.2225L76.8327 59.4711L78.7873 58.3515L78.6449 58.1029L81.5767 56.4234L81.7191 56.672L83.6736 55.5524L83.5312 55.3038L86.463 53.6243L86.6054 53.8729L88.56 52.7533L88.4176 52.5047L91.3494 50.8252L91.4918 51.0738L93.4463 49.9542L93.3039 49.7056L96.2357 48.0261L96.3781 48.2747L98.3327 47.1551L98.1903 46.9065L101.122 45.227L101.264 45.4756L103.219 44.356L103.077 44.1074L106.008 42.4279L106.151 42.6765L108.105 41.5569L107.963 41.3083L110.895 39.6288L111.037 39.8774L112.992 38.7578L112.849 38.5092L115.781 36.8297L115.924 37.0783L117.878 35.9587L117.736 35.7101L120.667 34.0306L120.81 34.2792L122.764 33.1596L122.622 32.911L125.554 31.2315L125.696 31.4801L127.651 30.3605L127.508 30.1119L130.44 28.4324L130.583 28.681L132.537 27.5614L132.395 27.3128L135.327 25.6333L135.469 25.8819L137.423 24.7623L137.281 24.5137Z" fill="white" stroke="white" stroke-width="0.572992" stroke-dasharray="2.29 3.44 2.29 3.44"/>
</mask>
<g mask="url(#mask0_15_2741)">
<path opacity="0.407571" fill-rule="evenodd" clip-rule="evenodd" d="M5.55127 108.796L95.511 56.6542V105.931L5.55127 158.074V108.796Z" fill="url(#paint0_linear_15_2741)" fill-opacity="0.7"/>
<path opacity="0.5" fill-rule="evenodd" clip-rule="evenodd" d="M100.095 54.3618L131.569 36.6147V51.5125L100.095 69.2596V54.3618Z" fill="url(#paint1_linear_15_2741)" fill-opacity="0.7"/>
<path opacity="0.5" fill-rule="evenodd" clip-rule="evenodd" d="M100.095 75.5625L131.569 57.8154V89.9029L100.095 107.65V75.5625Z" fill="url(#paint2_linear_15_2741)" fill-opacity="0.7"/>
<path opacity="0.407571" fill-rule="evenodd" clip-rule="evenodd" d="M98.6609 281.658L204.091 220.92L249.071 246.886L143.641 307.624L98.6609 281.658Z" fill="url(#paint3_linear_15_2741)" fill-opacity="0.7"/>
</g>
<path fill-rule="evenodd" clip-rule="evenodd" d="M176.679 0.583273C176.858 0.474627 177.081 0.472126 177.263 0.57675L302.179 72.6876C302.559 72.9066 302.562 73.4531 302.185 73.6766L262.563 97.1886C262.385 97.294 262.164 97.2957 261.985 97.1931L137.06 25.6448C136.681 25.428 136.674 24.8844 137.047 24.6579L176.679 0.583273Z" fill="url(#paint4_linear_15_2741)" fill-opacity="0.45"/>
<path fill-rule="evenodd" clip-rule="evenodd" d="M302.14 73.9907C302.522 73.7694 303 74.0451 303 74.4865V223.538C303 223.742 302.891 223.931 302.714 224.033L263.108 246.978C262.726 247.2 262.248 246.924 262.248 246.483L262.248 97.4317C262.248 97.2273 262.357 97.0384 262.534 96.9359L302.14 73.9907Z" fill="url(#paint5_linear_15_2741)" fill-opacity="0.7"/>
<path fill-rule="evenodd" clip-rule="evenodd" d="M262.824 96.9959L269.025 93.3251L143.54 20.7455L137.339 24.4163L262.824 96.9959Z" fill="url(#paint6_linear_15_2741)"/>
<path fill-rule="evenodd" clip-rule="evenodd" d="M262.822 96.9951L269.023 93.3243V243.638L262.822 247.309V96.9951Z" fill="url(#paint7_linear_15_2741)"/>
<path fill-rule="evenodd" clip-rule="evenodd" d="M136.765 24.9867C136.765 24.5453 137.244 24.2696 137.626 24.4909L262.824 97.0038V246.798C262.824 247.24 262.345 247.515 261.963 247.294L137.051 174.947C136.874 174.844 136.765 174.655 136.765 174.451L136.765 24.9867Z" fill="url(#paint8_linear_15_2741)"/>
<path fill-rule="evenodd" clip-rule="evenodd" d="M142.497 35.4528C142.497 35.0112 142.975 34.7356 143.357 34.957L257.001 100.835V236.976C257.001 237.418 256.523 237.693 256.141 237.472L142.782 171.76C142.605 171.657 142.497 171.468 142.497 171.264L142.497 35.4528Z" fill="url(#paint9_linear_15_2741)"/>
<mask id="mask1_15_2741" style="mask-type:alpha" maskUnits="userSpaceOnUse" x="142" y="34" width="116" height="204">
<path fill-rule="evenodd" clip-rule="evenodd" d="M142.497 35.4528C142.497 35.0112 142.975 34.7356 143.357 34.957L257.001 100.835V236.976C257.001 237.418 256.523 237.693 256.141 237.472L142.782 171.76C142.605 171.657 142.497 171.468 142.497 171.264L142.497 35.4528Z" fill="white"/>
</mask>
<g mask="url(#mask1_15_2741)">
<path fill-rule="evenodd" clip-rule="evenodd" d="M141.923 16.0412H142.496V46.3742L153.379 52.6546V16.0412H153.952V52.9852L164.842 59.2692V16.0412H165.415V59.5999L176.298 65.8803V16.0412H176.871V66.2109L187.761 72.4949V16.0412H188.334V72.8256L199.223 79.1095V16.0412H199.796V79.4402L210.679 85.7207V16.0412H211.252V86.0513L222.142 92.3352V16.0412H222.715V92.6659L233.598 98.9464V16.0412H234.171V99.277L245.061 105.561V16.0412H245.634V105.892L257.309 112.629L257.022 113.125L245.634 106.553V118.497L257.309 125.234L257.022 125.73L245.634 119.159V131.102L257.309 137.84L257.022 138.336L245.634 131.764V143.709L257.309 150.446L257.022 150.943L245.634 144.371V156.315L257.309 163.052L257.022 163.548L245.634 156.976V168.92L257.309 175.657L257.022 176.153L245.634 169.581V181.527L257.309 188.264L257.022 188.76L245.634 182.188V194.131L257.309 200.868L257.022 201.364L245.634 194.792V206.737L257.309 213.475L257.022 213.971L245.634 207.399V219.344L257.309 226.082L257.022 226.578L245.634 220.006V231.948L257.309 238.685L257.022 239.182L245.634 232.61V261.806H245.061V232.279L234.171 225.995V261.806H233.598V225.665L222.715 219.384V261.806H222.142V219.053L211.252 212.769V261.806H210.679V212.439L199.796 206.158V261.806H199.223V205.828L188.334 199.544V261.806H187.761V199.213L176.871 192.929V261.806H176.298V192.598L165.415 186.318V261.806H164.842V185.987L153.952 179.703V261.806H153.379V179.373L142.496 173.092V261.806H141.923V172.762L130.607 166.232L130.893 165.735L141.923 172.1V160.158L130.607 153.628L130.893 153.131L141.923 159.496V147.551L130.607 141.021L130.893 140.525L141.923 146.889V134.944L130.607 128.414L130.893 127.918L141.923 134.283V122.34L130.607 115.81L130.893 115.314L141.923 121.679V109.733L130.607 103.203L130.893 102.707L141.923 109.072V97.128L130.607 90.5979L130.893 90.1016L141.923 96.4665V84.5227L130.607 77.9925L130.893 77.4963L141.923 83.8611V71.9158L130.607 65.3856L130.893 64.8894L141.923 71.2542V59.3104L130.607 52.7803L130.893 52.284L141.923 58.6489V46.7051L130.607 40.175L130.893 39.6787L141.923 46.0435V16.0412ZM142.496 172.431L153.379 178.711V166.769L142.496 160.488V172.431ZM153.952 179.042L164.842 185.326V173.384L153.952 167.1V179.042ZM165.415 185.656L176.298 191.937V179.995L165.415 173.714V185.656ZM176.871 192.268L187.761 198.552V186.609L176.871 180.325V192.268ZM188.334 198.882L199.223 205.166V193.224L188.334 186.94V198.882ZM199.796 205.497L210.679 211.777V199.835L199.796 193.555V205.497ZM211.252 212.108L222.142 218.392V206.45L211.252 200.166V212.108ZM222.715 218.722L233.598 225.003V213.061L222.715 206.78V218.722ZM234.171 225.334L245.061 231.618V219.675L234.171 213.391V225.334ZM245.061 207.068V219.014L234.171 212.73V200.784L245.061 207.068ZM233.598 200.454V212.399L222.715 206.119V194.173L233.598 200.454ZM222.142 193.843V205.788L211.252 199.504V187.559L222.142 193.843ZM210.679 187.228V199.173L199.796 192.893V180.948L210.679 187.228ZM199.223 180.617V192.562L188.334 186.278V174.333L199.223 180.617ZM187.761 174.002V185.948L176.871 179.664V167.718L187.761 174.002ZM176.298 167.388V179.333L165.415 173.053V161.107L176.298 167.388ZM164.842 160.777V172.722L153.952 166.438V154.493L164.842 160.777ZM153.379 154.162V166.107L142.496 159.827V147.882L153.379 154.162ZM142.496 147.22L153.379 153.5V141.555L142.496 135.275V147.22ZM153.952 153.831L164.842 160.115V148.17L153.952 141.886V153.831ZM165.415 160.446L176.298 166.726V154.781L165.415 148.5V160.446ZM176.871 167.057L187.761 173.341V161.395L176.871 155.111V167.057ZM188.334 173.671L199.223 179.955V168.01L188.334 161.726V173.671ZM199.796 180.286L210.679 186.567V174.621L199.796 168.341V180.286ZM211.252 186.897L222.142 193.181V181.236L211.252 174.952V186.897ZM222.715 193.512L233.598 199.792V187.847L222.715 181.566V193.512ZM234.171 200.123L245.061 206.407V194.461L234.171 188.178V200.123ZM245.061 181.858V193.8L234.171 187.516V175.574L245.061 181.858ZM233.598 175.243V187.185L222.715 180.905V168.963L233.598 175.243ZM222.142 168.632V180.574L211.252 174.29V162.348L222.142 168.632ZM210.679 162.017V173.96L199.796 167.679V155.737L210.679 162.017ZM199.223 155.406V167.349L188.334 161.065V149.122L199.223 155.406ZM187.761 148.792V160.734L176.871 154.45V142.508L187.761 148.792ZM176.298 142.177V154.119L165.415 147.839V135.897L176.298 142.177ZM164.842 135.566V147.508L153.952 141.224V129.282L164.842 135.566ZM153.379 128.951V140.894L142.496 134.613V122.671L153.379 128.951ZM142.496 122.009L153.379 128.29V116.344L142.496 110.064V122.009ZM153.952 128.62L164.842 134.904V122.959L153.952 116.675V128.62ZM165.415 135.235L176.298 141.515V129.57L165.415 123.29V135.235ZM176.871 141.846L187.761 148.13V136.185L176.871 129.901V141.846ZM188.334 148.461L199.223 154.745V142.799L188.334 136.515V148.461ZM199.796 155.075L210.679 161.356V149.411L199.796 143.13V155.075ZM211.252 161.686L222.142 167.97V156.025L211.252 149.741V161.686ZM222.715 168.301L233.598 174.582V162.636L222.715 156.356V168.301ZM234.171 174.912L245.061 181.196V169.251L234.171 162.967V174.912ZM245.061 156.645V168.589L234.171 162.305V150.362L245.061 156.645ZM233.598 150.031V161.975L222.715 155.694V143.75L233.598 150.031ZM222.142 143.42V155.364L211.252 149.08V137.136L222.142 143.42ZM210.679 136.805V148.749L199.796 142.468V130.525L210.679 136.805ZM199.223 130.194V142.138L188.334 135.854V123.91L199.223 130.194ZM187.761 123.579V135.523L176.871 129.239V117.295L187.761 123.579ZM176.298 116.965V128.909L165.415 122.628V110.684L176.298 116.965ZM164.842 110.354V122.298L153.952 116.014V104.07L164.842 110.354ZM153.379 103.739V115.683L142.496 109.402V97.4587L153.379 103.739ZM142.496 96.7971L153.379 103.078V91.1337L142.496 84.8533V96.7971ZM153.952 103.408L164.842 109.692V97.7484L153.952 91.4644V103.408ZM165.415 110.023L176.298 116.303V104.359L165.415 98.079V110.023ZM176.871 116.634L187.761 122.918V110.974L176.871 104.69V116.634ZM188.334 123.249L199.223 129.532V117.589L188.334 111.305V123.249ZM199.796 129.863L210.679 136.144V124.2L199.796 117.919V129.863ZM211.252 136.474L222.142 142.758V130.814L211.252 124.53V136.474ZM222.715 143.089L233.598 149.369V137.426L222.715 131.145V143.089ZM234.171 149.7L245.061 155.984V144.04L234.171 137.756V149.7ZM245.061 131.433V143.379L234.171 137.095V125.149L245.061 131.433ZM233.598 124.819V136.764L222.715 130.483V118.538L233.598 124.819ZM222.142 118.207V130.153L211.252 123.869V111.924L222.142 118.207ZM210.679 111.593V123.538L199.796 117.258V105.312L210.679 111.593ZM199.223 104.982V116.927L188.334 110.643V98.6978L199.223 104.982ZM187.761 98.3672V110.313L176.871 104.029V92.0832L187.761 98.3672ZM176.298 91.7525V103.698L165.415 97.4175V85.4721L176.298 91.7525ZM164.842 85.1415V97.0868L153.952 90.8028V78.8575L164.842 85.1415ZM153.379 78.5268V90.4722L142.496 84.1918V72.2464L153.379 78.5268ZM142.496 71.5849L153.379 77.8653V65.9215L142.496 59.6411V71.5849ZM153.952 78.1959L164.842 84.4799V72.5361L153.952 66.2521V78.1959ZM165.415 84.8106L176.298 91.091V79.1472L165.415 72.8668V84.8106ZM176.871 91.4216L187.761 97.7056V85.7618L176.871 79.4778V91.4216ZM188.334 98.0363L199.223 104.32V92.3764L188.334 86.0925V98.0363ZM199.796 104.651L210.679 110.931V98.9876L199.796 92.7071V104.651ZM211.252 111.262L222.142 117.546V105.602L211.252 99.3182V111.262ZM222.715 117.877L233.598 124.157V112.213L222.715 105.933V117.877ZM234.171 124.488L245.061 130.772V118.828L234.171 112.544V124.488ZM245.061 106.223V118.166L234.171 111.882V99.9386L245.061 106.223ZM233.598 99.6079V111.552L222.715 105.271V93.3275L233.598 99.6079ZM222.142 92.9968V104.941L211.252 98.6567V86.7129L222.142 92.9968ZM210.679 86.3822V98.326L199.796 92.0455V80.1017L210.679 86.3822ZM199.223 79.7711V91.7149L188.334 85.4309V73.4872L199.223 79.7711ZM187.761 73.1565V85.1003L176.871 78.8163V66.8725L187.761 73.1565ZM176.298 66.5418V78.4856L165.415 72.2052V60.2614L176.298 66.5418ZM164.842 59.9308V71.8746L153.952 65.5906V53.6468L164.842 59.9308ZM153.379 53.3161V65.2599L142.496 58.9795V47.0357L153.379 53.3161Z" fill="white" fill-opacity="0.3" style="mix-blend-mode:soft-light"/>
<g filter="url(#filter0_d_15_2741)">
<path fill-rule="evenodd" clip-rule="evenodd" d="M179.449 178.851C181.19 179.841 182.601 179.038 182.601 177.057C182.601 175.076 181.19 172.668 179.449 171.677C177.709 170.687 176.298 171.49 176.298 173.47C176.298 175.451 177.709 177.86 179.449 178.851Z" fill="#F58923"/>
<path fill-rule="evenodd" clip-rule="evenodd" d="M179.449 178.851C181.19 179.841 182.601 179.038 182.601 177.057C182.601 175.076 181.19 172.668 179.449 171.677C177.709 170.687 176.298 171.49 176.298 173.47C176.298 175.451 177.709 177.86 179.449 178.851Z" stroke="white" stroke-width="1.14598"/>
</g>
<g filter="url(#filter1_d_15_2741)">
<path fill-rule="evenodd" clip-rule="evenodd" d="M188.049 174.267C189.79 175.257 191.201 174.454 191.201 172.473C191.201 170.493 189.79 168.084 188.049 167.093C186.309 166.103 184.898 166.906 184.898 168.887C184.898 170.868 186.309 173.276 188.049 174.267Z" fill="#F58923"/>
<path fill-rule="evenodd" clip-rule="evenodd" d="M188.049 174.267C189.79 175.257 191.201 174.454 191.201 172.473C191.201 170.493 189.79 168.084 188.049 167.093C186.309 166.103 184.898 166.906 184.898 168.887C184.898 170.868 186.309 173.276 188.049 174.267Z" stroke="white" stroke-width="1.14598"/>
</g>
<g filter="url(#filter2_d_15_2741)">
<path fill-rule="evenodd" clip-rule="evenodd" d="M192.059 178.851C193.8 179.841 195.211 179.038 195.211 177.057C195.211 175.076 193.8 172.668 192.059 171.677C190.319 170.687 188.908 171.49 188.908 173.47C188.908 175.451 190.319 177.86 192.059 178.851Z" fill="#F58923"/>
<path fill-rule="evenodd" clip-rule="evenodd" d="M192.059 178.851C193.8 179.841 195.211 179.038 195.211 177.057C195.211 175.076 193.8 172.668 192.059 171.677C190.319 170.687 188.908 171.49 188.908 173.47C188.908 175.451 190.319 177.86 192.059 178.851Z" stroke="white" stroke-width="1.14598"/>
</g>
<g filter="url(#filter3_d_15_2741)">
<path fill-rule="evenodd" clip-rule="evenodd" d="M217.267 205.209C219.008 206.199 220.419 205.396 220.419 203.415C220.419 201.434 219.008 199.026 217.267 198.035C215.527 197.045 214.116 197.848 214.116 199.829C214.116 201.81 215.527 204.218 217.267 205.209Z" fill="#F58923"/>
<path fill-rule="evenodd" clip-rule="evenodd" d="M217.267 205.209C219.008 206.199 220.419 205.396 220.419 203.415C220.419 201.434 219.008 199.026 217.267 198.035C215.527 197.045 214.116 197.848 214.116 199.829C214.116 201.81 215.527 204.218 217.267 205.209Z" stroke="white" stroke-width="1.14598"/>
</g>
<g filter="url(#filter4_d_15_2741)">
<path fill-rule="evenodd" clip-rule="evenodd" d="M236.176 198.904C237.916 199.894 239.327 199.091 239.327 197.11C239.327 195.13 237.916 192.721 236.176 191.73C234.435 190.74 233.024 191.543 233.024 193.524C233.024 195.505 234.435 197.913 236.176 198.904Z" fill="#F58923"/>
<path fill-rule="evenodd" clip-rule="evenodd" d="M236.176 198.904C237.916 199.894 239.327 199.091 239.327 197.11C239.327 195.13 237.916 192.721 236.176 191.73C234.435 190.74 233.024 191.543 233.024 193.524C233.024 195.505 234.435 197.913 236.176 198.904Z" stroke="white" stroke-width="1.14598"/>
</g>
<g filter="url(#filter5_d_15_2741)">
<path fill-rule="evenodd" clip-rule="evenodd" d="M232.74 201.196C234.48 202.186 235.891 201.383 235.891 199.402C235.891 197.421 234.48 195.013 232.74 194.022C230.999 193.032 229.588 193.835 229.588 195.816C229.588 197.796 230.999 200.205 232.74 201.196Z" fill="#F58923"/>
<path fill-rule="evenodd" clip-rule="evenodd" d="M232.74 201.196C234.48 202.186 235.891 201.383 235.891 199.402C235.891 197.421 234.48 195.013 232.74 194.022C230.999 193.032 229.588 193.835 229.588 195.816C229.588 197.796 230.999 200.205 232.74 201.196Z" stroke="white" stroke-width="1.14598"/>
</g>
<g filter="url(#filter6_d_15_2741)">
<path fill-rule="evenodd" clip-rule="evenodd" d="M200.079 193.176C201.82 194.166 203.231 193.363 203.231 191.382C203.231 189.401 201.82 186.993 200.079 186.002C198.339 185.012 196.928 185.815 196.928 187.795C196.928 189.776 198.339 192.185 200.079 193.176Z" fill="#F58923"/>
<path fill-rule="evenodd" clip-rule="evenodd" d="M200.079 193.176C201.82 194.166 203.231 193.363 203.231 191.382C203.231 189.401 201.82 186.993 200.079 186.002C198.339 185.012 196.928 185.815 196.928 187.795C196.928 189.776 198.339 192.185 200.079 193.176Z" stroke="white" stroke-width="1.14598"/>
</g>
<g filter="url(#filter7_d_15_2741)">
<path fill-rule="evenodd" clip-rule="evenodd" d="M159.973 153.066C161.714 154.057 163.125 153.254 163.125 151.273C163.125 149.292 161.714 146.883 159.973 145.893C158.233 144.902 156.822 145.705 156.822 147.686C156.822 149.667 158.233 152.076 159.973 153.066Z" fill="#F58923"/>
<path fill-rule="evenodd" clip-rule="evenodd" d="M159.973 153.066C161.714 154.057 163.125 153.254 163.125 151.273C163.125 149.292 161.714 146.883 159.973 145.893C158.233 144.902 156.822 145.705 156.822 147.686C156.822 149.667 158.233 152.076 159.973 153.066Z" stroke="white" stroke-width="1.14598"/>
</g>
<g filter="url(#filter8_d_15_2741)">
<path fill-rule="evenodd" clip-rule="evenodd" d="M200.079 193.176C201.82 194.166 203.231 193.363 203.231 191.382C203.231 189.401 201.82 186.993 200.079 186.002C198.339 185.012 196.928 185.815 196.928 187.795C196.928 189.776 198.339 192.185 200.079 193.176Z" fill="#F58923"/>
<path fill-rule="evenodd" clip-rule="evenodd" d="M200.079 193.176C201.82 194.166 203.231 193.363 203.231 191.382C203.231 189.401 201.82 186.993 200.079 186.002C198.339 185.012 196.928 185.815 196.928 187.795C196.928 189.776 198.339 192.185 200.079 193.176Z" stroke="white" stroke-width="1.14598"/>
</g>
<g filter="url(#filter9_d_15_2741)">
<path fill-rule="evenodd" clip-rule="evenodd" d="M164.557 174.267C166.297 175.257 167.708 174.454 167.708 172.473C167.708 170.493 166.297 168.084 164.557 167.093C162.816 166.103 161.405 166.906 161.405 168.887C161.405 170.868 162.816 173.276 164.557 174.267Z" fill="#F58923"/>
<path fill-rule="evenodd" clip-rule="evenodd" d="M164.557 174.267C166.297 175.257 167.708 174.454 167.708 172.473C167.708 170.493 166.297 168.084 164.557 167.093C162.816 166.103 161.405 166.906 161.405 168.887C161.405 170.868 162.816 173.276 164.557 174.267Z" stroke="white" stroke-width="1.14598"/>
</g>
<g filter="url(#filter10_d_15_2741)">
<path fill-rule="evenodd" clip-rule="evenodd" d="M214.98 88.5922C213.24 87.6018 211.829 88.4047 211.829 90.3856C211.829 92.3665 213.24 94.7752 214.98 95.7656C216.721 96.7561 218.132 95.9532 218.132 93.9723C218.132 91.9914 216.721 89.5827 214.98 88.5922Z" fill="#3693FF"/>
<path fill-rule="evenodd" clip-rule="evenodd" d="M214.98 88.5922C213.24 87.6018 211.829 88.4047 211.829 90.3856C211.829 92.3665 213.24 94.7752 214.98 95.7656C216.721 96.7561 218.132 95.9532 218.132 93.9723C218.132 91.9914 216.721 89.5827 214.98 88.5922Z" stroke="white" stroke-width="1.14598"/>
</g>
<g filter="url(#filter11_d_15_2741)">
<path fill-rule="evenodd" clip-rule="evenodd" d="M212.112 101.198C210.371 100.207 208.96 101.01 208.96 102.991C208.96 104.972 210.371 107.381 212.112 108.371C213.852 109.361 215.263 108.559 215.263 106.578C215.263 104.597 213.852 102.188 212.112 101.198Z" fill="#3693FF"/>
<path fill-rule="evenodd" clip-rule="evenodd" d="M212.112 101.198C210.371 100.207 208.96 101.01 208.96 102.991C208.96 104.972 210.371 107.381 212.112 108.371C213.852 109.361 215.263 108.559 215.263 106.578C215.263 104.597 213.852 102.188 212.112 101.198Z" stroke="white" stroke-width="1.14598"/>
</g>
<g filter="url(#filter12_d_15_2741)">
<path fill-rule="evenodd" clip-rule="evenodd" d="M192.055 105.208C190.315 104.217 188.904 105.02 188.904 107.001C188.904 108.982 190.315 111.391 192.055 112.381C193.796 113.371 195.207 112.569 195.207 110.588C195.207 108.607 193.796 106.198 192.055 105.208Z" fill="#3693FF"/>
<path fill-rule="evenodd" clip-rule="evenodd" d="M192.055 105.208C190.315 104.217 188.904 105.02 188.904 107.001C188.904 108.982 190.315 111.391 192.055 112.381C193.796 113.371 195.207 112.569 195.207 110.588C195.207 108.607 193.796 106.198 192.055 105.208Z" stroke="white" stroke-width="1.14598"/>
</g>
<g filter="url(#filter13_d_15_2741)">
<path fill-rule="evenodd" clip-rule="evenodd" d="M178.304 72.5491C176.564 71.5586 175.153 72.3615 175.153 74.3424C175.153 76.3233 176.564 78.7321 178.304 79.7225C180.045 80.7129 181.456 79.91 181.456 77.9291C181.456 75.9483 180.045 73.5395 178.304 72.5491Z" fill="#3693FF"/>
<path fill-rule="evenodd" clip-rule="evenodd" d="M178.304 72.5491C176.564 71.5586 175.153 72.3615 175.153 74.3424C175.153 76.3233 176.564 78.7321 178.304 79.7225C180.045 80.7129 181.456 79.91 181.456 77.9291C181.456 75.9483 180.045 73.5395 178.304 72.5491Z" stroke="white" stroke-width="1.14598"/>
</g>
<g filter="url(#filter14_d_15_2741)">
<path fill-rule="evenodd" clip-rule="evenodd" d="M174.868 76.5591C173.127 75.5686 171.716 76.3716 171.716 78.3524C171.716 80.3333 173.127 82.7421 174.868 83.7325C176.608 84.7229 178.019 83.92 178.019 81.9392C178.019 79.9583 176.608 77.5495 174.868 76.5591Z" fill="#3693FF"/>
<path fill-rule="evenodd" clip-rule="evenodd" d="M174.868 76.5591C173.127 75.5686 171.716 76.3716 171.716 78.3524C171.716 80.3333 173.127 82.7421 174.868 83.7325C176.608 84.7229 178.019 83.92 178.019 81.9392C178.019 79.9583 176.608 77.5495 174.868 76.5591Z" stroke="white" stroke-width="1.14598"/>
</g>
<g filter="url(#filter15_d_15_2741)">
<path fill-rule="evenodd" clip-rule="evenodd" d="M162.264 64.5259C160.524 63.5355 159.113 64.3384 159.113 66.3193C159.113 68.3002 160.524 70.7089 162.264 71.6994C164.005 72.6898 165.416 71.8869 165.416 69.906C165.416 67.9251 164.005 65.5164 162.264 64.5259Z" fill="#3693FF"/>
<path fill-rule="evenodd" clip-rule="evenodd" d="M162.264 64.5259C160.524 63.5355 159.113 64.3384 159.113 66.3193C159.113 68.3002 160.524 70.7089 162.264 71.6994C164.005 72.6898 165.416 71.8869 165.416 69.906C165.416 67.9251 164.005 65.5164 162.264 64.5259Z" stroke="white" stroke-width="1.14598"/>
</g>
<g filter="url(#filter16_d_15_2741)">
<path fill-rule="evenodd" clip-rule="evenodd" d="M195.498 84.5807C193.757 83.5902 192.346 84.3932 192.346 86.374C192.346 88.3549 193.757 90.7637 195.498 91.7541C197.238 92.7446 198.649 91.9416 198.649 89.9608C198.649 87.9799 197.238 85.5711 195.498 84.5807Z" fill="#3693FF"/>
<path fill-rule="evenodd" clip-rule="evenodd" d="M195.498 84.5807C193.757 83.5902 192.346 84.3932 192.346 86.374C192.346 88.3549 193.757 90.7637 195.498 91.7541C197.238 92.7446 198.649 91.9416 198.649 89.9608C198.649 87.9799 197.238 85.5711 195.498 84.5807Z" stroke="white" stroke-width="1.14598"/>
</g>
<g filter="url(#filter17_d_15_2741)">
<path fill-rule="evenodd" clip-rule="evenodd" d="M235.604 124.69C233.864 123.7 232.453 124.503 232.453 126.483C232.453 128.464 233.864 130.873 235.604 131.864C237.345 132.854 238.756 132.051 238.756 130.07C238.756 128.089 237.345 125.681 235.604 124.69Z" fill="#3693FF"/>
<path fill-rule="evenodd" clip-rule="evenodd" d="M235.604 124.69C233.864 123.7 232.453 124.503 232.453 126.483C232.453 128.464 233.864 130.873 235.604 131.864C237.345 132.854 238.756 132.051 238.756 130.07C238.756 128.089 237.345 125.681 235.604 124.69Z" stroke="white" stroke-width="1.14598"/>
</g>
<g filter="url(#filter18_d_15_2741)">
<path fill-rule="evenodd" clip-rule="evenodd" d="M195.498 84.5807C193.757 83.5902 192.346 84.3932 192.346 86.374C192.346 88.3549 193.757 90.7637 195.498 91.7541C197.238 92.7446 198.649 91.9416 198.649 89.9608C198.649 87.9799 197.238 85.5711 195.498 84.5807Z" fill="#3693FF"/>
<path fill-rule="evenodd" clip-rule="evenodd" d="M195.498 84.5807C193.757 83.5902 192.346 84.3932 192.346 86.374C192.346 88.3549 193.757 90.7637 195.498 91.7541C197.238 92.7446 198.649 91.9416 198.649 89.9608C198.649 87.9799 197.238 85.5711 195.498 84.5807Z" stroke="white" stroke-width="1.14598"/>
</g>
<g filter="url(#filter19_d_15_2741)">
<path fill-rule="evenodd" clip-rule="evenodd" d="M229.305 109.221C227.565 108.23 226.154 109.033 226.154 111.014C226.154 112.995 227.565 115.404 229.305 116.394C231.046 117.385 232.457 116.582 232.457 114.601C232.457 112.62 231.046 110.211 229.305 109.221Z" fill="#3693FF"/>
<path fill-rule="evenodd" clip-rule="evenodd" d="M229.305 109.221C227.565 108.23 226.154 109.033 226.154 111.014C226.154 112.995 227.565 115.404 229.305 116.394C231.046 117.385 232.457 116.582 232.457 114.601C232.457 112.62 231.046 110.211 229.305 109.221Z" stroke="white" stroke-width="1.14598"/>
</g>
</g>
<path opacity="0.602309" d="M156.835 79.0008L81.1865 123.529" stroke="url(#paint10_linear_15_2741)" stroke-width="4.58394" stroke-linecap="round"/>
<path fill-rule="evenodd" clip-rule="evenodd" d="M156.819 81.2928C158.084 81.2928 159.111 80.2667 159.111 79.0009C159.111 77.735 158.084 76.7089 156.819 76.7089C155.553 76.7089 154.527 77.735 154.527 79.0009C154.527 80.2667 155.553 81.2928 156.819 81.2928Z" fill="#2288FF"/>
<path opacity="0.602309" d="M184.337 114.526L108.689 159.054" stroke="url(#paint11_linear_15_2741)" stroke-width="4.58394" stroke-linecap="round"/>
<path fill-rule="evenodd" clip-rule="evenodd" d="M184.321 116.818C185.587 116.818 186.613 115.792 186.613 114.527C186.613 113.261 185.587 112.235 184.321 112.235C183.055 112.235 182.029 113.261 182.029 114.527C182.029 115.792 183.055 116.818 184.321 116.818Z" fill="#2288FF"/>
<path opacity="0.602309" d="M222.729 118.536L147.08 163.064" stroke="url(#paint12_linear_15_2741)" stroke-width="4.58394" stroke-linecap="round"/>
<path fill-rule="evenodd" clip-rule="evenodd" d="M222.712 120.829C223.978 120.829 225.004 119.802 225.004 118.537C225.004 117.271 223.978 116.245 222.712 116.245C221.447 116.245 220.42 117.271 220.42 118.537C220.42 119.802 221.447 120.829 222.712 120.829Z" fill="#2288FF"/>
<path opacity="0.602309" d="M234.759 215.946L159.11 260.474" stroke="url(#paint13_linear_15_2741)" stroke-width="4.58394" stroke-linecap="round"/>
<path fill-rule="evenodd" clip-rule="evenodd" d="M234.749 218.238C236.015 218.238 237.041 217.212 237.041 215.946C237.041 214.68 236.015 213.654 234.749 213.654C233.483 213.654 232.457 214.68 232.457 215.946C232.457 217.212 233.483 218.238 234.749 218.238Z" fill="#F26E16"/>
<path opacity="0.602309" d="M173.449 161.512L97.8003 206.039" stroke="url(#paint14_linear_15_2741)" stroke-width="4.58394" stroke-linecap="round"/>
<path fill-rule="evenodd" clip-rule="evenodd" d="M173.438 163.804C174.704 163.804 175.73 162.777 175.73 161.512C175.73 160.246 174.704 159.22 173.438 159.22C172.173 159.22 171.146 160.246 171.146 161.512C171.146 162.777 172.173 163.804 173.438 163.804Z" fill="#F26E16"/>
<path opacity="0.602309" d="M170.012 215.946L94.364 260.474" stroke="url(#paint15_linear_15_2741)" stroke-width="4.58394" stroke-linecap="round"/>
<path fill-rule="evenodd" clip-rule="evenodd" d="M169.996 218.238C171.262 218.238 172.288 217.212 172.288 215.946C172.288 214.68 171.262 213.654 169.996 213.654C168.73 213.654 167.704 214.68 167.704 215.946C167.704 217.212 168.73 218.238 169.996 218.238Z" fill="#F26E16"/>
<path d="M140.634 167.792C140.724 167.844 140.835 167.843 140.924 167.79L147.125 164.12C147.212 164.068 147.266 163.973 147.265 163.872C147.265 163.77 147.21 163.676 147.122 163.625L21.637 91.0453C21.5474 90.9935 21.4367 90.994 21.3476 91.0468L15.1465 94.7176C15.059 94.7694 15.0055 94.8638 15.006 94.9656C15.0065 95.0673 15.061 95.1612 15.149 95.2121L140.634 167.792Z" fill="url(#paint16_linear_15_2741)" stroke="#3364ED" stroke-width="0.572992" stroke-linecap="round" stroke-linejoin="round"/>
<path d="M140.629 167.872C140.542 167.923 140.489 168.017 140.489 168.118V317.859C140.489 317.962 140.544 318.057 140.633 318.108C140.723 318.159 140.833 318.158 140.921 318.106L147.122 314.435C147.21 314.384 147.263 314.29 147.263 314.189V164.447C147.263 164.344 147.208 164.249 147.118 164.198C147.029 164.148 146.919 164.148 146.831 164.201L140.629 167.872Z" fill="url(#paint17_linear_15_2741)" stroke="#3364ED" stroke-width="0.572992" stroke-linecap="round" stroke-linejoin="round"/>
<path d="M15.7225 94.7907C15.1495 94.4588 14.4323 94.8723 14.4323 95.5344V244.999C14.4323 245.305 14.5956 245.589 14.861 245.742L139.773 318.09C140.346 318.422 141.063 318.008 141.063 317.346V167.882C141.063 167.575 140.9 167.292 140.635 167.138L15.7225 94.7907Z" fill="#F2F7FF" stroke="#3364ED" stroke-width="0.572992"/>
<mask id="mask2_15_2741" style="mask-type:alpha" maskUnits="userSpaceOnUse" x="14" y="94" width="128" height="225">
<path d="M15.7225 94.7907C15.1495 94.4588 14.4323 94.8723 14.4323 95.5344V244.999C14.4323 245.305 14.5956 245.589 14.861 245.742L139.773 318.09C140.346 318.422 141.063 318.008 141.063 317.346V167.882C141.063 167.575 140.9 167.292 140.635 167.138L15.7225 94.7907Z" fill="white" stroke="white" stroke-width="0.572992"/>
</mask>
<g mask="url(#mask2_15_2741)">
<path fill-rule="evenodd" clip-rule="evenodd" d="M25.6013 83.6547H26.1743V113.986L37.0638 120.27V83.6547H37.6368V120.601L48.5262 126.885V83.6547H49.0992V127.215L59.9827 133.496V83.6547H60.5557V133.827L71.4451 140.11V83.6547H72.0181V140.441L82.9015 146.722V83.6547H83.4745V147.052L94.3639 153.336V83.6547H94.9369V153.667L105.82 159.947V83.6547H106.393V160.278L117.283 166.562V83.6547H117.856V166.893L128.745 173.177V83.6547H129.318V173.507L140.987 180.241L140.701 180.737L129.318 174.169V186.114L140.987 192.848L140.701 193.344L129.318 186.776V198.721L140.987 205.455L140.701 205.951L129.318 199.382V211.325L140.987 218.058L140.701 218.555L129.318 211.986V223.932L140.987 230.665L140.701 231.162L129.318 224.593V236.539L140.987 243.272L140.701 243.768L129.318 237.2V249.142L140.987 255.876L140.701 256.372L129.318 249.804V261.749L140.987 268.483L140.701 268.979L129.318 262.411V274.353L140.987 281.087L140.701 281.583L129.318 275.015V286.96L140.987 293.694L140.701 294.19L129.318 287.621V299.567L140.987 306.3L140.701 306.797L129.318 300.228V329.42H128.745V299.898L117.856 293.614V329.42H117.283V293.283L106.393 286.999V329.42H105.82V286.668L94.9369 280.388V329.42H94.3639V280.057L83.4745 273.773V329.42H82.9015V273.443L72.0181 267.162V329.42H71.4451V266.832L60.5557 260.548V329.42H59.9827V260.217L49.0992 253.937V329.42H48.5262V253.606L37.6368 247.322V329.42H37.0638V246.991L26.1743 240.707V329.42H25.6013V240.377L14.2854 233.847L14.5718 233.35L25.6013 239.715V227.77L14.2854 221.24L14.5718 220.743L25.6013 227.108V215.163L14.2854 208.633L14.5718 208.137L25.6013 214.501V202.559L14.2854 196.029L14.5718 195.533L25.6013 201.898V189.952L14.2854 183.422L14.5718 182.926L25.6013 189.291V177.348L14.2854 170.818L14.5718 170.322L25.6013 176.687V164.742L14.2854 158.211L14.5718 157.715L25.6013 164.08V152.135L14.2854 145.605L14.5718 145.108L25.6013 151.473V139.531L14.2854 133.001L14.5718 132.504L25.6013 138.869V126.924L14.2854 120.394L14.5718 119.898L25.6013 126.262V114.317L14.2854 107.787L14.5718 107.291L25.6013 113.655V83.6547ZM26.1743 240.046L37.0638 246.33V234.384L26.1743 228.1V240.046ZM37.6368 246.66L48.5262 252.944V240.999L37.6368 234.715V246.66ZM49.0992 253.275L59.9827 259.555V247.61L49.0992 241.33V253.275ZM60.5557 259.886L71.4451 266.17V254.225L60.5557 247.941V259.886ZM72.0181 266.501L82.9015 272.781V260.836L72.0181 254.555V266.501ZM83.4745 273.112L94.3639 279.396V267.45L83.4745 261.167V273.112ZM94.9369 279.726L105.82 286.007V274.062L94.9369 267.781V279.726ZM106.393 286.338L117.283 292.622V280.676L106.393 274.392V286.338ZM117.856 292.952L128.745 299.236V287.291L117.856 281.007V292.952ZM128.745 274.684V286.629L117.856 280.345V268.4L128.745 274.684ZM117.283 268.069V280.015L106.393 273.731V261.785L117.283 268.069ZM105.82 261.455V273.4L94.9369 267.12V255.174L105.82 261.455ZM94.3639 254.844V266.789L83.4745 260.505V248.56L94.3639 254.844ZM82.9015 248.229V260.174L72.0181 253.894V241.949L82.9015 248.229ZM71.4451 241.618V253.563L60.5557 247.279V235.334L71.4451 241.618ZM59.9827 235.003V246.949L49.0992 240.668V228.723L59.9827 235.003ZM48.5262 228.392V240.337L37.6368 234.054V222.108L48.5262 228.392ZM37.0638 221.778V233.723L26.1743 227.439V215.494L37.0638 221.778ZM26.1743 214.832L37.0638 221.116V209.174L26.1743 202.89V214.832ZM37.6368 221.447L48.5262 227.731V215.788L37.6368 209.504V221.447ZM49.0992 228.061L59.9827 234.342V222.399L49.0992 216.119V228.061ZM60.5557 234.672L71.4451 240.956V229.014L60.5557 222.73V234.672ZM72.0181 241.287L82.9015 247.567V235.625L72.0181 229.345V241.287ZM83.4745 247.898L94.3639 254.182V242.24L83.4745 235.956V247.898ZM94.9369 254.513L105.82 260.793V248.851L94.9369 242.57V254.513ZM106.393 261.124L117.283 267.408V255.465L106.393 249.182V261.124ZM117.856 267.738L128.745 274.022V262.08L117.856 255.796V267.738ZM128.745 249.473V261.419L117.856 255.135V243.189L128.745 249.473ZM117.283 242.859V254.804L106.393 248.52V236.575L117.283 242.859ZM105.82 236.244V248.189L94.9369 241.909V229.964L105.82 236.244ZM94.3639 229.633V241.578L83.4745 235.294V223.349L94.3639 229.633ZM82.9015 223.018V234.964L72.0181 228.683V216.738L82.9015 223.018ZM71.4451 216.407V228.352L60.5557 222.069V210.123L71.4451 216.407ZM59.9827 209.793V221.738L49.0992 215.457V203.512L59.9827 209.793ZM48.5262 203.181V215.127L37.6368 208.843V196.898L48.5262 203.181ZM37.0638 196.567V208.512L26.1743 202.228V190.283L37.0638 196.567ZM26.1743 189.621L37.0638 195.905V183.963L26.1743 177.679V189.621ZM37.6368 196.236L48.5262 202.52V190.578L37.6368 184.294V196.236ZM49.0992 202.851L59.9827 209.131V197.189L49.0992 190.908V202.851ZM60.5557 209.462L71.4451 215.746V203.803L60.5557 197.519V209.462ZM72.0181 216.076L82.9015 222.357V210.414L72.0181 204.134V216.076ZM83.4745 222.687L94.3639 228.971V217.029L83.4745 210.745V222.687ZM94.9369 229.302L105.82 235.582V223.64L94.9369 217.36V229.302ZM106.393 235.913L117.283 242.197V230.255L106.393 223.971V235.913ZM117.856 242.528L128.745 248.812V236.869L117.856 230.585V242.528ZM128.745 224.263V236.208L117.856 229.924V217.979L128.745 224.263ZM117.283 217.648V229.593L106.393 223.309V211.364L117.283 217.648ZM105.82 211.033V222.979L94.9369 216.698V204.753L105.82 211.033ZM94.3639 204.422V216.367L83.4745 210.084V198.138L94.3639 204.422ZM82.9015 197.808V209.753L72.0181 203.472V191.527L82.9015 197.808ZM71.4451 191.196V203.142L60.5557 196.858V184.913L71.4451 191.196ZM59.9827 184.582V196.527L49.0992 190.247V178.301L59.9827 184.582ZM48.5262 177.971V189.916L37.6368 183.632V171.687L48.5262 177.971ZM37.0638 171.356V183.301L26.1743 177.017V165.072L37.0638 171.356ZM26.1743 164.411L37.0638 170.695V158.749L26.1743 152.465V164.411ZM37.6368 171.025L48.5262 177.309V165.364L37.6368 159.08V171.025ZM49.0992 177.64L59.9827 183.92V171.975L49.0992 165.695V177.64ZM60.5557 184.251L71.4451 190.535V178.59L60.5557 172.306V184.251ZM72.0181 190.866L82.9015 197.146V185.201L72.0181 178.92V190.866ZM83.4745 197.477L94.3639 203.761V191.815L83.4745 185.531V197.477ZM94.9369 204.091L105.82 210.372V198.426L94.9369 192.146V204.091ZM106.393 210.702L117.283 216.986V205.041L106.393 198.757V210.702ZM117.856 217.317L128.745 223.601V211.656L117.856 205.372V217.317ZM128.745 199.052V210.994L117.856 204.71V192.768L128.745 199.052ZM117.283 192.437V204.379L106.393 198.096V186.153L117.283 192.437ZM105.82 185.823V197.765L94.9369 191.484V179.542L105.82 185.823ZM94.3639 179.211V191.154L83.4745 184.87V172.928L94.3639 179.211ZM82.9015 172.597V184.539L72.0181 178.259V166.316L82.9015 172.597ZM71.4451 165.986V177.928L60.5557 171.644V159.702L71.4451 165.986ZM59.9827 159.371V171.313L49.0992 165.033V153.091L59.9827 159.371ZM48.5262 152.76V164.702L37.6368 158.418V146.476L48.5262 152.76ZM37.0638 146.145V158.088L26.1743 151.804V139.861L37.0638 146.145ZM26.1743 139.2L37.0638 145.484V133.539L26.1743 127.255V139.2ZM37.6368 145.815L48.5262 152.098V140.153L37.6368 133.869V145.815ZM49.0992 152.429L59.9827 158.71V146.764L49.0992 140.484V152.429ZM60.5557 159.04L71.4451 165.324V153.379L60.5557 147.095V159.04ZM72.0181 165.655L82.9015 171.935V159.99L72.0181 153.71V165.655ZM83.4745 172.266L94.3639 178.55V166.605L83.4745 160.321V172.266ZM94.9369 178.881L105.82 185.161V173.216L94.9369 166.935V178.881ZM106.393 185.492L117.283 191.776V179.83L106.393 173.546V185.492ZM117.856 192.106L128.745 198.39V186.445L117.856 180.161V192.106ZM128.745 173.838V185.783L117.856 179.499V167.554L128.745 173.838ZM117.283 167.223V179.169L106.393 172.885V160.939L117.283 167.223ZM105.82 160.609V172.554L94.9369 166.274V154.328L105.82 160.609ZM94.3639 153.998V165.943L83.4745 159.659V147.714L94.3639 153.998ZM82.9015 147.383V159.328L72.0181 153.048V141.103L82.9015 147.383ZM71.4451 140.772V152.717L60.5557 146.433V134.488L71.4451 140.772ZM59.9827 134.157V146.103L49.0992 139.822V127.877L59.9827 134.157ZM48.5262 127.546V139.492L37.6368 133.208V121.262L48.5262 127.546ZM37.0638 120.932V132.877L26.1743 126.593V114.648L37.0638 120.932Z" fill="#C4D8FF"/>
<path fill-rule="evenodd" clip-rule="evenodd" d="M55.5041 212.04C71.0682 219.822 83.6854 213.513 83.6854 197.949C83.6854 182.385 71.0682 163.459 55.5041 155.677C39.94 147.895 27.3228 154.204 27.3228 169.768C27.3228 185.332 39.94 204.258 55.5041 212.04Z" fill="#3693FF" fill-opacity="0.2"/>
<path fill-rule="evenodd" clip-rule="evenodd" d="M55.4822 197.692C63.1227 201.513 69.3166 198.416 69.3166 190.775C69.3166 183.135 63.1227 173.844 55.4822 170.024C47.8416 166.203 41.6477 169.3 41.6477 176.941C41.6477 184.581 47.8416 193.872 55.4822 197.692Z" fill="#3693FF" fill-opacity="0.2"/>
<path fill-rule="evenodd" clip-rule="evenodd" d="M97.3989 270.551C107.303 275.503 115.332 271.489 115.332 261.584C115.332 251.68 107.303 239.636 97.3989 234.684C87.4945 229.732 79.4653 233.747 79.4653 243.651C79.4653 253.555 87.4945 265.599 97.3989 270.551Z" fill="#3693FF" fill-opacity="0.2"/>
<path fill-rule="evenodd" clip-rule="evenodd" d="M97.3877 261.42C102.25 263.851 106.191 261.88 106.191 257.018C106.191 252.156 102.25 246.244 97.3877 243.812C92.5256 241.381 88.584 243.352 88.584 248.214C88.584 253.076 92.5256 258.989 97.3877 261.42Z" fill="#3693FF" fill-opacity="0.2"/>
<path fill-rule="evenodd" clip-rule="evenodd" d="M133.794 204.415C150.507 212.771 164.056 205.997 164.056 189.284C164.056 172.57 150.507 152.247 133.794 143.89C117.08 135.534 103.531 142.308 103.531 159.021C103.531 175.735 117.08 196.058 133.794 204.415Z" fill="#3693FF" fill-opacity="0.2"/>
<path fill-rule="evenodd" clip-rule="evenodd" d="M133.769 189.007C141.973 193.11 148.625 189.784 148.625 181.579C148.625 173.375 141.973 163.398 133.769 159.295C125.564 155.193 118.913 158.519 118.913 166.723C118.913 174.928 125.564 184.905 133.769 189.007Z" fill="#3693FF" fill-opacity="0.2"/>
</g>
<path opacity="0.602309" d="M55.4131 181.565L3 213.719" stroke="url(#paint18_linear_15_2741)" stroke-width="4.58394" stroke-linecap="round"/>
<path fill-rule="evenodd" clip-rule="evenodd" d="M55.4021 183.857C56.6679 183.857 57.694 182.831 57.694 181.565C57.694 180.299 56.6679 179.273 55.4021 179.273C54.1363 179.273 53.1101 180.299 53.1101 181.565C53.1101 182.831 54.1363 183.857 55.4021 183.857Z" fill="#827CD3"/>
<path opacity="0.602309" d="M97.2397 250.898L21.5913 295.426" stroke="url(#paint19_linear_15_2741)" stroke-width="4.58394" stroke-linecap="round"/>
<path fill-rule="evenodd" clip-rule="evenodd" d="M97.2297 253.19C98.4955 253.19 99.5217 252.164 99.5217 250.898C99.5217 249.632 98.4955 248.606 97.2297 248.606C95.9639 248.606 94.9377 249.632 94.9377 250.898C94.9377 252.164 95.9639 253.19 97.2297 253.19Z" fill="#827CD3"/>
<path opacity="0.602309" d="M106.407 200.474L30.7588 245.001" stroke="url(#paint20_linear_15_2741)" stroke-width="4.58394" stroke-linecap="round"/>
<path fill-rule="evenodd" clip-rule="evenodd" d="M106.397 202.766C107.663 202.766 108.689 201.739 108.689 200.474C108.689 199.208 107.663 198.182 106.397 198.182C105.131 198.182 104.105 199.208 104.105 200.474C104.105 201.739 105.131 202.766 106.397 202.766Z" fill="#827CD3"/>
<defs>
<filter id="filter0_d_15_2741" x="173.433" y="168.388" width="12.0329" height="13.7526" filterUnits="userSpaceOnUse" color-interpolation-filters="sRGB">
<feFlood flood-opacity="0" result="BackgroundImageFix"/>
<feColorMatrix in="SourceAlpha" type="matrix" values="0 0 0 0 0 0 0 0 0 0 0 0 0 0 0 0 0 0 127 0" result="hardAlpha"/>
<feOffset/>
<feGaussianBlur stdDeviation="1.14598"/>
<feColorMatrix type="matrix" values="0 0 0 0 0 0 0 0 0 0 0 0 0 0 0 0 0 0 0.1 0"/>
<feBlend mode="normal" in2="BackgroundImageFix" result="effect1_dropShadow_15_2741"/>
<feBlend mode="normal" in="SourceGraphic" in2="effect1_dropShadow_15_2741" result="shape"/>
</filter>
<filter id="filter1_d_15_2741" x="182.033" y="163.804" width="12.0329" height="13.7526" filterUnits="userSpaceOnUse" color-interpolation-filters="sRGB">
<feFlood flood-opacity="0" result="BackgroundImageFix"/>
<feColorMatrix in="SourceAlpha" type="matrix" values="0 0 0 0 0 0 0 0 0 0 0 0 0 0 0 0 0 0 127 0" result="hardAlpha"/>
<feOffset/>
<feGaussianBlur stdDeviation="1.14598"/>
<feColorMatrix type="matrix" values="0 0 0 0 0 0 0 0 0 0 0 0 0 0 0 0 0 0 0.1 0"/>
<feBlend mode="normal" in2="BackgroundImageFix" result="effect1_dropShadow_15_2741"/>
<feBlend mode="normal" in="SourceGraphic" in2="effect1_dropShadow_15_2741" result="shape"/>
</filter>
<filter id="filter2_d_15_2741" x="186.043" y="168.388" width="12.0329" height="13.7526" filterUnits="userSpaceOnUse" color-interpolation-filters="sRGB">
<feFlood flood-opacity="0" result="BackgroundImageFix"/>
<feColorMatrix in="SourceAlpha" type="matrix" values="0 0 0 0 0 0 0 0 0 0 0 0 0 0 0 0 0 0 127 0" result="hardAlpha"/>
<feOffset/>
<feGaussianBlur stdDeviation="1.14598"/>
<feColorMatrix type="matrix" values="0 0 0 0 0 0 0 0 0 0 0 0 0 0 0 0 0 0 0.1 0"/>
<feBlend mode="normal" in2="BackgroundImageFix" result="effect1_dropShadow_15_2741"/>
<feBlend mode="normal" in="SourceGraphic" in2="effect1_dropShadow_15_2741" result="shape"/>
</filter>
<filter id="filter3_d_15_2741" x="211.251" y="194.746" width="12.0329" height="13.7526" filterUnits="userSpaceOnUse" color-interpolation-filters="sRGB">
<feFlood flood-opacity="0" result="BackgroundImageFix"/>
<feColorMatrix in="SourceAlpha" type="matrix" values="0 0 0 0 0 0 0 0 0 0 0 0 0 0 0 0 0 0 127 0" result="hardAlpha"/>
<feOffset/>
<feGaussianBlur stdDeviation="1.14598"/>
<feColorMatrix type="matrix" values="0 0 0 0 0 0 0 0 0 0 0 0 0 0 0 0 0 0 0.1 0"/>
<feBlend mode="normal" in2="BackgroundImageFix" result="effect1_dropShadow_15_2741"/>
<feBlend mode="normal" in="SourceGraphic" in2="effect1_dropShadow_15_2741" result="shape"/>
</filter>
<filter id="filter4_d_15_2741" x="230.159" y="188.441" width="12.0329" height="13.7526" filterUnits="userSpaceOnUse" color-interpolation-filters="sRGB">
<feFlood flood-opacity="0" result="BackgroundImageFix"/>
<feColorMatrix in="SourceAlpha" type="matrix" values="0 0 0 0 0 0 0 0 0 0 0 0 0 0 0 0 0 0 127 0" result="hardAlpha"/>
<feOffset/>
<feGaussianBlur stdDeviation="1.14598"/>
<feColorMatrix type="matrix" values="0 0 0 0 0 0 0 0 0 0 0 0 0 0 0 0 0 0 0.1 0"/>
<feBlend mode="normal" in2="BackgroundImageFix" result="effect1_dropShadow_15_2741"/>
<feBlend mode="normal" in="SourceGraphic" in2="effect1_dropShadow_15_2741" result="shape"/>
</filter>
<filter id="filter5_d_15_2741" x="226.723" y="190.733" width="12.0329" height="13.7526" filterUnits="userSpaceOnUse" color-interpolation-filters="sRGB">
<feFlood flood-opacity="0" result="BackgroundImageFix"/>
<feColorMatrix in="SourceAlpha" type="matrix" values="0 0 0 0 0 0 0 0 0 0 0 0 0 0 0 0 0 0 127 0" result="hardAlpha"/>
<feOffset/>
<feGaussianBlur stdDeviation="1.14598"/>
<feColorMatrix type="matrix" values="0 0 0 0 0 0 0 0 0 0 0 0 0 0 0 0 0 0 0.1 0"/>
<feBlend mode="normal" in2="BackgroundImageFix" result="effect1_dropShadow_15_2741"/>
<feBlend mode="normal" in="SourceGraphic" in2="effect1_dropShadow_15_2741" result="shape"/>
</filter>
<filter id="filter6_d_15_2741" x="194.063" y="182.713" width="12.0329" height="13.7526" filterUnits="userSpaceOnUse" color-interpolation-filters="sRGB">
<feFlood flood-opacity="0" result="BackgroundImageFix"/>
<feColorMatrix in="SourceAlpha" type="matrix" values="0 0 0 0 0 0 0 0 0 0 0 0 0 0 0 0 0 0 127 0" result="hardAlpha"/>
<feOffset/>
<feGaussianBlur stdDeviation="1.14598"/>
<feColorMatrix type="matrix" values="0 0 0 0 0 0 0 0 0 0 0 0 0 0 0 0 0 0 0.1 0"/>
<feBlend mode="normal" in2="BackgroundImageFix" result="effect1_dropShadow_15_2741"/>
<feBlend mode="normal" in="SourceGraphic" in2="effect1_dropShadow_15_2741" result="shape"/>
</filter>
<filter id="filter7_d_15_2741" x="153.957" y="142.603" width="12.0329" height="13.7526" filterUnits="userSpaceOnUse" color-interpolation-filters="sRGB">
<feFlood flood-opacity="0" result="BackgroundImageFix"/>
<feColorMatrix in="SourceAlpha" type="matrix" values="0 0 0 0 0 0 0 0 0 0 0 0 0 0 0 0 0 0 127 0" result="hardAlpha"/>
<feOffset/>
<feGaussianBlur stdDeviation="1.14598"/>
<feColorMatrix type="matrix" values="0 0 0 0 0 0 0 0 0 0 0 0 0 0 0 0 0 0 0.1 0"/>
<feBlend mode="normal" in2="BackgroundImageFix" result="effect1_dropShadow_15_2741"/>
<feBlend mode="normal" in="SourceGraphic" in2="effect1_dropShadow_15_2741" result="shape"/>
</filter>
<filter id="filter8_d_15_2741" x="194.063" y="182.713" width="12.0329" height="13.7526" filterUnits="userSpaceOnUse" color-interpolation-filters="sRGB">
<feFlood flood-opacity="0" result="BackgroundImageFix"/>
<feColorMatrix in="SourceAlpha" type="matrix" values="0 0 0 0 0 0 0 0 0 0 0 0 0 0 0 0 0 0 127 0" result="hardAlpha"/>
<feOffset/>
<feGaussianBlur stdDeviation="1.14598"/>
<feColorMatrix type="matrix" values="0 0 0 0 0 0 0 0 0 0 0 0 0 0 0 0 0 0 0.1 0"/>
<feBlend mode="normal" in2="BackgroundImageFix" result="effect1_dropShadow_15_2741"/>
<feBlend mode="normal" in="SourceGraphic" in2="effect1_dropShadow_15_2741" result="shape"/>
</filter>
<filter id="filter9_d_15_2741" x="158.54" y="163.804" width="12.0329" height="13.7526" filterUnits="userSpaceOnUse" color-interpolation-filters="sRGB">
<feFlood flood-opacity="0" result="BackgroundImageFix"/>
<feColorMatrix in="SourceAlpha" type="matrix" values="0 0 0 0 0 0 0 0 0 0 0 0 0 0 0 0 0 0 127 0" result="hardAlpha"/>
<feOffset/>
<feGaussianBlur stdDeviation="1.14598"/>
<feColorMatrix type="matrix" values="0 0 0 0 0 0 0 0 0 0 0 0 0 0 0 0 0 0 0.1 0"/>
<feBlend mode="normal" in2="BackgroundImageFix" result="effect1_dropShadow_15_2741"/>
<feBlend mode="normal" in="SourceGraphic" in2="effect1_dropShadow_15_2741" result="shape"/>
</filter>
<filter id="filter10_d_15_2741" x="208.964" y="85.3026" width="12.0329" height="13.7526" filterUnits="userSpaceOnUse" color-interpolation-filters="sRGB">
<feFlood flood-opacity="0" result="BackgroundImageFix"/>
<feColorMatrix in="SourceAlpha" type="matrix" values="0 0 0 0 0 0 0 0 0 0 0 0 0 0 0 0 0 0 127 0" result="hardAlpha"/>
<feOffset/>
<feGaussianBlur stdDeviation="1.14598"/>
<feColorMatrix type="matrix" values="0 0 0 0 0 0 0 0 0 0 0 0 0 0 0 0 0 0 0.1 0"/>
<feBlend mode="normal" in2="BackgroundImageFix" result="effect1_dropShadow_15_2741"/>
<feBlend mode="normal" in="SourceGraphic" in2="effect1_dropShadow_15_2741" result="shape"/>
</filter>
<filter id="filter11_d_15_2741" x="206.095" y="97.908" width="12.0329" height="13.7526" filterUnits="userSpaceOnUse" color-interpolation-filters="sRGB">
<feFlood flood-opacity="0" result="BackgroundImageFix"/>
<feColorMatrix in="SourceAlpha" type="matrix" values="0 0 0 0 0 0 0 0 0 0 0 0 0 0 0 0 0 0 127 0" result="hardAlpha"/>
<feOffset/>
<feGaussianBlur stdDeviation="1.14598"/>
<feColorMatrix type="matrix" values="0 0 0 0 0 0 0 0 0 0 0 0 0 0 0 0 0 0 0.1 0"/>
<feBlend mode="normal" in2="BackgroundImageFix" result="effect1_dropShadow_15_2741"/>
<feBlend mode="normal" in="SourceGraphic" in2="effect1_dropShadow_15_2741" result="shape"/>
</filter>
<filter id="filter12_d_15_2741" x="186.039" y="101.918" width="12.0329" height="13.7526" filterUnits="userSpaceOnUse" color-interpolation-filters="sRGB">
<feFlood flood-opacity="0" result="BackgroundImageFix"/>
<feColorMatrix in="SourceAlpha" type="matrix" values="0 0 0 0 0 0 0 0 0 0 0 0 0 0 0 0 0 0 127 0" result="hardAlpha"/>
<feOffset/>
<feGaussianBlur stdDeviation="1.14598"/>
<feColorMatrix type="matrix" values="0 0 0 0 0 0 0 0 0 0 0 0 0 0 0 0 0 0 0.1 0"/>
<feBlend mode="normal" in2="BackgroundImageFix" result="effect1_dropShadow_15_2741"/>
<feBlend mode="normal" in="SourceGraphic" in2="effect1_dropShadow_15_2741" result="shape"/>
</filter>
<filter id="filter13_d_15_2741" x="172.288" y="69.2595" width="12.0329" height="13.7526" filterUnits="userSpaceOnUse" color-interpolation-filters="sRGB">
<feFlood flood-opacity="0" result="BackgroundImageFix"/>
<feColorMatrix in="SourceAlpha" type="matrix" values="0 0 0 0 0 0 0 0 0 0 0 0 0 0 0 0 0 0 127 0" result="hardAlpha"/>
<feOffset/>
<feGaussianBlur stdDeviation="1.14598"/>
<feColorMatrix type="matrix" values="0 0 0 0 0 0 0 0 0 0 0 0 0 0 0 0 0 0 0.1 0"/>
<feBlend mode="normal" in2="BackgroundImageFix" result="effect1_dropShadow_15_2741"/>
<feBlend mode="normal" in="SourceGraphic" in2="effect1_dropShadow_15_2741" result="shape"/>
</filter>
<filter id="filter14_d_15_2741" x="168.851" y="73.2695" width="12.0329" height="13.7526" filterUnits="userSpaceOnUse" color-interpolation-filters="sRGB">
<feFlood flood-opacity="0" result="BackgroundImageFix"/>
<feColorMatrix in="SourceAlpha" type="matrix" values="0 0 0 0 0 0 0 0 0 0 0 0 0 0 0 0 0 0 127 0" result="hardAlpha"/>
<feOffset/>
<feGaussianBlur stdDeviation="1.14598"/>
<feColorMatrix type="matrix" values="0 0 0 0 0 0 0 0 0 0 0 0 0 0 0 0 0 0 0.1 0"/>
<feBlend mode="normal" in2="BackgroundImageFix" result="effect1_dropShadow_15_2741"/>
<feBlend mode="normal" in="SourceGraphic" in2="effect1_dropShadow_15_2741" result="shape"/>
</filter>
<filter id="filter15_d_15_2741" x="156.248" y="61.2364" width="12.0329" height="13.7526" filterUnits="userSpaceOnUse" color-interpolation-filters="sRGB">
<feFlood flood-opacity="0" result="BackgroundImageFix"/>
<feColorMatrix in="SourceAlpha" type="matrix" values="0 0 0 0 0 0 0 0 0 0 0 0 0 0 0 0 0 0 127 0" result="hardAlpha"/>
<feOffset/>
<feGaussianBlur stdDeviation="1.14598"/>
<feColorMatrix type="matrix" values="0 0 0 0 0 0 0 0 0 0 0 0 0 0 0 0 0 0 0.1 0"/>
<feBlend mode="normal" in2="BackgroundImageFix" result="effect1_dropShadow_15_2741"/>
<feBlend mode="normal" in="SourceGraphic" in2="effect1_dropShadow_15_2741" result="shape"/>
</filter>
<filter id="filter16_d_15_2741" x="189.481" y="81.2911" width="12.0329" height="13.7526" filterUnits="userSpaceOnUse" color-interpolation-filters="sRGB">
<feFlood flood-opacity="0" result="BackgroundImageFix"/>
<feColorMatrix in="SourceAlpha" type="matrix" values="0 0 0 0 0 0 0 0 0 0 0 0 0 0 0 0 0 0 127 0" result="hardAlpha"/>
<feOffset/>
<feGaussianBlur stdDeviation="1.14598"/>
<feColorMatrix type="matrix" values="0 0 0 0 0 0 0 0 0 0 0 0 0 0 0 0 0 0 0.1 0"/>
<feBlend mode="normal" in2="BackgroundImageFix" result="effect1_dropShadow_15_2741"/>
<feBlend mode="normal" in="SourceGraphic" in2="effect1_dropShadow_15_2741" result="shape"/>
</filter>
<filter id="filter17_d_15_2741" x="229.588" y="121.401" width="12.0329" height="13.7526" filterUnits="userSpaceOnUse" color-interpolation-filters="sRGB">
<feFlood flood-opacity="0" result="BackgroundImageFix"/>
<feColorMatrix in="SourceAlpha" type="matrix" values="0 0 0 0 0 0 0 0 0 0 0 0 0 0 0 0 0 0 127 0" result="hardAlpha"/>
<feOffset/>
<feGaussianBlur stdDeviation="1.14598"/>
<feColorMatrix type="matrix" values="0 0 0 0 0 0 0 0 0 0 0 0 0 0 0 0 0 0 0.1 0"/>
<feBlend mode="normal" in2="BackgroundImageFix" result="effect1_dropShadow_15_2741"/>
<feBlend mode="normal" in="SourceGraphic" in2="effect1_dropShadow_15_2741" result="shape"/>
</filter>
<filter id="filter18_d_15_2741" x="189.481" y="81.2911" width="12.0329" height="13.7526" filterUnits="userSpaceOnUse" color-interpolation-filters="sRGB">
<feFlood flood-opacity="0" result="BackgroundImageFix"/>
<feColorMatrix in="SourceAlpha" type="matrix" values="0 0 0 0 0 0 0 0 0 0 0 0 0 0 0 0 0 0 127 0" result="hardAlpha"/>
<feOffset/>
<feGaussianBlur stdDeviation="1.14598"/>
<feColorMatrix type="matrix" values="0 0 0 0 0 0 0 0 0 0 0 0 0 0 0 0 0 0 0.1 0"/>
<feBlend mode="normal" in2="BackgroundImageFix" result="effect1_dropShadow_15_2741"/>
<feBlend mode="normal" in="SourceGraphic" in2="effect1_dropShadow_15_2741" result="shape"/>
</filter>
<filter id="filter19_d_15_2741" x="223.289" y="105.931" width="12.0329" height="13.7526" filterUnits="userSpaceOnUse" color-interpolation-filters="sRGB">
<feFlood flood-opacity="0" result="BackgroundImageFix"/>
<feColorMatrix in="SourceAlpha" type="matrix" values="0 0 0 0 0 0 0 0 0 0 0 0 0 0 0 0 0 0 127 0" result="hardAlpha"/>
<feOffset/>
<feGaussianBlur stdDeviation="1.14598"/>
<feColorMatrix type="matrix" values="0 0 0 0 0 0 0 0 0 0 0 0 0 0 0 0 0 0 0.1 0"/>
<feBlend mode="normal" in2="BackgroundImageFix" result="effect1_dropShadow_15_2741"/>
<feBlend mode="normal" in="SourceGraphic" in2="effect1_dropShadow_15_2741" result="shape"/>
</filter>
<linearGradient id="paint0_linear_15_2741" x1="44.8843" y1="79.4097" x2="59.9997" y2="122.908" gradientUnits="userSpaceOnUse">
<stop stop-color="#3364ED" stop-opacity="0.317284"/>
<stop offset="1" stop-color="#3364ED" stop-opacity="0.01"/>
</linearGradient>
<linearGradient id="paint1_linear_15_2741" x1="113.18" y1="45.1807" x2="120.251" y2="60.724" gradientUnits="userSpaceOnUse">
<stop stop-color="#3364ED" stop-opacity="0.317284"/>
<stop offset="1" stop-color="#3364ED" stop-opacity="0.01"/>
</linearGradient>
<linearGradient id="paint2_linear_15_2741" x1="113.18" y1="70.892" x2="126.597" y2="90.2131" gradientUnits="userSpaceOnUse">
<stop stop-color="#3364ED" stop-opacity="0.317284"/>
<stop offset="1" stop-color="#3364ED" stop-opacity="0.01"/>
</linearGradient>
<linearGradient id="paint3_linear_15_2741" x1="250.803" y1="266.703" x2="243.624" y2="226.302" gradientUnits="userSpaceOnUse">
<stop stop-color="#3364ED" stop-opacity="0.317284"/>
<stop offset="1" stop-color="#3364ED" stop-opacity="0.01"/>
</linearGradient>
<linearGradient id="paint4_linear_15_2741" x1="252.737" y1="69.941" x2="258.073" y2="43.3132" gradientUnits="userSpaceOnUse">
<stop stop-color="#3364ED" stop-opacity="0.317284"/>
<stop offset="1" stop-color="#3364ED" stop-opacity="0.01"/>
</linearGradient>
<linearGradient id="paint5_linear_15_2741" x1="275.021" y1="219.921" x2="303" y2="219.921" gradientUnits="userSpaceOnUse">
<stop stop-color="#3364ED" stop-opacity="0.317284"/>
<stop offset="1" stop-color="#3364ED" stop-opacity="0.01"/>
</linearGradient>
<linearGradient id="paint6_linear_15_2741" x1="138.83" y1="22.472" x2="138.83" y2="96.9959" gradientUnits="userSpaceOnUse">
<stop stop-color="#6E6E8F"/>
<stop offset="1" stop-color="#4B4C6B"/>
</linearGradient>
<linearGradient id="paint7_linear_15_2741" x1="262.892" y1="96.811" x2="262.892" y2="247.309" gradientUnits="userSpaceOnUse">
<stop stop-color="#6E6E8F"/>
<stop offset="1" stop-color="#4B4C6B"/>
</linearGradient>
<linearGradient id="paint8_linear_15_2741" x1="116.918" y1="229.302" x2="251.219" y2="253.213" gradientUnits="userSpaceOnUse">
<stop stop-color="#575772"/>
<stop offset="1" stop-color="#323352"/>
</linearGradient>
<linearGradient id="paint9_linear_15_2741" x1="157.401" y1="225.372" x2="250.226" y2="175.446" gradientUnits="userSpaceOnUse">
<stop stop-color="#FF9A29"/>
<stop offset="0.51488" stop-color="white"/>
<stop offset="1" stop-color="#3094FF"/>
</linearGradient>
<linearGradient id="paint10_linear_15_2741" x1="130.374" y1="63.4186" x2="103.121" y2="109.699" gradientUnits="userSpaceOnUse">
<stop stop-color="#3190FF"/>
<stop offset="1" stop-color="#3693FF" stop-opacity="0.01"/>
</linearGradient>
<linearGradient id="paint11_linear_15_2741" x1="157.876" y1="98.9442" x2="130.623" y2="145.224" gradientUnits="userSpaceOnUse">
<stop stop-color="#3190FF"/>
<stop offset="1" stop-color="#3693FF" stop-opacity="0.01"/>
</linearGradient>
<linearGradient id="paint12_linear_15_2741" x1="196.268" y1="102.954" x2="169.014" y2="149.235" gradientUnits="userSpaceOnUse">
<stop stop-color="#3190FF"/>
<stop offset="1" stop-color="#3693FF" stop-opacity="0.01"/>
</linearGradient>
<linearGradient id="paint13_linear_15_2741" x1="208.298" y1="200.364" x2="181.044" y2="246.644" gradientUnits="userSpaceOnUse">
<stop stop-color="#F26E16"/>
<stop offset="1" stop-color="#F26E16" stop-opacity="0.01"/>
</linearGradient>
<linearGradient id="paint14_linear_15_2741" x1="146.988" y1="145.929" x2="119.734" y2="192.21" gradientUnits="userSpaceOnUse">
<stop stop-color="#F26E16"/>
<stop offset="1" stop-color="#F26E16" stop-opacity="0.01"/>
</linearGradient>
<linearGradient id="paint15_linear_15_2741" x1="143.551" y1="200.364" x2="116.298" y2="246.644" gradientUnits="userSpaceOnUse">
<stop stop-color="#F26E16"/>
<stop offset="1" stop-color="#F26E16" stop-opacity="0.01"/>
</linearGradient>
<linearGradient id="paint16_linear_15_2741" x1="212.822" y1="129.419" x2="146.691" y2="15.2094" gradientUnits="userSpaceOnUse">
<stop stop-color="#B1C6FF"/>
<stop offset="1" stop-color="#E1EBF4"/>
</linearGradient>
<linearGradient id="paint17_linear_15_2741" x1="143.876" y1="356.212" x2="159.278" y2="354.967" gradientUnits="userSpaceOnUse">
<stop stop-color="#B1C6FF"/>
<stop offset="1" stop-color="#E1EBF4"/>
</linearGradient>
<linearGradient id="paint18_linear_15_2741" x1="37.0794" y1="170.312" x2="17.0135" y2="203.006" gradientUnits="userSpaceOnUse">
<stop stop-color="#827CD3"/>
<stop offset="1" stop-color="#827CD3" stop-opacity="0.01"/>
</linearGradient>
<linearGradient id="paint19_linear_15_2741" x1="70.7785" y1="235.316" x2="43.5254" y2="281.596" gradientUnits="userSpaceOnUse">
<stop stop-color="#827CD3"/>
<stop offset="1" stop-color="#827CD3" stop-opacity="0.01"/>
</linearGradient>
<linearGradient id="paint20_linear_15_2741" x1="79.946" y1="184.891" x2="52.6929" y2="231.172" gradientUnits="userSpaceOnUse">
<stop stop-color="#827CD3"/>
<stop offset="1" stop-color="#827CD3" stop-opacity="0.01"/>
</linearGradient>
</defs>
</svg>
