<svg width="430" height="370" viewBox="0 0 430 370" fill="none" xmlns="http://www.w3.org/2000/svg">
<path d="M182.123 228.226L81.5771 288.962L64.0186 323.956L217.323 231.35L182.123 228.226V228.226Z" fill="#AC7F8D"/>
<path d="M229.202 257.018L75.8977 349.623L64.0186 323.956L217.323 231.35L229.202 257.018V257.018Z" fill="#AC7F8D"/>
<path d="M154.358 294.002L85.3919 335.662L79.4639 322.852L148.429 281.191L154.358 294.002V294.002Z" fill="white" stroke="#3F3C3F" stroke-width="0.914062" stroke-linecap="round" stroke-linejoin="round"/>
<path d="M213.027 258.563L194.46 269.778L188.531 256.968L207.098 245.751L213.027 258.563V258.563Z" fill="white" stroke="#3F3C3F" stroke-width="0.914062" stroke-linecap="round" stroke-linejoin="round"/>
<path d="M36.5906 282.481L144.249 217.449L182.018 220.962L17.8682 320.12L36.5906 282.481V282.481Z" fill="#F9B472"/>
<path d="M30.6931 347.829L194.843 248.672L182.018 220.962L17.8682 320.12L30.6931 347.829V347.829Z" fill="white"/>
<path fill-rule="evenodd" clip-rule="evenodd" d="M30.6931 347.829L194.843 248.672L182.018 220.962L17.8682 320.12L30.6931 347.829V347.829Z" stroke="#3F3C3F" stroke-width="0.914062" stroke-linecap="round" stroke-linejoin="round"/>
<path d="M104.434 294.405L178.279 249.796L171.878 235.967L98.0332 280.575L104.434 294.405V294.405Z" fill="#FFD0AF"/>
<path d="M41.6149 332.352C67.1099 316.328 62.4652 324.855 55.0943 306.513C29.5989 322.537 34.2436 314.01 41.6149 332.352Z" fill="#FFD0AF"/>
<path d="M147.211 194.485C22.2138 270.94 46.1526 249.279 15.7188 290.819L181.924 190.419L147.211 194.485Z" fill="#B8B7CB"/>
<path d="M190.158 208.209L23.9526 308.608L15.7188 290.818L181.925 190.419L190.158 208.209V208.209Z" fill="#B8B7CB"/>
<path d="M110.179 250.82L35.4085 295.987L31.2988 287.109L106.07 241.942L110.179 250.82V250.82Z" fill="white" stroke="#3F3C3F" stroke-width="0.914062" stroke-linecap="round" stroke-linejoin="round"/>
<path d="M173.785 212.398L153.656 224.558L149.547 215.679L169.676 203.52L173.785 212.398V212.398Z" fill="white" stroke="#3F3C3F" stroke-width="0.914062" stroke-linecap="round" stroke-linejoin="round"/>
<path d="M140.092 202.554C140.028 204.847 139.623 207.117 138.889 209.29" stroke="#3F3C3F" stroke-width="0.914062" stroke-linecap="round" stroke-linejoin="round"/>
<path d="M73.6903 303.835C73.305 305.964 72.4375 307.976 71.1543 309.718" stroke="#3F3C3F" stroke-width="0.914062" stroke-linecap="round" stroke-linejoin="round"/>
<path d="M181.876 268.919C180.46 271.092 178.821 273.112 176.987 274.947" stroke="#3F3C3F" stroke-width="0.914062" stroke-linecap="round" stroke-linejoin="round"/>
<path d="M217.323 231.35L188.082 228.755" stroke="#3F3C3F" stroke-width="0.914062" stroke-linecap="round" stroke-linejoin="round"/>
<path d="M229.202 257.017L75.8984 349.623" stroke="#3F3C3F" stroke-width="0.914062" stroke-linecap="round" stroke-linejoin="round"/>
<path d="M15.7188 290.819L181.924 190.419" stroke="#3F3C3F" stroke-width="0.914062" stroke-linecap="round" stroke-linejoin="round"/>
<path fill-rule="evenodd" clip-rule="evenodd" d="M125.071 285.694C124.378 292.707 130.54 294.712 134.371 300.644C138.08 306.391 137.629 310.632 143.905 314.901C150.302 319.258 155.371 321.378 166.055 322.219C173.229 322.78 179.188 321.808 186.176 320.666C189.485 320.126 193.024 319.548 197.032 319.078C209.417 317.632 215.781 318.32 228.205 314.943C240.802 311.515 247.878 308.027 259.593 302.072C271.331 296.103 277.486 292.402 286.843 285.126C296.266 277.794 301.563 273.294 306.534 265.556C311.459 257.901 309.79 254.177 311.592 246.656C313.439 238.936 318.133 233.605 315.671 227.451C313.198 221.274 307.748 219.075 299.267 215.827C291.073 212.686 284.408 212.907 273.996 211.484C270.71 211.035 267.999 210.439 265.459 209.882C259.902 208.661 255.166 207.621 247.038 208.689C235.193 210.251 227.73 215.296 214.788 219.283C201.901 223.251 194.053 223.187 182.47 228.573C170.824 233.993 165.717 238.847 156.734 246.291C149.68 251.929 143.332 258.397 137.828 265.556C136.535 267.167 135.273 268.66 134.077 270.077C129.335 275.692 125.625 280.086 125.071 285.694Z" fill="#FFBED0"/>
<path fill-rule="evenodd" clip-rule="evenodd" d="M336.815 150.903C336.59 153.183 338.593 153.834 339.839 155.763C341.045 157.631 340.898 159.01 342.938 160.398C345.042 161.902 347.553 162.731 350.139 162.777C352.332 162.887 354.53 162.717 356.681 162.272C357.756 162.096 358.907 161.909 360.21 161.756C364.236 161.286 366.305 161.509 370.344 160.411C377.195 158.268 383.639 154.991 389.407 150.718C392.471 148.334 394.193 146.871 395.809 144.356C397.41 141.867 396.867 140.657 397.453 138.212C398.054 135.702 399.58 133.969 398.779 131.968C397.975 129.96 396.203 129.245 393.446 128.189C390.782 127.168 388.616 127.24 385.23 126.777C384.162 126.631 383.28 126.438 382.455 126.256C380.505 125.727 378.469 125.595 376.467 125.869C372.615 126.376 370.189 128.016 365.982 129.313C361.793 130.603 359.241 130.582 355.476 132.333C352.41 133.816 349.588 135.758 347.109 138.093C344.816 139.926 342.752 142.029 340.962 144.356C340.542 144.88 340.132 145.365 339.744 145.826C338.202 147.651 336.995 149.08 336.815 150.903Z" fill="#FFD0AF"/>
<path d="M33.438 180.631C32.2846 180.632 31.3046 181.475 31.132 182.615C31.0742 183.137 31.248 183.657 31.6075 184.039C31.967 184.421 32.476 184.626 32.9999 184.6C34.1533 184.599 35.1333 183.756 35.3059 182.615C35.3637 182.094 35.1899 181.574 34.8304 181.192C34.4708 180.81 33.9619 180.605 33.438 180.631V180.631Z" fill="#3F3C3F"/>
<path d="M27.9976 229.914C26.8442 229.915 25.8642 230.758 25.6916 231.898C25.6338 232.42 25.8076 232.94 26.1671 233.322C26.5266 233.704 27.0356 233.909 27.5594 233.883C28.7129 233.882 29.6928 233.039 29.8654 231.898C29.9233 231.377 29.7494 230.857 29.3899 230.475C29.0304 230.093 28.5214 229.888 27.9976 229.914V229.914Z" fill="#3F3C3F"/>
<path d="M56.6352 205.273C55.4818 205.273 54.5018 206.116 54.3293 207.257C54.2714 207.778 54.4452 208.299 54.8047 208.681C55.1642 209.062 55.6732 209.267 56.197 209.241C57.3505 209.241 58.3304 208.397 58.503 207.257C58.5609 206.736 58.387 206.215 58.0275 205.833C57.668 205.451 57.159 205.246 56.6352 205.273V205.273Z" fill="#3F3C3F"/>
<path d="M6.66891 207.257C6.72682 206.736 6.55303 206.215 6.19353 205.833C5.83402 205.451 5.32502 205.246 4.80118 205.273C3.64777 205.273 2.66781 206.116 2.49531 207.257C2.43744 207.778 2.61124 208.299 2.97074 208.68C3.33024 209.062 3.83921 209.267 4.36304 209.241C5.51645 209.241 6.49641 208.397 6.66891 207.257V207.257Z" fill="#3F3C3F"/>
<path d="M49.4279 188.43C49.0015 188.752 48.7266 189.235 48.668 189.766C48.6094 190.297 48.7722 190.829 49.1181 191.236C49.9488 192.012 51.2387 192.012 52.0693 191.236C52.4957 190.914 52.7706 190.431 52.8292 189.9C52.8879 189.369 52.725 188.837 52.3791 188.43C51.5485 187.654 50.2586 187.654 49.4279 188.43V188.43Z" fill="#3F3C3F"/>
<path d="M8.92884 223.278C8.50246 223.6 8.22758 224.083 8.16896 224.614C8.11033 225.145 8.27314 225.677 8.61903 226.084C9.44972 226.86 10.7397 226.86 11.5704 226.084C11.9967 225.762 12.2716 225.279 12.3302 224.748C12.3888 224.217 12.2259 223.685 11.88 223.278C11.0494 222.502 9.75948 222.502 8.92884 223.278Z" fill="#3F3C3F"/>
<path d="M45.5812 223.278C45.1548 223.6 44.8799 224.083 44.8213 224.614C44.7627 225.145 44.9256 225.677 45.2715 226.084C46.1022 226.86 47.3921 226.86 48.2227 226.084C48.6491 225.762 48.9239 225.279 48.9825 224.748C49.0411 224.217 48.8783 223.685 48.5324 223.278C47.7018 222.502 46.4119 222.502 45.5812 223.278Z" fill="#3F3C3F"/>
<path d="M12.7754 188.43C12.3491 188.752 12.0742 189.235 12.0156 189.766C11.957 190.297 12.1199 190.829 12.4658 191.236C13.2964 192.012 14.5863 192.012 15.417 191.236C15.8434 190.914 16.1183 190.431 16.1769 189.9C16.2355 189.369 16.0727 188.837 15.7268 188.43C14.8961 187.654 13.6061 187.654 12.7754 188.43V188.43Z" fill="#3F3C3F"/>
<path d="M44.3638 182.841C43.2876 182.428 42.0712 182.865 41.5043 183.869C41.2216 184.311 41.1466 184.855 41.2992 185.357C41.4517 185.859 41.8164 186.269 42.2973 186.48C43.3735 186.893 44.59 186.456 45.1569 185.452C45.4396 185.01 45.5145 184.466 45.362 183.964C45.2094 183.461 44.8447 183.051 44.3638 182.841V182.841Z" fill="#3F3C3F"/>
<path d="M18.6998 228.034C17.6236 227.621 16.4072 228.058 15.8403 229.062C15.5575 229.504 15.4825 230.048 15.6351 230.55C15.7876 231.052 16.1524 231.462 16.6333 231.673C17.7095 232.086 18.9259 231.648 19.4927 230.645C19.7755 230.202 19.8505 229.659 19.698 229.156C19.5455 228.654 19.1807 228.244 18.6998 228.034V228.034Z" fill="#3F3C3F"/>
<path d="M54.2134 215.266C53.1371 214.853 51.9208 215.29 51.3538 216.294C51.0712 216.736 50.9962 217.28 51.1488 217.782C51.3013 218.284 51.6661 218.694 52.147 218.905C53.2232 219.318 54.4396 218.88 55.0064 217.877C55.2892 217.434 55.3642 216.89 55.2116 216.388C55.0591 215.886 54.6943 215.476 54.2134 215.266V215.266Z" fill="#3F3C3F"/>
<path d="M8.85118 195.608C7.77495 195.195 6.55854 195.633 5.99163 196.636C5.70888 197.079 5.63391 197.622 5.78645 198.125C5.93899 198.627 6.30375 199.037 6.78467 199.247C7.86091 199.66 9.07732 199.223 9.64422 198.219C9.92693 197.777 10.0019 197.233 9.84934 196.731C9.69681 196.229 9.33207 195.819 8.85118 195.608V195.608Z" fill="#3F3C3F"/>
<path d="M56.1714 200.075C57.2566 199.731 57.8936 198.61 57.6327 197.502C57.453 196.999 57.0733 196.594 56.5839 196.382C56.0945 196.17 55.539 196.17 55.0498 196.383C53.9647 196.726 53.3277 197.848 53.5886 198.956C53.7682 199.458 54.1479 199.863 54.6373 200.075C55.1267 200.287 55.6821 200.287 56.1714 200.075V200.075Z" fill="#3F3C3F"/>
<path d="M4.82615 214.439C3.74102 214.782 3.10401 215.904 3.36499 217.012C3.54456 217.514 3.9242 217.919 4.4136 218.132C4.90299 218.344 5.45839 218.343 5.94764 218.131C7.03284 217.788 7.66994 216.666 7.40892 215.558C7.22932 215.056 6.84966 214.65 6.36025 214.438C5.87085 214.226 5.31544 214.226 4.82615 214.439V214.439Z" fill="#3F3C3F"/>
<path d="M36.9023 228.339C35.8172 228.682 35.1802 229.804 35.4412 230.912C35.6208 231.414 36.0004 231.819 36.4898 232.031C36.9793 232.244 37.5347 232.243 38.0239 232.031C39.1091 231.687 39.7461 230.566 39.4851 229.458C39.3055 228.956 38.9258 228.55 38.4364 228.338C37.947 228.126 37.3916 228.126 36.9023 228.339Z" fill="#3F3C3F"/>
<path d="M22.9736 182.483C21.8885 182.826 21.2515 183.948 21.5124 185.056C21.692 185.558 22.0717 185.963 22.5611 186.176C23.0505 186.388 23.606 186.387 24.0952 186.175C25.1803 185.832 25.8174 184.71 25.5565 183.602C25.3769 183.1 24.9972 182.694 24.5078 182.482C24.0183 182.27 23.4629 182.27 22.9736 182.483V182.483Z" fill="#3F3C3F"/>
<path d="M376.841 94.6088L379.906 100.522C384.12 94.4163 402.664 91.3545 400.536 83.0081C400.536 83.0081 404.155 77.9123 402.248 76.5589C408.439 63.3148 391.632 81.8938 390.932 85.5814C387.461 87.5739 380.508 92.0862 376.841 94.6088Z" fill="#FDFFFE" stroke="#3F3C3F" stroke-width="0.914062" stroke-linecap="round" stroke-linejoin="round"/>
<path d="M394.577 86.9336C399.116 84.8458 427.901 5.40009 429.139 1.02393C427.177 2.86546 394.278 84.3513 394.577 86.9336Z" fill="#49ACDC"/>
<path d="M393.035 79.8542C400.524 84.0655 398.451 90.2685 402.097 77.2007C399.744 77.3088 394.588 75.6971 393.035 79.8542Z" fill="#FDFFFE" stroke="#3F3C3F" stroke-width="0.914062" stroke-linecap="round" stroke-linejoin="round"/>
<path d="M378.173 89.8549C385.494 84.858 395.249 76.7297 398.728 72.0601C400.036 73.5677 392.667 88.0102 392.89 88.7813C389.384 89.157 380.482 93.6586 378.162 94.5748L378.173 89.8549Z" fill="#FDFFFE" stroke="#3F3C3F" stroke-width="0.914062" stroke-linecap="round" stroke-linejoin="round"/>
<path d="M377.544 105.949C391.698 101.611 381.09 91.66 381.39 85.0698C367.638 93.2588 377.023 98.6975 377.544 105.949Z" fill="white"/>
<path d="M377.413 87.6663C381.341 94.9986 382.352 102.963 382.902 110.253C383.453 117.544 325.176 135.878 319.137 135.221C313.097 134.564 287.704 87.9056 287.704 87.9056C287.704 87.9056 304.871 57.9131 312.006 57.7307C322.599 57.4598 332.647 104.576 335.516 104.78C338.385 104.984 377.413 87.6663 377.413 87.6663Z" fill="#FFBED0"/>
<mask id="mask0_102_3" style="mask-type:alpha" maskUnits="userSpaceOnUse" x="287" y="57" width="96" height="79">
<path fill-rule="evenodd" clip-rule="evenodd" d="M377.413 87.6663C381.341 94.9986 382.352 102.963 382.902 110.253C383.453 117.544 325.176 135.878 319.137 135.221C313.097 134.564 287.704 87.9056 287.704 87.9056C287.704 87.9056 304.871 57.9131 312.006 57.7307C322.599 57.4598 332.647 104.576 335.516 104.78C338.385 104.984 377.413 87.6663 377.413 87.6663Z" fill="white"/>
</mask>
<g mask="url(#mask0_102_3)">
<path d="M311.107 88.7482C326.164 82.0903 290.427 131.658 314.888 138.271C339.349 144.885 281.363 126.077 281.363 126.077L296.037 80.3975" fill="#FFA1C2"/>
<path d="M336.724 96.6021C316.802 110.178 324.114 108.827 335.517 104.78Z" fill="#FFA1C2"/>
</g>
<path d="M257.406 339.118C255.343 347.38 269.08 353.858 264.532 344.037C268.103 356.192 271.472 327.865 273.699 323.337C288.066 269.599 304.357 239.837 300.038 195.554C303.754 187.088 281.54 191.146 272.265 189.242C273.996 220.672 261.966 307.16 257.406 339.118Z" fill="#FDFFFE"/>
<path fill-rule="evenodd" clip-rule="evenodd" d="M257.406 339.118C255.343 347.38 269.08 353.858 264.532 344.037C268.103 356.192 271.472 327.865 273.699 323.337C288.066 269.599 304.357 239.837 300.038 195.554C303.754 187.088 281.54 191.146 272.265 189.242C273.996 220.672 261.966 307.16 257.406 339.118Z" stroke="#3F3C3F" stroke-width="0.914062" stroke-linecap="round" stroke-linejoin="round"/>
<path d="M223.428 337.854C221.462 343.805 230.371 366.416 234.194 348.198C235.659 345.276 252.219 274.616 262.743 247.389C269.106 230.927 275.701 162.363 275.385 164.688L240.141 189.378C240.141 189.378 237.782 238.669 237.528 239.888C237.275 241.106 223.428 337.854 223.428 337.854Z" fill="#FDFFFE"/>
<path fill-rule="evenodd" clip-rule="evenodd" d="M223.428 337.854C221.462 343.805 230.371 366.416 234.194 348.198C235.659 345.276 252.219 274.616 262.743 247.389C269.106 230.927 275.701 162.363 275.385 164.688L240.141 189.378C240.141 189.378 237.782 238.669 237.528 239.888C237.275 241.106 223.428 337.854 223.428 337.854Z" stroke="#3F3C3F" stroke-width="0.914062" stroke-linecap="round" stroke-linejoin="round"/>
<path d="M234.987 230.331C245.587 234.666 256.993 236.68 268.436 236.237C269.905 236.169 271.487 216.861 272.877 216.713C273.556 216.641 274.075 235.757 274.735 235.668C292.689 233.246 303.416 224.855 303.416 224.855C303.416 224.855 317.136 154.099 300.7 129.375L252.288 130.612C252.288 130.612 229.425 139.26 234.987 230.331Z" fill="#49ACDC"/>
<mask id="mask1_102_3" style="mask-type:alpha" maskUnits="userSpaceOnUse" x="234" y="129" width="75" height="108">
<path fill-rule="evenodd" clip-rule="evenodd" d="M234.987 230.331C245.587 234.666 256.993 236.68 268.436 236.237C269.905 236.169 271.487 216.861 272.877 216.713C273.556 216.641 274.075 235.757 274.735 235.668C292.689 233.246 303.416 224.855 303.416 224.855C303.416 224.855 317.136 154.099 300.7 129.375L252.288 130.612C252.288 130.612 229.425 139.26 234.987 230.331Z" fill="white"/>
</mask>
<g mask="url(#mask1_102_3)">
<path d="M260.115 131.435C244.971 140.255 304.736 139.512 308.021 143.35C311.306 147.188 308.63 126.86 308.63 126.86L285.306 127.362L260.115 131.435Z" fill="#2B8ACD"/>
<path d="M268.1 192.212C275.903 203.103 242.38 195.135 233.724 207.712C225.068 220.288 222.333 192.118 222.333 192.118L261.425 183.405" fill="#2B8ACD"/>
</g>
<path d="M285.765 1.05974C264.222 6.70925 268.913 25.7472 253.025 39.3201C216.188 70.7891 222.026 107.326 283.297 81.662C326.971 63.3686 303.803 38.2501 306.543 26.3308C309.282 14.4114 307.767 -4.71031 285.765 1.05974Z" fill="#7BB1FC"/>
<path d="M251.269 58.6987C261.449 53.8865 349.091 33.2603 309.03 98.2455C308.078 99.7886 305.719 115.682 303.997 124.699C310.51 134.871 255.886 138.939 252.416 129.462C253.381 120.987 259.199 69.7378 259.476 67.2945C260.699 68.2434 241.09 63.5111 251.269 58.6987Z" fill="#FFBED0"/>
<mask id="mask2_102_3" style="mask-type:alpha" maskUnits="userSpaceOnUse" x="248" y="51" width="72" height="84">
<path fill-rule="evenodd" clip-rule="evenodd" d="M251.269 58.6987C261.449 53.8865 349.091 33.2603 309.03 98.2455C308.078 99.7886 305.719 115.682 303.997 124.699C310.51 134.871 255.886 138.939 252.416 129.462C253.381 120.987 259.199 69.7378 259.476 67.2945C260.699 68.2434 241.09 63.5111 251.269 58.6987Z" fill="white"/>
</mask>
<g mask="url(#mask2_102_3)">
<path d="M264.721 88.0528C279.464 79.1666 254.529 116.352 255.165 132.037C255.8 147.723 239.261 116.138 239.261 116.138" fill="#FFA1C2"/>
</g>
<path d="M296.566 37.8953C290.453 51.8475 293.324 60.9715 285.183 70.7786C264.127 55.6002 279.6 48.8159 276.102 31.413C276.508 28.1715 296.248 37.7671 296.566 37.8953Z" fill="#FDFFFE"/>
<path fill-rule="evenodd" clip-rule="evenodd" d="M296.566 37.8953C290.453 51.8475 293.324 60.9715 285.183 70.7786C264.127 55.6002 279.6 48.8159 276.102 31.413C276.508 28.1715 296.248 37.7671 296.566 37.8953Z" stroke="#3F3C3F" stroke-width="0.914062" stroke-linecap="round" stroke-linejoin="round"/>
<path d="M266.859 54.1519L262.012 63.7104C281.517 59.3561 281.21 80.3561 287.704 87.9059C291.218 81.1012 292.766 57.3232 305.585 62.0911C303.744 57.4425 299.328 49.8742 292.714 49.8882L287.931 65.493C283.507 61.872 275.435 46.1644 266.859 54.1519Z" fill="#FDB80B"/>
<path d="M281.107 146.718C280.874 148.22 275.986 192.011 275.986 192.011C185.914 186.872 210.103 203.458 206.607 146.921L281.107 146.718Z" fill="#49ACD9"/>
<path d="M276.314 150.233C276.081 151.735 271.193 195.526 271.193 195.526C181.121 190.387 205.31 206.973 201.814 150.436L276.314 150.233Z" fill="#FDB80B"/>
<mask id="mask3_102_3" style="mask-type:alpha" maskUnits="userSpaceOnUse" x="201" y="150" width="76" height="46">
<path fill-rule="evenodd" clip-rule="evenodd" d="M276.314 150.233C276.081 151.735 271.193 195.526 271.193 195.526C181.121 190.387 205.31 206.973 201.814 150.436L276.314 150.233Z" fill="white"/>
</mask>
<g mask="url(#mask3_102_3)">
<path d="M219.028 150.39C214.74 177.603 224.571 180.528 228.387 180.785C228.387 180.785 222.642 190.108 230.885 200.136C239.129 210.164 251.74 200.486 251.74 200.486L235.633 161.478" fill="#FC9905"/>
</g>
<path d="M244.97 173.354C241.774 185.413 263.314 196.516 251.115 194.079C252.453 196.933 248.945 198.674 241.044 198.381C227.228 200.831 234.006 175.14 232.123 172.863L244.97 173.354Z" fill="#FDFFFE" stroke="#3F3C3F" stroke-width="0.914062" stroke-linecap="round" stroke-linejoin="round"/>
<path d="M246.129 163.727C249.291 178.496 244.096 176.163 232.198 175.296C232.167 175.388 230.726 164.008 230.593 163.258L246.129 163.727Z" fill="white"/>
<path d="M248.725 169.29C213.32 185.096 220.879 160.022 218.006 129.209C217.718 126.001 217.935 122.768 218.649 119.627C226.71 83.516 255.145 35.9849 263.163 69.0878C264.308 73.8166 267.818 72.9351 268.011 81.2237C268.266 92.1337 250.244 111.72 248.561 122.474C244.765 146.728 249.022 148.291 248.725 169.29Z" fill="#FFBED0"/>
<mask id="mask4_102_3" style="mask-type:alpha" maskUnits="userSpaceOnUse" x="217" y="57" width="52" height="118">
<path fill-rule="evenodd" clip-rule="evenodd" d="M248.725 169.29C213.32 185.096 220.879 160.022 218.006 129.209C217.718 126.001 217.935 122.768 218.649 119.627C226.71 83.516 255.145 35.9849 263.163 69.0878C264.308 73.8166 267.818 72.9351 268.011 81.2237C268.266 92.1337 250.244 111.72 248.561 122.474C244.765 146.728 249.022 148.291 248.725 169.29Z" fill="white"/>
</mask>
<g mask="url(#mask4_102_3)">
<path d="M252.162 114.576C232.629 128.608 238.622 132.81 247.93 126.845C257.239 120.879 252.162 114.576 252.162 114.576Z" fill="#FFA1C2"/>
</g>
<path d="M275.141 34.5047C269.159 18.6299 298.166 -11.7428 304.793 25.6227C305.847 32.2353 302.283 42.6786 291.411 42.658C289.951 42.6701 288.492 42.5846 287.043 42.4021" fill="#FDFFFE"/>
<path d="M275.141 34.5047C269.159 18.6299 298.166 -11.7428 304.793 25.6227C305.847 32.2353 302.283 42.6786 291.411 42.658C289.951 42.6701 288.492 42.5846 287.043 42.4021" stroke="#3F3C3F" stroke-width="0.914062" stroke-linecap="round" stroke-linejoin="round"/>
<path d="M298.742 3.0711C303.991 16.4042 270.222 17.038 275.052 39.7618C275.964 44.0508 255.65 40.1839 256.687 40.1822C259.896 32.9789 283.243 1.81505 298.742 3.0711Z" fill="#7BB1FC"/>
<path d="M304.748 14.3264C303.363 14.5081 299.576 12.6977 293.121 3.75985C296.726 0.961719 301.995 7.93541 303.978 9.0207" fill="#7BB1FC"/>
<path d="M258.22 330.968C258.22 330.968 263.463 334.531 272.461 332.257C268.196 347.662 289.776 358.339 288.834 364.386C285.486 367.998 267.492 362.783 264.754 361.622C263.941 360.503 263.348 351.272 259.364 349.069C256.171 375.591 251.556 335.243 258.22 330.968Z" fill="#7BB1FC"/>
<path d="M224.316 332.212C229.433 333.516 234.849 332.917 239.557 330.527C239.838 339.261 236.963 345.557 235.189 351.133C228.185 373.137 210.979 372.964 210.858 362.296C213.223 352.829 224.081 335.804 224.316 332.212Z" fill="#7BB1FC"/>
<path d="M280.636 28.7829C268.855 25.0143 266.475 35.2229 277.971 38.6824Z" fill="#FDFFFE"/>
<path d="M280.636 28.7829C268.855 25.0143 266.475 35.2229 277.971 38.6824" stroke="#3F3C3F" stroke-width="0.914062" stroke-linecap="round" stroke-linejoin="round"/>
<path d="M275.461 34.3699C274.759 34.4116 270.151 31.7983 275.73 30.0332C274.664 32.1262 276.188 34.3267 275.461 34.3699" fill="#3F3C3F"/>
<path d="M288.466 118.749C277.421 126.973 270.621 119.022 270.621 119.022Z" fill="#FFA1C2"/>
<path d="M298.1 205.333C293.351 217.594 282.537 215.244 282.537 215.244Z" fill="#2B8ACD"/>
<ellipse cx="300.597" cy="22.7223" rx="1.27652" ry="1.13344" transform="rotate(-31.3148 300.597 22.7223)" fill="#3F3C3F"/>
<ellipse cx="289.491" cy="24.3923" rx="1.27652" ry="1.13344" transform="rotate(-31.3148 289.491 24.3923)" fill="#3F3C3F"/>
<path d="M295.141 22.4673C295.828 25.4114 296.02 26.282 296.02 26.282C301.382 25.6153 296.42 30.5377 296.42 30.5377" fill="#FDFFFE"/>
<path d="M295.141 22.4673C295.828 25.4114 296.02 26.282 296.02 26.282C301.382 25.6153 296.42 30.5377 296.42 30.5377" stroke="#3F3C3F" stroke-width="0.914062" stroke-linecap="round" stroke-linejoin="round"/>
<path d="M293.157 31.5791C293.456 32.6141 294.492 33.2533 295.551 33.0568Z" fill="#FDFFFE"/>
<path d="M293.157 31.5791C293.456 32.6141 294.492 33.2533 295.551 33.0568" stroke="#3F3C3F" stroke-width="0.914062" stroke-linecap="round" stroke-linejoin="round"/>
<path d="M277.34 33.8588L274.531 32.209Z" fill="#FDFFFE"/>
<path d="M277.34 33.8588L274.531 32.209" stroke="#3F3C3F" stroke-width="0.914062" stroke-linecap="round" stroke-linejoin="round"/>
<path d="M304.674 121.01L309.03 98.2456" stroke="#3F3C3F" stroke-width="0.914062" stroke-linecap="round" stroke-linejoin="round"/>
<path d="M255.241 108.038L268.481 85.7368" stroke="#3F3C3F" stroke-width="0.914062" stroke-linecap="round" stroke-linejoin="round"/>
<path d="M273.679 224.053L272.373 201.164" stroke="#3F3C3F" stroke-width="0.914062" stroke-linecap="round" stroke-linejoin="round"/>
<path d="M300.346 150.617L298.359 151.802" stroke="#3F3C3F" stroke-width="0.914062" stroke-linecap="round" stroke-linejoin="round"/>
<path d="M126.395 85.4364L70.6754 82.8111C69.6042 82.77 68.532 82.8642 67.4844 83.0914L10.7421 95.3196C10.7421 95.3196 2.71695 103.596 1.11198 112.455C-0.47118 121.194 15.2564 103.372 15.2564 103.372L69.9772 96.4113L131.234 113.697L126.395 85.4364Z" fill="#FDFFFE"/>
<path fill-rule="evenodd" clip-rule="evenodd" d="M126.395 85.4364L70.6754 82.8111C69.6042 82.77 68.532 82.8642 67.4844 83.0914L10.7421 95.3196C10.7421 95.3196 2.71695 103.596 1.11198 112.455C-0.47118 121.194 15.2564 103.372 15.2564 103.372L69.9772 96.4113L131.234 113.697L126.395 85.4364Z" stroke="#3F3C3F" stroke-width="0.914062" stroke-linecap="round" stroke-linejoin="round"/>
<path d="M117.348 208.587C119.6 202.887 127.908 199.404 133.66 199.934C64.5941 141.512 45.4031 147.194 119.81 128.725C164.555 117.801 150.364 113.106 162.668 141.917C167.957 142.168 119.923 161.402 119.686 162.409C157.637 217.302 166.788 208.051 117.348 208.587Z" fill="#FDFFFE"/>
<path fill-rule="evenodd" clip-rule="evenodd" d="M117.348 208.587C119.6 202.887 127.908 199.404 133.66 199.934C64.5941 141.512 45.4031 147.194 119.81 128.725C164.555 117.801 150.364 113.106 162.668 141.917C167.957 142.168 119.923 161.402 119.686 162.409C157.637 217.302 166.788 208.051 117.348 208.587Z" stroke="#3F3C3F" stroke-width="0.914062" stroke-linecap="round" stroke-linejoin="round"/>
<path d="M101.845 128.584C95.2341 135.291 117.541 165.501 117.541 165.501L175.438 145.359L161.251 119.052L101.845 128.584Z" fill="#7BB1FC"/>
<mask id="mask5_102_3" style="mask-type:alpha" maskUnits="userSpaceOnUse" x="100" y="119" width="76" height="47">
<path fill-rule="evenodd" clip-rule="evenodd" d="M101.845 128.584C95.2341 135.291 117.541 165.501 117.541 165.501L175.438 145.359L161.251 119.052L101.845 128.584Z" fill="white"/>
</mask>
<g mask="url(#mask5_102_3)">
<path d="M141.157 143.243C126.53 133.247 94.6387 170.948 94.6387 170.948L119.654 174.9L138.355 149.567" fill="#5791FA"/>
</g>
<path d="M82.2715 82.1015L86.8641 103.955C86.8641 103.955 94.3503 106.327 113.829 107.949C133.167 109.56 139.739 107.609 139.739 107.609L126.263 84.6098C126.263 84.6098 101.372 79.6985 82.2715 82.1015Z" fill="#49ACD9"/>
<mask id="mask6_102_3" style="mask-type:alpha" maskUnits="userSpaceOnUse" x="82" y="81" width="58" height="28">
<path fill-rule="evenodd" clip-rule="evenodd" d="M82.2715 82.1015L86.8641 103.955C86.8641 103.955 94.3503 106.327 113.829 107.949C133.167 109.56 139.739 107.609 139.739 107.609L126.263 84.6098C126.263 84.6098 101.372 79.6985 82.2715 82.1015Z" fill="white"/>
</mask>
<g mask="url(#mask6_102_3)">
<path d="M90.6953 110.452C93.9234 104.666 97.9273 102.711 106.455 102.157C118.975 90.3484 124.081 116.157 127.923 99.4083L129.587 110.634L93.6426 112.894L91.9325 107.537" fill="#2B8ACD"/>
</g>
<path d="M15.5264 287.667C22.2039 274.578 51.5648 275.457 55.2973 269.064C58.0829 265.838 81.9948 205.574 86.2902 186.332C87.5975 185.142 142.986 134.411 146.835 130.889C145.96 129.547 180.459 135.471 181.409 132.549C185.646 140.412 185.454 149.919 180.905 157.605C172.26 174.774 126.756 187.274 107.824 197.9C51.9955 304.788 88.5579 277.68 15.5264 287.667Z" fill="#FDFFFE"/>
<path fill-rule="evenodd" clip-rule="evenodd" d="M15.5264 287.667C22.2039 274.578 51.5648 275.457 55.2973 269.064C58.0829 265.838 81.9948 205.574 86.2902 186.332C87.5975 185.142 142.986 134.411 146.835 130.889C145.96 129.547 180.459 135.471 181.409 132.549C185.646 140.412 185.454 149.919 180.905 157.605C172.26 174.774 126.756 187.274 107.824 197.9C51.9955 304.788 88.5579 277.68 15.5264 287.667Z" stroke="#3F3C3F" stroke-width="0.914062" stroke-linecap="round" stroke-linejoin="round"/>
<path d="M104.972 166.435C104.972 166.435 118.946 195.816 134.604 193.078C134.604 193.078 205.003 167.738 181.41 132.547L149.41 128.246L104.972 166.435Z" fill="#7BB1FC"/>
<mask id="mask7_102_3" style="mask-type:alpha" maskUnits="userSpaceOnUse" x="104" y="128" width="83" height="66">
<path fill-rule="evenodd" clip-rule="evenodd" d="M104.972 166.435C104.972 166.435 118.946 195.816 134.604 193.078C134.604 193.078 205.003 167.738 181.41 132.547L149.41 128.246L104.972 166.435Z" fill="white"/>
</mask>
<g mask="url(#mask7_102_3)">
<path d="M139.21 128.316C132.929 164.474 189.84 113.067 185.721 159.256C186.496 161.542 187.983 160.187 189.79 158.023C191.943 155.039 193.763 151.827 195.217 148.447C194.314 147.194 179.61 126.693 177.816 124.197C172.338 123.741 152.002 132.737 145.365 137.793" fill="#5791FA"/>
</g>
<path d="M126.803 120.508C122.861 117.964 126.6 88.3818 126.263 84.6094C126.791 84.0397 174.195 91.636 182.805 131.807C168.555 140.226 133.303 144.603 126.803 120.508Z" fill="#49ACD9"/>
<mask id="mask8_102_3" style="mask-type:alpha" maskUnits="userSpaceOnUse" x="124" y="84" width="59" height="55">
<path fill-rule="evenodd" clip-rule="evenodd" d="M126.803 120.508C122.861 117.964 126.6 88.3818 126.263 84.6094C126.791 84.0397 174.195 91.636 182.805 131.807C168.555 140.226 133.303 144.603 126.803 120.508Z" fill="white"/>
</mask>
<g mask="url(#mask8_102_3)">
<path d="M126.804 120.508C135.725 117.229 145.996 119.487 149.41 128.246Z" fill="url(#paint0_linear_102_3)"/>
<path d="M141.481 117.115C159.226 104.96 164.905 138.695 171.27 137.629C177.636 136.564 141.191 140.506 141.191 140.506" fill="#2B8ACD"/>
</g>
<path d="M175.389 223.088C175.389 223.088 177.959 225.347 179.264 224.956C180.569 224.565 172.712 213.396 172.712 213.396L169.297 161.012L143.641 114.785L126.53 133.247L154.319 167.01L166.807 216.382C166.807 216.382 168.033 235.367 171.719 236.422C175.401 237.476 175.389 223.088 175.389 223.088Z" fill="#FDFFFE"/>
<mask id="mask9_102_3" style="mask-type:alpha" maskUnits="userSpaceOnUse" x="126" y="114" width="54" height="123">
<path fill-rule="evenodd" clip-rule="evenodd" d="M175.389 223.088C175.389 223.088 177.959 225.347 179.264 224.956C180.569 224.565 172.712 213.396 172.712 213.396L169.297 161.012L143.641 114.785L126.53 133.247L154.319 167.01L166.807 216.382C166.807 216.382 168.033 235.367 171.719 236.422C175.401 237.476 175.389 223.088 175.389 223.088Z" fill="white"/>
</mask>
<g mask="url(#mask9_102_3)">
<path d="M148.243 163.774C148.243 163.774 143.414 156.842 154.319 167.01C165.223 177.178 156.639 175.865 151.807 171.752" fill="#3F3C3F"/>
</g>
<path fill-rule="evenodd" clip-rule="evenodd" d="M175.389 223.088C175.389 223.088 177.959 225.347 179.264 224.956C180.569 224.565 172.712 213.396 172.712 213.396L169.297 161.012L143.641 114.785L126.53 133.247L154.319 167.01L166.807 216.382C166.807 216.382 168.033 235.367 171.719 236.422C175.401 237.476 175.389 223.088 175.389 223.088Z" stroke="#3F3C3F" stroke-width="0.914062" stroke-linecap="round" stroke-linejoin="round"/>
<path d="M138.355 149.567C147.432 148.568 161.742 138.615 161.742 138.615C161.742 138.615 149.039 100.811 127.121 114.145C108.164 125.678 138.355 149.567 138.355 149.567Z" fill="#49ACD9"/>
<path d="M112.556 104.289C130.771 115.61 121.844 117.642 136.087 101.374L118.179 91L112.556 104.289Z" fill="#FDFFFE"/>
<path fill-rule="evenodd" clip-rule="evenodd" d="M112.556 104.289C130.771 115.61 121.844 117.642 136.087 101.374L118.179 91L112.556 104.289Z" stroke="#3F3C3F" stroke-width="0.914062" stroke-linecap="round" stroke-linejoin="round"/>
<path d="M119.416 95.0127C118.479 92.1441 117.632 89.497 117.338 88.2582C119.87 86.5674 96.5035 89.4971 95.6533 89.016C98.0177 97.8153 102.327 133.792 122.605 105.712" fill="#FDFFFE"/>
<path d="M119.416 95.0127C118.479 92.1441 117.632 89.497 117.338 88.2582C119.87 86.5674 96.5035 89.4971 95.6533 89.016C98.0177 97.8153 102.327 133.792 122.605 105.712" stroke="#3F3C3F" stroke-width="0.914062" stroke-linecap="round" stroke-linejoin="round"/>
<path d="M91.894 84.0915C82.348 82.7767 85.7271 87.7038 83.1236 89.7099C61.3568 94.6033 85.4794 104.631 96.2607 100.326C101.403 98.9343 100.564 99.0851 107.345 95.1789C121.512 85.7523 115.794 101.203 123.353 91.9273C127.536 70.4237 94.8279 86.5446 91.894 84.0915Z" fill="#FDB80B"/>
<path d="M114.174 93.0162C114.326 92.2252 114.563 91.4528 114.881 90.7128C117.381 85.8317 123.519 87.1894 122.303 93.7615C121.951 95.2434 121.077 96.549 119.841 97.4388" fill="#FDFFFE"/>
<path d="M114.174 93.0162C114.326 92.2252 114.563 91.4528 114.881 90.7128C117.381 85.8317 123.519 87.1894 122.303 93.7615C121.951 95.2434 121.077 96.549 119.841 97.4388" stroke="#3F3C3F" stroke-width="0.914062" stroke-linecap="round" stroke-linejoin="round"/>
<path d="M118.433 90.6486C119.607 91.8601 119.222 94.2213 119.678 93.9561C120.119 93.7004 122.291 89.745 118.433 90.6486Z" fill="#3F3C3F"/>
<path d="M141.022 176.519C137.173 178.635 132.348 177.508 129.833 173.907Z" fill="#5791FA"/>
<circle cx="101.59" cy="105.554" r="0.969028" fill="#3F3C3F"/>
<circle cx="109.308" cy="101.549" r="0.969028" fill="#3F3C3F"/>
<path d="M104.93 102.818C105.736 105.245 105.982 105.958 105.982 105.958C102.315 107.991 107.523 109.189 107.523 109.189" fill="#FDFFFE"/>
<path d="M104.93 102.818C105.736 105.245 105.982 105.958 105.982 105.958C102.315 107.991 107.523 109.189 107.523 109.189" stroke="#3F3C3F" stroke-width="0.914062" stroke-linecap="round" stroke-linejoin="round"/>
<path d="M110.023 108.406C110.283 109.251 109.911 110.163 109.133 110.584Z" fill="#FDFFFE"/>
<path d="M110.023 108.406C110.283 109.251 109.911 110.163 109.133 110.584" stroke="#3F3C3F" stroke-width="0.914062" stroke-linecap="round" stroke-linejoin="round"/>
<path d="M117.778 93.8595L118.857 91.3647Z" fill="#FDFFFE"/>
<path d="M117.778 93.8595L118.857 91.3647" stroke="#3F3C3F" stroke-width="0.914062" stroke-linecap="round" stroke-linejoin="round"/>
<path d="M160.018 134.855C160.018 134.855 153.12 118.947 147.078 115.516" stroke="#3F3C3F" stroke-width="0.914062" stroke-linecap="round" stroke-linejoin="round"/>
<path d="M111.006 160.752L127.831 146.791" stroke="#3F3C3F" stroke-width="0.914062" stroke-linecap="round" stroke-linejoin="round"/>
<path d="M100.497 88.3652L94.6729 91.6471" stroke="#3F3C3F" stroke-width="0.914062" stroke-linecap="round" stroke-linejoin="round"/>
<path d="M130.886 159.757L134.799 164.288" stroke="#3F3C3F" stroke-width="0.914062" stroke-linecap="round" stroke-linejoin="round"/>
<path d="M108.815 259.881C160.249 242.892 178.62 247.499 173.987 270.535C169.354 293.571 246.213 252.682 245.636 277.734C245.059 302.786 282.531 303.362 300.435 296.451C318.338 289.54 325.83 293.571 325.83 293.571" stroke="#3F3C3F" stroke-width="0.914062" stroke-linecap="round" stroke-linejoin="round"/>
<path d="M53.838 146.927L49.0898 139.054L43.954 142.287L44.3111 136.414H34.8133L35.1704 142.287L30.0346 139.054L25.2852 146.927L30.7781 149.568L25.2852 152.209L30.0346 160.081L35.1704 156.849L34.8133 162.722H44.3111L43.954 156.849L49.0898 160.081L53.838 152.209L48.3451 149.568L53.838 146.927V146.927Z" fill="#3F3C3F"/>
<path fill-rule="evenodd" clip-rule="evenodd" d="M143 43.566L140.12 40.8091V35.3978C140.029 31.3416 136.669 28.1257 132.613 28.2126H126.96L122.962 24.3857C119.98 21.5798 115.328 21.5798 112.346 24.3857L108.348 28.2126H104.275C100.218 28.1254 96.8583 31.3413 96.7675 35.3978V39.2966L93.8873 42.0535C92.4843 43.3709 91.6885 45.2097 91.6885 47.1343C91.6885 49.0588 92.4843 50.8976 93.8873 52.215L96.7675 54.9719V60.3832C96.8583 64.4397 100.218 67.6556 104.275 67.5684H109.928L113.926 71.3953C116.909 74.2012 121.56 74.2012 124.542 71.3953L128.54 67.5684H132.613C136.67 67.6553 140.029 64.4394 140.12 60.3832V56.4844L143 53.7275C144.403 52.4101 145.199 50.5712 145.199 48.6467C145.199 46.7222 144.403 44.8833 143 43.566V43.566Z" stroke="#3F3C3F" stroke-width="0.914062" stroke-linecap="round" stroke-linejoin="round"/>
<path d="M366.165 236.558C292.592 287.685 309.08 241.104 312.856 258.164C315.492 270.072 281.181 280.154 285.701 276.836" stroke="#3F3C3F" stroke-width="0.914062" stroke-linecap="round" stroke-linejoin="round"/>
<defs>
<linearGradient id="paint0_linear_102_3" x1="133.541" y1="131.754" x2="133.68" y2="130.695" gradientUnits="userSpaceOnUse">
<stop stop-color="#FFFDAA"/>
<stop offset="1" stop-color="#FE8514"/>
</linearGradient>
</defs>
</svg>
