<svg width="381" height="318" viewBox="0 0 381 318" fill="none" xmlns="http://www.w3.org/2000/svg">
<path d="M255 182.66H254.88H255ZM88.0007 241C88.7607 241.12 92.9207 241.32 92.9207 240.6C92.9207 240.18 92.1607 240.2 92.1607 240.2C92.2607 237 96.3207 236.2 99.2207 237.88C100.02 238.34 100.759 238.897 101.421 239.54C97.3207 239.76 91.8807 242.56 92.2407 246.62C92.4473 247.678 92.8913 248.677 93.5389 249.54C94.1869 250.401 95.0214 251.107 95.9807 251.6C97.1796 252.497 98.5451 253.147 99.9974 253.51C101.45 253.875 102.96 253.945 104.441 253.72C107.077 253.048 109.397 251.478 111.001 249.28C114.626 249.395 118.172 248.21 121.001 245.94C121.12 245.845 121.219 245.727 121.291 245.593C121.363 245.458 121.407 245.312 121.421 245.16C121.421 244.46 121.421 244.5 117.421 240.06C117.307 239.933 117.165 239.837 117.007 239.777C116.848 239.717 116.677 239.695 116.509 239.715C116.34 239.733 116.179 239.793 116.038 239.888C115.898 239.983 115.782 240.112 115.701 240.26C115.632 240.347 115.571 240.441 115.521 240.54C115.203 241.137 114.689 241.605 114.067 241.868C113.444 242.13 112.749 242.17 112.101 241.98C110.101 241.4 107.521 236.1 102.821 232.94C98.7207 230.18 93.2207 229.36 89.3407 232.64C87.6705 234.073 86.4833 235.987 85.9407 238.12C85.7247 238.778 85.7676 239.493 86.0607 240.12C86.5862 240.628 87.2716 240.94 88.0007 241ZM95.5207 248.42C94.9724 248.028 94.5916 247.445 94.4545 246.785C94.3175 246.125 94.4338 245.438 94.7807 244.86C95.6676 243.633 96.9 242.701 98.3207 242.18C97.1745 244.123 96.236 246.18 95.5207 248.32V248.42ZM114.361 245.26C114.841 243.82 114.361 244.32 115.161 243.96C115.767 243.658 116.315 243.252 116.781 242.76L118.601 244.92C117.093 245.875 115.427 246.553 113.681 246.92C113.881 246.4 114.201 245.6 114.361 245.16V245.26ZM107.121 240.16C109.021 242.54 110.601 244.66 113.501 244.42C113.087 245.281 112.752 246.178 112.501 247.1C111.041 247.2 110.841 246.86 110.261 247.1C109.121 247.54 107.241 251.64 102.681 251.62C102.964 250.985 103.147 250.31 103.221 249.62C104.511 249.36 105.719 248.79 106.741 247.96C107.179 247.58 107.463 247.055 107.541 246.48C107.541 245.78 107.301 244.88 105.821 243.7C106.372 242.532 106.807 241.313 107.121 240.06V240.16ZM100.401 247.72C98.6407 246.78 101.641 245.12 103.581 245.18C104.026 245.183 104.462 245.313 104.837 245.553C105.212 245.793 105.512 246.137 105.701 246.54C105.433 246.97 105.081 247.341 104.665 247.63C104.25 247.92 103.78 248.121 103.283 248.221C102.787 248.323 102.276 248.321 101.78 248.218C101.284 248.115 100.815 247.912 100.401 247.62V247.72ZM102.761 235.48C104.119 236.635 105.352 237.928 106.441 239.34C105.808 240.493 105.324 241.723 105.001 243C104.16 242.758 103.279 242.693 102.412 242.807C101.545 242.92 100.711 243.21 99.9607 243.66C96.3007 245.66 97.1607 250.04 102.241 249.54C101.942 250.115 101.72 250.727 101.581 251.36C99.5524 250.955 97.656 250.055 96.0607 248.74C97.4782 246.537 98.5822 244.147 99.3407 241.64C100.118 241.283 100.959 241.085 101.815 241.057C102.67 241.03 103.522 241.173 104.321 241.48L104.741 239.9L104.301 239.7C103.361 239.06 102.941 238.56 101.861 237.7C102.261 236.97 102.564 236.19 102.761 235.38V235.48ZM95.0007 232.28C97.5036 232.325 99.9269 233.167 101.921 234.68C101.563 235.495 101.294 236.347 101.121 237.22C100.162 236.468 99.0309 235.965 97.8298 235.76C96.6287 235.553 95.3953 235.65 94.2407 236.04C94.6625 234.827 94.9182 233.561 95.0007 232.28ZM90.4207 233.84C91.5294 232.977 92.8618 232.45 94.2607 232.32C93.64 233.665 93.2545 235.105 93.1207 236.58C92.5247 236.937 92.0371 237.45 91.7094 238.063C91.3818 238.675 91.2265 239.365 91.2607 240.06C89.8593 240.137 88.4571 239.927 87.1407 239.44C87.4382 237.218 88.6029 235.205 90.3807 233.84H90.4207ZM60.5407 230.5C56.9407 228.94 48.9407 233.56 47.4807 236.04C47.2694 236.587 47.2694 237.193 47.4807 237.74C48.7407 242.52 60.5007 259.4 62.6807 262.02C63.0607 262.5 63.5807 261.84 63.2407 261.28C62.2007 259.56 62.3207 263.02 67.6407 245.8C68.1334 245.607 68.5924 245.337 69.0007 245C69.1862 244.793 69.2887 244.527 69.2887 244.25C69.2887 243.973 69.1862 243.705 69.0007 243.5C68.8189 243.275 68.6109 243.073 68.3807 242.9L69.6407 238.24L74.6407 241C73.6294 243.527 72.892 246.155 72.4407 248.84C70.424 249.567 68.5342 250.607 66.8407 251.92C65.6607 253.22 67.5207 255.62 68.6807 257.06C69.8407 258.5 70.8207 259.48 71.0407 259.7C71.2607 259.92 71.9607 259.7 71.9007 259.34C71.7738 259.05 71.6051 258.781 71.4007 258.54C70.3167 256.853 69.3865 255.073 68.6207 253.22C70.1749 252.29 71.816 251.513 73.5207 250.9C74.1407 250.68 76.0607 250.08 76.5807 250.4C79.1465 251.752 81.8229 252.881 84.5807 253.78C84.692 253.833 84.82 253.84 84.936 253.798C85.0524 253.757 85.1476 253.672 85.2007 253.56C85.2538 253.448 85.2604 253.32 85.2189 253.205C85.1778 253.088 85.092 252.993 84.9807 252.94L81.5207 250.84C82.2571 249.17 82.7294 247.395 82.9207 245.58L91.4607 250.2C91.9807 250.5 92.3807 249.68 92.0007 249.46C91.6207 249.24 65.7007 232.76 60.5407 230.5ZM57.5007 232.62C58.1985 232.41 58.9425 232.41 59.6407 232.62C60.1007 232.82 61.2207 233.42 62.7407 234.26C62.228 235.675 61.8789 237.145 61.7007 238.64C60.3607 237.88 59.5607 237.3 58.5007 237.48C57.9229 237.61 57.3822 237.87 56.9207 238.24C57.1207 236.68 57.3007 235.48 57.5007 232.62ZM49.5007 237.02C51.5749 235.041 54.0913 233.588 56.8407 232.78C55.7731 237.498 55.0247 242.281 54.6007 247.1C52.584 243.907 50.8825 240.523 49.5207 237L49.5007 237.02ZM58.5807 253.84C57.4807 252.02 56.2807 250 55.1407 248.02C55.8207 245.16 56.0407 243.84 56.4607 241.14C57.5549 243.038 58.82 244.832 60.2407 246.5C59.4342 248.881 58.8844 251.341 58.6007 253.84H58.5807ZM62.0807 259.6C61.3607 258.46 60.4407 256.92 59.2407 254.94C60 252.43 60.5025 249.85 60.7407 247.24C61.1807 248.3 65.1007 246.78 66.1607 246.38C65.3807 248.84 62.6607 257.4 62.1007 259.6H62.0807ZM61.4807 246.62C60.2411 244.475 59.1454 242.25 58.2007 239.96L58.8207 239.62C59.1007 239.78 65.9407 243.82 66.4407 244.14C64.8818 245.132 63.2269 245.961 61.5007 246.62H61.4807ZM67.4807 242.22C65.9807 241.22 63.9407 240 62.3807 239.1C62.9142 237.683 63.264 236.205 63.4207 234.7L69.1007 237.9C69.0007 238.66 68.3207 240.22 67.6007 242.22H67.4807ZM80.7207 250.22L77.6407 248.36C76.272 247.82 74.7491 247.82 73.3807 248.36C74.156 246.021 74.7182 243.618 75.0607 241.18L82.3007 245.18C81.5611 246.812 81.0687 248.543 80.8407 250.32L80.7207 250.22Z" fill="black"/>
<path d="M379.702 257.34C376.462 227.18 348.54 180.8 331.86 155.46C341.173 156.205 350.522 156.439 359.858 156.16C362.52 156.16 369.48 155.68 370.822 155.42C371.6 155.26 371.72 154.52 370.542 154.48C369.36 154.44 360.96 154.04 359.822 154.02H339.48C336.36 154.14 331.48 154.42 331.2 154.42C325.2 145.28 321.02 139.56 320.98 139.54C320.935 139.493 320.878 139.457 320.818 139.433C320.757 139.41 320.692 139.4 320.625 139.403C320.56 139.408 320.497 139.425 320.438 139.457C320.38 139.487 320.33 139.528 320.29 139.58C320.25 139.632 320.222 139.692 320.205 139.755C320.19 139.82 320.188 139.885 320.202 139.95C320.213 140.013 320.24 140.075 320.277 140.128C320.315 140.182 320.363 140.227 320.42 140.26C321.34 141 361.76 200.06 374.12 240.74C379.022 256.88 381.92 277.14 366.12 282.74C328.6 296.14 34.74 300.5 6.96019 284.74C3.10019 282.56 2.20019 278.02 2.96019 271.9C4.14019 263.4 8.72011 251.9 14.2402 239.02C20.4601 245.02 72.06 292.4 80.42 290.62C88.78 288.84 135.8 267 137.74 262.82C138.867 259.917 139.463 256.833 139.5 253.72C139.737 253.393 139.847 252.993 139.811 252.592C139.774 252.192 139.592 251.817 139.3 251.54C136.2 248.46 74.7 199.7 70.74 199.84C67.98 199.96 62.98 202.8 60.6 204.2C59.8283 202.937 58.6796 201.95 57.316 201.375C55.952 200.8 54.4425 200.67 53 201C51.6403 201.548 50.4225 202.4 49.4389 203.487C48.4549 204.575 47.7305 205.872 47.32 207.28C47.3425 207.388 47.4018 207.485 47.4872 207.555C47.5727 207.625 47.68 207.662 47.7901 207.662C47.9007 207.662 48.0076 207.625 48.0931 207.555C48.1789 207.485 48.2378 207.388 48.26 207.28C49.4632 205.245 51.3702 203.723 53.62 203C54.556 202.857 55.5127 202.982 56.3803 203.36C57.2476 203.738 57.9898 204.357 58.52 205.14L36.28 214.64C35.0992 213.427 33.6251 212.537 32 212.06C28.2 211.06 25.6401 213.56 24.1201 217.22C24.0868 217.325 24.0906 217.438 24.1311 217.542C24.1716 217.645 24.2465 217.73 24.3428 217.783C24.4391 217.839 24.5511 217.857 24.66 217.839C24.7688 217.82 24.8678 217.763 24.9402 217.68C27.5 213.98 30.46 212.72 34 215.68C29.72 217.58 23.7401 220.28 19.5401 222.36C19.8401 221.88 63 143.72 63 143.52C64.9 140 68.72 133.7 72.66 132.88C74.4411 132.492 76.2578 132.29 78.08 132.28C75.3 136.88 52.74 174.28 52.7 179.56C52.7 185.56 53.74 184.62 56.94 185.56C60.14 186.5 239.2 185.4 239.52 185.4C242.62 185.4 254.74 185 255.86 184.18C259.34 181.62 258.56 177.8 257.04 173.78C256.68 172.82 254.86 168.84 252.42 163.52C262.92 160.36 270.82 164.38 271.54 181.52C272.26 196.34 266.42 200.86 255.24 200.22C246.26 199.7 240.06 197.06 238.1 200.56C235.9 204.46 241.98 213.22 244.62 216.86C244.24 216.86 227.5 216.52 223.28 216.34C217.333 216.11 211.38 216.183 205.44 216.56C201.35 216.65 197.283 217.207 193.32 218.22C191.82 218.96 189.88 222.82 189.06 224.44C187.44 227.62 180.06 247.58 178.02 253.34C176.82 256.66 172.76 267.66 175.48 269.6C175.38 271.74 175.72 274.6 177.6 275.6C179.48 276.6 205.32 277.32 207.3 277.36C210.8 277.46 246.18 277.92 268.76 276.92C291.34 275.92 301.2 273.76 300.62 273.82C301.193 273.652 301.708 273.327 302.108 272.88C302.507 272.435 302.775 271.888 302.88 271.3C303.188 269.822 303.092 268.288 302.6 266.86C305.12 261.96 286.06 221.28 280.78 218.42C280.468 218.245 280.118 218.148 279.76 218.14C278.7 218.14 254.98 217.14 245.76 216.84C243.76 214.02 237.26 203.4 239.76 201.14C243.56 197.82 275.3 214.46 273.6 181.34C272.72 166.36 265.82 157.58 251.82 162.66C250.6 160.02 240.36 138.14 237.62 132.32C248.235 132.955 258.883 132.722 269.46 131.62C269.612 133.487 270.148 135.302 271.037 136.95C271.925 138.598 273.145 140.047 274.62 141.2C282.62 147.2 314.46 146.3 320.24 138.96C321.86 136.745 322.98 134.205 323.522 131.515C324.063 128.825 324.015 126.05 323.38 123.38C323.912 123.041 324.325 122.545 324.56 121.96C324.88 121.34 324.56 120.56 323.18 120.28C321.4 120.013 319.6 119.906 317.8 119.96C317.8 118.32 317.9 115.26 317.8 111.78C317.98 111.66 319.28 110.1 319.42 109.92C321.013 108.057 322.273 105.933 323.14 103.64C323.8 101.78 324.06 99.64 322.32 98.6C319.64 97.14 317.76 99.8199 316.86 102.82C316.02 98.2 314.08 91.42 309.44 92.1C301.56 93.3 307 112.4 309.56 119.96C307.312 119.643 305.028 119.643 302.78 119.96C305.28 113.68 306.56 105.56 300.14 104.34C299.167 104.125 298.152 104.2 297.22 104.555C296.29 104.91 295.483 105.531 294.9 106.34C294.772 105.887 294.53 105.475 294.198 105.141C293.868 104.807 293.457 104.562 293.005 104.431C292.553 104.299 292.075 104.283 291.617 104.386C291.158 104.489 290.732 104.708 290.38 105.02C287.44 107.14 289.12 112 292.54 113.6C292.36 115.656 292.36 117.724 292.54 119.78C290.412 119.523 288.257 119.57 286.14 119.92C286.022 115.037 285.487 110.172 284.54 105.38C285.755 104.515 286.778 103.407 287.542 102.126C288.307 100.846 288.797 99.42 288.98 97.9399C289.26 95.28 288.32 93.06 286.1 92.48C283.32 91.76 281.68 93.7 281.2 96.4799C278.74 93.0799 273.92 91.86 271.58 95.76C264.08 87.96 260.46 92.32 262.36 95.76C263.78 98.4 267.48 99.88 270.36 100.7C270.36 105.18 272.36 108.96 274.84 112.82C276.5 115.42 278.36 117.92 279.8 119.76C276.688 119.66 273.573 119.861 270.5 120.36C268.62 120.86 268.32 122.22 270.06 123.2C269.51 125.544 269.308 127.957 269.46 130.36C258.717 129.788 247.945 130.042 237.24 131.12C236.56 129.66 234.54 125.4 234.3 124.9C234.06 124.4 235.98 118.6 238.68 64.68C251.08 63.64 306.84 64.88 311.96 62.9C312.253 62.7945 312.513 62.613 312.715 62.3741C312.915 62.1352 313.048 61.8472 313.1 61.54C314.8 55.9599 315.96 7.99995 313.1 3.53995C312.4 2.43995 309.9 2.09995 308.52 1.89995C290.7 -0.700053 216.34 0.419949 212.52 2.43995C208.7 4.45995 210.32 24.18 211.04 28.1C172.42 26.86 83.24 29.28 74.84 32.42C72.84 33.14 72.1 35.88 71.7 37.9399C68.38 55.08 77.7 110.24 80.82 127.28C80.62 127.28 80.82 127.28 78.38 131.08C76.3149 130.927 74.2385 131.035 72.2 131.4C67.64 132.1 63.44 138.4 61.12 142.32C61.02 142.52 55.12 152.32 54.24 153.92C49.22 153.14 25.8801 153.44 22.9201 153.6C19.9601 153.76 16.9202 153.98 14.2402 154.18C13.7602 154.18 13.7202 155.1 14.2402 155.12C19.8402 155.46 21.9001 155.58 26.2401 155.64C36.86 155.8 52.52 156.24 53.02 156.18C51.98 158 36.58 185.4 34.52 189.28C25.5602 206.08 18.5201 221.46 18.1001 222.76C15.7753 223.817 13.5916 225.162 11.6001 226.76C10.9578 228.522 10.5738 230.368 10.4602 232.24C10.3602 235.46 11.5201 236.24 13.3001 238.04C8.52397 248.273 4.59742 258.883 1.56019 269.76C0.56866 274.16 0.527715 278.722 1.44019 283.14C2.25681 287.557 3.78324 291.812 5.96019 295.74C6.93808 296.733 8.20532 297.392 9.58012 297.62C14.8401 299.1 31.14 301 36.6 301.62C36.1887 304.063 36.0745 306.548 36.26 309.02C36.2658 311.567 36.636 314.099 37.36 316.54C37.3669 316.6 37.3851 316.659 37.4142 316.712C37.4436 316.765 37.4829 316.812 37.5302 316.85C37.5778 316.888 37.632 316.917 37.6902 316.933C37.7487 316.952 37.8098 316.957 37.8702 316.95C37.9305 316.943 37.9891 316.925 38.0425 316.895C38.096 316.867 38.1429 316.827 38.1807 316.78C38.2189 316.732 38.2472 316.678 38.2643 316.62C38.2814 316.562 38.2869 316.5 38.28 316.44C38.6 313.947 38.6872 311.43 38.54 308.92C38.5269 306.503 38.252 304.097 37.72 301.74C40.48 301.98 43.14 302.18 45.46 302.26C45.0912 304.593 44.9905 306.963 45.16 309.32C45.1669 311.867 45.5374 314.398 46.26 316.84C46.26 316.962 46.3087 317.078 46.3949 317.165C46.4811 317.252 46.5982 317.3 46.72 317.3C46.8422 317.3 46.9592 317.252 47.0454 317.165C47.132 317.078 47.18 316.962 47.18 316.84C47.5109 314.348 47.6047 311.83 47.46 309.32C47.4465 306.985 47.1782 304.657 46.66 302.38C51.12 302.48 116.76 308.38 230.12 306.14C260.5 305.54 297.02 304.14 327.1 300.84C326.703 303.252 326.588 305.702 326.76 308.14C326.77 310.68 327.147 313.207 327.88 315.64C327.867 315.707 327.867 315.777 327.883 315.843C327.898 315.91 327.93 315.972 327.973 316.025C328.017 316.078 328.07 316.122 328.132 316.15C328.193 316.18 328.262 316.195 328.33 316.195C328.398 316.195 328.466 316.18 328.528 316.15C328.59 316.122 328.645 316.078 328.688 316.025C328.73 315.972 328.762 315.91 328.777 315.843C328.793 315.777 328.795 315.707 328.78 315.64C329.13 313.15 329.223 310.63 329.06 308.12C329.038 305.65 328.75 303.188 328.2 300.78C330.42 300.54 335.56 299.9 336 299.84C335.607 302.239 335.498 304.675 335.68 307.1C335.682 309.647 336.052 312.18 336.78 314.62C336.793 314.742 336.855 314.853 336.95 314.93C337.047 315.007 337.168 315.043 337.29 315.03C337.412 315.017 337.523 314.955 337.6 314.86C337.678 314.763 337.713 314.642 337.7 314.52C338.03 312.033 338.117 309.522 337.96 307.02C337.947 304.555 337.658 302.1 337.1 299.7C346.12 298.48 373.698 294.76 377.458 287.06C381.898 278.28 381.542 266.86 379.702 257.34ZM197.7 225.14C197.92 224.6 204.62 223.14 211.94 225.14C212.007 225.125 212.077 225.127 212.143 225.143C212.21 225.159 212.272 225.19 212.325 225.232C212.378 225.275 212.422 225.33 212.45 225.392C212.48 225.453 212.495 225.522 212.495 225.59C212.495 225.659 212.48 225.727 212.45 225.788C212.422 225.85 212.378 225.905 212.325 225.947C212.272 225.99 212.21 226.022 212.143 226.037C212.077 226.053 212.007 226.053 211.94 226.04C208.295 226.687 204.573 226.782 200.9 226.32C199.18 226.04 197 226.02 197.64 225.14H197.7ZM300.52 272.7C282.02 276.22 179.82 275.42 178.28 274.7C176.74 273.98 176.6 271.66 176.56 270.14C187.64 273.74 295.9 270.96 301.92 267.78C302.24 269.54 302.32 272.36 300.46 272.7H300.52ZM261.7 225.36C261.7 224.68 266.1 224.3 266.3 224.28C268.917 224.079 271.543 224.079 274.16 224.28C275.62 224.44 277.64 224.64 277.48 225.26C277.32 225.88 274.3 226.14 273.78 226.22C271.825 226.4 269.863 226.48 267.9 226.46C266.58 226.42 261.56 226.18 261.64 225.36H261.7ZM287.4 232.02C292.403 241.553 296.605 251.488 299.96 261.72C300.387 263.012 300.623 264.36 300.66 265.72C291.64 268.52 187.68 271.4 177.16 268.38C176.66 268.24 176.52 268.38 176.4 267.54C175.64 262.1 184.54 240.48 186.6 235.44C224.44 234.18 287 232.24 287.34 232.02H287.4ZM270.56 99.8C268.373 98.5985 266.388 97.0596 264.68 95.24C263.9 94.06 264.08 93.24 266.38 94.3599C267.82 95.02 269.84 96.2 271.2 97.02C270.85 97.9098 270.635 98.8469 270.56 99.8ZM318.56 103.38C320.16 100.5 321.74 99.6799 321.58 101.38C320.72 104.422 319.498 107.35 317.94 110.1C317.82 108.1 317.68 106.76 317.52 105.44C317.6 105.16 318 104.32 318.5 103.38H318.56ZM310.06 120.78C310.46 121.92 310.72 122.6 310.74 122.64C310.762 122.697 310.795 122.748 310.838 122.792C310.88 122.836 310.93 122.871 310.987 122.895C311.042 122.919 311.102 122.932 311.163 122.933C311.223 122.934 311.283 122.922 311.34 122.9C312.22 122.56 310.92 121.74 308.84 109.68C308.22 106.08 306.38 94.9799 310.02 94.46C312.98 94.02 314.58 101.36 315.14 104.26C316.178 109.85 316.846 115.502 317.14 121.18C317.138 121.291 317.177 121.398 317.248 121.483C317.32 121.567 317.42 121.623 317.53 121.64C317.638 121.657 317.752 121.635 317.845 121.576C317.938 121.517 318.008 121.426 318.04 121.32C318.047 121.207 318.047 121.093 318.04 120.98C319.848 121.033 321.645 121.281 323.4 121.72C323.177 121.981 322.897 122.186 322.58 122.32C318.38 124.48 305.68 124.06 301.3 123.98C301.9 122.78 302.32 121.86 302.78 120.76C305.17 121.153 307.608 121.16 310 120.78H310.06ZM294.46 116.4C294.92 112.4 295.94 106.02 299.98 106.78C304.02 107.54 303 113.4 302.12 117.32C301.578 119.569 300.91 121.785 300.12 123.96H294.12C294.072 121.437 294.165 118.913 294.4 116.4H294.46ZM291.92 107C292.013 106.911 292.123 106.843 292.245 106.8C292.365 106.757 292.495 106.739 292.622 106.748C292.75 106.758 292.875 106.794 292.988 106.854C293.102 106.915 293.202 106.999 293.28 107.1C293.598 107.419 293.887 107.767 294.14 108.14C293.572 109.415 293.175 110.76 292.96 112.14C291.92 110.7 290.58 108.08 291.92 107ZM285.62 94.84C288.22 95.66 286.18 102.5 284.44 104.58C283.96 102.427 283.242 100.335 282.3 98.34C282.88 96.58 283.86 94.2799 285.62 94.8199V94.84ZM280.7 121C281.68 122.24 282.32 123 282.32 123C282.4 123.078 282.505 123.125 282.617 123.132C282.728 123.138 282.838 123.104 282.925 123.036C283.013 122.967 283.073 122.869 283.095 122.759C283.117 122.65 283.097 122.536 283.04 122.44C283.04 122.44 279.5 117.4 276.58 112.18C274.38 108.18 272.28 104.18 272.86 99.7599C273.32 96.28 275.16 94.8 278.26 96.82C282.74 99.7 284.78 117.46 285.42 122.82C285.427 122.96 285.477 123.095 285.562 123.206C285.648 123.317 285.767 123.399 285.9 123.44C286.44 123.44 286.36 122.86 286.34 122.58C286.32 122.3 286.34 120.9 286.34 120.76C288.465 121.029 290.615 121.029 292.74 120.76C292.86 122.22 293 123.36 293.1 123.96C286 123.96 277.42 124.44 271.54 122.14C274.562 121.542 277.623 121.161 280.7 121ZM271.12 123.94C274.045 125.074 277.128 125.748 280.26 125.94C283.8 126.26 307.9 126.3 310.64 126.16C314.772 126.092 318.863 125.328 322.74 123.9C323.112 126.355 322.972 128.862 322.328 131.262C321.685 133.66 320.552 135.9 319 137.84C314.14 143.54 283.4 144.84 276.02 139.64C271.16 136.3 270.28 129.62 271.12 123.92V123.94ZM255 182.66C255.42 184 64.72 184.06 64.52 184.04C56.52 184.04 58.52 184.04 55.84 183.38C55.12 183.22 54.98 183.22 54.84 182.52C54.6705 181.422 54.6236 180.308 54.7 179.2C54.7421 179.282 54.8098 179.348 54.8931 179.388C54.976 179.427 55.0698 179.439 55.16 179.42C55.16 179.42 254.94 176.7 256.24 176.66C256.78 179 256.86 181.18 255 182.66ZM311.26 61.28C311.26 61.28 311.38 61.0799 311.42 61.1399C311.46 61.1999 311.26 61.26 311.16 61.28H311.26ZM211.8 10.8399C211.8 9.53995 212.32 4.61995 213.48 4.01995C216.12 2.69995 300.02 1.57995 311.48 5.15995C313.48 9.35995 312.84 56.54 311.16 61.28C301.32 62.82 251.8 62.7 238.92 64.02C239.7 48.28 240.04 35.0199 239.4 32.4399C239.277 32.1036 239.077 31.8003 238.817 31.5538C238.557 31.3072 238.243 31.1247 237.9 31.02C233.52 29.12 217.04 28.5799 212.24 28.4199C211.617 22.5814 211.47 16.7021 211.8 10.8399ZM73.5 61.2C73.2 57 71.72 35.7999 75.72 34.32C77.72 33.6199 84.76 32.92 94.98 32.32C114.56 31.1 145.42 30.12 173.5 29.92C179.74 29.92 232.46 29.46 237.62 33C239.14 39.92 234.28 116.8 233.2 124.22C185.94 125.76 129.94 128.08 82.28 126.92C81.48 122.34 75.36 86.9999 73.5 61.2ZM81.66 128.26C81.664 128.213 81.664 128.167 81.66 128.12C115.36 129.16 220.82 125.7 233.66 125.62C235.08 128.92 255.02 173.16 255.86 175.62C255.64 175.62 55 178.34 54.74 178.54C57.26 170.1 78.1 134.42 81.66 128.26ZM136.64 262.26C135.16 265.14 90.32 285.18 81.1 287.96C81.2789 287.038 81.3462 286.099 81.3 285.16C94.92 280.44 124.48 267.98 137.74 259.16C137.488 260.237 137.118 261.283 136.64 262.28V262.26ZM138.02 257.84C134.02 260.2 130.2 261.84 81.28 284.08C81.2822 283.175 81.1611 282.273 80.92 281.4C87.32 278.4 130.72 261.58 138.46 254.88C138.36 255.74 138.22 256.78 138.02 257.86V257.84ZM35 216.8C35.9618 217.933 36.5571 219.332 36.7072 220.81C36.8571 222.288 36.5549 223.777 35.84 225.08C35.52 225.58 36.28 226.1 36.6 225.58C37.8076 224.263 38.5214 222.57 38.62 220.787C38.7182 219.003 38.1956 217.242 37.14 215.8C46.86 211.34 56.42 207.14 59.04 206C59.6956 207.332 60.0465 208.792 60.0672 210.277C60.088 211.76 59.7781 213.23 59.16 214.58C58.92 215.22 59.64 215.46 59.98 215.04C61.08 213.642 61.7647 211.963 61.956 210.195C62.1469 208.427 61.8363 206.64 61.06 205.04C63.22 203.82 68.26 201.04 70.72 201.04C73.8 201.04 136.3 251.88 137.46 253.04C132.24 258.42 83.78 277.6 79.7 279.56C71.1 277.56 18.6201 232.42 13.7001 227.78C16.7601 225.24 31.56 218.4 35 216.8ZM12.1801 228.7C18.4201 234.8 70.48 280.24 79.2 281.68C79.0254 282.433 78.9447 283.207 78.96 283.98C64.96 277.14 24.9601 242.5 11.7201 231.36C11.7801 231.36 12.0801 229.4 12.2401 228.7H12.1801ZM12.4802 235.56C11.916 234.702 11.6362 233.687 11.6802 232.66C24.7602 245.86 61.68 278.32 78.94 285.08C78.9047 286.15 79.0123 287.219 79.26 288.26C69 285.96 13.8402 237.2 12.5402 235.56H12.4802ZM376.48 286.4C363.56 312.04 12.9601 305.34 7.28019 295.34C4.87255 291.155 3.24611 286.567 2.48019 281.8C3.25171 283.49 4.54044 284.89 6.16019 285.8C35.6 302.94 328.5 298.46 366.738 284.72C374.84 281.8 378.92 275.5 379.84 266.72C380.382 273.462 379.215 280.232 376.44 286.4H376.48Z" fill="black"/>
<path d="M76.9996 150.38C218.42 152.38 231.92 151.16 235.88 150.54C236.82 150.4 237.42 150.08 237.38 148.98C237.38 146.08 230.58 132.78 228.78 131.86C227.98 131.44 84.7796 133.46 84.2796 133.62C84.1865 133.642 84.0992 133.685 84.0232 133.743C83.9476 133.802 83.8847 133.875 83.8396 133.96C82.4796 136.18 75.8396 147.14 76.1396 149.62C76.172 149.826 76.276 150.017 76.4327 150.155C76.5898 150.293 76.7902 150.373 76.9996 150.38ZM84.8596 135C86.2996 134.82 227.18 133.42 228.04 133.5C229.533 135.648 230.87 137.9 232.04 140.24C228.76 140.24 82.1596 141.02 81.3996 141.04C82.2796 139.28 83.4396 137.28 84.8596 135ZM80.8596 142C81.6396 142 229.98 141.24 232.52 141.18C233.837 143.63 234.877 146.22 235.62 148.9C228.5 150.04 163.62 149.48 77.7196 148.9C78.5222 146.477 79.5603 144.14 80.8196 141.92L80.8596 142ZM187.38 157.18C186.982 156.297 186.33 155.552 185.507 155.04C184.685 154.526 183.728 154.27 182.76 154.3C177.68 154.3 135.02 153.12 131.18 154.68C128.728 157.65 126.831 161.038 125.58 164.68C125.46 165.56 125.9 165.96 126.44 166.02C138.44 167.32 178.22 168.56 188.54 166.66C189.82 166.42 189.98 165.06 189.72 163.76C189.102 161.513 188.318 159.313 187.38 157.18ZM127 164.68C128.148 161.435 129.708 158.35 131.64 155.5C134.68 154.5 174.22 156.58 182.82 156.56C183.332 156.542 183.838 156.672 184.278 156.933C184.718 157.197 185.073 157.58 185.3 158.04C186.272 160.117 187.03 162.288 187.56 164.52C177.42 166.1 134.36 165.2 127 164.68ZM326.28 159.74C323.46 155.86 309.32 156.04 304.58 156.18C300.58 156.18 286.04 156.84 286.04 160.76C286.057 161.077 286.148 161.387 286.308 161.662C286.468 161.937 286.692 162.168 286.96 162.34C287.34 162.64 284.72 189 288.32 203.14C289.5 207.82 291.02 210.14 295.48 212.08C304.04 215.8 318.24 214.98 323.94 207.04C325.08 204.72 324.84 197.96 324.94 195.9C333.8 197.66 341.06 194.06 342.94 184.52C344.12 178.38 342.6 174.36 339.98 171.92C338.23 170.495 336.16 169.513 333.95 169.062C331.738 168.608 329.45 168.697 327.28 169.32C327.205 169.345 327.123 169.353 327.045 169.34C326.965 169.328 326.89 169.299 326.827 169.25C326.762 169.203 326.708 169.142 326.673 169.07C326.637 168.998 326.618 168.92 326.62 168.84C326.62 167.78 327 160.6 326.28 159.74ZM288.28 160.16C293.68 157 315.68 156.76 322.78 159.98C323.02 160.1 323.92 160.56 323.92 160.76C323.92 160.96 323 161.44 322.78 161.54C317.42 163.96 298.28 165.06 288.22 161.38C287.52 161 288.22 160.24 288.22 160.16H288.28ZM327.84 171.36C329.658 170.837 331.575 170.762 333.428 171.14C335.282 171.52 337.015 172.343 338.48 173.54C340.64 175.54 341.72 178.98 340.72 184.08C340.522 185.853 339.907 187.553 338.927 189.045C337.947 190.535 336.628 191.775 335.08 192.66C331.8 194.137 328.107 194.418 324.64 193.46C324.47 193.398 324.288 193.372 324.108 193.383C323.926 193.395 323.75 193.443 323.588 193.525C323.427 193.608 323.285 193.723 323.17 193.863C323.055 194.003 322.97 194.165 322.92 194.34C322.38 195.86 323.14 202 322.04 205.88C316.98 212.74 304.04 213.36 296.38 210.14C292.5 208.48 291.42 206.76 290.38 202.62C287.7 192.8 287.54 172.8 288.14 162.96C294.44 165.94 316.26 166.8 324.84 162.4C324.84 168.6 324.08 169.64 325.64 170.9C325.942 171.128 326.29 171.286 326.66 171.366C327.028 171.445 327.412 171.443 327.78 171.36H327.84ZM133.56 213.74C128.307 209.285 122.657 205.322 116.68 201.9C114.377 200.542 111.928 199.448 109.38 198.64C107.24 198.08 106.34 199.18 106.78 200.64C107.681 202.737 108.873 204.695 110.32 206.46C114.921 212.285 120.213 217.53 126.08 222.08C135 229.54 146.56 238.58 155 245C155.43 245.315 155.918 245.54 156.436 245.662C156.955 245.785 157.492 245.803 158.018 245.717C158.543 245.628 159.045 245.437 159.497 245.152C159.947 244.868 160.335 244.497 160.64 244.06C162.12 242.44 163.04 239.6 161.38 238.06C159.46 236.34 147.72 225.28 133.56 213.74ZM114.4 209.3L111.66 204.88C112.635 204.475 113.46 203.775 114.02 202.88L118.36 204.64C117.271 204.857 116.287 205.433 115.568 206.28C114.849 207.126 114.437 208.19 114.4 209.3ZM120.54 214.4C119.094 213.183 117.756 211.845 116.54 210.4C116.68 207.98 117.44 206.9 119.86 206.82C121.472 207.59 122.995 208.537 124.4 209.64C123.324 209.902 122.364 210.51 121.667 211.368C120.97 212.228 120.574 213.293 120.54 214.4ZM154.74 243.5C152.52 241.64 123 216.6 121.18 215C121.332 213.88 121.821 212.833 122.582 211.998C123.343 211.162 124.339 210.577 125.44 210.32C132.34 215.44 142.26 223.92 159.56 238.32C158.887 238.285 158.213 238.4 157.589 238.653C156.964 238.907 156.402 239.293 155.943 239.787C155.483 240.28 155.137 240.868 154.93 241.51C154.722 242.152 154.657 242.83 154.74 243.5ZM313.22 265.66C315.72 267.36 317.46 266.58 319.08 264.22C323.08 258.54 337.08 233.4 337.08 233.2C337.08 233 337.24 233.38 336.58 225.3C336.552 224.997 336.442 224.705 336.262 224.458C336.083 224.212 335.84 224.018 335.56 223.898C335.28 223.777 334.972 223.733 334.67 223.773C334.367 223.812 334.08 223.932 333.84 224.12L327 229.1C327 229.1 311.82 260.48 311.66 260.76C311.385 261.639 311.388 262.58 311.667 263.457C311.947 264.333 312.488 265.102 313.22 265.66ZM334.4 226.56C334.52 228.02 334.68 229.96 334.8 231.3C333.315 230.588 331.76 230.033 330.16 229.64L334.4 226.56ZM328.68 231C330.413 232.228 332.417 233.025 334.52 233.32C334.22 233.84 318.94 261.72 318.78 262C318.315 261.055 317.552 260.29 316.608 259.823C315.665 259.357 314.593 259.215 313.56 259.42C315.12 256.52 328.12 232 328.68 231Z" fill="black"/>
<path d="M319.48 191.34C319.265 191.037 318.992 190.78 318.675 190.585C318.358 190.39 318.006 190.258 317.64 190.2C316.457 189.883 315.255 189.643 314.04 189.48C314.72 194.24 315.12 199.48 315.1 199.94C315.07 200.245 314.92 200.525 314.685 200.72C314.448 200.913 314.145 201.008 313.84 200.98C313.535 200.945 313.253 200.792 313.06 200.552C312.865 200.313 312.772 200.007 312.8 199.7C312.8 199.36 312.68 197.98 312.58 189.28C308.58 188.78 289.32 187.28 290.08 191.12C290.08 191.32 288.5 201.12 294.62 205.82C300.74 210.52 312.98 209.6 317.26 204.82C318.475 203.365 319.277 201.61 319.58 199.74C320.053 196.957 320.018 194.112 319.48 191.34ZM324.28 173.24C324.28 174.14 323.08 181.02 322.28 190.26L323.24 190.46C326.76 191.207 330.425 190.807 333.7 189.32C334.843 188.685 335.788 187.75 336.433 186.613C337.08 185.477 337.4 184.187 337.36 182.88C337.497 181.257 337.213 179.625 336.54 178.142C335.866 176.658 334.825 175.372 333.513 174.407C332.202 173.44 330.665 172.825 329.048 172.62C327.432 172.417 325.792 172.63 324.28 173.24ZM325.18 173.92C326.457 173.718 327.762 173.792 329.006 174.137C330.253 174.482 331.41 175.09 332.4 175.92C333.352 176.792 334.088 177.872 334.553 179.077C335.018 180.28 335.198 181.575 335.08 182.86C334.9 188 329.62 188.98 324.56 188.46C324.8 184.82 325 180.64 325.18 173.92ZM131.6 155.5C131.6 155.5 131.62 155.52 131.6 155.5V155.5ZM303.76 56.5196C303.755 56.876 303.82 57.2298 303.952 57.5607C304.085 57.8916 304.28 58.1931 304.53 58.448C304.778 58.7025 305.077 58.9054 305.403 59.0447C305.732 59.184 306.083 59.2574 306.44 59.26C306.985 59.2716 307.52 59.1214 307.978 58.8276C308.437 58.5338 308.798 58.1102 309.013 57.6105C309.23 57.1113 309.293 56.5585 309.195 56.0233C309.097 55.4876 308.84 54.9938 308.458 54.6047C308.078 54.2156 307.59 53.9483 307.057 53.8378C306.525 53.7273 305.97 53.7778 305.466 53.9832C304.962 54.1887 304.53 54.5396 304.226 54.9916C303.923 55.4433 303.76 55.9756 303.76 56.5196ZM84.8603 122.5C85.3203 123.4 85.9203 123.5 86.3003 123.22C86.6803 122.94 213.34 121.84 222.76 121.34C224.786 121.371 226.806 121.115 228.76 120.58C233.26 116.58 235.02 41.7996 233.26 38.3396C228.76 29.3596 87.9203 35.14 79.2603 37.76C72.3603 39.84 81.6803 116.12 84.8603 122.5ZM78.8803 40.9996C78.8803 40.6396 79.3203 39.2396 79.6603 39.1396C89.2403 36.2596 228.34 31.52 232.12 39.04C232.443 40.5443 232.59 42.0814 232.56 43.62C232.9 52.34 232.56 71.0196 231.66 87.7596C231.48 90.9596 230.06 117.18 227.98 119.56C219.68 121.32 91.7803 121.72 86.1003 121.94C82.8603 114.42 75.8603 54.1996 78.8803 40.9996ZM306.7 12.4196C307.243 12.4316 307.778 12.2818 308.237 11.9887C308.695 11.696 309.055 11.2734 309.272 10.7753C309.49 10.2767 309.553 9.72543 309.457 9.19052C309.358 8.65562 309.105 8.1618 308.726 7.77162C308.346 7.3818 307.862 7.11343 307.33 7.00034C306.798 6.88762 306.245 6.93525 305.74 7.1378C305.235 7.33998 304.803 7.68798 304.497 8.13707C304.19 8.58616 304.025 9.11635 304.02 9.65962C304.012 10.0178 304.075 10.3738 304.206 10.7069C304.337 11.04 304.533 11.344 304.783 11.6007C305.032 11.8578 305.33 12.0622 305.66 12.2029C305.988 12.3436 306.342 12.4174 306.7 12.4196Z" fill="black"/>
<path d="M118.021 91.3995H141.781C144.53 91.389 147.163 90.2879 149.102 88.3381C151.04 86.3886 152.126 83.7494 152.121 80.9995V61.7195C152.121 58.9643 151.036 56.3195 149.101 54.3581C147.165 52.397 144.536 51.2766 141.781 51.2395H118.021C116.643 51.2344 115.278 51.5017 114.004 52.0268C112.73 52.5515 111.572 53.3232 110.598 54.2973C109.624 55.2715 108.852 56.429 108.328 57.7028C107.803 58.977 107.535 60.3421 107.541 61.7195V80.9995C107.546 82.3708 107.821 83.7272 108.351 84.9919C108.88 86.2566 109.653 87.4046 110.627 88.3701C111.6 89.3359 112.754 90.1006 114.022 90.6203C115.291 91.1403 116.65 91.405 118.021 91.3995ZM109.241 61.7195C109.277 59.4079 110.216 57.2021 111.856 55.573C113.496 53.9435 115.709 53.0203 118.021 52.9995H141.781C142.948 52.9864 144.107 53.2046 145.19 53.6417C146.272 54.0788 147.258 54.7261 148.089 55.5461C148.92 56.3664 149.581 57.3428 150.032 58.4195C150.484 59.4963 150.718 60.6519 150.721 61.8195V80.9995C150.715 82.1686 150.48 83.3246 150.028 84.4024C149.576 85.4803 148.916 86.4584 148.086 87.2813C147.256 88.1039 146.271 88.7552 145.189 89.1973C144.108 89.6399 142.949 89.865 141.781 89.8595H118.021C116.862 89.8544 115.716 89.6213 114.648 89.173C113.58 88.725 112.611 88.0708 111.796 87.2483C110.98 86.4253 110.335 85.4501 109.897 84.3781C109.458 83.3057 109.235 82.1581 109.241 80.9995V61.7195ZM182.26 105.68C182.66 106.86 183.66 106.6 183.94 105.86C184.32 104.8 186.54 97.1795 186.82 95.8595C188.36 95.3795 184.02 96.8795 197.44 91.9995C197.58 91.9457 197.698 91.8512 197.783 91.7279C197.868 91.6046 197.913 91.4592 197.913 91.3097C197.913 91.1603 197.868 91.0148 197.783 90.8915C197.698 90.7683 197.58 90.6737 197.44 90.6195L176.88 82.3995C176.753 82.3399 176.613 82.3144 176.475 82.3254C176.335 82.3366 176.202 82.3835 176.087 82.4628C175.972 82.5414 175.878 82.6494 175.818 82.7752C175.757 82.901 175.73 83.0403 175.74 83.1795C175.74 83.1795 181.16 102.5 182.26 105.68ZM177.8 84.5395L195.12 91.3595C192.8 92.2195 188.88 93.6995 187 94.4595C186.16 94.7795 185.82 94.9195 185.62 95.1795C185.42 95.4395 186.12 93.8795 183.18 102.94L177.8 84.5395ZM225 25.8995C225.023 26.0195 225.088 26.1275 225.183 26.2043C225.278 26.2813 225.398 26.3221 225.52 26.3195C225.94 26.3195 238.88 27.5595 241.52 26.8595C243.22 26.3995 243.52 23.3995 243.68 21.6395C243.88 18.9795 243.68 12.4595 242.56 10.2395C241.04 7.23953 229.82 8.23953 226.56 8.81953C225.695 8.94135 224.868 9.25589 224.14 9.73953C223.717 10.2315 223.47 10.8512 223.44 11.4995C223.42 16.3428 223.943 21.173 225 25.8995ZM225.58 11.2795C228.74 10.2995 237.74 9.91953 240.6 11.2795C241.58 13.8795 242.1 22.8195 240.92 24.8995C239.06 25.3795 227.7 25.3795 225.8 25.3995C225.74 23.8395 224.82 15.4195 225.58 11.2795ZM251.84 25.8195C251.867 25.9377 251.933 26.0435 252.027 26.1199C252.122 26.1959 252.238 26.2381 252.36 26.2395C252.78 26.2395 265.72 27.4795 268.36 26.7795C270.06 26.3195 270.36 23.3195 270.54 21.5595C270.72 18.8995 270.54 12.3795 269.4 10.1595C267.88 7.13953 256.66 8.15953 253.4 8.73953C252.537 8.86971 251.712 9.18353 250.98 9.65953C250.565 10.157 250.32 10.7733 250.28 11.4195C250.262 16.2628 250.785 21.093 251.84 25.8195ZM252.42 11.1995C255.58 10.1995 264.58 9.83953 267.44 11.1995C268.42 13.7995 268.94 22.7395 267.76 24.7995C265.9 25.2995 254.54 25.2995 252.64 25.3195C252.58 23.7595 251.66 15.3395 252.42 11.1995ZM279.92 26.6995C279.943 26.8195 280.008 26.9275 280.103 27.0043C280.198 27.0814 280.318 27.1221 280.44 27.1195C280.86 27.1195 293.8 28.3595 296.44 27.6595C298.14 27.1995 298.44 24.1995 298.6 22.4395C298.8 19.7795 298.6 13.2595 297.48 11.0395C295.96 8.03953 284.74 9.03953 281.48 9.61953C280.617 9.74644 279.79 10.0606 279.06 10.5395C278.637 11.0315 278.39 11.6512 278.36 12.2995C278.34 17.1428 278.863 21.973 279.92 26.6995ZM280.5 12.0795C283.66 11.0995 292.66 10.7195 295.52 12.0795C296.5 14.6795 297.02 23.6195 295.84 25.6995C293.98 26.1795 282.62 26.1795 280.72 26.1995C280.66 24.6395 279.74 16.2195 280.5 12.0795ZM252.02 56.5795C252.16 56.9795 252.48 57.0195 252.54 56.9995C252.98 56.9995 265.9 58.2395 268.54 57.5395C270.24 57.0795 270.54 54.0795 270.72 52.3195C270.9 49.6595 270.72 43.1395 269.6 40.9395C268.06 37.9195 256.84 38.9395 253.6 39.4995C252.728 39.6235 251.897 39.9377 251.16 40.4195C250.742 40.9221 250.495 41.5464 250.46 42.1995C250.442 47.0363 250.965 51.8595 252.02 56.5795ZM252.62 41.9595C255.78 40.9795 264.76 40.5995 267.62 41.9595C268.6 44.5595 269.12 53.4995 267.94 55.5795C266.08 56.0595 254.74 56.0595 252.84 56.0795C252.76 54.5195 251.84 46.0995 252.62 41.9595ZM298.78 40.1195C301.98 35.3995 304.78 31.1395 304.88 30.9395C304.98 30.7395 303.52 28.9395 302.66 30.2195C296.54 39.6395 297.38 38.7395 296.94 38.5795C293.42 37.2995 282.06 37.7395 280.28 39.3995C279.08 40.5195 279.54 44.5795 279.68 46.3195C278.4 45.5995 277.42 45.0795 277.06 44.9395C276.14 44.5795 276.2 45.4795 276.7 45.7995L279.82 47.7995C280.073 50.4279 280.48 53.0392 281.04 55.6195C281.06 55.7413 281.123 55.8519 281.22 55.9293C281.315 56.0068 281.437 56.0461 281.56 56.0395C281.98 56.0395 294.92 57.2795 297.56 56.5795C301 55.6195 299.94 42.9995 298.78 40.1195ZM281.62 40.9395C286.325 39.8693 291.2 39.7806 295.94 40.6795L289 51.6195C288.3 51.2195 284.56 49.0195 281.44 47.2595C281.308 45.1719 281.368 43.0766 281.62 40.9995V40.9395ZM296.96 54.5395C295.08 55.0395 283.74 55.0395 281.84 55.0595C281.84 54.2595 281.54 51.6395 281.4 48.7395L289 53.4595C289.192 53.4806 289.387 53.4468 289.56 53.3617C289.733 53.277 289.878 53.1443 289.98 52.9795C290.62 52.1595 293.84 47.4795 297.12 42.6595C297.74 46.2595 297.94 52.8195 297 54.5395H296.96ZM217.44 11.7595C217.983 11.7675 218.515 11.6141 218.972 11.3188C219.427 11.0235 219.783 10.5995 219.998 10.101C220.212 9.60208 220.273 9.05117 220.173 8.51735C220.073 7.98389 219.818 7.49189 219.438 7.10389C219.058 6.71589 218.573 6.44935 218.042 6.33807C217.51 6.2268 216.958 6.27589 216.455 6.47917C215.952 6.68208 215.52 7.03008 215.215 7.4788C214.91 7.92753 214.743 8.45698 214.74 8.99953C214.74 9.72135 215.022 10.4144 215.527 10.9304C216.032 11.4464 216.718 11.7439 217.44 11.7595Z" fill="black"/>
</svg>
