<svg width="301" height="277" viewBox="0 0 301 277" fill="none" xmlns="http://www.w3.org/2000/svg">
<path fill-rule="evenodd" clip-rule="evenodd" d="M228.026 268.543L299.499 227.179L299.997 227.454V232.853L228.026 274.597V268.543Z" fill="url(#paint0_linear_14_828)"/>
<path fill-rule="evenodd" clip-rule="evenodd" d="M228.042 268.543L156.569 227.179L156.072 227.454V232.853L228.042 274.597V268.543Z" fill="url(#paint1_linear_14_828)"/>
<path d="M156.45 227.454L228.032 186.309L299.614 227.454L228.032 268.599L156.45 227.454Z" fill="url(#paint2_linear_14_828)" stroke="url(#paint3_linear_14_828)" stroke-width="0.379178" stroke-linecap="round"/>
<path fill-rule="evenodd" clip-rule="evenodd" d="M227.635 189.225C227.87 189.09 228.159 189.09 228.394 189.225L294.063 227.053C294.316 227.199 294.316 227.563 294.063 227.708L228.394 265.536C228.159 265.672 227.87 265.672 227.635 265.536L161.966 227.708C161.713 227.563 161.713 227.199 161.966 227.053L227.635 189.225Z" fill="url(#paint4_linear_14_828)"/>
<mask id="mask0_14_828" style="mask-type:alpha" maskUnits="userSpaceOnUse" x="161" y="189" width="134" height="77">
<path fill-rule="evenodd" clip-rule="evenodd" d="M227.635 189.225C227.87 189.09 228.159 189.09 228.394 189.225L294.063 227.053C294.316 227.199 294.316 227.563 294.063 227.708L228.394 265.536C228.159 265.672 227.87 265.672 227.635 265.536L161.966 227.708C161.713 227.563 161.713 227.199 161.966 227.053L227.635 189.225Z" fill="white"/>
</mask>
<g mask="url(#mask0_14_828)">
<path fill-rule="evenodd" clip-rule="evenodd" d="M215.951 176.028L216.124 175.729L228.036 182.56L239.947 175.729L240.121 176.028L228.384 182.76L239.969 189.403L251.771 182.635L251.945 182.934L240.316 189.603L251.728 196.147L263.248 189.541L263.422 189.84L252.076 196.346L264.009 203.19L275.768 196.446L275.942 196.745L264.356 203.389L276.115 210.133L287.94 203.352L288.114 203.651L276.463 210.332L288.523 217.248L300.112 210.603L300.286 210.902L288.871 217.448L300.63 224.191L312.284 217.508L312.458 217.807L300.978 224.391L312.458 230.974L312.284 231.273L300.63 224.59L289.045 231.234L300.634 237.88L300.459 238.179L288.697 231.433L277.286 237.977L289.157 244.785L288.983 245.084L276.938 238.177L265.005 245.02L276.637 251.691L276.463 251.99L264.658 245.22L252.898 251.963L264.465 258.596L264.291 258.895L252.55 252.162L240.49 259.078L252.293 265.847L252.119 266.146L240.143 259.278L228.384 266.022L240.121 272.753L239.947 273.052L228.036 266.221L216.125 273.052L215.951 272.753L227.688 266.021L215.929 259.278L203.952 266.146L203.778 265.847L215.581 259.078L203.521 252.162L191.781 258.895L191.607 258.596L203.174 251.963L191.414 245.22L179.608 251.99L179.434 251.691L191.067 245.02L179.133 238.177L167.089 245.084L166.915 244.785L178.786 237.977L167.374 231.433L155.612 238.179L155.438 237.88L167.027 231.234L155.441 224.59L143.788 231.273L143.614 230.974L155.094 224.391L143.614 217.807L143.788 217.508L155.441 224.191L167.201 217.448L155.786 210.902L155.96 210.603L167.548 217.248L179.609 210.332L167.958 203.651L168.132 203.352L179.956 210.133L191.715 203.389L180.13 196.745L180.304 196.446L192.063 203.19L203.996 196.346L192.65 189.84L192.824 189.541L204.344 196.147L215.755 189.603L204.127 182.934L204.3 182.635L216.103 189.403L227.688 182.76L215.951 176.028ZM228.036 182.959L216.451 189.603L228.036 196.247L239.621 189.603L228.036 182.959ZM216.103 189.802L204.692 196.346L216.277 202.99L227.688 196.446L216.103 189.802ZM204.344 196.546L192.411 203.389L203.996 210.033L215.929 203.19L204.344 196.546ZM192.063 203.588L180.304 210.332L191.889 216.976L203.648 210.232L192.063 203.588ZM179.956 210.531L167.896 217.448L179.481 224.091L191.541 217.175L179.956 210.531ZM167.548 217.647L155.789 224.391L167.374 231.034L179.134 224.291L167.548 217.647ZM228.384 196.446L239.969 189.802L251.38 196.346L239.795 202.99L228.384 196.446ZM216.625 203.19L228.036 196.645L239.447 203.19L228.036 209.734L216.625 203.19ZM204.344 210.232L216.277 203.389L227.688 209.933L215.755 216.776L204.344 210.232ZM192.237 217.175L203.996 210.432L215.408 216.976L203.648 223.719L192.237 217.175ZM179.829 224.291L191.889 217.375L203.301 223.919L191.24 230.835L179.829 224.291ZM167.722 231.234L179.481 224.49L190.893 231.034L179.134 237.778L167.722 231.234ZM251.728 196.546L240.142 203.19L252.076 210.033L263.661 203.389L251.728 196.546ZM239.795 203.389L228.384 209.933L240.316 216.776L251.728 210.232L239.795 203.389ZM228.036 210.132L216.103 216.976L228.036 223.819L239.969 216.976L228.036 210.132ZM215.755 217.175L203.996 223.919L215.929 230.762L227.688 224.018L215.755 217.175ZM203.648 224.118L191.588 231.034L203.521 237.878L215.581 230.962L203.648 224.118ZM191.24 231.234L179.481 237.977L191.414 244.82L203.174 238.077L191.24 231.234ZM252.423 210.232L264.009 203.588L275.768 210.332L264.183 216.976L252.423 210.232ZM240.665 216.976L252.076 210.432L263.835 217.175L252.424 223.719L240.665 216.976ZM228.384 224.019L240.316 217.175L252.076 223.919L240.143 230.762L228.384 224.019ZM216.277 230.962L228.036 224.218L239.795 230.962L228.036 237.705L216.277 230.962ZM203.869 238.077L215.929 231.161L227.688 237.904L215.628 244.82L203.869 238.077ZM191.762 245.02L203.521 238.276L215.28 245.02L203.521 251.764L191.762 245.02ZM276.115 210.531L264.53 217.175L276.59 224.091L288.176 217.448L276.115 210.531ZM264.182 217.375L252.771 223.919L264.831 230.835L276.243 224.291L264.182 217.375ZM252.424 224.118L240.49 230.962L252.55 237.878L264.484 231.034L252.424 224.118ZM240.143 231.161L228.384 237.904L240.444 244.821L252.203 238.077L240.143 231.161ZM228.036 238.104L215.976 245.02L228.036 251.936L240.096 245.02L228.036 238.104ZM215.628 245.22L203.869 251.963L215.929 258.879L227.688 252.136L215.628 245.22ZM276.938 224.291L288.523 217.647L300.283 224.391L288.697 231.034L276.938 224.291ZM265.179 231.034L276.591 224.49L288.35 231.234L276.939 237.778L265.179 231.034ZM252.898 238.077L264.831 231.234L276.591 237.977L264.658 244.821L252.898 238.077ZM240.791 245.02L252.55 238.276L264.31 245.02L252.55 251.764L240.791 245.02ZM228.384 252.136L240.444 245.22L252.203 251.963L240.143 258.879L228.384 252.136ZM216.276 259.078L228.036 252.335L239.795 259.078L228.036 265.822L216.276 259.078Z" fill="white" fill-opacity="0.4"/>
</g>
<path fill-rule="evenodd" clip-rule="evenodd" d="M216.545 238.999C215.401 238.329 215.394 237.253 216.531 236.597C217.668 235.941 219.517 235.952 220.662 236.622C221.807 237.292 221.813 238.367 220.676 239.023C219.539 239.68 217.69 239.668 216.545 238.999Z" fill="#FF6300"/>
<path fill-rule="evenodd" clip-rule="evenodd" d="M216.545 238.999C215.401 238.329 215.394 237.253 216.531 236.597C217.668 235.941 219.517 235.952 220.662 236.622C221.807 237.292 221.813 238.367 220.676 239.023C219.539 239.68 217.69 239.668 216.545 238.999Z" stroke="white" stroke-width="0.758355"/>
<path fill-rule="evenodd" clip-rule="evenodd" d="M204.374 232.268C203.229 231.598 203.223 230.523 204.359 229.867C205.496 229.211 207.346 229.222 208.49 229.892C209.635 230.562 209.641 231.637 208.504 232.293C207.368 232.949 205.518 232.938 204.374 232.268Z" fill="#FF6300"/>
<path fill-rule="evenodd" clip-rule="evenodd" d="M204.374 232.268C203.229 231.598 203.223 230.523 204.359 229.867C205.496 229.211 207.346 229.222 208.49 229.892C209.635 230.562 209.641 231.637 208.504 232.293C207.368 232.949 205.518 232.938 204.374 232.268Z" stroke="white" stroke-width="0.758355"/>
<path fill-rule="evenodd" clip-rule="evenodd" d="M181.277 235.651C180.132 234.981 180.126 233.906 181.263 233.25C182.399 232.593 184.249 232.604 185.394 233.274C186.538 233.944 186.545 235.019 185.408 235.676C184.271 236.332 182.422 236.321 181.277 235.651Z" fill="#FF6300"/>
<path fill-rule="evenodd" clip-rule="evenodd" d="M181.277 235.651C180.132 234.981 180.126 233.906 181.263 233.25C182.399 232.593 184.249 232.604 185.394 233.274C186.538 233.944 186.545 235.019 185.408 235.676C184.271 236.332 182.422 236.321 181.277 235.651Z" stroke="white" stroke-width="0.758355"/>
<path fill-rule="evenodd" clip-rule="evenodd" d="M178.254 222.719C177.109 222.049 177.103 220.974 178.239 220.318C179.376 219.662 181.226 219.673 182.37 220.343C183.515 221.013 183.521 222.088 182.385 222.744C181.248 223.4 179.398 223.389 178.254 222.719Z" fill="#FF6300"/>
<path fill-rule="evenodd" clip-rule="evenodd" d="M178.254 222.719C177.109 222.049 177.103 220.974 178.239 220.318C179.376 219.662 181.226 219.673 182.37 220.343C183.515 221.013 183.521 222.088 182.385 222.744C181.248 223.4 179.398 223.389 178.254 222.719Z" stroke="white" stroke-width="0.758355"/>
<path fill-rule="evenodd" clip-rule="evenodd" d="M193.243 242.154C192.098 241.484 192.092 240.409 193.229 239.753C194.365 239.097 196.215 239.108 197.36 239.778C198.504 240.448 198.511 241.523 197.374 242.179C196.237 242.835 194.388 242.824 193.243 242.154Z" fill="#FF6300"/>
<path fill-rule="evenodd" clip-rule="evenodd" d="M193.243 242.154C192.098 241.484 192.092 240.409 193.229 239.753C194.365 239.097 196.215 239.108 197.36 239.778C198.504 240.448 198.511 241.523 197.374 242.179C196.237 242.835 194.388 242.824 193.243 242.154Z" stroke="white" stroke-width="0.758355"/>
<path fill-rule="evenodd" clip-rule="evenodd" d="M236.363 256.296C235.219 255.626 235.212 254.551 236.349 253.895C237.486 253.238 239.335 253.249 240.48 253.919C241.625 254.589 241.631 255.664 240.494 256.321C239.357 256.977 237.508 256.966 236.363 256.296Z" fill="#FF6300"/>
<path fill-rule="evenodd" clip-rule="evenodd" d="M236.363 256.296C235.219 255.626 235.212 254.551 236.349 253.895C237.486 253.238 239.335 253.249 240.48 253.919C241.625 254.589 241.631 255.664 240.494 256.321C239.357 256.977 237.508 256.966 236.363 256.296Z" stroke="white" stroke-width="0.758355"/>
<path fill-rule="evenodd" clip-rule="evenodd" d="M190.46 232.415C189.315 231.745 189.309 230.67 190.445 230.014C191.582 229.358 193.432 229.369 194.576 230.039C195.721 230.708 195.727 231.784 194.591 232.44C193.454 233.096 191.604 233.085 190.46 232.415Z" fill="#FF6300"/>
<path fill-rule="evenodd" clip-rule="evenodd" d="M190.46 232.415C189.315 231.745 189.309 230.67 190.445 230.014C191.582 229.358 193.432 229.369 194.576 230.039C195.721 230.708 195.727 231.784 194.591 232.44C193.454 233.096 191.604 233.085 190.46 232.415Z" stroke="white" stroke-width="0.758355"/>
<path fill-rule="evenodd" clip-rule="evenodd" d="M219.144 255.629C218 254.959 217.993 253.884 219.13 253.227C220.267 252.571 222.116 252.582 223.261 253.252C224.406 253.922 224.412 254.997 223.275 255.654C222.138 256.31 220.289 256.299 219.144 255.629Z" fill="#FF6300"/>
<path fill-rule="evenodd" clip-rule="evenodd" d="M219.144 255.629C218 254.959 217.993 253.884 219.13 253.227C220.267 252.571 222.116 252.582 223.261 253.252C224.406 253.922 224.412 254.997 223.275 255.654C222.138 256.31 220.289 256.299 219.144 255.629Z" stroke="white" stroke-width="0.758355"/>
<path fill-rule="evenodd" clip-rule="evenodd" d="M262.405 228.05C263.549 228.72 263.556 229.795 262.419 230.451C261.282 231.108 259.433 231.097 258.288 230.427C257.143 229.757 257.137 228.682 258.274 228.025C259.411 227.369 261.26 227.38 262.405 228.05Z" fill="#3693FF"/>
<path fill-rule="evenodd" clip-rule="evenodd" d="M262.405 228.05C263.549 228.72 263.556 229.795 262.419 230.451C261.282 231.108 259.433 231.097 258.288 230.427C257.143 229.757 257.137 228.682 258.274 228.025C259.411 227.369 261.26 227.38 262.405 228.05Z" stroke="white" stroke-width="0.758355"/>
<path fill-rule="evenodd" clip-rule="evenodd" d="M246.631 216.977C247.776 217.647 247.782 218.722 246.646 219.379C245.509 220.035 243.659 220.024 242.515 219.354C241.37 218.684 241.364 217.609 242.5 216.952C243.637 216.296 245.487 216.307 246.631 216.977Z" fill="#3693FF"/>
<path fill-rule="evenodd" clip-rule="evenodd" d="M246.631 216.977C247.776 217.647 247.782 218.722 246.646 219.379C245.509 220.035 243.659 220.024 242.515 219.354C241.37 218.684 241.364 217.609 242.5 216.952C243.637 216.296 245.487 216.307 246.631 216.977Z" stroke="white" stroke-width="0.758355"/>
<path fill-rule="evenodd" clip-rule="evenodd" d="M254.877 216.951C256.022 217.621 256.028 218.696 254.891 219.352C253.755 220.008 251.905 219.997 250.761 219.327C249.616 218.658 249.609 217.582 250.746 216.926C251.883 216.27 253.733 216.281 254.877 216.951Z" fill="#3693FF"/>
<path fill-rule="evenodd" clip-rule="evenodd" d="M254.877 216.951C256.022 217.621 256.028 218.696 254.891 219.352C253.755 220.008 251.905 219.997 250.761 219.327C249.616 218.658 249.609 217.582 250.746 216.926C251.883 216.27 253.733 216.281 254.877 216.951Z" stroke="white" stroke-width="0.758355"/>
<path fill-rule="evenodd" clip-rule="evenodd" d="M268.763 220.378C269.908 221.048 269.914 222.123 268.777 222.78C267.641 223.436 265.791 223.425 264.646 222.755C263.502 222.085 263.495 221.01 264.632 220.354C265.769 219.697 267.619 219.708 268.763 220.378Z" fill="#3693FF"/>
<path fill-rule="evenodd" clip-rule="evenodd" d="M268.763 220.378C269.908 221.048 269.914 222.123 268.777 222.78C267.641 223.436 265.791 223.425 264.646 222.755C263.502 222.085 263.495 221.01 264.632 220.354C265.769 219.697 267.619 219.708 268.763 220.378Z" stroke="white" stroke-width="0.758355"/>
<path fill-rule="evenodd" clip-rule="evenodd" d="M284.267 226.151C285.412 226.821 285.418 227.896 284.282 228.552C283.145 229.208 281.295 229.197 280.151 228.527C279.006 227.858 279 226.782 280.136 226.126C281.273 225.47 283.123 225.481 284.267 226.151Z" fill="#3693FF"/>
<path fill-rule="evenodd" clip-rule="evenodd" d="M284.267 226.151C285.412 226.821 285.418 227.896 284.282 228.552C283.145 229.208 281.295 229.197 280.151 228.527C279.006 227.858 279 226.782 280.136 226.126C281.273 225.47 283.123 225.481 284.267 226.151Z" stroke="white" stroke-width="0.758355"/>
<path fill-rule="evenodd" clip-rule="evenodd" d="M272.5 232.964C273.645 233.634 273.651 234.709 272.514 235.366C271.378 236.022 269.528 236.011 268.384 235.341C267.239 234.671 267.233 233.596 268.369 232.94C269.506 232.283 271.356 232.294 272.5 232.964Z" fill="#3693FF"/>
<path fill-rule="evenodd" clip-rule="evenodd" d="M272.5 232.964C273.645 233.634 273.651 234.709 272.514 235.366C271.378 236.022 269.528 236.011 268.384 235.341C267.239 234.671 267.233 233.596 268.369 232.94C269.506 232.283 271.356 232.294 272.5 232.964Z" stroke="white" stroke-width="0.758355"/>
<path fill-rule="evenodd" clip-rule="evenodd" d="M246.156 227.306C247.301 227.976 247.308 229.051 246.171 229.707C245.034 230.363 243.184 230.352 242.04 229.682C240.895 229.012 240.889 227.937 242.026 227.281C243.162 226.625 245.012 226.636 246.156 227.306Z" fill="#3693FF"/>
<path fill-rule="evenodd" clip-rule="evenodd" d="M246.156 227.306C247.301 227.976 247.308 229.051 246.171 229.707C245.034 230.363 243.184 230.352 242.04 229.682C240.895 229.012 240.889 227.937 242.026 227.281C243.162 226.625 245.012 226.636 246.156 227.306Z" stroke="white" stroke-width="0.758355"/>
<path d="M260.413 198.936V226.111" stroke="url(#paint5_linear_14_828)" stroke-width="1.26393" stroke-linecap="round" stroke-linejoin="round" stroke-dasharray="3.79"/>
<path d="M218.677 209.68V236.854" stroke="#FF6300" stroke-width="1.26393" stroke-linecap="round" stroke-linejoin="round" stroke-dasharray="3.79"/>
<path d="M195.279 214.103V241.278" stroke="#FF6300" stroke-width="1.26393" stroke-linecap="round" stroke-linejoin="round" stroke-dasharray="3.79"/>
<path d="M282.546 183.769V210.944" stroke="url(#paint6_linear_14_828)" stroke-width="1.26393" stroke-linecap="round" stroke-linejoin="round" stroke-dasharray="3.79"/>
<path d="M238.28 211.576V256.445" stroke="#FF6300" stroke-width="1.26393" stroke-linecap="round" stroke-linejoin="round" stroke-dasharray="3.79"/>
<path d="M156.388 106.562H299.684V188.851L228.036 230.017L156.388 188.851V106.562Z" fill="url(#paint7_linear_14_828)" stroke="#3364ED" stroke-width="0.631963"/>
<mask id="mask1_14_828" style="mask-type:alpha" maskUnits="userSpaceOnUse" x="156" y="106" width="145" height="125">
<path d="M156.388 106.562H299.684V188.851L228.036 230.017L156.388 188.851V106.562Z" fill="white" stroke="white" stroke-width="0.631963"/>
</mask>
<g mask="url(#mask1_14_828)">
<path fill-rule="evenodd" clip-rule="evenodd" d="M240.066 140.906L239.72 140.907L239.68 154.639L227.809 161.539L227.981 161.839L239.679 155.039L239.64 168.395L227.877 175.231L228.049 175.532L239.639 168.795L239.601 181.95L228.119 188.623L228.291 188.923L239.599 182.351L239.559 196.107L227.84 202.919L228.012 203.219L239.558 196.507L239.519 210.063L227.734 216.913L227.906 217.213L239.518 210.464L239.477 224.366L227.928 231.079L228.1 231.379L239.476 224.767L239.437 238.323L227.822 245.073L227.994 245.373L239.435 238.723L239.397 251.957L239.743 251.956L239.782 238.522L251.328 231.811L251.289 245.17L251.635 245.168L251.675 231.609L263.048 224.999L263.008 238.684L263.354 238.682L263.394 224.797L275.288 217.885L275.249 231.294L275.594 231.293L275.634 217.684L287.354 210.872L287.315 224.205L287.661 224.204L287.7 210.67L299.72 203.683L299.68 217.289L300.026 217.288L300.066 203.482L311.786 196.67L311.747 210.201L312.092 210.2L312.133 196.469L324.004 189.569L323.832 189.269L312.134 196.068L312.173 182.512L324.11 175.575L323.938 175.275L312.174 182.112L312.215 168.209L323.916 161.408L323.744 161.108L312.216 167.809L312.256 154.253L324.022 147.414L323.85 147.114L312.257 153.852L312.297 140.096L324.301 133.119L324.129 132.818L312.298 139.695L312.336 126.541L324.059 119.727L323.887 119.427L312.337 126.14L312.376 112.785L323.991 106.034L323.819 105.734L312.377 112.384L312.416 99.1504L312.07 99.1515L312.031 112.585L300.311 119.397L300.349 106.239L300.004 106.24L299.965 119.599L287.945 126.585L287.984 113.155L287.638 113.156L287.598 126.786L275.879 133.598L275.918 120.243L275.572 120.244L275.532 133.8L263.639 140.713L263.677 127.633L263.331 127.634L263.293 140.914L251.92 147.524L251.959 134.119L251.613 134.12L251.573 147.726L240.027 154.437L240.066 140.906ZM240.025 154.838L251.572 148.127L251.533 161.482L239.987 168.193L240.025 154.838ZM251.918 147.925L263.291 141.315L263.253 154.67L251.88 161.28L251.918 147.925ZM263.638 141.113L275.531 134.201L275.492 147.556L263.599 154.469L263.638 141.113ZM275.877 133.999L287.597 127.187L287.558 140.542L275.839 147.354L275.877 133.999ZM287.944 126.986L299.964 119.999L299.925 133.355L287.905 140.341L287.944 126.986ZM300.31 119.798L312.03 112.986L311.991 126.341L300.271 133.153L300.31 119.798ZM251.532 161.883L239.985 168.594L239.947 181.748L251.494 175.037L251.532 161.883ZM263.251 155.071L251.878 161.681L251.84 174.836L263.213 168.225L263.251 155.071ZM275.491 147.956L263.598 154.869L263.56 168.024L275.453 161.111L275.491 147.956ZM287.557 140.943L275.838 147.755L275.799 160.91L287.519 154.098L287.557 140.943ZM299.923 133.755L287.904 140.742L287.865 153.897L299.885 146.91L299.923 133.755ZM311.99 126.742L300.27 133.554L300.232 146.709L311.951 139.897L311.99 126.742ZM239.946 182.149L251.493 175.438L251.452 189.194L239.906 195.905L239.946 182.149ZM251.839 175.236L263.212 168.626L263.172 182.382L251.799 188.993L251.839 175.236ZM263.558 168.425L275.451 161.512L275.411 175.268L263.518 182.181L263.558 168.425ZM275.798 161.311L287.518 154.499L287.478 168.255L275.758 175.066L275.798 161.311ZM287.864 154.297L299.884 147.311L299.844 161.067L287.824 168.053L287.864 154.297ZM300.23 147.109L311.95 140.297L311.91 154.053L300.19 160.866L300.23 147.109ZM251.451 189.595L239.905 196.306L239.865 209.861L251.412 203.15L251.451 189.595ZM263.171 182.783L251.798 189.393L251.758 202.949L263.131 196.339L263.171 182.783ZM275.41 175.669L263.517 182.581L263.478 196.137L275.371 189.224L275.41 175.669ZM287.476 168.656L275.757 175.468L275.717 189.023L287.437 182.211L287.476 168.656ZM299.842 161.468L287.823 168.454L287.783 182.009L299.803 175.023L299.842 161.468ZM311.909 154.454L300.189 161.266L300.15 174.822L311.869 168.01L311.909 154.454ZM239.864 210.262L251.41 203.551L251.37 217.454L239.823 224.165L239.864 210.262ZM251.757 203.35L263.13 196.739L263.09 210.642L251.716 217.252L251.757 203.35ZM263.476 196.538L275.37 189.625L275.329 203.527L263.436 210.44L263.476 196.538ZM275.716 189.424L287.436 182.612L287.396 196.514L275.676 203.326L275.716 189.424ZM287.782 182.41L299.802 175.424L299.762 189.327L287.742 196.313L287.782 182.41ZM300.149 175.223L311.868 168.411L311.828 182.313L300.108 189.125L300.149 175.223ZM251.369 217.854L239.822 224.566L239.783 238.121L251.329 231.41L251.369 217.854ZM263.089 211.042L251.715 217.653L251.676 231.209L263.049 224.598L263.089 211.042ZM275.328 203.928L263.435 210.841L263.395 224.397L275.289 217.484L275.328 203.928ZM287.394 196.915L275.674 203.727L275.635 217.283L287.355 210.471L287.394 196.915ZM299.76 189.727L287.741 196.714L287.701 210.269L299.721 203.283L299.76 189.727ZM311.827 182.714L300.107 189.526L300.067 203.082L311.787 196.27L311.827 182.714Z" fill="#3364ED"/>
</g>
<mask id="path-45-inside-1_14_828" fill="white">
<path fill-rule="evenodd" clip-rule="evenodd" d="M228.352 106.246H156.072V189.033L228.036 230.382L228.352 230.2V106.246Z"/>
</mask>
<path fill-rule="evenodd" clip-rule="evenodd" d="M228.352 106.246H156.072V189.033L228.036 230.382L228.352 230.2V106.246Z" fill="url(#paint8_linear_14_828)"/>
<path d="M156.072 106.246V105.614H155.44V106.246H156.072ZM228.352 106.246H228.984V105.614H228.352V106.246ZM156.072 189.033H155.44V189.399L155.757 189.581L156.072 189.033ZM228.036 230.382L227.721 230.93L228.036 231.11L228.351 230.93L228.036 230.382ZM228.352 230.2L228.667 230.748L228.984 230.566V230.2H228.352ZM156.072 106.878H228.352V105.614H156.072V106.878ZM156.704 189.033V106.246H155.44V189.033H156.704ZM228.351 229.834L156.387 188.485L155.757 189.581L227.721 230.93L228.351 229.834ZM228.037 229.652L227.721 229.834L228.351 230.93L228.667 230.748L228.037 229.652ZM228.984 230.2V106.246H227.72V230.2H228.984Z" fill="#3364ED" mask="url(#path-45-inside-1_14_828)"/>
<mask id="mask2_14_828" style="mask-type:alpha" maskUnits="userSpaceOnUse" x="156" y="106" width="73" height="125">
<mask id="path-47-inside-2_14_828" fill="white">
<path fill-rule="evenodd" clip-rule="evenodd" d="M228.352 106.246H156.072V189.033L228.036 230.382L228.352 230.2V106.246Z"/>
</mask>
<path fill-rule="evenodd" clip-rule="evenodd" d="M228.352 106.246H156.072V189.033L228.036 230.382L228.352 230.2V106.246Z" fill="white"/>
<path d="M156.072 106.246V105.614H155.44V106.246H156.072ZM228.352 106.246H228.984V105.614H228.352V106.246ZM156.072 189.033H155.44V189.399L155.757 189.581L156.072 189.033ZM228.036 230.382L227.721 230.93L228.036 231.11L228.351 230.93L228.036 230.382ZM228.352 230.2L228.667 230.748L228.984 230.566V230.2H228.352ZM156.072 106.878H228.352V105.614H156.072V106.878ZM156.704 189.033V106.246H155.44V189.033H156.704ZM228.351 229.834L156.387 188.485L155.757 189.581L227.721 230.93L228.351 229.834ZM228.037 229.652L227.721 229.834L228.351 230.93L228.667 230.748L228.037 229.652ZM228.984 230.2V106.246H227.72V230.2H228.984Z" fill="white" mask="url(#path-47-inside-2_14_828)"/>
</mask>
<g mask="url(#mask2_14_828)">
<path fill-rule="evenodd" clip-rule="evenodd" d="M215.626 140.6L215.972 140.601L216.012 154.332L227.883 161.232L227.711 161.532L216.013 154.732L216.052 168.088L227.815 174.924L227.643 175.225L216.053 168.488L216.091 181.643L227.572 188.316L227.401 188.617L216.092 182.044L216.132 195.8L227.852 202.612L227.68 202.912L216.134 196.2L216.173 209.756L227.958 216.606L227.786 216.906L216.174 210.157L216.215 224.059L227.764 230.773L227.592 231.072L216.216 224.46L216.255 238.016L227.87 244.767L227.698 245.067L216.256 238.416L216.295 251.65L215.949 251.649L215.91 238.215L204.364 231.504L204.403 244.863L204.057 244.861L204.017 231.302L192.644 224.692L192.684 238.377L192.338 238.375L192.298 224.49L180.404 217.578L180.443 230.987L180.098 230.986L180.058 217.377L168.338 210.565L168.377 223.898L168.031 223.897L167.992 210.363L155.972 203.377L156.012 216.982L155.666 216.982L155.626 203.175L143.906 196.364L143.945 209.894L143.599 209.893L143.559 196.162L131.688 189.262L131.86 188.962L143.558 195.761L143.519 182.205L131.582 175.268L131.754 174.968L143.518 181.805L143.477 167.902L131.776 161.101L131.948 160.801L143.476 167.502L143.436 153.946L131.67 147.107L131.842 146.807L143.435 153.545L143.395 139.789L131.391 132.812L131.563 132.512L143.394 139.388L143.356 126.234L131.633 119.42L131.805 119.12L143.355 125.833L143.316 112.478L131.701 105.727L131.873 105.427L143.315 112.077L143.276 98.8435L143.622 98.8446L143.661 112.279L155.381 119.09L155.342 105.932L155.688 105.933L155.727 119.292L167.747 126.278L167.708 112.848L168.054 112.849L168.093 126.48L179.813 133.292L179.774 119.936L180.12 119.938L180.16 133.493L192.053 140.406L192.015 127.326L192.361 127.327L192.399 140.607L203.772 147.217L203.733 133.812L204.079 133.813L204.119 147.419L215.665 154.13L215.626 140.6ZM215.666 154.531L204.12 147.82L204.159 161.175L215.705 167.886L215.666 154.531ZM203.774 147.619L192.401 141.008L192.44 154.363L203.812 160.973L203.774 147.619ZM192.054 140.807L180.161 133.894L180.2 147.249L192.093 154.162L192.054 140.807ZM179.815 133.692L168.095 126.88L168.134 140.236L179.853 147.047L179.815 133.692ZM167.748 126.679L155.728 119.693L155.767 133.048L167.787 140.034L167.748 126.679ZM155.382 119.491L143.662 112.679L143.701 126.034L155.421 132.846L155.382 119.491ZM204.16 161.576L215.707 168.287L215.745 181.441L204.198 174.73L204.16 161.576ZM192.441 154.764L203.814 161.374L203.852 174.529L192.479 167.919L192.441 154.764ZM180.201 147.649L192.094 154.562L192.132 167.717L180.239 160.804L180.201 147.649ZM168.135 140.636L179.854 147.448L179.893 160.603L168.173 153.791L168.135 140.636ZM155.769 133.449L167.788 140.435L167.827 153.59L155.807 146.603L155.769 133.449ZM143.702 126.435L155.422 133.247L155.46 146.402L143.741 139.59L143.702 126.435ZM215.746 181.842L204.2 175.131L204.24 188.887L215.786 195.598L215.746 181.842ZM203.853 174.929L192.48 168.319L192.52 182.075L203.893 188.686L203.853 174.929ZM192.134 168.118L180.24 161.205L180.281 174.961L192.174 181.874L192.134 168.118ZM179.894 161.004L168.174 154.192L168.214 167.948L179.934 174.76L179.894 161.004ZM167.828 153.99L155.808 147.004L155.848 160.76L167.868 167.746L167.828 153.99ZM155.462 146.803L143.742 139.99L143.782 153.747L155.502 160.559L155.462 146.803ZM204.241 189.288L215.787 195.999L215.827 209.555L204.28 202.843L204.241 189.288ZM192.521 182.476L203.894 189.086L203.934 202.642L192.561 196.032L192.521 182.476ZM180.282 175.362L192.175 182.274L192.214 195.83L180.321 188.917L180.282 175.362ZM168.216 168.349L179.935 175.161L179.975 188.716L168.255 181.904L168.216 168.349ZM155.849 161.161L167.869 168.147L167.908 181.702L155.889 174.716L155.849 161.161ZM143.783 154.147L155.503 160.959L155.542 174.515L143.822 167.703L143.783 154.147ZM215.828 209.955L204.282 203.244L204.322 217.147L215.869 223.858L215.828 209.955ZM203.935 203.043L192.562 196.432L192.602 210.335L203.976 216.946L203.935 203.043ZM192.216 196.231L180.322 189.318L180.363 203.221L192.256 210.134L192.216 196.231ZM179.976 189.117L168.256 182.305L168.296 196.207L180.016 203.019L179.976 189.117ZM167.91 182.104L155.889 175.117L155.93 189.02L167.95 196.006L167.91 182.104ZM155.543 174.916L143.824 168.104L143.864 182.006L155.584 188.818L155.543 174.916ZM204.323 217.547L215.87 224.259L215.909 237.814L204.363 231.103L204.323 217.547ZM192.603 210.736L203.977 217.346L204.016 230.902L192.643 224.291L192.603 210.736ZM180.364 203.622L192.257 210.534L192.297 224.09L180.403 217.177L180.364 203.622ZM168.297 196.608L180.018 203.42L180.057 216.976L168.337 210.164L168.297 196.608ZM155.931 189.42L167.951 196.407L167.99 209.962L155.971 202.976L155.931 189.42ZM143.865 182.407L155.585 189.219L155.625 202.775L143.905 195.963L143.865 182.407Z" fill="#3364ED"/>
</g>
<path d="M156.45 106.244L228.032 65.0986L299.614 106.244L228.032 147.389L156.45 106.244Z" fill="url(#paint9_linear_14_828)" stroke="#3364ED" stroke-width="0.631963" stroke-linecap="round"/>
<mask id="mask3_14_828" style="mask-type:alpha" maskUnits="userSpaceOnUse" x="155" y="64" width="146" height="84">
<path d="M156.45 106.244L228.032 65.0986L299.614 106.244L228.032 147.389L156.45 106.244Z" fill="white" stroke="white" stroke-width="0.631963" stroke-linecap="round"/>
</mask>
<g mask="url(#mask3_14_828)">
<path fill-rule="evenodd" clip-rule="evenodd" d="M215.761 140.167L215.935 140.466L227.846 133.635L239.757 140.466L239.931 140.167L228.194 133.436L239.779 126.792L251.581 133.56L251.756 133.261L240.127 126.592L251.538 120.048L263.058 126.655L263.232 126.356L251.886 119.849L263.819 113.006L275.578 119.749L275.752 119.45L264.166 112.806L275.926 106.063L287.75 112.844L287.924 112.545L276.274 105.863L288.334 98.9471L299.922 105.593L300.096 105.294L288.681 98.7477L300.44 92.0041L312.094 98.6872L312.268 98.3882L300.788 91.8047L312.268 85.2211L312.094 84.9221L300.44 91.6054L288.855 84.9616L300.444 78.3157L300.27 78.0167L288.507 84.7623L277.096 78.2181L288.967 71.4103L288.793 71.1113L276.748 78.0188L264.815 71.1751L276.447 64.5044L276.274 64.2054L264.468 70.9757L252.709 64.2322L264.275 57.599L264.102 57.3L252.361 64.0329L240.301 57.1169L252.103 50.3481L251.929 50.0491L239.953 56.9175L228.194 50.1735L239.931 43.4427L239.757 43.1437L227.846 49.9742L215.935 43.1437L215.761 43.4427L227.498 50.174L215.739 56.9175L203.763 50.0491L203.589 50.3481L215.392 57.1169L203.331 64.0329L191.591 57.3L191.417 57.599L202.984 64.2322L191.224 70.9757L179.419 64.2054L179.245 64.5044L190.877 71.1751L178.944 78.0188L166.899 71.1113L166.725 71.4103L178.596 78.2181L167.185 84.7623L155.422 78.0167L155.248 78.3157L166.837 84.9616L155.252 91.6054L143.598 84.9221L143.424 85.2211L154.904 91.8048L143.424 98.3882L143.598 98.6872L155.252 92.0041L167.011 98.7478L155.596 105.294L155.77 105.593L167.359 98.9471L179.419 105.863L167.768 112.545L167.942 112.844L179.766 106.063L191.526 112.806L179.94 119.45L180.114 119.749L191.873 113.006L203.807 119.849L192.46 126.356L192.634 126.655L204.154 120.048L215.565 126.593L203.937 133.261L204.111 133.56L215.913 126.792L227.498 133.436L215.761 140.167ZM227.846 133.236L216.261 126.592L227.846 119.949L239.431 126.592L227.846 133.236ZM215.913 126.393L204.502 119.849L216.087 113.205L227.498 119.749L215.913 126.393ZM204.154 119.65L192.221 112.806L203.806 106.162L215.74 113.006L204.154 119.65ZM191.873 112.607L180.114 105.863L191.7 99.2194L203.459 105.963L191.873 112.607ZM179.766 105.664L167.706 98.7477L179.292 92.1038L191.352 99.0201L179.766 105.664ZM167.359 98.5484L155.599 91.8048L167.185 85.1609L178.944 91.9046L167.359 98.5484ZM228.194 119.749L239.779 126.393L251.19 119.849L239.605 113.205L228.194 119.749ZM216.435 113.006L227.846 119.55L239.257 113.006L227.846 106.462L216.435 113.006ZM204.154 105.963L216.087 112.806L227.498 106.262L215.565 99.4189L204.154 105.963ZM192.047 99.0201L203.806 105.764L215.218 99.2195L203.459 92.4759L192.047 99.0201ZM179.639 91.9045L191.699 98.8207L203.111 92.2766L191.051 85.3603L179.639 91.9045ZM167.532 84.9616L179.292 91.7051L190.703 85.1609L178.944 78.4174L167.532 84.9616ZM251.538 119.65L239.953 113.006L251.886 106.162L263.472 112.806L251.538 119.65ZM239.605 112.806L228.194 106.262L240.127 99.4189L251.538 105.963L239.605 112.806ZM227.846 106.063L215.913 99.2195L227.846 92.3761L239.779 99.2195L227.846 106.063ZM215.565 99.0202L203.806 92.2765L215.739 85.4331L227.498 92.1768L215.565 99.0202ZM203.459 92.0772L191.398 85.1609L203.332 78.3178L215.392 85.2338L203.459 92.0772ZM191.051 84.9616L179.291 78.2181L191.224 71.3749L202.984 78.1184L191.051 84.9616ZM252.233 105.963L263.819 112.607L275.578 105.863L263.993 99.2193L252.233 105.963ZM240.475 99.2195L251.886 105.764L263.645 99.02L252.234 92.4759L240.475 99.2195ZM228.194 92.1768L240.127 99.0201L251.886 92.2765L239.953 85.4331L228.194 92.1768ZM216.087 85.2338L227.846 91.9775L239.606 85.2338L227.846 78.4903L216.087 85.2338ZM203.679 78.1184L215.739 85.0345L227.498 78.2909L215.438 71.3749L203.679 78.1184ZM191.572 71.1751L203.331 77.9191L215.091 71.1751L203.331 64.4316L191.572 71.1751ZM275.925 105.664L264.341 99.0201L276.401 92.1038L287.986 98.7477L275.925 105.664ZM263.993 98.8207L252.582 92.2766L264.642 85.3603L276.053 91.9045L263.993 98.8207ZM252.234 92.0772L240.301 85.2338L252.361 78.3177L264.294 85.1609L252.234 92.0772ZM239.953 85.0345L228.194 78.2909L240.254 71.3744L252.013 78.1184L239.953 85.0345ZM227.846 78.0916L215.786 71.175L227.846 64.259L239.906 71.175L227.846 78.0916ZM215.438 70.9757L203.679 64.2322L215.739 57.3162L227.498 64.0597L215.438 70.9757ZM276.748 91.9045L288.334 98.5484L300.093 91.8047L288.507 85.1609L276.748 91.9045ZM264.989 85.1609L276.401 91.7051L288.16 84.9616L276.749 78.4174L264.989 85.1609ZM252.709 78.1184L264.642 84.9616L276.401 78.2181L264.468 71.3744L252.709 78.1184ZM240.602 71.1751L252.361 77.9191L264.12 71.1751L252.361 64.4316L240.602 71.1751ZM228.194 64.0597L240.254 70.9757L252.013 64.2322L239.953 57.3162L228.194 64.0597ZM216.087 57.1168L227.846 63.8604L239.606 57.1168L227.846 50.3733L216.087 57.1168Z" fill="#3364ED"/>
</g>
<path d="M191.859 105.97L191.383 106.244L191.859 106.518L227.875 127.219L228.032 127.31L228.19 127.219L264.205 106.518L264.682 106.244L264.205 105.97L228.19 85.2681L228.032 85.1776L227.875 85.2681L191.859 105.97Z" fill="#062782" stroke="#3364ED" stroke-width="0.631963" stroke-linecap="round"/>
<mask id="mask4_14_828" style="mask-type:alpha" maskUnits="userSpaceOnUse" x="190" y="84" width="76" height="44">
<path d="M191.859 105.97L191.383 106.244L191.859 106.518L227.875 127.219L228.032 127.31L228.19 127.219L264.205 106.518L264.682 106.244L264.205 105.97L228.19 85.2681L228.032 85.1776L227.875 85.2681L191.859 105.97Z" fill="white" stroke="white" stroke-width="0.631963" stroke-linecap="round"/>
</mask>
<g mask="url(#mask4_14_828)">
<rect x="228.036" y="78.8634" width="39.8396" height="51.189" fill="#3465ED"/>
</g>
<path fill-rule="evenodd" clip-rule="evenodd" d="M192.184 78.9248L264.019 78.8634V106.121L228.025 126.945L192.184 106.328V78.9248Z" fill="url(#paint10_linear_14_828)"/>
<path d="M210.443 199.26L210.364 157.719L174.428 136.879L174.507 178.421L210.443 199.26Z" fill="#062782" stroke="#3364ED" stroke-width="0.631963" stroke-linecap="round"/>
<path fill-rule="evenodd" clip-rule="evenodd" d="M198.908 46.8249L228.162 63.8324V98.2725L198.908 81.265V46.8249Z" fill="url(#paint11_linear_14_828)"/>
<path fill-rule="evenodd" clip-rule="evenodd" d="M228.162 29.8176L257.416 46.825L228.162 63.8325L198.908 46.825L228.162 29.8176Z" fill="url(#paint12_linear_14_828)"/>
<path fill-rule="evenodd" clip-rule="evenodd" d="M257.417 46.8249L228.162 63.8324V98.2725L257.417 81.265V46.8249Z" fill="url(#paint13_linear_14_828)"/>
<path fill-rule="evenodd" clip-rule="evenodd" d="M192.749 43.1869L228.162 63.7551V105.406L192.749 84.8376V43.1869Z" stroke="url(#paint14_linear_14_828)" stroke-width="0.947944" stroke-linejoin="round"/>
<path fill-rule="evenodd" clip-rule="evenodd" d="M263.575 43.1869L228.162 63.7551V105.406L263.575 84.8376V43.1869Z" stroke="url(#paint15_linear_14_828)" stroke-width="0.947944" stroke-linejoin="round"/>
<path fill-rule="evenodd" clip-rule="evenodd" d="M228.162 22.6187L263.575 43.1869L228.162 63.7551L192.749 43.1869L228.162 22.6187Z" stroke="url(#paint16_linear_14_828)" stroke-width="0.947944" stroke-linejoin="round"/>
<path d="M174.621 178.086L174.554 137.15L209.995 157.676L210.062 198.613L174.621 178.086Z" fill="#062782" stroke="#3364ED" stroke-width="0.50557"/>
<mask id="mask5_14_828" style="mask-type:alpha" maskUnits="userSpaceOnUse" x="174" y="136" width="37" height="64">
<path d="M174.621 178.086L174.554 137.15L209.995 157.676L210.062 198.613L174.621 178.086Z" fill="white" stroke="white" stroke-width="0.50557"/>
</mask>
<g mask="url(#mask5_14_828)">
<path fill-rule="evenodd" clip-rule="evenodd" d="M42.646 130.97L7.46338 151.193L140.641 227.742C150.39 233.347 162.384 233.347 172.134 227.742L305.312 151.193L270.129 130.97L156.387 196.348L42.646 130.97Z" fill="url(#paint17_linear_14_828)"/>
<path d="M7.46338 151.193L7.30591 150.919C7.20785 150.975 7.1474 151.08 7.1474 151.193C7.1474 151.306 7.20785 151.41 7.30591 151.467L7.46338 151.193ZM42.646 130.97L42.8035 130.696C42.706 130.64 42.5861 130.64 42.4886 130.696L42.646 130.97ZM140.641 227.742L140.798 227.469L140.641 227.742ZM172.134 227.742L171.976 227.469L172.134 227.742ZM305.312 151.193L305.469 151.467C305.567 151.41 305.628 151.306 305.628 151.193C305.628 151.08 305.567 150.975 305.469 150.919L305.312 151.193ZM270.129 130.97L270.286 130.696C270.189 130.64 270.069 130.64 269.971 130.696L270.129 130.97ZM156.387 196.348L156.23 196.622C156.327 196.678 156.447 196.678 156.545 196.622L156.387 196.348ZM7.62084 151.467L42.8035 131.244L42.4886 130.696L7.30591 150.919L7.62084 151.467ZM140.798 227.469L7.62084 150.919L7.30591 151.467L140.483 228.016L140.798 227.469ZM171.976 227.469C162.324 233.017 150.45 233.017 140.798 227.469L140.483 228.016C150.33 233.677 162.444 233.677 172.291 228.016L171.976 227.469ZM305.154 150.919L171.976 227.469L172.291 228.016L305.469 151.467L305.154 150.919ZM269.971 131.244L305.154 151.467L305.469 150.919L270.286 130.696L269.971 131.244ZM269.971 130.696L156.23 196.074L156.545 196.622L270.286 131.244L269.971 130.696ZM156.545 196.074L42.8035 130.696L42.4886 131.244L156.23 196.622L156.545 196.074Z" fill="#3364ED"/>
<path d="M42.646 124.65L156.387 190.028L227.602 149.095L270.129 124.65L305.312 144.873C305.312 144.873 253.557 174.621 227.679 189.496C209.17 200.135 172.152 221.413 172.152 221.413C162.392 227.023 150.383 227.023 140.623 221.412L7.46338 144.873L42.646 124.65Z" fill="white" stroke="#3364ED" stroke-width="0.631963" stroke-linecap="round" stroke-linejoin="round"/>
</g>
<path fill-rule="evenodd" clip-rule="evenodd" d="M156.387 189.396L210.329 158.391V198.837L172.134 220.791C162.384 226.395 150.39 226.395 140.641 220.791L7.51611 144.271H7.4635V144.241L7.46338 144.241L7.4635 144.241V137.636H13.7872V140.606L42.646 124.018L156.387 189.396Z" fill="url(#paint18_linear_14_828)"/>
<path d="M210.329 158.391H210.645L210.172 158.117L210.329 158.391ZM156.387 189.396L156.23 189.67H156.545L156.387 189.396ZM210.329 198.837L210.486 199.111L210.645 198.837H210.329ZM172.134 220.791L171.976 220.517L172.134 220.791ZM140.641 220.791L140.798 220.517L140.641 220.791ZM7.51611 144.271L7.67358 143.998L7.51611 143.955V144.271ZM7.4635 144.271H7.14752L7.4635 144.587V144.271ZM7.4635 144.241H7.77948L7.62165 143.968L7.4635 144.241ZM7.46338 144.241L7.30523 143.968V144.515L7.46338 144.241ZM7.4635 144.241L7.62165 144.515L7.77948 144.241H7.4635ZM7.4635 137.636V137.32L7.14752 137.636H7.4635ZM13.7872 137.636H14.1032L13.7872 137.32V137.636ZM13.7872 140.606H13.4713L13.9447 140.88L13.7872 140.606ZM42.646 124.018L42.8035 123.744L42.4886 123.744L42.646 124.018ZM210.172 158.117L156.23 189.122L156.545 189.67L210.486 158.665L210.172 158.117ZM210.645 198.837V158.391H210.013V198.837H210.645ZM172.291 221.065L210.486 199.111L210.172 198.563L171.976 220.517L172.291 221.065ZM140.483 221.065C150.33 226.725 162.444 226.725 172.291 221.065L171.976 220.517C162.324 226.065 150.45 226.065 140.798 220.517L140.483 221.065ZM7.35865 144.545L140.483 221.065L140.798 220.517L7.67358 143.998L7.35865 144.545ZM7.51611 143.955H7.4635V144.587H7.51611V143.955ZM7.77948 144.271V144.241H7.14752V144.271H7.77948ZM7.30523 144.515L7.30535 144.515L7.62165 143.968L7.62153 143.968L7.30523 144.515ZM7.30535 143.968L7.30523 143.968L7.62153 144.515L7.62165 144.515L7.30535 143.968ZM7.77948 144.241V137.636H7.14752V144.241H7.77948ZM7.4635 137.952H13.7872V137.32H7.4635V137.952ZM13.4713 137.636V140.606H14.1032V137.636H13.4713ZM42.4886 123.744L13.6298 140.332L13.9447 140.88L42.8035 124.292L42.4886 123.744ZM156.545 189.122L42.8035 123.744L42.4886 124.292L156.23 189.67L156.545 189.122Z" fill="#3364ED"/>
<path fill-rule="evenodd" clip-rule="evenodd" d="M205.146 154.818L156.387 182.884L42.646 117.413L7.46338 137.665L140.624 214.314C150.382 219.931 162.392 219.931 172.151 214.314L210.329 192.338V157.81L205.146 154.818Z" fill="white"/>
<path d="M205.146 154.818L205.304 154.544C205.207 154.488 205.086 154.488 204.989 154.544L205.146 154.818ZM156.387 182.884L156.23 183.158C156.327 183.214 156.447 183.214 156.545 183.158L156.387 182.884ZM42.646 117.413L42.8037 117.139C42.7061 117.083 42.586 117.083 42.4884 117.139L42.646 117.413ZM7.46338 137.665L7.30574 137.391C7.20778 137.447 7.1474 137.552 7.1474 137.665C7.1474 137.778 7.20778 137.882 7.30574 137.939L7.46338 137.665ZM140.624 214.314L140.781 214.04L140.624 214.314ZM172.151 214.314L171.993 214.04L172.151 214.314ZM210.329 192.338L210.487 192.612C210.585 192.556 210.645 192.451 210.645 192.338H210.329ZM210.329 157.81H210.645C210.645 157.697 210.585 157.593 210.487 157.537L210.329 157.81ZM204.989 154.544L156.23 182.611L156.545 183.158L205.304 155.092L204.989 154.544ZM156.545 182.611L42.8037 117.139L42.4884 117.687L156.23 183.158L156.545 182.611ZM42.4884 117.139L7.30574 137.391L7.62101 137.939L42.8037 117.687L42.4884 117.139ZM7.30574 137.939L140.466 214.588L140.781 214.04L7.62101 137.391L7.30574 137.939ZM140.466 214.588C150.322 220.261 162.452 220.261 172.308 214.588L171.993 214.04C162.332 219.601 150.442 219.601 140.781 214.04L140.466 214.588ZM172.308 214.588L210.487 192.612L210.171 192.064L171.993 214.04L172.308 214.588ZM210.645 192.338V157.81H210.013V192.338H210.645ZM210.487 157.537L205.304 154.544L204.988 155.092L210.171 158.084L210.487 157.537Z" fill="#3364ED"/>
<path fill-rule="evenodd" clip-rule="evenodd" d="M186.718 212.987L150.747 150.808L174.353 137.179L210.384 157.938L210.45 199.286L186.718 212.987Z" fill="url(#paint19_linear_14_828)"/>
<path opacity="0.3" fill-rule="evenodd" clip-rule="evenodd" d="M128.827 171.951L106.114 185.665L83.4009 171.951L106.114 158.238L128.827 171.951Z" fill="url(#paint20_linear_14_828)"/>
<path fill-rule="evenodd" clip-rule="evenodd" d="M106.114 142.06L128.879 171.92L106.114 185.665L83.3484 171.92L106.114 142.06Z" stroke="url(#paint21_linear_14_828)" stroke-width="0.947944" stroke-linejoin="round"/>
<path fill-rule="evenodd" clip-rule="evenodd" d="M106.114 181.241L123.82 170.972L106.114 147.747V181.241Z" fill="url(#paint22_linear_14_828)"/>
<path fill-rule="evenodd" clip-rule="evenodd" d="M106.114 147.748L106.114 147.747L88.4072 170.972L106.114 181.241L106.114 181.241V147.748Z" fill="url(#paint23_linear_14_828)"/>
<path d="M106.123 142.015V185.513" stroke="url(#paint24_linear_14_828)" stroke-width="0.947944" stroke-linejoin="round"/>
<path fill-rule="evenodd" clip-rule="evenodd" d="M47.3306 129.978L62.4801 138.806V156.684L47.3306 147.855V129.978Z" fill="url(#paint25_linear_14_828)"/>
<path fill-rule="evenodd" clip-rule="evenodd" d="M62.4801 121.15L77.6295 129.978L62.4801 138.806L47.3306 129.978L62.4801 121.15Z" fill="url(#paint26_linear_14_828)"/>
<path fill-rule="evenodd" clip-rule="evenodd" d="M77.6296 129.978L62.4802 138.806V156.684L77.6296 147.855V129.978Z" fill="url(#paint27_linear_14_828)"/>
<path fill-rule="evenodd" clip-rule="evenodd" d="M44.1411 128.09L62.48 138.766V160.387L44.1411 149.71V128.09Z" stroke="url(#paint28_linear_14_828)" stroke-width="0.947944" stroke-linejoin="round"/>
<path fill-rule="evenodd" clip-rule="evenodd" d="M80.8188 128.09L62.48 138.766V160.387L80.8188 149.71V128.09Z" stroke="url(#paint29_linear_14_828)" stroke-width="0.947944" stroke-linejoin="round"/>
<path fill-rule="evenodd" clip-rule="evenodd" d="M62.48 117.413L80.8188 128.09L62.48 138.766L44.1411 128.09L62.48 117.413Z" stroke="url(#paint30_linear_14_828)" stroke-width="0.947944" stroke-linejoin="round"/>
<path opacity="0.3" fill-rule="evenodd" clip-rule="evenodd" d="M156.072 210.312C166.2 210.312 174.41 205.926 174.41 200.516C174.41 195.106 166.2 190.721 156.072 190.721C145.943 190.721 137.733 195.106 137.733 200.516C137.733 205.926 145.943 210.312 156.072 210.312Z" fill="url(#paint31_linear_14_828)"/>
<path fill-rule="evenodd" clip-rule="evenodd" d="M171.248 179.977H140.895V198.256V198.936H140.946C141.589 203.128 148.115 206.423 156.072 206.423C164.028 206.423 170.554 203.128 171.197 198.936H171.248V198.256V179.977Z" fill="url(#paint32_linear_14_828)"/>
<path fill-rule="evenodd" clip-rule="evenodd" d="M156.072 188.096C164.454 188.096 171.248 184.439 171.248 179.929C171.248 175.418 164.454 171.762 156.072 171.762C147.689 171.762 140.895 175.418 140.895 179.929C140.895 184.439 147.689 188.096 156.072 188.096Z" fill="url(#paint33_linear_14_828)"/>
<path d="M173.798 197C174.495 198.075 174.884 199.246 174.884 200.484C174.884 203.457 172.643 206.039 169.263 207.851C165.863 209.673 161.198 210.786 156.071 210.786C150.945 210.786 146.28 209.673 142.88 207.851C139.5 206.039 137.259 203.457 137.259 200.484C137.259 199.246 137.647 198.075 138.345 197L137.526 199V180.187C137.351 179.62 137.259 179.033 137.259 178.43C137.259 175.457 139.5 172.874 142.88 171.063C146.28 169.241 150.945 168.128 156.071 168.128C161.198 168.128 165.863 169.241 169.263 171.063C172.643 172.874 174.884 175.457 174.884 178.43C174.884 179.18 174.742 179.905 174.474 180.6V200L173.798 197ZM173.798 197V181C173 183 171.062 184.833 169.263 185.797C165.863 187.619 161.198 188.732 156.071 188.732C150.945 188.732 146.28 187.619 142.88 185.797C140.992 184.785 139.459 182.927 138.474 181.5V196.808C139.459 195.381 140.992 194.129 142.88 193.117C146.28 191.295 150.945 190.182 156.071 190.182C161.198 190.182 165.863 191.295 169.263 193.117C171.062 194.081 172.81 195.656 173.798 197ZM173.917 178C173.713 175.704 171.881 173.542 168.815 171.898C165.578 170.163 161.073 169.076 156.071 169.076C151.07 169.076 146.565 170.163 143.328 171.898C140.261 173.542 138.43 175.704 138.226 178V178.781L138.474 180.032C139.097 181.885 140.79 183.601 143.328 184.961C146.565 186.696 151.07 187.784 156.071 187.784C161.073 187.784 165.578 186.696 168.815 184.961C171.179 183.694 172.81 182.118 173.526 180.411L173.917 178ZM138.206 200.484C138.206 198.029 140.071 195.698 143.328 193.952C146.565 192.217 151.07 191.13 156.071 191.13C161.073 191.13 165.578 192.217 168.815 193.952C172.072 195.698 173.936 198.029 173.936 200.484C173.936 202.939 172.072 205.27 168.815 207.015C165.578 208.75 161.073 209.838 156.071 209.838C151.07 209.838 146.565 208.75 143.328 207.015C140.071 205.27 138.206 202.939 138.206 200.484Z" stroke="url(#paint34_linear_14_828)" stroke-width="0.947944" stroke-linejoin="round"/>
<path fill-rule="evenodd" clip-rule="evenodd" d="M156.072 188.193C166.2 188.193 174.41 183.807 174.41 178.397C174.41 172.988 166.2 168.602 156.072 168.602C145.943 168.602 137.733 172.988 137.733 178.397C137.733 183.807 145.943 188.193 156.072 188.193Z" stroke="url(#paint35_linear_14_828)" stroke-linejoin="round"/>
<mask id="path-90-inside-3_14_828" fill="white">
<path fill-rule="evenodd" clip-rule="evenodd" d="M85.6865 193.045L95.8045 187.99L125.717 205.319L125.717 205.319V212.47L115.6 217.525H115.599L85.6866 200.196V193.045L85.6865 193.045Z"/>
</mask>
<path fill-rule="evenodd" clip-rule="evenodd" d="M85.6865 193.045L95.8045 187.99L125.717 205.319L125.717 205.319V212.47L115.6 217.525H115.599L85.6866 200.196V193.045L85.6865 193.045Z" fill="#CCDBF9"/>
<path d="M95.8045 187.99L96.1213 187.443L95.8267 187.272L95.522 187.424L95.8045 187.99ZM85.6865 193.045L85.404 192.48L84.3538 193.005L85.3702 193.592L85.6865 193.045ZM125.717 205.319L125.401 205.866L125.572 205.965L125.77 205.949L125.717 205.319ZM125.717 205.319H126.349V204.632L125.665 204.689L125.717 205.319ZM125.717 212.47L126 213.035L126.349 212.86V212.47H125.717ZM115.6 217.525V218.157H115.749L115.882 218.091L115.6 217.525ZM115.599 217.525L115.283 218.072L115.43 218.157H115.599V217.525ZM85.6866 200.196H85.0547V200.56L85.3699 200.743L85.6866 200.196ZM85.6866 193.045H86.3186V192.681L86.0029 192.498L85.6866 193.045ZM95.522 187.424L85.404 192.48L85.969 193.611L96.087 188.555L95.522 187.424ZM126.034 204.772L96.1213 187.443L95.4877 188.537L125.401 205.866L126.034 204.772ZM125.665 204.689L125.665 204.689L125.77 205.949L125.77 205.949L125.665 204.689ZM126.349 212.47V205.319H125.086V212.47H126.349ZM115.882 218.091L126 213.035L125.435 211.904L115.317 216.96L115.882 218.091ZM115.599 218.157H115.6V216.893H115.599V218.157ZM85.3699 200.743L115.283 218.072L115.916 216.979L86.0034 199.649L85.3699 200.743ZM85.0547 193.045V200.196H86.3186V193.045H85.0547ZM85.3702 193.592L85.3703 193.593L86.0029 192.498L86.0028 192.498L85.3702 193.592Z" fill="#3364ED" mask="url(#path-90-inside-3_14_828)"/>
<path d="M125.052 205.299L115.61 210.016L86.3523 193.066L95.7934 188.348L125.052 205.299Z" fill="white" stroke="#3364ED" stroke-width="0.631963"/>
<path d="M115.623 209.719V217.229" stroke="#3364ED" stroke-width="0.631963"/>
<mask id="path-94-inside-4_14_828" fill="white">
<path fill-rule="evenodd" clip-rule="evenodd" d="M75.8848 204.737L86.0028 199.681L115.916 217.01L105.798 222.066L115.916 217.01V224.161L105.798 229.217L105.798 229.217V229.217L75.8849 211.887V204.737L75.8848 204.737Z"/>
</mask>
<path fill-rule="evenodd" clip-rule="evenodd" d="M75.8848 204.737L86.0028 199.681L115.916 217.01L105.798 222.066L115.916 217.01V224.161L105.798 229.217L105.798 229.217V229.217L75.8849 211.887V204.737L75.8848 204.737Z" fill="#CCDBF9"/>
<path d="M86.0028 199.681L86.3195 199.134L86.0249 198.963L85.7203 199.116L86.0028 199.681ZM75.8848 204.737L75.6023 204.171L74.552 204.696L75.5685 205.284L75.8848 204.737ZM115.916 217.01L116.198 217.576L117.247 217.052L116.232 216.464L115.916 217.01ZM115.916 217.01H116.548V215.988L115.633 216.445L115.916 217.01ZM115.916 224.161L116.198 224.726L116.548 224.552V224.161H115.916ZM105.798 229.217L105.515 228.651L105.423 228.697L105.351 228.77L105.798 229.217ZM105.798 229.217H105.166V230.742L106.245 229.664L105.798 229.217ZM105.798 229.217H106.43V228.852L106.115 228.67L105.798 229.217ZM75.8849 211.887H75.2529V212.251L75.5681 212.434L75.8849 211.887ZM75.8849 204.737H76.5169V204.372L76.2012 204.19L75.8849 204.737ZM85.7203 199.116L75.6023 204.171L76.1672 205.302L86.2852 200.246L85.7203 199.116ZM116.232 216.464L86.3195 199.134L85.686 200.228L115.599 217.557L116.232 216.464ZM106.08 222.631L116.198 217.576L115.633 216.445L105.515 221.501L106.08 222.631ZM106.08 222.631L116.198 217.576L115.633 216.445L105.515 221.501L106.08 222.631ZM115.284 217.01V224.161H116.548V217.01H115.284ZM115.633 223.596L105.515 228.651L106.08 229.782L116.198 224.726L115.633 223.596ZM105.351 228.77L105.351 228.77L106.245 229.664L106.245 229.663L105.351 228.77ZM106.43 229.217V229.217H105.166V229.217H106.43ZM106.115 228.67L76.2017 211.34L75.5681 212.434L105.481 229.763L106.115 228.67ZM76.5169 211.887V204.737H75.2529V211.887H76.5169ZM75.5685 205.284L75.5686 205.284L76.2012 204.19L76.2011 204.19L75.5685 205.284Z" fill="#3364ED" mask="url(#path-94-inside-4_14_828)"/>
<path d="M115.25 216.99L105.809 221.707L76.5506 204.757L85.9917 200.04L115.25 216.99Z" fill="white" stroke="#3364ED" stroke-width="0.631963"/>
<path d="M105.821 221.41V228.921" stroke="#3364ED" stroke-width="0.631963"/>
<mask id="path-98-inside-5_14_828" fill="white">
<path fill-rule="evenodd" clip-rule="evenodd" d="M66.083 216.365L76.201 211.309L106.114 228.638V235.789L95.9959 240.845V240.845L95.9958 240.845L66.083 223.515V216.365V216.365Z"/>
</mask>
<path fill-rule="evenodd" clip-rule="evenodd" d="M66.083 216.365L76.201 211.309L106.114 228.638V235.789L95.9959 240.845V240.845L95.9958 240.845L66.083 223.515V216.365V216.365Z" fill="#CCDBF9"/>
<path d="M76.201 211.309L76.5178 210.762L76.2231 210.592L75.9185 210.744L76.201 211.309ZM66.083 216.365L65.8005 215.799L65.451 215.974V216.365H66.083ZM106.114 228.638H106.746V228.274L106.431 228.092L106.114 228.638ZM106.114 235.789L106.396 236.354L106.746 236.18V235.789H106.114ZM95.9959 240.845L95.7134 240.279L95.3639 240.454V240.845H95.9959ZM95.9959 240.845L95.549 241.292L96.6278 242.37V240.845H95.9959ZM95.9958 240.845L96.4427 240.398L96.3842 240.339L96.3126 240.298L95.9958 240.845ZM66.083 223.515H65.451V223.88L65.7662 224.062L66.083 223.515ZM75.9185 210.744L65.8005 215.799L66.3655 216.93L76.4835 211.874L75.9185 210.744ZM106.431 228.092L76.5178 210.762L75.8842 211.856L105.797 229.185L106.431 228.092ZM106.746 235.789V228.638H105.482V235.789H106.746ZM96.2784 241.41L106.396 236.354L105.831 235.224L95.7134 240.279L96.2784 241.41ZM96.6278 240.845V240.845H95.3639V240.845H96.6278ZM95.549 241.292L95.549 241.292L96.4427 240.398L96.4427 240.398L95.549 241.292ZM65.7662 224.062L95.6791 241.392L96.3126 240.298L66.3998 222.968L65.7662 224.062ZM65.451 216.365V223.515H66.715V216.365H65.451ZM65.451 216.365V216.365H66.715V216.365H65.451Z" fill="#3364ED" mask="url(#path-98-inside-5_14_828)"/>
<path d="M105.448 228.618L96.007 233.335L66.7488 216.385L76.1899 211.668L105.448 228.618Z" fill="white" stroke="#3364ED" stroke-width="0.631963"/>
<path d="M96.0188 233.038V240.549" stroke="#3364ED" stroke-width="0.631963"/>
<mask id="path-102-inside-6_14_828" fill="white">
<path fill-rule="evenodd" clip-rule="evenodd" d="M56.2812 228.056L66.3992 223L96.3121 240.33L96.312 240.33V247.48L86.1942 252.536V252.536L86.1941 252.536L86.194 252.536V252.536L56.2814 235.207V228.056L56.2812 228.056Z"/>
</mask>
<path fill-rule="evenodd" clip-rule="evenodd" d="M56.2812 228.056L66.3992 223L96.3121 240.33L96.312 240.33V247.48L86.1942 252.536V252.536L86.1941 252.536L86.194 252.536V252.536L56.2814 235.207V228.056L56.2812 228.056Z" fill="#CCDBF9"/>
<path d="M66.3992 223L66.716 222.454L66.4214 222.283L66.1168 222.435L66.3992 223ZM56.2812 228.056L55.9988 227.491L54.9485 228.016L55.965 228.603L56.2812 228.056ZM96.3121 240.33L96.4059 240.955L98.1897 240.687L96.6289 239.783L96.3121 240.33ZM96.312 240.33L96.2182 239.705L95.68 239.786V240.33H96.312ZM96.312 247.48L96.5944 248.046L96.9439 247.871V247.48H96.312ZM86.1942 252.536L85.9118 251.971L85.5623 252.145V252.536H86.1942ZM86.1942 252.536L85.8763 253.082L86.8262 253.635V252.536H86.1942ZM86.1941 252.536L86.512 251.99L86.2151 251.817L85.9086 251.972L86.1941 252.536ZM86.194 252.536H85.562V253.565L86.4795 253.1L86.194 252.536ZM86.194 252.536H86.8259V252.172L86.5108 251.989L86.194 252.536ZM56.2814 235.207H55.6494V235.571L55.9646 235.753L56.2814 235.207ZM56.2814 228.056H56.9133V227.692L56.5977 227.509L56.2814 228.056ZM66.1168 222.435L55.9988 227.491L56.5637 228.621L66.6817 223.566L66.1168 222.435ZM96.6289 239.783L66.716 222.454L66.0824 223.547L95.9953 240.877L96.6289 239.783ZM96.4057 240.955L96.4059 240.955L96.2184 239.705L96.2182 239.705L96.4057 240.955ZM96.9439 247.48V240.33H95.68V247.48H96.9439ZM86.4767 253.101L96.5944 248.046L96.0295 246.915L85.9118 251.971L86.4767 253.101ZM86.8262 252.536V252.536H85.5623V252.536H86.8262ZM85.8762 253.082L85.8763 253.082L86.5122 251.99L86.512 251.99L85.8762 253.082ZM86.4795 253.1L86.4797 253.1L85.9086 251.972L85.9084 251.972L86.4795 253.1ZM85.562 252.536V252.536H86.8259V252.536H85.562ZM55.9646 235.753L85.8772 253.083L86.5108 251.989L56.5982 234.66L55.9646 235.753ZM55.6494 228.056V235.207H56.9133V228.056H55.6494ZM55.965 228.603L55.9651 228.603L56.5977 227.509L56.5975 227.509L55.965 228.603Z" fill="#3364ED" mask="url(#path-102-inside-6_14_828)"/>
<path d="M95.6463 240.309L86.2052 245.027L56.9471 228.077L66.3882 223.359L95.6463 240.309Z" fill="white" stroke="#3364ED" stroke-width="0.631963"/>
<path d="M86.2168 244.73V252.24" stroke="#3364ED" stroke-width="0.631963"/>
<mask id="path-106-inside-7_14_828" fill="white">
<path fill-rule="evenodd" clip-rule="evenodd" d="M29.4055 160.815L39.5235 155.76L69.4364 173.089L69.4362 173.089V180.24L59.3184 185.295V185.295L59.3183 185.295L59.3182 185.295V185.295L29.4055 167.966V160.815Z"/>
</mask>
<path fill-rule="evenodd" clip-rule="evenodd" d="M29.4055 160.815L39.5235 155.76L69.4364 173.089L69.4362 173.089V180.24L59.3184 185.295V185.295L59.3183 185.295L59.3182 185.295V185.295L29.4055 167.966V160.815Z" fill="#CCDBF9"/>
<path d="M39.5235 155.76L39.8403 155.213L39.5456 155.042L39.241 155.194L39.5235 155.76ZM29.4055 160.815L29.123 160.25L28.7736 160.425V160.815H29.4055ZM69.4364 173.089L69.719 173.654L70.7677 173.13L69.7532 172.542L69.4364 173.089ZM69.4362 173.089L69.1536 172.524L68.8043 172.699V173.089H69.4362ZM69.4362 180.24L69.7187 180.805L70.0682 180.63V180.24H69.4362ZM59.3184 185.295L59.0359 184.73L58.6864 184.904V185.295H59.3184ZM59.3184 185.295L59.0064 185.845L59.9504 186.381V185.295H59.3184ZM59.3183 185.295L59.6303 184.746L59.3404 184.581L59.041 184.727L59.3183 185.295ZM59.3182 185.295H58.6863V186.307L59.5956 185.863L59.3182 185.295ZM59.3182 185.295H59.9502V184.931L59.635 184.748L59.3182 185.295ZM29.4055 167.966H28.7736V168.33L29.0887 168.513L29.4055 167.966ZM39.241 155.194L29.123 160.25L29.688 161.381L39.806 156.325L39.241 155.194ZM69.7532 172.542L39.8403 155.213L39.2067 156.306L69.1196 173.636L69.7532 172.542ZM69.7188 173.654L69.719 173.654L69.1538 172.524L69.1536 172.524L69.7188 173.654ZM70.0682 180.24V173.089H68.8043V180.24H70.0682ZM59.6009 185.86L69.7187 180.805L69.1538 179.674L59.0359 184.73L59.6009 185.86ZM59.9504 185.295V185.295H58.6864V185.295H59.9504ZM59.0064 185.845L59.0064 185.845L59.6303 184.746L59.6303 184.746L59.0064 185.845ZM59.5956 185.863L59.5956 185.863L59.041 184.727L59.0409 184.727L59.5956 185.863ZM58.6863 185.295V185.295H59.9502V185.295H58.6863ZM29.0887 168.513L59.0014 185.842L59.635 184.748L29.7223 167.419L29.0887 168.513ZM28.7736 160.815V167.966H30.0375V160.815H28.7736Z" fill="#3364ED" mask="url(#path-106-inside-7_14_828)"/>
<path d="M68.7706 173.068L59.3295 177.786L30.0713 160.836L39.5124 156.118L68.7706 173.068Z" fill="white" stroke="#3364ED" stroke-width="0.631963"/>
<path d="M59.3411 177.489V184.999" stroke="#3364ED" stroke-width="0.631963"/>
<mask id="path-110-inside-8_14_828" fill="white">
<path fill-rule="evenodd" clip-rule="evenodd" d="M19.6035 172.507L29.7215 167.451L59.6344 184.78L59.6345 184.78V191.931L49.5165 196.986V196.987L49.5165 196.986L19.6036 179.657V172.507L19.6035 172.507Z"/>
</mask>
<path fill-rule="evenodd" clip-rule="evenodd" d="M19.6035 172.507L29.7215 167.451L59.6344 184.78L59.6345 184.78V191.931L49.5165 196.986V196.987L49.5165 196.986L19.6036 179.657V172.507L19.6035 172.507Z" fill="#CCDBF9"/>
<path d="M29.7215 167.451L30.0383 166.904L29.7436 166.733L29.439 166.886L29.7215 167.451ZM19.6035 172.507L19.321 171.941L18.2708 172.466L19.2872 173.054L19.6035 172.507ZM59.6344 184.78L59.3176 185.327L59.6792 185.537L60.0136 185.286L59.6344 184.78ZM59.6345 184.78H60.2664V183.516L59.2553 184.275L59.6345 184.78ZM59.6345 191.931L59.9169 192.496L60.2664 192.321V191.931H59.6345ZM49.5165 196.986L49.234 196.421L48.8845 196.596V196.986H49.5165ZM49.5165 196.987L49.0696 197.433L50.1485 198.512V196.987H49.5165ZM49.5165 196.986L49.9633 196.54L49.9049 196.481L49.8333 196.44L49.5165 196.986ZM19.6036 179.657H18.9717V180.021L19.2868 180.204L19.6036 179.657ZM19.6036 172.507H20.2356V172.142L19.9199 171.96L19.6036 172.507ZM29.439 166.886L19.321 171.941L19.886 173.072L30.004 168.016L29.439 166.886ZM59.9512 184.234L30.0383 166.904L29.4047 167.998L59.3176 185.327L59.9512 184.234ZM59.2553 184.275L59.2552 184.275L60.0136 185.286L60.0136 185.286L59.2553 184.275ZM60.2664 191.931V184.78H59.0025V191.931H60.2664ZM49.799 197.552L59.9169 192.496L59.352 191.365L49.234 196.421L49.799 197.552ZM50.1485 196.987V196.986H48.8845V196.987H50.1485ZM49.0696 197.433L49.0696 197.433L49.9634 196.54L49.9633 196.54L49.0696 197.433ZM19.2868 180.204L49.1997 197.533L49.8333 196.44L19.9204 179.11L19.2868 180.204ZM18.9717 172.507V179.657H20.2356V172.507H18.9717ZM19.2872 173.054L19.2873 173.054L19.9199 171.96L19.9198 171.959L19.2872 173.054Z" fill="#3364ED" mask="url(#path-110-inside-8_14_828)"/>
<path d="M58.9686 184.76L49.5275 189.477L20.2693 172.527L29.7104 167.81L58.9686 184.76Z" fill="white" stroke="#3364ED" stroke-width="0.631963"/>
<path d="M49.5394 189.18V196.69" stroke="#3364ED" stroke-width="0.631963"/>
<mask id="path-114-inside-9_14_828" fill="white">
<path fill-rule="evenodd" clip-rule="evenodd" d="M9.80176 184.135L19.9197 179.079L49.8326 196.408V203.559L39.7146 208.615H39.7146L9.80176 191.285V184.135Z"/>
</mask>
<path fill-rule="evenodd" clip-rule="evenodd" d="M9.80176 184.135L19.9197 179.079L49.8326 196.408V203.559L39.7146 208.615H39.7146L9.80176 191.285V184.135Z" fill="#CCDBF9"/>
<path d="M19.9197 179.079L20.2365 178.532L19.9419 178.361L19.6373 178.514L19.9197 179.079ZM9.80176 184.135L9.51928 183.569L9.1698 183.744V184.135H9.80176ZM49.8326 196.408H50.4646V196.044L50.1494 195.862L49.8326 196.408ZM49.8326 203.559L50.1151 204.124L50.4646 203.95V203.559H49.8326ZM39.7146 208.615V209.247H39.8637L39.9971 209.18L39.7146 208.615ZM39.7146 208.615L39.3978 209.161L39.5448 209.247H39.7146V208.615ZM9.80176 191.285H9.1698V191.649L9.48496 191.832L9.80176 191.285ZM19.6373 178.514L9.51928 183.569L10.0842 184.7L20.2022 179.644L19.6373 178.514ZM50.1494 195.862L20.2365 178.532L19.603 179.626L49.5158 196.955L50.1494 195.862ZM50.4646 203.559V196.408H49.2006V203.559H50.4646ZM39.9971 209.18L50.1151 204.124L49.5501 202.994L39.4322 208.049L39.9971 209.18ZM39.7146 209.247H39.7146V207.983H39.7146V209.247ZM9.48496 191.832L39.3978 209.161L40.0314 208.068L10.1186 190.738L9.48496 191.832ZM9.1698 184.135V191.285H10.4337V184.135H9.1698Z" fill="#3364ED" mask="url(#path-114-inside-9_14_828)"/>
<path d="M49.1668 196.388L39.7257 201.105L10.4676 184.155L19.9087 179.438L49.1668 196.388Z" fill="white" stroke="#3364ED" stroke-width="0.631963"/>
<path d="M39.7376 200.808V208.319" stroke="#3364ED" stroke-width="0.631963"/>
<mask id="path-118-inside-10_14_828" fill="white">
<path fill-rule="evenodd" clip-rule="evenodd" d="M0 195.826L10.118 190.77L40.0309 208.1L40.0308 208.1V215.25L29.9129 220.306L29.9128 220.306V220.306L0 202.977V195.826Z"/>
</mask>
<path fill-rule="evenodd" clip-rule="evenodd" d="M0 195.826L10.118 190.77L40.0309 208.1L40.0308 208.1V215.25L29.9129 220.306L29.9128 220.306V220.306L0 202.977V195.826Z" fill="#CCDBF9"/>
<path d="M10.118 190.77L10.4348 190.223L10.1401 190.053L9.83551 190.205L10.118 190.77ZM0 195.826L-0.282475 195.261L-0.631963 195.435V195.826H0ZM40.0309 208.1L40.41 208.605L41.1745 208.032L40.3477 207.553L40.0309 208.1ZM40.0308 208.1L39.6517 207.594L39.3989 207.784V208.1H40.0308ZM40.0308 215.25L40.3133 215.816L40.6628 215.641V215.25H40.0308ZM29.9129 220.306L29.6304 219.741L29.5386 219.787L29.466 219.859L29.9129 220.306ZM29.9128 220.306H29.2809V221.832L30.3597 220.753L29.9128 220.306ZM29.9128 220.306H30.5448V219.942L30.2296 219.759L29.9128 220.306ZM0 202.977H-0.631963V203.341L-0.316793 203.523L0 202.977ZM9.83551 190.205L-0.282475 195.261L0.282475 196.391L10.4005 191.336L9.83551 190.205ZM40.3477 207.553L10.4348 190.223L9.80119 191.317L39.7141 208.647L40.3477 207.553ZM40.41 208.605L40.41 208.605L39.6517 207.594L39.6517 207.594L40.41 208.605ZM39.3989 208.1V215.25H40.6628V208.1H39.3989ZM39.7484 214.685L29.6304 219.741L30.1953 220.871L40.3133 215.816L39.7484 214.685ZM29.466 219.859L29.466 219.859L30.3597 220.753L30.3597 220.753L29.466 219.859ZM30.5448 220.306V220.306H29.2809V220.306H30.5448ZM30.2296 219.759L0.316793 202.43L-0.316793 203.523L29.596 220.853L30.2296 219.759ZM0.631963 202.977V195.826H-0.631963V202.977H0.631963Z" fill="#3364ED" mask="url(#path-118-inside-10_14_828)"/>
<path d="M39.3651 208.079L29.9239 212.797L0.665807 195.847L10.1069 191.129L39.3651 208.079Z" fill="white" stroke="#3364ED" stroke-width="0.631963"/>
<path d="M29.9356 212.5V220.01" stroke="#3364ED" stroke-width="0.631963"/>
<path fill-rule="evenodd" clip-rule="evenodd" d="M134.962 237.356C135.463 236.489 136.573 236.192 137.446 236.693L163.893 251.854C164.769 252.357 165.073 253.472 164.57 254.342L164.544 254.388C164.044 255.255 162.933 255.551 162.06 255.051L135.613 239.889C134.737 239.387 134.433 238.272 134.936 237.401L134.962 237.356Z" fill="url(#paint36_linear_14_828)"/>
<path fill-rule="evenodd" clip-rule="evenodd" d="M163.13 255.419C164.135 255.419 164.949 254.594 164.949 253.576C164.949 252.559 164.135 251.734 163.13 251.734C162.126 251.734 161.311 252.559 161.311 253.576C161.311 254.594 162.126 255.419 163.13 255.419Z" fill="#FF6300"/>
<path fill-rule="evenodd" clip-rule="evenodd" d="M92.9094 119.35C93.4098 118.483 94.5205 118.186 95.3929 118.686L121.84 133.848C122.716 134.35 123.02 135.466 122.517 136.336L122.491 136.382C121.991 137.248 120.88 137.545 120.007 137.045L93.5602 121.883C92.684 121.381 92.3805 120.266 92.8831 119.395L92.9094 119.35Z" fill="url(#paint37_linear_14_828)"/>
<path fill-rule="evenodd" clip-rule="evenodd" d="M121.077 137.412C122.082 137.412 122.896 136.587 122.896 135.57C122.896 134.552 122.082 133.728 121.077 133.728C120.073 133.728 119.258 134.552 119.258 135.57C119.258 136.587 120.073 137.412 121.077 137.412Z" fill="#3DBEFF"/>
<path fill-rule="evenodd" clip-rule="evenodd" d="M228.162 52.7949C235.147 52.7949 240.81 49.9655 240.81 46.4753C240.81 42.9851 235.147 40.1557 228.162 40.1557C221.177 40.1557 215.515 42.9851 215.515 46.4753C215.515 49.9655 221.177 52.7949 228.162 52.7949Z" fill="#3364ED" fill-opacity="0.3"/>
<path fill-rule="evenodd" clip-rule="evenodd" d="M228.162 48.5292C230.956 48.5292 233.221 47.3974 233.221 46.0013C233.221 44.6052 230.956 43.4734 228.162 43.4734C225.368 43.4734 223.103 44.6052 223.103 46.0013C223.103 47.3974 225.368 48.5292 228.162 48.5292Z" fill="#4E83FF" stroke="white" stroke-width="1.24969"/>
<path d="M228.162 0.80496V30.8342" stroke="url(#paint38_linear_14_828)" stroke-width="1.26393" stroke-linecap="round" stroke-linejoin="round" stroke-dasharray="3.79"/>
<path d="M228.162 29.883V45.0558" stroke="#4B84FF" stroke-width="1.24969" stroke-linecap="round" stroke-linejoin="round"/>
<defs>
<linearGradient id="paint0_linear_14_828" x1="266.786" y1="205.533" x2="221.795" y2="268.555" gradientUnits="userSpaceOnUse">
<stop stop-color="#575772"/>
<stop offset="1" stop-color="#323352"/>
</linearGradient>
<linearGradient id="paint1_linear_14_828" x1="194.832" y1="296.712" x2="149.84" y2="233.69" gradientUnits="userSpaceOnUse">
<stop stop-color="#575772"/>
<stop offset="1" stop-color="#323352"/>
</linearGradient>
<linearGradient id="paint2_linear_14_828" x1="299.614" y1="186.309" x2="156.45" y2="186.309" gradientUnits="userSpaceOnUse">
<stop stop-color="#575772"/>
<stop offset="1" stop-color="#323352"/>
</linearGradient>
<linearGradient id="paint3_linear_14_828" x1="299.614" y1="186.309" x2="156.45" y2="186.309" gradientUnits="userSpaceOnUse">
<stop stop-color="#575772"/>
<stop offset="1" stop-color="#323352"/>
</linearGradient>
<linearGradient id="paint4_linear_14_828" x1="246.587" y1="255.671" x2="257.574" y2="194.373" gradientUnits="userSpaceOnUse">
<stop stop-color="#FF9A29"/>
<stop offset="0.487744" stop-color="white"/>
<stop offset="1" stop-color="#3094FF"/>
</linearGradient>
<linearGradient id="paint5_linear_14_828" x1="258.832" y1="198.936" x2="258.832" y2="226.111" gradientUnits="userSpaceOnUse">
<stop stop-color="#56FFF2"/>
<stop offset="1" stop-color="#4B84FF"/>
</linearGradient>
<linearGradient id="paint6_linear_14_828" x1="280.966" y1="183.769" x2="280.966" y2="210.944" gradientUnits="userSpaceOnUse">
<stop stop-color="#56FFF2"/>
<stop offset="1" stop-color="#4B84FF"/>
</linearGradient>
<linearGradient id="paint7_linear_14_828" x1="324.22" y1="157.558" x2="259.232" y2="106.84" gradientUnits="userSpaceOnUse">
<stop stop-color="#3364ED"/>
<stop offset="1" stop-color="#C3E4FF"/>
</linearGradient>
<linearGradient id="paint8_linear_14_828" x1="168.025" y1="250.698" x2="245.344" y2="235.807" gradientUnits="userSpaceOnUse">
<stop stop-color="#3364ED"/>
<stop offset="1" stop-color="#C3E4FF"/>
</linearGradient>
<linearGradient id="paint9_linear_14_828" x1="299.614" y1="147.389" x2="299.614" y2="65.0986" gradientUnits="userSpaceOnUse">
<stop stop-color="#C3E4FF"/>
<stop offset="1" stop-color="#648DFF"/>
</linearGradient>
<linearGradient id="paint10_linear_14_828" x1="262.485" y1="126.064" x2="262.485" y2="80.0348" gradientUnits="userSpaceOnUse">
<stop stop-color="#FF9A29"/>
<stop offset="1" stop-color="#C3E4FF" stop-opacity="0.01"/>
</linearGradient>
<linearGradient id="paint11_linear_14_828" x1="207.82" y1="42.5304" x2="188.226" y2="59.4804" gradientUnits="userSpaceOnUse">
<stop stop-color="#FF924C"/>
<stop offset="1" stop-color="#77D1FF"/>
</linearGradient>
<linearGradient id="paint12_linear_14_828" x1="257.416" y1="29.8176" x2="198.908" y2="29.8176" gradientUnits="userSpaceOnUse">
<stop stop-color="#8AE3FF"/>
<stop offset="1" stop-color="#52C4FF"/>
</linearGradient>
<linearGradient id="paint13_linear_14_828" x1="245.591" y1="45.2214" x2="267.97" y2="59.4774" gradientUnits="userSpaceOnUse">
<stop stop-color="#FEAC78"/>
<stop offset="1" stop-color="#31ACEC"/>
</linearGradient>
<linearGradient id="paint14_linear_14_828" x1="220.918" y1="87.9108" x2="220.918" y2="51.1471" gradientUnits="userSpaceOnUse">
<stop stop-color="white"/>
<stop offset="1" stop-color="#5AC8FF"/>
</linearGradient>
<linearGradient id="paint15_linear_14_828" x1="233.39" y1="94.718" x2="233.39" y2="50.8696" gradientUnits="userSpaceOnUse">
<stop stop-color="white"/>
<stop offset="1" stop-color="#5AC8FF"/>
</linearGradient>
<linearGradient id="paint16_linear_14_828" x1="263.575" y1="63.7551" x2="263.575" y2="22.6187" gradientUnits="userSpaceOnUse">
<stop stop-color="white"/>
<stop offset="1" stop-color="#5AC8FF"/>
</linearGradient>
<linearGradient id="paint17_linear_14_828" x1="147.101" y1="280.613" x2="212.135" y2="100.683" gradientUnits="userSpaceOnUse">
<stop stop-color="#B1C6FF"/>
<stop offset="1" stop-color="#E1EBF4"/>
</linearGradient>
<linearGradient id="paint18_linear_14_828" x1="102.571" y1="273.662" x2="186.806" y2="114.926" gradientUnits="userSpaceOnUse">
<stop stop-color="#B1C6FF"/>
<stop offset="1" stop-color="#E1EBF4"/>
</linearGradient>
<linearGradient id="paint19_linear_14_828" x1="192.825" y1="127.524" x2="152.199" y2="150.98" gradientUnits="userSpaceOnUse">
<stop stop-color="#10B3FF"/>
<stop offset="1" stop-color="#C3E4FF" stop-opacity="0.01"/>
</linearGradient>
<linearGradient id="paint20_linear_14_828" x1="124.314" y1="185.665" x2="124.314" y2="163.688" gradientUnits="userSpaceOnUse">
<stop stop-color="#8AE3FF"/>
<stop offset="1" stop-color="#52C4FF" stop-opacity="0.01"/>
</linearGradient>
<linearGradient id="paint21_linear_14_828" x1="78.768" y1="133.286" x2="78.768" y2="185.665" gradientUnits="userSpaceOnUse">
<stop stop-color="white"/>
<stop offset="1" stop-color="#5AC8FF"/>
</linearGradient>
<linearGradient id="paint22_linear_14_828" x1="103.186" y1="175.38" x2="122.246" y2="178.713" gradientUnits="userSpaceOnUse">
<stop stop-color="#50CEF5"/>
<stop offset="1" stop-color="#40ABE2"/>
</linearGradient>
<linearGradient id="paint23_linear_14_828" x1="103.256" y1="142.073" x2="84.2572" y2="145.315" gradientUnits="userSpaceOnUse">
<stop stop-color="#8AE3FF"/>
<stop offset="1" stop-color="#52C4FF"/>
</linearGradient>
<linearGradient id="paint24_linear_14_828" x1="105.363" y1="133.263" x2="105.363" y2="185.513" gradientUnits="userSpaceOnUse">
<stop stop-color="white"/>
<stop offset="1" stop-color="#5AC8FF"/>
</linearGradient>
<linearGradient id="paint25_linear_14_828" x1="50.0213" y1="134.626" x2="50.0213" y2="151.845" gradientUnits="userSpaceOnUse">
<stop stop-color="#8AE3FF"/>
<stop offset="1" stop-color="#77D1FF"/>
</linearGradient>
<linearGradient id="paint26_linear_14_828" x1="77.6295" y1="121.15" x2="47.3306" y2="121.15" gradientUnits="userSpaceOnUse">
<stop stop-color="#8AE3FF"/>
<stop offset="1" stop-color="#52C4FF"/>
</linearGradient>
<linearGradient id="paint27_linear_14_828" x1="65.0273" y1="125.527" x2="81.2977" y2="128.63" gradientUnits="userSpaceOnUse">
<stop stop-color="#77D1FF"/>
<stop offset="1" stop-color="#31ACEC"/>
</linearGradient>
<linearGradient id="paint28_linear_14_828" x1="46.7815" y1="132.222" x2="46.7815" y2="155.219" gradientUnits="userSpaceOnUse">
<stop stop-color="white"/>
<stop offset="1" stop-color="#5AC8FF"/>
</linearGradient>
<linearGradient id="paint29_linear_14_828" x1="78.1115" y1="132.078" x2="78.1115" y2="154.839" gradientUnits="userSpaceOnUse">
<stop stop-color="white"/>
<stop offset="1" stop-color="#5AC8FF"/>
</linearGradient>
<linearGradient id="paint30_linear_14_828" x1="80.8188" y1="138.766" x2="80.8188" y2="117.413" gradientUnits="userSpaceOnUse">
<stop stop-color="white"/>
<stop offset="1" stop-color="#5AC8FF"/>
</linearGradient>
<linearGradient id="paint31_linear_14_828" x1="174.41" y1="210.312" x2="174.41" y2="190.721" gradientUnits="userSpaceOnUse">
<stop stop-color="#8AE3FF"/>
<stop offset="1" stop-color="#52C4FF" stop-opacity="0.01"/>
</linearGradient>
<linearGradient id="paint32_linear_14_828" x1="169.22" y1="202.887" x2="169.22" y2="179.977" gradientUnits="userSpaceOnUse">
<stop stop-color="#5DCAFF"/>
<stop offset="1" stop-color="white"/>
</linearGradient>
<linearGradient id="paint33_linear_14_828" x1="171.248" y1="171.762" x2="140.895" y2="171.762" gradientUnits="userSpaceOnUse">
<stop stop-color="#8AE3FF"/>
<stop offset="1" stop-color="#52C4FF"/>
</linearGradient>
<linearGradient id="paint34_linear_14_828" x1="137.259" y1="168.128" x2="137.259" y2="210.786" gradientUnits="userSpaceOnUse">
<stop stop-color="white"/>
<stop offset="1" stop-color="#5AC8FF"/>
</linearGradient>
<linearGradient id="paint35_linear_14_828" x1="178.477" y1="192.537" x2="178.477" y2="168.602" gradientUnits="userSpaceOnUse">
<stop stop-color="white"/>
<stop offset="1" stop-color="#5AC8FF"/>
</linearGradient>
<linearGradient id="paint36_linear_14_828" x1="163.395" y1="251.468" x2="132.491" y2="233.625" gradientUnits="userSpaceOnUse">
<stop stop-color="#FFA268"/>
<stop offset="1" stop-color="#E8F4FF" stop-opacity="0.01"/>
</linearGradient>
<linearGradient id="paint37_linear_14_828" x1="121.342" y1="133.462" x2="90.4383" y2="115.619" gradientUnits="userSpaceOnUse">
<stop stop-color="#9DDEFF"/>
<stop offset="1" stop-color="#E8F4FF" stop-opacity="0.01"/>
</linearGradient>
<linearGradient id="paint38_linear_14_828" x1="226.581" y1="0.5" x2="226.581" y2="30.8342" gradientUnits="userSpaceOnUse">
<stop stop-color="#56FFF2"/>
<stop offset="1" stop-color="#4B84FF"/>
</linearGradient>
</defs>
</svg>
