<svg width="716" height="440" viewBox="0 0 716 440" fill="none" xmlns="http://www.w3.org/2000/svg">
<path fill-rule="evenodd" clip-rule="evenodd" d="M146.227 253.293C143.359 267.819 155.208 271.973 161.581 284.26C167.751 296.165 165.955 304.95 177.549 313.792C189.369 322.816 199.014 327.209 220.117 328.951C234.288 330.113 246.363 328.098 260.524 325.734C267.228 324.615 274.4 323.418 282.483 322.443C307.459 319.448 319.988 320.874 345.45 313.878C371.267 306.778 386.101 299.552 410.697 287.217C435.343 274.853 448.387 267.188 468.566 252.116C488.891 236.928 500.395 227.608 511.935 211.578C523.367 195.721 520.834 188.008 526.016 172.429C531.332 156.438 541.812 145.394 538.211 132.647C534.594 119.853 524.206 115.298 508.002 108.57C492.346 102.063 479.024 102.522 458.586 99.5746C452.137 98.6441 446.863 97.4103 441.922 96.2548C431.112 93.7262 421.899 91.5714 405.483 93.7849C381.559 97.0195 365.623 107.469 339.002 115.729C312.492 123.949 296.873 123.815 272.662 134.973C248.315 146.199 237.115 156.256 217.645 171.673C202.326 183.423 188.33 196.804 175.904 211.579C172.986 214.916 170.158 218.01 167.475 220.944C156.84 232.575 148.518 241.677 146.227 253.293Z" fill="#FFD0AF"/>
<path fill-rule="evenodd" clip-rule="evenodd" d="M537.269 52.148C536.337 56.8707 540.189 58.221 542.261 62.2155C544.267 66.0858 543.682 68.9419 547.452 71.8165C551.294 74.7503 554.43 76.1782 561.291 76.7445C565.696 76.9671 570.112 76.6156 574.427 75.6989C576.606 75.3348 578.938 74.9452 581.566 74.6289C589.685 73.6551 593.759 74.1186 602.036 71.8445C609.411 69.7632 616.527 66.8556 623.248 63.1769C629.894 60.0274 636.198 56.2035 642.061 51.7654C648.669 46.828 652.409 43.7978 656.161 38.5867C659.877 33.4316 659.053 30.924 660.738 25.8593C662.467 20.6606 665.874 17.0703 664.703 12.9264C663.527 8.76675 660.15 7.28589 654.882 5.09887C649.792 2.98319 645.461 3.13252 638.817 2.17432C636.72 1.8718 635.006 1.47078 633.399 1.09518C629.552 -0.0080179 625.514 -0.28175 621.553 0.292092C613.775 1.34371 608.595 4.74097 599.94 7.42558C591.322 10.0979 586.244 10.0546 578.373 13.6827C570.458 17.332 566.817 20.6019 560.487 25.6137C555.507 29.4337 550.957 33.7837 546.917 38.587C545.968 39.6719 545.049 40.6778 544.177 41.6316C540.72 45.4129 538.014 48.3713 537.269 52.148Z" fill="#7BB1FC"/>
<path fill-rule="evenodd" clip-rule="evenodd" d="M111.913 94.2255C110.98 98.9481 114.833 100.298 116.904 104.293C118.91 108.163 118.326 111.019 122.096 113.894C125.938 116.828 129.074 118.256 135.934 118.822C140.34 119.045 144.756 118.693 149.07 117.776C151.25 117.412 153.582 117.023 156.209 116.707C164.329 115.733 168.402 116.197 176.681 113.923C184.055 111.841 191.171 108.934 197.893 105.255C204.538 102.105 210.842 98.2815 216.706 93.8436C223.313 88.9062 227.053 85.876 230.805 80.6648C234.521 75.5098 233.697 73.0022 235.382 67.9373C237.111 62.7387 240.518 59.1485 239.347 55.0044C238.171 50.8449 234.794 49.3641 229.526 47.1769C224.437 45.0614 220.105 45.2107 213.461 44.2525C211.365 43.95 209.65 43.5489 208.044 43.1732C204.196 42.0701 200.159 41.7964 196.198 42.3703C188.42 43.4219 183.239 46.8191 174.585 49.5037C165.966 52.1761 160.889 52.1328 153.017 55.7609C145.102 59.4104 141.461 62.68 135.131 67.6921C130.151 71.5121 125.601 75.8621 121.561 80.6654C120.613 81.7503 119.693 82.756 118.821 83.71C115.363 87.4902 112.658 90.4493 111.913 94.2255Z" fill="#FFBED0"/>
<path d="M695.885 153.02C549.342 259.416 582.183 162.48 589.704 197.981C594.954 222.763 526.612 243.742 535.616 236.838" stroke="#3F3C3F" stroke-width="1.31453" stroke-linecap="round" stroke-linejoin="round"/>
<path d="M180.78 294.007C178.376 294.097 176.326 295.777 175.767 298.117C175.493 299.123 175.717 300.2 176.37 301.013C177.023 301.826 178.025 302.277 179.067 302.227C181.471 302.138 183.521 300.457 184.079 298.117C184.353 297.111 184.129 296.035 183.476 295.222C182.824 294.409 181.821 293.957 180.78 294.007Z" fill="#3F3C3F"/>
<path d="M159.498 396.092C157.094 396.181 155.044 397.861 154.485 400.202C154.211 401.208 154.435 402.284 155.088 403.097C155.74 403.91 156.743 404.362 157.785 404.312C160.189 404.222 162.238 402.541 162.797 400.202C163.071 399.196 162.847 398.119 162.194 397.306C161.542 396.493 160.54 396.042 159.498 396.092V396.092Z" fill="#3F3C3F"/>
<path d="M221.761 345.05C219.357 345.139 217.307 346.82 216.748 349.16C216.474 350.166 216.698 351.242 217.351 352.055C218.004 352.868 219.007 353.32 220.048 353.27C222.452 353.18 224.503 351.5 225.062 349.16C225.336 348.153 225.111 347.077 224.458 346.264C223.805 345.451 222.803 344.999 221.761 345.05Z" fill="#3F3C3F"/>
<path d="M121.817 349.16C122.091 348.154 121.866 347.077 121.214 346.264C120.561 345.451 119.558 345 118.517 345.05C116.113 345.139 114.063 346.82 113.504 349.16C113.23 350.166 113.454 351.242 114.107 352.055C114.76 352.868 115.762 353.32 116.804 353.269C119.208 353.18 121.258 351.5 121.817 349.16V349.16Z" fill="#3F3C3F"/>
<path d="M210.976 310.161C209.072 311.456 208.537 314.026 209.764 315.973C211.39 317.588 214.015 317.588 215.642 315.973C217.545 314.678 218.081 312.109 216.854 310.161C215.227 308.546 212.602 308.546 210.976 310.161Z" fill="#3F3C3F"/>
<path d="M122.922 382.346C121.019 383.641 120.483 386.21 121.71 388.158C123.337 389.773 125.962 389.773 127.588 388.158C129.491 386.863 130.027 384.293 128.8 382.346C127.173 380.73 124.548 380.73 122.922 382.346Z" fill="#3F3C3F"/>
<path d="M195.927 382.346C194.024 383.641 193.488 386.21 194.715 388.158C196.342 389.773 198.967 389.773 200.593 388.158C202.496 386.863 203.032 384.293 201.805 382.346C200.178 380.731 197.553 380.731 195.927 382.346Z" fill="#3F3C3F"/>
<path d="M137.971 310.161C136.068 311.456 135.532 314.025 136.759 315.973C138.386 317.588 141.011 317.588 142.637 315.973C144.54 314.678 145.076 312.108 143.849 310.161C142.222 308.545 139.597 308.545 137.971 310.161Z" fill="#3F3C3F"/>
<path d="M202.074 298.584C199.847 297.786 197.367 298.679 196.16 300.714C195.483 301.534 195.206 302.613 195.405 303.658C195.603 304.704 196.256 305.606 197.186 306.122C199.413 306.92 201.893 306.027 203.1 303.992C203.777 303.172 204.054 302.093 203.855 301.047C203.657 300.002 203.004 299.1 202.074 298.584Z" fill="#3F3C3F"/>
<path d="M141.377 392.197C139.151 391.399 136.671 392.292 135.464 394.326C134.787 395.147 134.51 396.226 134.708 397.271C134.907 398.316 135.56 399.219 136.49 399.735C138.717 400.533 141.197 399.64 142.404 397.605C143.081 396.785 143.358 395.705 143.159 394.66C142.961 393.615 142.308 392.712 141.377 392.197V392.197Z" fill="#3F3C3F"/>
<path d="M214.82 365.75C212.593 364.952 210.113 365.845 208.906 367.88C208.229 368.7 207.952 369.779 208.151 370.825C208.349 371.87 209.002 372.772 209.933 373.288C212.159 374.086 214.639 373.193 215.846 371.158C216.523 370.338 216.8 369.259 216.602 368.214C216.403 367.168 215.75 366.266 214.82 365.75V365.75Z" fill="#3F3C3F"/>
<path d="M128.632 325.032C126.406 324.233 123.925 325.126 122.719 327.161C122.042 327.981 121.765 329.061 121.963 330.106C122.161 331.151 122.814 332.054 123.745 332.569C125.972 333.367 128.452 332.474 129.659 330.44C130.336 329.619 130.612 328.54 130.414 327.495C130.216 326.45 129.563 325.547 128.632 325.032Z" fill="#3F3C3F"/>
<path d="M221.939 334.283C224.198 333.535 225.634 331.32 225.395 328.953C225.153 327.924 224.456 327.062 223.5 326.611C222.545 326.159 221.436 326.168 220.488 326.635C218.229 327.382 216.793 329.597 217.032 331.964C217.274 332.993 217.971 333.855 218.927 334.307C219.882 334.758 220.991 334.749 221.939 334.283V334.283Z" fill="#3F3C3F"/>
<path d="M116.625 364.036C114.367 364.784 112.93 366.999 113.169 369.366C113.411 370.395 114.109 371.257 115.064 371.708C116.02 372.16 117.129 372.151 118.077 371.684C120.335 370.937 121.772 368.721 121.533 366.354C121.291 365.326 120.593 364.463 119.638 364.012C118.683 363.561 117.573 363.569 116.625 364.036V364.036Z" fill="#3F3C3F"/>
<path d="M177.569 392.828C175.31 393.576 173.874 395.792 174.113 398.158C174.355 399.187 175.052 400.049 176.008 400.501C176.963 400.952 178.072 400.943 179.02 400.477C181.279 399.729 182.715 397.514 182.476 395.147C182.234 394.118 181.537 393.256 180.581 392.804C179.626 392.353 178.517 392.362 177.569 392.828V392.828Z" fill="#3F3C3F"/>
<path d="M159.544 297.842C157.286 298.59 155.849 300.805 156.088 303.172C156.33 304.201 157.028 305.063 157.983 305.514C158.939 305.966 160.048 305.957 160.996 305.49C163.254 304.743 164.691 302.527 164.452 300.16C164.21 299.132 163.512 298.269 162.557 297.818C161.601 297.367 160.492 297.376 159.544 297.842Z" fill="#3F3C3F"/>
<path d="M368.753 159.324C382.923 134.733 420.373 121.433 440.519 115.858C442.762 115.133 445.218 115.897 446.652 117.768C448.086 119.638 448.187 122.209 446.904 124.186C439.727 137.159 429.232 159.153 427.092 180.068C423.775 212.481 368.753 159.324 368.753 159.324Z" fill="#AC7F8D"/>
<path d="M190.921 409.552H232.805C234.432 409.52 235.887 408.531 236.514 407.029L259.272 352.505L179.709 340.836L175.404 352.56C175.404 352.56 197.802 372.173 187.827 405.211C187.467 406.212 187.62 407.326 188.237 408.192C188.855 409.058 189.858 409.566 190.921 409.552V409.552Z" fill="#AC7F8D"/>
<path d="M363.73 409.552H324.61C323.137 409.587 321.831 408.608 321.454 407.183L307.055 352.505L389.005 340.836L390.911 352.56C390.911 352.56 364.5 372.173 367.713 405.211C367.788 406.322 367.405 407.415 366.652 408.235C365.899 409.056 364.843 409.531 363.73 409.552Z" fill="#AC7F8D"/>
<path d="M458.564 286.383H403.304C399.754 286.466 396.345 284.998 393.966 282.362C391.588 279.726 390.476 276.184 390.923 272.661L394.218 240.464C395.152 232.743 401.631 226.89 409.407 226.743H464.667C468.216 226.66 471.626 228.128 474.004 230.764C476.383 233.4 477.494 236.942 477.047 240.464L473.752 272.661C472.819 280.382 466.339 286.236 458.564 286.383V286.383Z" fill="#AC7F8D"/>
<path d="M143.397 250.058C138.755 254.179 133.153 257.071 127.104 258.467C124.237 259.112 121.297 259.374 118.36 259.247C117.646 259.197 116.937 259.116 116.23 259.046L115.172 258.933C114.821 258.885 114.478 258.801 114.133 258.735L112.073 258.301C111.404 258.106 110.744 257.888 110.085 257.677L109.101 257.353L108.157 256.942C107.533 256.662 106.9 256.4 106.293 256.095C105.101 255.467 103.954 254.755 102.862 253.964L102.053 253.373C101.779 253.184 101.519 252.974 101.276 252.746L99.8017 251.412C99.311 250.968 98.9008 250.444 98.4522 249.963L97.7979 249.224C97.5798 248.979 97.4026 248.699 97.2046 248.436L96.0601 246.836L95.0815 245.127C94.9266 244.838 94.7466 244.566 94.615 244.264L94.2161 243.362C93.9645 242.754 93.6643 242.174 93.4636 241.546L92.8658 239.666L92.7196 239.197L92.6167 238.711L92.4148 237.741C92.1468 236.446 91.97 235.134 91.8858 233.815C91.7469 231.146 91.969 228.471 92.5461 225.863C92.827 224.547 93.1904 223.251 93.6342 221.981C93.8603 221.346 94.1463 220.726 94.4013 220.101L94.796 219.17C94.938 218.863 95.1096 218.567 95.2652 218.266L96.2259 216.478L97.3416 214.776C97.5332 214.497 97.7016 214.205 97.9123 213.939L98.5433 213.14C98.9732 212.617 99.3611 212.065 99.8252 211.573L101.215 210.103L101.562 209.739L101.939 209.402L102.692 208.732C103.691 207.847 104.739 207.019 105.833 206.254C110.095 203.312 115.041 201.511 120.197 201.024C122.616 200.791 125.055 200.894 127.445 201.329C129.736 201.753 131.954 202.508 134.028 203.568C131.846 202.79 129.565 202.324 127.252 202.186C124.913 202.053 122.567 202.237 120.277 202.732C115.658 203.706 111.36 205.83 107.781 208.908C106.909 209.676 106.081 210.493 105.302 211.355L104.723 211.997L104.433 212.316L104.173 212.661L103.139 214.03C102.794 214.484 102.526 214.989 102.217 215.461L101.767 216.178C101.617 216.416 101.509 216.677 101.377 216.924L100.62 218.416L100.013 219.956C99.915 220.213 99.801 220.463 99.7162 220.723L99.4917 221.508C99.349 222.032 99.1734 222.546 99.0535 223.069C98.8252 224.108 98.6638 225.161 98.5703 226.221C98.3691 228.27 98.4526 230.338 98.8183 232.365C99.0098 233.339 99.2711 234.298 99.6 235.234L99.8401 235.929L99.9582 236.275L100.117 236.605L100.738 237.919C100.939 238.358 101.233 238.747 101.469 239.162L101.84 239.776C101.961 239.981 102.128 240.158 102.267 240.35L103.132 241.48L104.113 242.505C104.28 242.671 104.424 242.857 104.607 243.008L105.148 243.462C105.516 243.755 105.841 244.093 106.235 244.351L107.396 245.14C107.583 245.279 107.784 245.4 107.996 245.5L108.615 245.829C109.436 246.267 110.286 246.649 111.159 246.972C111.601 247.122 112.06 247.232 112.503 247.368L113.169 247.567L113.863 247.688L115.238 247.935L116.646 248.037C116.879 248.051 117.108 248.085 117.344 248.085L118.056 248.061L119.466 248.024C121.35 247.868 123.207 247.469 124.989 246.837C128.528 245.568 131.696 243.438 134.208 240.64L143.397 250.058Z" fill="#AC7F8D"/>
<ellipse cx="294.115" cy="252.498" rx="166.616" ry="131.518" transform="rotate(-10.0775 294.115 252.498)" fill="#AC7F8D"/>
<g style="mix-blend-mode:soft-light">
<path d="M248.669 156.99L245.52 143.918C265.108 137.481 285.598 134.208 306.217 134.22C324.788 134.128 343.259 136.948 360.957 142.576L355.447 155.755C339.073 150.551 321.984 147.946 304.803 148.034C285.735 148.019 266.786 151.042 248.669 156.99Z" fill="#383351"/>
<mask id="mask0_102_149" style="mask-type:alpha" maskUnits="userSpaceOnUse" x="245" y="134" width="116" height="23">
<path fill-rule="evenodd" clip-rule="evenodd" d="M248.669 156.99L245.52 143.918C265.108 137.481 285.598 134.208 306.217 134.22C324.788 134.128 343.259 136.948 360.957 142.576L355.447 155.755C339.073 150.551 321.984 147.946 304.803 148.034C285.735 148.019 266.786 151.042 248.669 156.99Z" fill="white"/>
</mask>
<g mask="url(#mask0_102_149)">
<path d="M248.139 162.176L244.989 149.104C264.578 142.668 285.067 139.394 305.686 139.406C324.257 139.314 342.728 142.134 360.426 147.762L354.917 160.941C338.542 155.737 321.454 153.132 304.273 153.22C285.204 153.205 266.256 156.228 248.139 162.176Z" fill="#383351"/>
</g>
</g>
<ellipse cx="425.83" cy="212.481" rx="20.9602" ry="14.6634" transform="rotate(-78.4416 425.83 212.481)" fill="white" stroke="#3F3C3F" stroke-width="1.31453" stroke-linecap="round" stroke-linejoin="round"/>
<ellipse cx="431.575" cy="212.481" rx="11.0343" ry="7.71942" transform="rotate(-78.4416 431.575 212.481)" fill="#F9B472"/>
<mask id="mask1_102_149" style="mask-type:alpha" maskUnits="userSpaceOnUse" x="423" y="201" width="17" height="23">
<ellipse cx="431.575" cy="212.481" rx="11.0343" ry="7.71942" transform="rotate(-78.4416 431.575 212.481)" fill="white"/>
</mask>
<g mask="url(#mask1_102_149)">
<ellipse cx="435.838" cy="208.327" rx="11.0343" ry="7.71942" transform="rotate(-78.4416 435.838 208.327)" fill="#3F3C3F"/>
</g>
<path fill-rule="evenodd" clip-rule="evenodd" d="M295.474 314.955L293.689 332.393H280.33L282.102 315.08C274.893 314.574 267.994 311.956 262.265 307.553C257.189 303.514 253.766 297.758 252.642 291.369L268.522 283.968C269.198 287.838 270.975 291.431 273.64 294.318C276.344 297.106 279.857 298.971 283.681 299.65L286.955 267.659C277.497 265.651 270.567 262.139 266.166 257.121C261.699 251.89 259.717 244.98 260.732 238.177C261.394 230.539 264.886 223.425 270.523 218.23C276.775 212.638 284.661 209.207 293.014 208.444L294.798 191.006H308.158L306.373 208.444C312.705 208.928 318.756 211.263 323.772 215.157C328.23 218.937 331.238 224.147 332.284 229.897L316.542 237.173C314.513 229.897 310.593 225.506 304.781 224.001L301.88 252.353C311.815 254.611 318.931 258.354 323.227 263.582C327.524 268.809 329.245 275.604 328.389 283.968C327.683 291.893 324.053 299.272 318.205 304.667C311.915 310.427 303.952 314.031 295.474 314.955ZM288.828 249.342L291.396 224.251C288.155 225.123 285.212 226.857 282.879 229.27C280.745 231.44 279.411 234.271 279.096 237.299C278.68 239.883 279.317 242.527 280.866 244.638C283.019 246.932 285.781 248.564 288.828 249.342ZM308.237 276.44C309.824 278.796 310.475 281.659 310.063 284.469C309.766 287.898 308.397 291.146 306.151 293.753C303.741 296.452 300.583 298.373 297.078 299.273L299.98 270.92C303.21 271.919 306.08 273.837 308.237 276.44Z" fill="white"/>
<path d="M293.689 332.393V333.05C294.027 333.05 294.309 332.795 294.343 332.46L293.689 332.393ZM295.474 314.955L295.403 314.302C295.094 314.335 294.851 314.58 294.82 314.888L295.474 314.955ZM280.33 332.393L279.676 332.326C279.657 332.511 279.717 332.695 279.842 332.833C279.967 332.971 280.144 333.05 280.33 333.05V332.393ZM282.102 315.08L282.755 315.147C282.773 314.97 282.719 314.793 282.604 314.657C282.49 314.521 282.325 314.437 282.148 314.424L282.102 315.08ZM262.265 307.553L261.856 308.068L261.864 308.074L262.265 307.553ZM252.642 291.369L252.364 290.774C252.094 290.899 251.943 291.19 251.994 291.483L252.642 291.369ZM268.522 283.968L269.17 283.854C269.135 283.653 269.008 283.479 268.826 283.385C268.645 283.29 268.43 283.285 268.245 283.372L268.522 283.968ZM273.64 294.318L273.157 294.764C273.161 294.768 273.165 294.771 273.168 294.775L273.64 294.318ZM283.681 299.65L283.566 300.297C283.746 300.329 283.931 300.284 284.077 300.174C284.223 300.064 284.316 299.898 284.335 299.717L283.681 299.65ZM286.955 267.659L287.608 267.726C287.643 267.392 287.42 267.086 287.091 267.016L286.955 267.659ZM266.166 257.121L265.666 257.547L265.672 257.554L266.166 257.121ZM260.732 238.177L261.382 238.274C261.384 238.261 261.385 238.247 261.386 238.234L260.732 238.177ZM270.523 218.23L270.085 217.74L270.078 217.746L270.523 218.23ZM293.014 208.444L293.073 209.099C293.387 209.07 293.636 208.824 293.668 208.511L293.014 208.444ZM294.798 191.006V190.349C294.461 190.349 294.179 190.604 294.144 190.939L294.798 191.006ZM308.158 191.006L308.811 191.073C308.83 190.888 308.77 190.703 308.645 190.565C308.521 190.427 308.343 190.349 308.158 190.349V191.006ZM306.373 208.444L305.719 208.377C305.701 208.554 305.755 208.73 305.869 208.866C305.983 209.002 306.146 209.086 306.323 209.1L306.373 208.444ZM323.772 215.157L324.197 214.656C324.19 214.65 324.183 214.644 324.175 214.638L323.772 215.157ZM332.284 229.897L332.56 230.494C332.832 230.368 332.984 230.074 332.931 229.78L332.284 229.897ZM316.542 237.173L315.909 237.35C315.961 237.536 316.091 237.689 316.266 237.77C316.441 237.851 316.643 237.851 316.818 237.77L316.542 237.173ZM304.781 224.001L304.946 223.365C304.761 223.317 304.563 223.352 304.406 223.461C304.249 223.571 304.147 223.743 304.127 223.934L304.781 224.001ZM301.88 252.353L301.226 252.286C301.192 252.617 301.41 252.921 301.734 252.994L301.88 252.353ZM328.389 283.968L327.735 283.901L327.734 283.909L328.389 283.968ZM318.205 304.667L318.649 305.152L318.651 305.15L318.205 304.667ZM291.396 224.251L292.049 224.318C292.071 224.103 291.986 223.891 291.822 223.751C291.657 223.611 291.434 223.56 291.225 223.617L291.396 224.251ZM288.828 249.342L288.665 249.979C288.851 250.026 289.047 249.99 289.204 249.881C289.361 249.772 289.462 249.599 289.482 249.409L288.828 249.342ZM282.879 229.27L283.348 229.73L283.352 229.726L282.879 229.27ZM279.096 237.299L279.745 237.403C279.747 237.391 279.749 237.379 279.75 237.367L279.096 237.299ZM280.866 244.638L280.337 245.027C280.352 245.048 280.369 245.068 280.387 245.088L280.866 244.638ZM310.063 284.469L309.413 284.374C309.411 284.387 309.41 284.4 309.409 284.413L310.063 284.469ZM308.237 276.44L308.783 276.073C308.77 276.055 308.757 276.038 308.743 276.021L308.237 276.44ZM306.151 293.753L306.641 294.191L306.649 294.182L306.151 293.753ZM297.078 299.273L296.424 299.206C296.403 299.42 296.487 299.631 296.65 299.771C296.812 299.911 297.034 299.963 297.242 299.91L297.078 299.273ZM299.98 270.92L300.174 270.292C299.986 270.234 299.781 270.263 299.617 270.372C299.453 270.481 299.346 270.657 299.326 270.853L299.98 270.92ZM294.343 332.46L296.128 315.022L294.82 314.888L293.036 332.326L294.343 332.46ZM280.33 333.05H293.689V331.735H280.33V333.05ZM281.448 315.013L279.676 332.326L280.984 332.46L282.755 315.147L281.448 315.013ZM261.864 308.074C267.696 312.556 274.719 315.221 282.056 315.736L282.148 314.424C275.068 313.928 268.292 311.357 262.665 307.032L261.864 308.074ZM251.994 291.483C253.147 298.03 256.654 303.929 261.856 308.068L262.674 307.039C257.724 303.1 254.386 297.486 253.289 291.255L251.994 291.483ZM268.245 283.372L252.364 290.774L252.919 291.965L268.8 284.563L268.245 283.372ZM274.123 293.872C271.544 291.078 269.824 287.6 269.17 283.854L267.875 284.081C268.573 288.075 270.407 291.784 273.157 294.764L274.123 293.872ZM283.796 299.002C280.108 298.348 276.72 296.549 274.112 293.86L273.168 294.775C275.968 297.662 279.606 299.594 283.566 300.297L283.796 299.002ZM286.301 267.592L283.027 299.583L284.335 299.717L287.608 267.726L286.301 267.592ZM265.672 257.554C270.2 262.717 277.282 266.278 286.818 268.302L287.091 267.016C277.712 265.025 270.934 261.56 266.66 256.687L265.672 257.554ZM260.081 238.08C259.038 245.071 261.075 252.172 265.666 257.547L266.666 256.694C262.322 251.608 260.395 244.889 261.382 238.274L260.081 238.08ZM270.078 217.746C264.32 223.053 260.753 230.319 260.077 238.12L261.386 238.234C262.034 230.759 265.452 223.797 270.969 218.713L270.078 217.746ZM292.954 207.79C284.46 208.565 276.442 212.054 270.085 217.74L270.961 218.719C277.108 213.222 284.861 209.849 293.073 209.099L292.954 207.79ZM294.144 190.939L292.36 208.377L293.668 208.511L295.452 191.073L294.144 190.939ZM308.158 190.349H294.798V191.663H308.158V190.349ZM307.027 208.511L308.811 191.073L307.504 190.939L305.719 208.377L307.027 208.511ZM324.175 214.638C319.057 210.665 312.884 208.283 306.423 207.789L306.323 209.1C312.527 209.574 318.454 211.861 323.369 215.676L324.175 214.638ZM332.931 229.78C331.858 223.879 328.771 218.534 324.197 214.656L323.347 215.658C327.689 219.34 330.619 224.414 331.637 230.015L332.931 229.78ZM316.818 237.77L332.56 230.494L332.008 229.301L316.266 236.577L316.818 237.77ZM304.616 224.637C310.141 226.068 313.924 230.232 315.909 237.35L317.175 236.997C315.102 229.563 311.046 224.945 304.946 223.365L304.616 224.637ZM302.533 252.42L305.435 224.068L304.127 223.934L301.226 252.286L302.533 252.42ZM323.735 263.164C319.309 257.78 312.034 253.987 302.025 251.712L301.734 252.994C311.595 255.235 318.552 258.928 322.72 263.999L323.735 263.164ZM329.042 284.034C329.912 275.542 328.169 268.558 323.735 263.164L322.72 263.999C326.879 269.06 328.577 275.667 327.735 283.901L329.042 284.034ZM318.651 305.15C324.619 299.644 328.323 292.114 329.043 284.026L327.734 283.909C327.043 291.672 323.487 298.899 317.76 304.184L318.651 305.15ZM295.545 315.608C304.163 314.669 312.256 311.006 318.649 305.152L317.762 304.182C311.575 309.848 303.742 313.393 295.403 314.302L295.545 315.608ZM290.742 224.184L288.174 249.275L289.482 249.409L292.049 224.318L290.742 224.184ZM283.352 229.726C285.602 227.4 288.441 225.727 291.566 224.886L291.225 223.617C287.87 224.519 284.822 226.315 282.407 228.813L283.352 229.726ZM279.75 237.367C280.05 234.487 281.318 231.795 283.348 229.73L282.41 228.809C280.172 231.086 278.773 234.055 278.442 237.231L279.75 237.367ZM281.396 244.249C279.951 242.28 279.357 239.814 279.745 237.403L278.447 237.194C278.003 239.953 278.683 242.774 280.337 245.027L281.396 244.249ZM288.991 248.705C286.064 247.958 283.412 246.391 281.346 244.188L280.387 245.088C282.625 247.473 285.497 249.169 288.665 249.979L288.991 248.705ZM310.714 284.564C311.149 281.592 310.46 278.565 308.783 276.073L307.692 276.807C309.187 279.028 309.801 281.726 309.413 284.374L310.714 284.564ZM306.649 294.182C308.985 291.47 310.409 288.092 310.718 284.526L309.409 284.413C309.123 287.704 307.809 290.821 305.653 293.324L306.649 294.182ZM297.242 299.91C300.873 298.977 304.144 296.987 306.641 294.191L305.661 293.315C303.337 295.917 300.293 297.769 296.915 298.636L297.242 299.91ZM299.326 270.853L296.424 299.206L297.732 299.34L300.633 270.987L299.326 270.853ZM308.743 276.021C306.504 273.319 303.526 271.329 300.174 270.292L299.785 271.548C302.894 272.509 305.655 274.355 307.731 276.86L308.743 276.021Z" fill="#3F3C3F"/>
<path d="M241.622 192.066L232.046 199.166" stroke="#3F3C3F" stroke-width="1.31453" stroke-linecap="round" stroke-linejoin="round"/>
<path d="M373.936 315.038L350.933 330.977" stroke="#3F3C3F" stroke-width="1.31453" stroke-linecap="round" stroke-linejoin="round"/>
<mask id="mask2_102_149" style="mask-type:alpha" maskUnits="userSpaceOnUse" x="226" y="7" width="188" height="150">
<path fill-rule="evenodd" clip-rule="evenodd" d="M248.395 156.07L226.7 43.5329C246.282 37.0979 295.827 7.22168 316.521 7.22168C335.687 7.22168 396.773 47.6453 413.93 53.1901L355.173 154.835C338.799 149.631 321.71 147.026 304.529 147.114C285.46 147.099 266.512 150.122 248.395 156.07Z" fill="white"/>
</mask>
<g mask="url(#mask2_102_149)">
<ellipse cx="313.45" cy="103.807" rx="58.2242" ry="52.5703" transform="rotate(-42.2436 313.45 103.807)" fill="#F9B472"/>
<ellipse cx="303.217" cy="103.807" rx="58.2242" ry="52.5703" transform="rotate(-42.2436 303.217 103.807)" fill="white" stroke="#3F3C3F" stroke-width="1.31453" stroke-linecap="round" stroke-linejoin="round"/>
<ellipse cx="303.164" cy="104.327" rx="40.904" ry="36.904" transform="rotate(-38.5982 303.164 104.327)" fill="#FFD0AF"/>
<path d="M285.819 66.0434L283.604 67.4202" stroke="#3F3C3F" stroke-width="1.31453" stroke-linecap="round" stroke-linejoin="round"/>
<path d="M331.189 137.012C328.965 139.195 326.412 141.015 323.623 142.405" stroke="#3F3C3F" stroke-width="1.31453" stroke-linecap="round" stroke-linejoin="round"/>
</g>
<path d="M446.904 124.186C439.728 137.159 429.232 159.153 427.092 180.068" stroke="#3F3C3F" stroke-width="1.31453" stroke-linecap="round" stroke-linejoin="round"/>
<path d="M175.404 352.56C175.404 352.56 197.802 372.173 187.827 405.211" stroke="#3F3C3F" stroke-width="1.31453" stroke-linecap="round" stroke-linejoin="round"/>
<path d="M459.208 252.499C451.707 325.804 371.711 385.229 280.532 385.229" stroke="#3F3C3F" stroke-width="1.31453" stroke-linecap="round" stroke-linejoin="round"/>
<path d="M266.165 257.121C261.698 251.89 259.716 244.981 260.731 238.177" stroke="#3F3C3F" stroke-width="1.31453" stroke-linecap="round" stroke-linejoin="round"/>
<path d="M308.865 48.6099C339.491 48.6099 361.789 73.3229 358.67 103.807" stroke="#3F3C3F" stroke-width="1.31453" stroke-linecap="round" stroke-linejoin="round"/>
<path d="M674.207 430.226H365.609C359.68 430.366 353.984 427.914 350.011 423.51C346.037 419.107 344.181 413.19 344.928 407.306L359.66 263.327C361.22 250.43 372.043 240.652 385.033 240.407H693.631C699.56 240.267 705.256 242.719 709.229 247.123C713.203 251.527 715.059 257.443 714.313 263.327L699.58 407.306C698.02 420.203 687.197 429.981 674.207 430.226V430.226Z" fill="#FDFFFE" stroke="#3F3C3F" stroke-width="1.31453" stroke-linecap="round" stroke-linejoin="round"/>
<path d="M424.793 294.414H422.793C418.957 294.304 415.623 297.027 414.962 300.807L406.209 386.355C406.101 388.104 406.759 389.814 408.01 391.04C409.262 392.267 410.984 392.89 412.731 392.748H414.731C418.567 392.857 421.901 390.135 422.562 386.355L431.316 300.807C431.423 299.058 430.766 297.348 429.514 296.121C428.262 294.894 426.54 294.271 424.793 294.414Z" fill="#AC7F8D"/>
<path d="M458.949 335.72H453.526C450.605 335.637 448.066 337.71 447.563 340.589L442.724 387.879C442.642 389.211 443.142 390.513 444.095 391.448C445.049 392.382 446.36 392.856 447.691 392.748H453.113C456.034 392.831 458.574 390.758 459.077 387.879L463.916 340.589C463.998 339.257 463.497 337.955 462.544 337.021C461.591 336.086 460.279 335.612 458.949 335.72V335.72Z" fill="#AC7F8D"/>
<path d="M495.976 329.311H491.151C488.07 329.224 485.392 331.411 484.861 334.447L479.421 387.612C479.335 389.017 479.863 390.391 480.868 391.376C481.873 392.362 483.257 392.862 484.66 392.748H489.485C492.566 392.835 495.244 390.649 495.774 387.612L501.214 334.447C501.301 333.042 500.773 331.668 499.768 330.683C498.762 329.698 497.379 329.197 495.976 329.311Z" fill="#AC7F8D"/>
<path d="M535.917 277.885H535.077C530.931 277.767 527.327 280.709 526.613 284.795L516.274 385.838C515.883 389.654 519.04 392.748 523.323 392.748H524.164C528.309 392.866 531.913 389.923 532.627 385.838L542.966 284.795C543.357 280.978 540.201 277.885 535.917 277.885Z" fill="#AC7F8D"/>
<path d="M571.476 294.414H569.477C565.641 294.304 562.306 297.027 561.646 300.807L552.892 386.355C552.785 388.104 553.442 389.814 554.694 391.04C555.945 392.267 557.668 392.89 559.415 392.748H561.414C565.25 392.857 568.585 390.135 569.245 386.355L577.999 300.807C578.106 299.058 577.449 297.348 576.197 296.121C574.946 294.894 573.223 294.271 571.476 294.414Z" fill="#AC7F8D"/>
<path d="M607.119 310.408H603.901C600.391 310.308 597.339 312.8 596.735 316.259L589.507 386.898C589.408 388.498 590.01 390.063 591.155 391.186C592.3 392.308 593.877 392.878 595.475 392.748H598.694C602.204 392.848 605.255 390.357 605.859 386.898L613.088 316.259C613.186 314.658 612.584 313.093 611.439 311.971C610.294 310.848 608.717 310.278 607.119 310.408Z" fill="#AC7F8D"/>
<path d="M644.817 294.414H642.818C638.982 294.304 635.647 297.027 634.987 300.807L626.233 386.355C626.126 388.104 626.783 389.814 628.035 391.041C629.286 392.267 631.009 392.89 632.756 392.748H634.755C638.591 392.857 641.926 390.135 642.586 386.355L651.34 300.807C651.447 299.058 650.79 297.348 649.538 296.121C648.287 294.894 646.564 294.271 644.817 294.414Z" fill="#AC7F8D"/>
<path d="M460.762 263.875L450.092 272.772" stroke="#3F3C3F" stroke-width="1.31453" stroke-linecap="round" stroke-linejoin="round"/>
<path d="M668.667 354.187L665.634 357.731" stroke="#3F3C3F" stroke-width="1.31453" stroke-linecap="round" stroke-linejoin="round"/>
<path d="M385.032 240.406H693.631" stroke="#3F3C3F" stroke-width="1.31453" stroke-linecap="round" stroke-linejoin="round"/>
<path d="M414.963 300.807L406.209 386.355" stroke="#3F3C3F" stroke-width="1.31453" stroke-linecap="round" stroke-linejoin="round"/>
<path d="M526.613 284.794L516.273 385.838" stroke="#3F3C3F" stroke-width="1.31453" stroke-linecap="round" stroke-linejoin="round"/>
<path d="M596.735 316.259L589.507 386.898" stroke="#3F3C3F" stroke-width="1.31453" stroke-linecap="round" stroke-linejoin="round"/>
<path d="M402.783 80.5658C401.365 80.4524 401.611 91.8614 401.611 91.8614C400.63 80.0472 391.209 74.734 397.876 91.9415C394.667 100.99 395.109 86.1576 390.734 90.6771C393.821 109.265 397.342 141.162 415.054 160.836C424.266 165.4 494.239 143.201 494.985 144.14C494.372 143.804 482.112 118.24 482.613 121.33C475.185 122.196 421.408 136.534 426.877 132.752C389.801 105.746 418.693 88.7914 402.783 80.5658Z" fill="#FDFFFE"/>
<mask id="mask3_102_149" style="mask-type:alpha" maskUnits="userSpaceOnUse" x="390" y="80" width="105" height="82">
<path fill-rule="evenodd" clip-rule="evenodd" d="M402.783 80.5658C401.365 80.4524 401.611 91.8614 401.611 91.8614C400.63 80.0472 391.209 74.734 397.876 91.9415C394.667 100.99 395.109 86.1576 390.734 90.6771C393.821 109.265 397.342 141.162 415.054 160.836C424.266 165.4 494.239 143.201 494.985 144.14C494.372 143.804 482.112 118.24 482.613 121.33C475.185 122.196 421.408 136.534 426.877 132.752C389.801 105.746 418.693 88.7914 402.783 80.5658Z" fill="white"/>
</mask>
<g mask="url(#mask3_102_149)">
<path d="M415.768 142.686C409.297 138.706 399.24 169.912 387.129 171.349C375.018 172.786 427.67 180.575 427.67 180.575L445.49 163.47" fill="#3F3C3F"/>
</g>
<path fill-rule="evenodd" clip-rule="evenodd" d="M402.783 80.5658C401.365 80.4524 401.611 91.8614 401.611 91.8614C400.63 80.0472 391.209 74.734 397.876 91.9415C394.667 100.99 395.109 86.1576 390.734 90.6771C393.821 109.265 397.342 141.162 415.054 160.836C424.266 165.4 494.239 143.201 494.985 144.14C494.372 143.804 482.112 118.24 482.613 121.33C475.185 122.196 421.408 136.534 426.877 132.752C389.801 105.746 418.693 88.7914 402.783 80.5658Z" stroke="#3F3C3F" stroke-width="1.31453" stroke-linecap="round" stroke-linejoin="round"/>
<path d="M449.847 127.337C445.56 171.173 476.367 151.041 494.774 144.107C493.72 140.226 488.636 117.402 488.634 118.969C486.25 119.483 450.128 127.275 449.847 127.337Z" fill="#FDB80B"/>
<path d="M407.595 92.4083C406.13 99.5349 408.999 102.769 411.428 92.2346C412.893 85.1081 410.023 81.8745 407.595 92.4083Z" fill="#49ACDC"/>
<path d="M448.739 90.5533C447.533 96.081 451.731 97.2498 452.422 88.0021C452.263 84.8802 450.336 84.5741 448.739 90.5533Z" fill="#49ACDC"/>
<path d="M445.812 87.1665L472.516 86.9526C471.427 87.6492 469.368 90.1231 471.517 92.0549C464.583 90.6934 435.504 100.604 445.812 87.1665Z" fill="#7BB1FC"/>
<path d="M442.913 90.816C441.743 97.2924 449.884 92.1062 445.558 87.1772C444.873 87.3641 444.243 87.6573 442.913 90.816Z" fill="#49ACDC"/>
<path d="M469.989 89.5946C469.11 92.5007 473.981 93.3909 473.265 87.553C472.359 86.7035 471.416 86.0278 469.989 89.5946Z" fill="#3F3C3F"/>
<path d="M404.825 86.3224L451.958 85.9448C450.304 87.0753 446.26 91.1062 450.196 94.9504C435.223 93.6143 386.741 108.536 404.825 86.3224Z" fill="#5791FA"/>
<mask id="mask4_102_149" style="mask-type:alpha" maskUnits="userSpaceOnUse" x="400" y="85" width="52" height="14">
<path fill-rule="evenodd" clip-rule="evenodd" d="M404.825 86.3224L451.958 85.9448C450.304 87.0753 446.26 91.1062 450.196 94.9504C435.223 93.6143 386.741 108.536 404.825 86.3224Z" fill="white"/>
</mask>
<g mask="url(#mask4_102_149)">
<path d="M440.795 87.177C436.81 86.8141 440.898 96.4698 430.99 98.5285C421.082 100.587 448.724 98.7131 448.724 98.7131L445.848 89.3712" fill="#3F3C3F"/>
</g>
<path d="M359.228 85.4014L411.497 85.6292C408.389 87.7463 405.294 95.2063 408.891 98.9511C368.938 100.647 342.504 114.052 359.228 85.4014Z" fill="#7BB1FC"/>
<mask id="mask5_102_149" style="mask-type:alpha" maskUnits="userSpaceOnUse" x="354" y="85" width="58" height="19">
<path fill-rule="evenodd" clip-rule="evenodd" d="M359.228 85.4014L411.497 85.6292C408.389 87.7463 405.294 95.2063 408.891 98.9511C368.938 100.647 342.504 114.052 359.228 85.4014Z" fill="white"/>
</mask>
<g mask="url(#mask5_102_149)">
<path d="M403.026 90.3212C401.872 89.1644 399.791 98.7848 389.881 101.189C379.971 103.594 406.84 102.609 406.84 102.609" fill="#5791FA"/>
</g>
<path d="M666.188 61.4744C667.417 64.7285 677.711 82.9256 677.711 82.9256C568.978 68.27 588.582 124.885 481.573 123.851L484.474 117.919C484.474 117.919 527.311 124.299 575.393 86.7431C610.556 59.2771 666.188 61.4744 666.188 61.4744Z" fill="#4584C9"/>
<mask id="mask6_102_149" style="mask-type:alpha" maskUnits="userSpaceOnUse" x="481" y="61" width="197" height="63">
<path fill-rule="evenodd" clip-rule="evenodd" d="M666.188 61.4744C667.417 64.7285 677.711 82.9256 677.711 82.9256C568.978 68.27 588.582 124.885 481.573 123.851L484.474 117.919C484.474 117.919 527.311 124.299 575.393 86.7431C610.556 59.2771 666.188 61.4744 666.188 61.4744Z" fill="white"/>
</mask>
<g mask="url(#mask6_102_149)">
<path d="M512.847 112.09C526.959 112.655 530.521 123.852 530.521 123.852L493.694 128.852" fill="#5791FA"/>
</g>
<path d="M488.955 105.999C488.752 111.175 475.15 135.666 475.15 135.666L505.152 135.283C505.152 135.283 505.079 104.803 512.137 97.1441C515.65 93.3318 493.699 109.292 493.699 109.292L488.955 105.999Z" fill="#FDFFFE"/>
<mask id="mask7_102_149" style="mask-type:alpha" maskUnits="userSpaceOnUse" x="475" y="96" width="38" height="40">
<path fill-rule="evenodd" clip-rule="evenodd" d="M488.955 105.999C488.752 111.175 475.15 135.666 475.15 135.666L505.152 135.283C505.152 135.283 505.079 104.803 512.137 97.1441C515.65 93.3318 493.699 109.292 493.699 109.292L488.955 105.999Z" fill="white"/>
</mask>
<g mask="url(#mask7_102_149)">
<path d="M492.149 108.767C496.863 116.366 436.159 124.049 465.011 104.722C468.998 101.27 474.293 99.7303 479.509 100.508C484.726 101.285 489.342 104.302 492.149 108.767V108.767Z" fill="#3F3C3F"/>
</g>
<path fill-rule="evenodd" clip-rule="evenodd" d="M488.955 105.999C488.752 111.175 475.15 135.666 475.15 135.666L505.152 135.283C505.152 135.283 505.079 104.803 512.137 97.1441C515.65 93.3318 493.699 109.292 493.699 109.292L488.955 105.999Z" stroke="#3F3C3F" stroke-width="1.31453" stroke-linecap="round" stroke-linejoin="round"/>
<path d="M510.851 101.303C520.16 91.5348 522.142 77.7652 497.865 75.2051C492.221 76.8304 482.324 87.1785 479.978 97.517C479.234 100.394 479.651 103.448 481.137 106.021C484.531 111.526 490.613 112.272 496.833 110.307" fill="#FDFFFE"/>
<path d="M510.851 101.303C520.16 91.5348 522.142 77.7652 497.865 75.2051C492.221 76.8304 482.324 87.1785 479.978 97.517C479.234 100.394 479.651 103.448 481.137 106.021C484.531 111.526 490.613 112.272 496.833 110.307" stroke="#3F3C3F" stroke-width="1.31453" stroke-linecap="round" stroke-linejoin="round"/>
<path d="M505.318 79.3751C491.489 83.8669 481.589 68.6561 500.37 61.1225C507.035 59.5857 508.932 65.0046 516.214 63.3072C542.018 55.9049 534.995 76.1885 526.66 85.6494C547.062 96.8264 504.625 101.529 523.965 103.635C510.572 107.792 504.499 112.375 505.73 93.8162C499.549 95.0304 492.105 88.1223 505.318 79.3751Z" fill="#FFBED0"/>
<path d="M504.24 101.137C506.837 100.77 509.207 99.459 510.898 97.4539C516.676 90.2573 505.981 83.9241 500.21 95.0927" fill="#FDFFFE"/>
<path d="M504.24 101.137C506.837 100.77 509.207 99.459 510.898 97.4539C516.676 90.2573 505.981 83.9241 500.21 95.0927" stroke="#3F3C3F" stroke-width="1.31453" stroke-linecap="round" stroke-linejoin="round"/>
<path d="M459.017 78.0302C455.628 77.0203 451.078 90.0969 451.078 90.0969C450.738 85.975 445.085 84.4993 438.62 85.8988C438.62 85.8988 444.547 87.6892 439.751 92.3531C434.955 97.0171 429.966 97.7476 429.32 103.285C428.675 108.822 395.855 167.708 413.219 168.42C430.584 169.132 490.163 146.425 490.163 146.425C488.154 144.76 468.359 128.506 467.594 127.795C467.569 127.799 467.57 127.92 467.058 128.077C425.575 140.853 433.734 144.554 436.599 116.124C437.732 104.88 438.207 105.401 448.726 98.7135C456.391 94.9012 458.848 78.7683 459.017 78.0302Z" fill="#FDFFFE"/>
<path fill-rule="evenodd" clip-rule="evenodd" d="M459.017 78.0302C455.628 77.0203 451.078 90.0969 451.078 90.0969C450.738 85.975 445.085 84.4993 438.62 85.8988C438.62 85.8988 444.547 87.6892 439.751 92.3531C434.955 97.0171 429.966 97.7476 429.32 103.285C428.675 108.822 395.855 167.708 413.219 168.42C430.584 169.132 490.163 146.425 490.163 146.425C488.154 144.76 468.359 128.506 467.594 127.795C467.569 127.799 467.57 127.92 467.058 128.077C425.575 140.853 433.734 144.554 436.599 116.124C437.732 104.88 438.207 105.401 448.726 98.7135C456.391 94.9012 458.848 78.7683 459.017 78.0302Z" stroke="#3F3C3F" stroke-width="1.31453" stroke-linecap="round" stroke-linejoin="round"/>
<path d="M406.141 105.652C409.054 99.4989 408.633 87.0381 406.44 82.6738C403.727 83.028 402.766 93.2763 400.655 100.715" fill="#FDFFFE"/>
<path d="M406.141 105.652C409.054 99.4989 408.633 87.0381 406.44 82.6738C403.727 83.028 402.766 93.2763 400.655 100.715" stroke="#3F3C3F" stroke-width="1.31453" stroke-linecap="round" stroke-linejoin="round"/>
<path d="M379.542 303.156C376.419 312.864 377.489 327.018 378.137 334.432C378.209 336.315 377.43 338.13 376.017 339.375C368.009 347.015 345.721 367.589 339.775 362.91C338.711 359.716 353.001 351.733 356.486 342.702C363.612 328.128 367.354 307.11 379.542 303.156Z" fill="#FDFFFE"/>
<mask id="mask8_102_149" style="mask-type:alpha" maskUnits="userSpaceOnUse" x="339" y="303" width="41" height="61">
<path fill-rule="evenodd" clip-rule="evenodd" d="M379.542 303.156C376.419 312.864 377.489 327.018 378.137 334.432C378.209 336.315 377.43 338.13 376.017 339.375C368.009 347.015 345.721 367.589 339.775 362.91C338.711 359.716 353.001 351.733 356.486 342.702C363.612 328.128 367.354 307.11 379.542 303.156Z" fill="white"/>
</mask>
<g mask="url(#mask8_102_149)">
<path d="M355.421 335.215C367.191 331.982 375.61 311.718 375.61 311.718L353.594 321.013" fill="#3F3C3F"/>
</g>
<path fill-rule="evenodd" clip-rule="evenodd" d="M379.542 303.156C376.419 312.864 377.489 327.018 378.137 334.432C378.209 336.315 377.43 338.13 376.017 339.375C368.009 347.015 345.721 367.589 339.775 362.91C338.711 359.716 353.001 351.733 356.486 342.702C363.612 328.128 367.354 307.11 379.542 303.156Z" stroke="#3F3C3F" stroke-width="1.31453" stroke-linecap="round" stroke-linejoin="round"/>
<path d="M356.138 324.668C366.965 325.32 377.141 319.463 382.015 309.773C382.015 309.773 390.018 261.602 383.983 244.452C383.983 244.452 464.547 275.724 483.214 252.441C501.88 229.159 502.09 210.967 502.09 210.967C502.09 210.967 368.486 193.761 353.363 214.589C338.241 235.417 351.997 324.497 356.138 324.668Z" fill="#EA7396"/>
<mask id="mask9_102_149" style="mask-type:alpha" maskUnits="userSpaceOnUse" x="346" y="204" width="157" height="121">
<path fill-rule="evenodd" clip-rule="evenodd" d="M356.138 324.668C366.965 325.32 377.141 319.463 382.015 309.773C382.015 309.773 390.018 261.602 383.983 244.452C383.983 244.452 464.547 275.724 483.214 252.441C501.88 229.159 502.09 210.967 502.09 210.967C502.09 210.967 368.486 193.761 353.363 214.589C338.241 235.417 351.997 324.497 356.138 324.668Z" fill="white"/>
</mask>
<g mask="url(#mask9_102_149)">
<path d="M463.27 258.763C448.861 271.924 395.01 218.84 405.679 199.359C416.348 179.879 421.868 186.715 421.868 186.715L446.62 210.717" fill="#DF4D7F"/>
<path d="M385.523 198.981C384.646 212.223 356.005 235.994 379.165 246.927C402.324 257.86 403.729 225.1 403.729 225.1L394.237 195.06" fill="#DF4D7F"/>
</g>
<path d="M409.56 224.837C403.792 234.255 403.15 247.253 402.597 254.769C402.333 256.877 401.069 258.728 399.201 259.74C388.546 265.931 359.122 281.503 356.703 273.783C395.135 252.131 386.455 230.144 409.56 224.837Z" fill="#FDFFFE"/>
<mask id="mask10_102_149" style="mask-type:alpha" maskUnits="userSpaceOnUse" x="356" y="224" width="54" height="52">
<path fill-rule="evenodd" clip-rule="evenodd" d="M409.56 224.837C403.792 234.255 403.15 247.253 402.597 254.769C402.333 256.877 401.069 258.728 399.201 259.74C388.546 265.931 359.122 281.503 356.703 273.783C395.135 252.131 386.455 230.144 409.56 224.837Z" fill="white"/>
</mask>
<g mask="url(#mask10_102_149)">
<path d="M389.389 236.051C379.489 239.183 406.988 242.455 404.378 248.758C406.514 248.21 413.777 232.107 413.974 231.771" fill="#3F3C3F"/>
</g>
<path fill-rule="evenodd" clip-rule="evenodd" d="M409.56 224.837C403.792 234.255 403.15 247.253 402.597 254.769C402.333 256.877 401.069 258.728 399.201 259.74C388.546 265.931 359.122 281.503 356.703 273.783C395.135 252.131 386.455 230.144 409.56 224.837Z" stroke="#3F3C3F" stroke-width="1.31453" stroke-linecap="round" stroke-linejoin="round"/>
<path d="M375.941 235.073C405.155 254.577 412.038 243.043 427.57 201.818C432.368 282.569 500.845 274.023 530.494 200.343L475.714 199.003V199.003C429.459 91.8586 415.639 151.07 375.941 235.073Z" fill="#EA7396"/>
<mask id="mask11_102_149" style="mask-type:alpha" maskUnits="userSpaceOnUse" x="375" y="141" width="156" height="119">
<path fill-rule="evenodd" clip-rule="evenodd" d="M375.941 235.073C405.155 254.577 412.038 243.043 427.57 201.818C432.368 282.569 500.845 274.023 530.494 200.343L475.714 199.003V199.003C429.459 91.8586 415.639 151.07 375.941 235.073Z" fill="white"/>
</mask>
<g mask="url(#mask11_102_149)">
<path d="M468.134 198.25C454.068 202.652 513.314 232.828 511.943 241.584C510.573 250.341 532.512 210.064 532.512 210.064" fill="#DF4D7F"/>
<path d="M426.572 213.553C426.572 213.553 430.781 219.126 427.57 201.818C424.358 184.509 421.686 193.391 421.343 217.686" fill="#DF4D7F"/>
</g>
<path d="M484.032 122.074C484.74 116.047 509.38 113.37 508.003 108.57C512.415 123.944 490.303 118.915 484.032 122.074Z" fill="white"/>
<path d="M453.619 134.918L459.421 161.36L471.073 159.181C471.135 156.789 464.663 198.653 468.133 198.25C473.4 205.742 510.893 226.051 533.303 216.029C535.708 209.619 553.915 123.077 507.438 114.807C489.634 117.223 466.717 128.866 453.619 134.918Z" fill="#FDB80B"/>
<mask id="mask12_102_149" style="mask-type:alpha" maskUnits="userSpaceOnUse" x="453" y="114" width="86" height="105">
<path fill-rule="evenodd" clip-rule="evenodd" d="M453.619 134.918L459.421 161.359L471.073 159.181C471.135 156.789 464.663 198.653 468.133 198.25C473.4 205.742 510.893 226.051 533.303 216.029C535.708 209.618 553.915 123.077 507.438 114.807C489.634 117.222 466.717 128.865 453.619 134.918Z" fill="white"/>
</mask>
<g mask="url(#mask12_102_149)">
<path d="M450.366 171.603C459.924 164.384 478.983 155.647 490.222 155.418C490.222 155.418 460.457 201.675 496.513 227.142C516.904 241.545 444.703 193.996 444.703 193.996L450.366 171.603Z" fill="#FDB80B"/>
<path d="M501.957 147.601C517.763 156.342 471.119 163.455 466.03 191.808C460.941 220.161 462.471 153.862 462.471 153.862" fill="#FC9905"/>
</g>
<path d="M499.815 119.451C488.611 116.883 456.428 129 450.717 131.421C448.98 130.251 448.315 167.778 460.802 166.257C469.716 163.387 490.454 157.016 492.67 156.269C498.307 154.534 503.732 152.171 508.841 149.223C509.344 146.645 499.767 119.7 499.815 119.451Z" fill="#FDB80B"/>
<path d="M679.298 108.233L672.644 142.241C672.644 142.241 628.779 104.863 562.15 123.098C495.521 141.333 479.902 122.013 479.902 122.013C479.902 122.013 479.671 115.313 485.027 114.93C485.027 114.93 486.892 126.035 538.193 116.817C589.495 107.598 620.28 101.837 679.298 108.233Z" fill="#7BB1FC"/>
<mask id="mask13_102_149" style="mask-type:alpha" maskUnits="userSpaceOnUse" x="479" y="105" width="201" height="38">
<path fill-rule="evenodd" clip-rule="evenodd" d="M679.298 108.233L672.644 142.241C672.644 142.241 628.779 104.863 562.15 123.098C495.521 141.333 479.902 122.013 479.902 122.013C479.902 122.013 479.671 115.313 485.027 114.93C485.027 114.93 486.892 126.035 538.193 116.817C589.495 107.598 620.28 101.837 679.298 108.233Z" fill="white"/>
</mask>
<g mask="url(#mask13_102_149)">
<path d="M501.522 149.024L508.052 147.958C504.155 145.785 478.252 112.214 471.524 118.828L501.522 149.024Z" fill="#7BB1FC"/>
<path d="M570.393 124.523C579.517 119.471 625.981 97.4441 607.821 115.487C589.661 133.53 581.709 134.447 581.709 134.447" fill="#5791FA"/>
</g>
<path d="M509.633 197.446C529.254 193.101 529.087 179.769 529.087 179.769Z" fill="#FC9905"/>
<path d="M467.054 222.964C457.341 239.541 469.545 243.599 469.545 243.599Z" fill="#DF4D7F"/>
<path d="M359.468 240.295C351.044 252.524 358.757 254.112 358.757 254.112Z" fill="#DF4D7F"/>
<ellipse cx="491.321" cy="86.1345" rx="1.6889" ry="1.52485" transform="rotate(-42.2436 491.321 86.1345)" fill="#3F3C3F"/>
<path d="M486.566 85.4565C479.594 85.5868 484.179 91.5978 484.179 91.5978Z" fill="#FDFFFE"/>
<path d="M486.566 85.4565C479.594 85.5868 484.179 91.5978 484.179 91.5978" stroke="#3F3C3F" stroke-width="1.31453" stroke-linecap="round" stroke-linejoin="round"/>
<path d="M491.831 94.6157C491.363 96.1294 489.844 97.0606 488.283 96.7908Z" fill="#FDFFFE"/>
<path d="M491.831 94.6157C491.363 96.1294 489.844 97.0606 488.283 96.7908" stroke="#3F3C3F" stroke-width="1.31453" stroke-linecap="round" stroke-linejoin="round"/>
<path d="M508.261 94.0996L506.021 96.0609Z" fill="#FDFFFE"/>
<path d="M508.261 94.0996L506.021 96.0609" stroke="#3F3C3F" stroke-width="1.31453" stroke-linecap="round" stroke-linejoin="round"/>
<path d="M463.828 165.291L508.699 150.639" stroke="#3F3C3F" stroke-width="1.31453" stroke-linecap="round" stroke-linejoin="round"/>
<path d="M430.179 222.964L425.558 181.985" stroke="#3F3C3F" stroke-width="1.31453" stroke-linecap="round" stroke-linejoin="round"/>
<path d="M347.407 275.884L346.854 240.295" stroke="#3F3C3F" stroke-width="1.31453" stroke-linecap="round" stroke-linejoin="round"/>
<path d="M677.712 82.9255C619.367 75.0615 597.974 87.7186 574.143 100.978" stroke="#3F3C3F" stroke-width="1.31453" stroke-linecap="round" stroke-linejoin="round"/>
<path d="M503.265 66.3486C505.083 69.2672 507.584 71.7 510.551 73.4374" stroke="#3F3C3F" stroke-width="1.31453" stroke-linecap="round" stroke-linejoin="round"/>
<path d="M471.856 217.005C469.439 220.319 468.662 224.554 469.746 228.51" stroke="#3F3C3F" stroke-width="1.31453" stroke-linecap="round" stroke-linejoin="round"/>
<path d="M72.8218 126.551C72.9508 126.869 70.9785 154.845 70.9785 154.845C70.9785 154.845 99.9224 146.841 99.6001 146.475C99.2778 146.108 95.5321 113.876 95.5321 113.876L72.8218 126.551Z" fill="#FDFFFE"/>
<path fill-rule="evenodd" clip-rule="evenodd" d="M72.8218 126.551C72.9508 126.869 70.9785 154.845 70.9785 154.845C70.9785 154.845 99.9224 146.841 99.6001 146.475C99.2778 146.108 95.5321 113.876 95.5321 113.876L72.8218 126.551Z" stroke="#3F3C3F" stroke-width="1.31453" stroke-linecap="round" stroke-linejoin="round"/>
<path d="M96.5537 98.0796C98.0097 102.356 123.012 119.194 108.742 122.573C84.4904 141.539 79.2561 114.111 72.126 109.38L96.5537 98.0796Z" fill="#FDFFFE" stroke="#3F3C3F" stroke-width="1.31453" stroke-linecap="round" stroke-linejoin="round"/>
<path d="M72.2824 129.485C97.9509 117.909 82.3212 115.922 82.7748 105.308C55.7954 114.921 70.9034 117.763 72.2824 129.485Z" fill="#FDB80B"/>
<path d="M87.2417 117.788C71.0161 115.348 68.4559 125.325 84.906 126.704C91.1029 128.334 86.2451 120.855 87.2417 117.788Z" fill="#FDFFFE" stroke="#3F3C3F" stroke-width="1.31453" stroke-linecap="round" stroke-linejoin="round"/>
<path d="M64.978 114.359V114.359C51.0311 95.242 97.95 79.4198 98.3609 98.5321C98.5331 98.4662 65.3454 114.174 64.978 114.359Z" fill="#FFBED0"/>
<path d="M117.202 90.9549L66.838 114.901C52.125 118.392 121.939 83.62 117.202 90.9549Z" fill="#EA7396"/>
<path d="M80.4491 108.443C94.2626 126.781 93.9682 119.637 109.525 112.498C125.3 119.963 102.201 129.964 92.195 130.801C78.4 131.955 73.5505 116.994 80.4491 108.443Z" fill="#FDB80B"/>
<path d="M66.0762 150.907C66.0762 150.907 71.285 130.058 96.7575 136.511L66.0762 150.907Z" fill="#49ACD9"/>
<path d="M81.3359 218.712L39.0272 222.156L76.1971 174.398L43.3101 178.27C36.8844 179.14 40.6075 177.706 36.4541 182.519C20.2812 207.319 -8.18315 231.274 3.91259 240.218C13.3468 247.194 34.3339 243.101 39.7821 242.183C63.6266 238.17 98.4019 235.014 98.563 234.994L81.3359 218.712Z" fill="#FDFFFE"/>
<mask id="mask14_102_149" style="mask-type:alpha" maskUnits="userSpaceOnUse" x="1" y="174" width="98" height="71">
<path fill-rule="evenodd" clip-rule="evenodd" d="M81.3359 218.712L39.0272 222.157L76.1971 174.398L43.3101 178.271C36.8844 179.14 40.6075 177.707 36.4541 182.52C20.2812 207.319 -8.18315 231.274 3.91259 240.219C13.3468 247.195 34.3339 243.101 39.7821 242.184C63.6266 238.17 98.4019 235.014 98.563 234.995L81.3359 218.712Z" fill="white"/>
</mask>
<g mask="url(#mask14_102_149)">
<path d="M10.6879 199.277C2.94466 213.457 46.6074 213.279 46.6074 213.279C33.1796 189.176 38.4372 193.64 17.0145 193.834" fill="#3F3C3F"/>
</g>
<path fill-rule="evenodd" clip-rule="evenodd" d="M81.3359 218.712L39.0272 222.156L76.1971 174.398L43.3101 178.27C36.8844 179.14 40.6075 177.706 36.4541 182.519C20.2812 207.319 -8.18315 231.274 3.91259 240.218C13.3468 247.194 34.3339 243.101 39.7821 242.183C63.6266 238.17 98.4019 235.014 98.563 234.994L81.3359 218.712Z" stroke="#3F3C3F" stroke-width="1.31453" stroke-linecap="round" stroke-linejoin="round"/>
<path d="M19.4668 203.548C19.6833 210.114 46.5879 220.697 54.3455 218.164L77.4856 177.537C32.2755 173.389 45.5852 172.986 19.4668 203.548Z" fill="#49ACD9"/>
<mask id="mask15_102_149" style="mask-type:alpha" maskUnits="userSpaceOnUse" x="19" y="175" width="59" height="44">
<path fill-rule="evenodd" clip-rule="evenodd" d="M19.4668 203.548C19.6833 210.114 46.5879 220.697 54.3455 218.164L77.4856 177.537C32.2755 173.389 45.5852 172.986 19.4668 203.548Z" fill="white"/>
</mask>
<g mask="url(#mask15_102_149)">
<path d="M50.6 181.854C38.1977 186.307 74.9615 206.493 53.9177 228.054C93.7536 187.239 55.0753 180.246 50.6 181.854Z" fill="#2B8ACD"/>
</g>
<path d="M101.197 303.6C40.8891 328.134 52.478 328.716 34.2832 317.152L97.3948 290.857L93.9525 302.323" fill="#FDFFFE"/>
<path d="M101.197 303.6C40.8891 328.134 52.478 328.716 34.2832 317.152L97.3948 290.857L93.9525 302.323" stroke="#3F3C3F" stroke-width="1.31453" stroke-linecap="round" stroke-linejoin="round"/>
<path d="M33.7817 361.427C63.5315 348.908 29.6092 333.777 57.9276 323.954C46.6815 305.279 50.1766 310.743 32.9088 315.924C25.2213 315.949 34.9977 359.207 33.7817 361.427Z" fill="#FFBED0"/>
<path d="M84.6163 367.813C60.7571 420.217 70.9885 410.961 48.5713 411.675L68.2892 363.035L77.4908 371.425" fill="#FDFFFE"/>
<mask id="mask16_102_149" style="mask-type:alpha" maskUnits="userSpaceOnUse" x="48" y="363" width="37" height="49">
<path fill-rule="evenodd" clip-rule="evenodd" d="M84.6163 367.813C60.7571 420.217 70.9885 410.961 48.5713 411.675L68.2892 363.035L77.4908 371.425" fill="white"/>
</mask>
<g mask="url(#mask16_102_149)">
<path d="M49.0039 395.575C59.7541 384.088 75.9822 387.334 75.9822 387.334C67.6991 370.615 61.908 378.61 49.0533 378.937" fill="#3F3C3F"/>
</g>
<path d="M84.6163 367.813C60.7571 420.217 70.9885 410.961 48.5713 411.675L68.2892 363.035L77.4908 371.425" stroke="#3F3C3F" stroke-width="1.31453" stroke-linecap="round" stroke-linejoin="round"/>
<path d="M91.0027 439.966C101.862 415.741 58.7281 426.714 74.0366 400.924L52.5546 398.733L42.8592 415.331C42.3951 416.132 42.3219 417.1 42.6603 417.961C42.9987 418.822 43.7117 419.482 44.5964 419.752L91.0027 439.966Z" fill="#FFBED0"/>
<path d="M65.2777 303.936C65.2777 303.936 64.2612 331.444 67.4073 333.725C67.4073 333.725 167.633 297.749 162.678 270.584C159.862 255.145 117.103 203.131 117.103 203.131L97.1906 211.288L87.146 213.441L118.861 273.46L65.2777 303.936Z" fill="#7BB1FC"/>
<mask id="mask17_102_149" style="mask-type:alpha" maskUnits="userSpaceOnUse" x="65" y="203" width="98" height="131">
<path fill-rule="evenodd" clip-rule="evenodd" d="M65.2777 303.936C65.2777 303.936 64.2612 331.444 67.4073 333.725C67.4073 333.725 167.633 297.749 162.678 270.584C159.862 255.145 117.103 203.131 117.103 203.131L97.1906 211.288L87.146 213.441L118.861 273.46L65.2777 303.936Z" fill="white"/>
</mask>
<g mask="url(#mask17_102_149)">
<path d="M123.019 224.803C132.749 213.285 136.624 273.057 140.084 281.223C143.543 289.389 121.83 334.798 121.83 334.798L54.0225 344.893C54.0225 344.893 83.6256 286.523 91.728 283.752C99.8303 280.98 118.287 236.509 118.287 236.509" fill="#5791FA"/>
</g>
<path d="M43.4648 379.633C60.4636 385.35 81.9336 399.087 86.2833 383.093C95.8122 365.705 125.228 313.488 130.603 299.592C138.513 279.147 123.858 231.199 122.586 200.913C122.057 198.296 123.314 198.543 121.175 198.639C37.8797 199.303 79.2024 265.929 88.8361 293.315C93.8026 290.574 45.4426 373.741 43.4648 379.633Z" fill="#7BB1FC"/>
<mask id="mask18_102_149" style="mask-type:alpha" maskUnits="userSpaceOnUse" x="43" y="198" width="90" height="193">
<path fill-rule="evenodd" clip-rule="evenodd" d="M43.4648 379.633C60.4636 385.35 81.9336 399.087 86.2833 383.093C95.8122 365.705 125.228 313.488 130.603 299.592C138.513 279.147 123.858 231.199 122.586 200.913C122.057 198.296 123.314 198.543 121.175 198.639C37.8797 199.303 79.2024 265.929 88.8361 293.315C93.8026 290.574 45.4426 373.741 43.4648 379.633Z" fill="white"/>
</mask>
<g mask="url(#mask18_102_149)">
<path d="M58.4756 250.911C61.4485 238.281 125.337 207.841 116.575 205.855C107.812 203.869 64.4069 211.362 64.4069 211.362" fill="#5791FA"/>
<path d="M73.2891 284.197C73.2891 284.197 77.4475 270.135 88.8355 293.316C100.224 316.496 88.2501 303.776 79.1366 296.055" fill="#5791FA"/>
</g>
<path d="M212.201 82.1973C212.201 82.1973 213.998 85.0144 201.93 87.1152C208.417 90.8532 192.524 99.6436 191.379 101.563C189.574 106.596 195.105 156.268 186.823 158.488C185.842 161.476 120.357 162.893 108.074 164.14C104.509 168.92 111.371 138.639 110.9 135.847C110.918 135.81 167.127 136.648 167.302 136.624C178.783 99.5483 173.152 88.4031 212.201 82.1973Z" fill="#FDFFFE"/>
<mask id="mask19_102_149" style="mask-type:alpha" maskUnits="userSpaceOnUse" x="107" y="82" width="106" height="83">
<path fill-rule="evenodd" clip-rule="evenodd" d="M212.201 82.1973C212.201 82.1973 213.998 85.0144 201.93 87.1152C208.417 90.8532 192.524 99.6436 191.379 101.563C189.574 106.596 195.105 156.268 186.823 158.488C185.842 161.476 120.357 162.893 108.074 164.14C104.509 168.92 111.371 138.639 110.9 135.847C110.918 135.81 167.127 136.648 167.302 136.624C178.783 99.5483 173.152 88.4031 212.201 82.1973Z" fill="white"/>
</mask>
<g mask="url(#mask19_102_149)">
<path d="M150.547 166.556C138.111 167.568 143.2 136.006 143.2 136.006C121.249 152.435 128.361 155.07 125.453 169.099C125.341 169.131 152.956 169.307 153.177 169.333" fill="#3F3C3F"/>
<path d="M143.721 137.596C148.464 134.964 150.789 150.129 147.628 164.465C144.468 178.801 135.645 163.735 135.645 163.735" fill="#3F3C3F"/>
<path d="M158.267 135.794C158.267 135.794 158.923 135.791 167.303 136.623C175.683 137.456 174.307 132.904 166.747 131.408" fill="#3F3C3F"/>
</g>
<path fill-rule="evenodd" clip-rule="evenodd" d="M212.201 82.1973C212.201 82.1973 213.998 85.0144 201.93 87.1152C208.417 90.8532 192.524 99.6436 191.379 101.563C189.574 106.596 195.105 156.268 186.823 158.488C185.842 161.476 120.357 162.893 108.074 164.14C104.509 168.92 111.371 138.639 110.9 135.847C110.918 135.81 167.127 136.648 167.302 136.624C178.783 99.5483 173.152 88.4031 212.201 82.1973Z" stroke="#3F3C3F" stroke-width="1.31453" stroke-linecap="round" stroke-linejoin="round"/>
<path d="M122.486 203.284C122.032 205.316 69.8233 219.649 69.8233 219.649C69.8233 219.649 69.2004 184.774 39.2578 178.747C39.2578 178.747 58.4274 142.743 100.37 135.75C100.37 135.75 133.315 161.249 122.486 203.284Z" fill="#49ACD9"/>
<mask id="mask20_102_149" style="mask-type:alpha" maskUnits="userSpaceOnUse" x="39" y="135" width="86" height="85">
<path fill-rule="evenodd" clip-rule="evenodd" d="M122.486 203.284C122.032 205.316 69.8233 219.649 69.8233 219.649C69.8233 219.649 69.2004 184.774 39.2578 178.747C39.2578 178.747 58.4274 142.743 100.37 135.75C100.37 135.75 133.315 161.249 122.486 203.284Z" fill="white"/>
</mask>
<g mask="url(#mask20_102_149)">
<path d="M95.332 165.396C83.6999 177.813 158.98 190.826 112.29 211.951C98.1209 218.361 135.629 214.268 135.629 214.268L151.12 172.412L123.977 152.168C123.977 152.168 106.964 152.978 95.332 165.396Z" fill="#2B8ACD"/>
</g>
<path d="M144.402 133.06C151.673 191.714 127.117 165.898 88.5957 164.289C88.5957 164.289 96.4806 137.072 100.37 135.75C104.259 134.428 144.402 133.06 144.402 133.06Z" fill="#49ACD9"/>
<path d="M76.8018 198.291C81.9119 209.52 91.4044 202.7 91.4044 202.7Z" fill="#2B8ACD"/>
<path d="M77.751 354.264C82.8613 365.493 92.3538 358.672 92.3538 358.672Z" fill="#5791FA"/>
<ellipse cx="95.8764" cy="105.039" rx="1.35361" ry="1.22216" transform="rotate(-42.2436 95.8764 105.039)" fill="#3F3C3F"/>
<path d="M100.004 102.721C105.363 100.559 102.294 106.904 102.294 106.904Z" fill="#FDFFFE"/>
<path d="M100.004 102.721C105.363 100.559 102.294 106.904 102.294 106.904" stroke="#3F3C3F" stroke-width="1.31453" stroke-linecap="round" stroke-linejoin="round"/>
<path d="M96.9639 111.696C97.2979 112.185 97.8171 112.517 98.4012 112.614C98.9854 112.711 99.5838 112.565 100.058 112.211" fill="#FDFFFE"/>
<path d="M96.9639 111.696C97.2979 112.185 97.8171 112.517 98.4012 112.614C98.9854 112.711 99.5838 112.565 100.058 112.211" stroke="#3F3C3F" stroke-width="1.31453" stroke-linecap="round" stroke-linejoin="round"/>
<path d="M81.0645 122.003L83.1198 122.778Z" fill="#FDFFFE"/>
<path d="M81.0645 122.003L83.1198 122.778" stroke="#3F3C3F" stroke-width="1.31453" stroke-linecap="round" stroke-linejoin="round"/>
<path d="M126.063 171.32L88.5957 164.289" stroke="#3F3C3F" stroke-width="1.31453" stroke-linecap="round" stroke-linejoin="round"/>
<path d="M68.0933 208.473C65.9224 200.074 61.0352 188.981 50.043 182.717" stroke="#3F3C3F" stroke-width="1.31453" stroke-linecap="round" stroke-linejoin="round"/>
<path d="M132.929 283.243L127.184 236.585" stroke="#3F3C3F" stroke-width="1.31453" stroke-linecap="round" stroke-linejoin="round"/>
<path d="M84.4336 97.3198L82.0752 99.4504" stroke="#3F3C3F" stroke-width="1.31453" stroke-linecap="round" stroke-linejoin="round"/>
<path d="M103.235 233.562C101.063 235.735 100.376 238.844 99.004 241.546C97.6317 244.248 94.6573 246.9 91.9629 246.008" stroke="#3F3C3F" stroke-width="1.31453" stroke-linecap="round" stroke-linejoin="round"/>
<path d="M101.137 185.111C156.66 146.162 176.491 156.724 171.49 209.536C166.489 262.349 249.459 168.607 248.836 226.04C248.212 283.474 288.664 284.794 307.991 268.95C327.318 253.107 335.406 262.349 335.406 262.349" stroke="#3F3C3F" stroke-width="1.31453" stroke-linecap="round" stroke-linejoin="round"/>
</svg>
