<svg width="292" height="252" viewBox="0 0 292 252" fill="none" xmlns="http://www.w3.org/2000/svg">
<path fill-rule="evenodd" clip-rule="evenodd" d="M228.147 0.886689C219.233 2.63969 209.813 10.4267 205.911 19.2697C203.575 24.5607 202.887 33.4217 204.295 40.0617L205.091 43.8117H139.118H73.145L71.073 46.4467C69.013 49.0657 69 49.5987 69 134.513C69 188.326 69.362 220.62 69.979 221.773C71.838 225.246 76.491 225.811 103.399 225.831L129.5 225.849L136.37 229.331C140.149 231.245 144.076 232.812 145.097 232.812C147.369 232.812 149.026 235.404 151.994 243.6C155.805 254.12 159.948 254.306 165.594 244.211L169.215 237.735L179.358 238.524C196.95 239.891 238.208 239.299 251.507 237.489C281.875 233.355 297.071 225.839 290.089 218.407C288.831 217.068 286.449 215.412 284.794 214.727L281.785 213.48L284.643 212.025C288.715 209.95 292 206.735 292 204.825C292 203.139 287.9 198.82 284.687 197.121C283.079 196.271 283.326 195.862 286.857 193.525C289.048 192.075 291.139 189.95 291.503 188.802C292.383 186.029 289.938 182.443 286.077 180.844C284.385 180.143 283.003 179.286 283.008 178.941C283.012 178.595 284.806 177.29 286.994 176.04C293.738 172.189 293.232 167.052 285.726 163.17L282.947 161.733L287.219 158.475C289.569 156.683 291.645 154.418 291.833 153.44C292.23 151.38 289.73 148.284 285.63 145.757L282.76 143.988L285.87 142.379C287.581 141.494 289.724 139.636 290.632 138.25C292.838 134.883 291.26 131.38 286.518 129.119C284.583 128.196 283 127.13 283 126.748C283 126.367 284.385 125.481 286.077 124.78C289.938 123.181 292.383 119.595 291.503 116.822C291.139 115.674 289.048 113.549 286.857 112.099C283.326 109.762 283.079 109.353 284.687 108.503C287.975 106.764 292 102.468 292 100.698C292 97.9147 285.396 93.2357 278.171 90.8997C270.436 88.3987 253.125 85.3047 241.25 84.3007L233 83.6037V73.8247C233 63.1127 233.162 62.8617 240.09 62.8257C244.062 62.8047 254.498 57.1477 258.069 53.0807C268.658 41.0207 268.835 23.2247 258.488 10.9687C254.609 6.37369 249.062 3.06269 242.289 1.29869C236.018 -0.334309 234.573 -0.376311 228.147 0.886689ZM247.52 4.16869C253.785 7.08569 261.285 15.2667 263.408 21.4957C267.293 32.8987 264.619 44.3377 256.064 52.9017C248.949 60.0237 242.91 62.2637 232.621 61.5957C220.995 60.8417 212.932 55.4827 207.829 45.1157C203.569 36.4637 203.341 28.0497 207.142 19.8117C210.728 12.0407 214.169 8.38269 221.2 4.86969C229.281 0.83169 239.755 0.552694 247.52 4.16869ZM223.373 16.4607C221.323 21.3677 221.987 29.2437 224.678 31.9337C228.471 35.7267 232.012 31.4047 231.985 23.0147C231.967 17.2027 230.16 13.4137 227.204 12.9897C225.42 12.7337 224.632 13.4477 223.373 16.4607ZM239.557 15.0347C237.657 17.7457 237.496 27.2577 239.29 30.8027C242.362 36.8757 247.429 32.2127 247.429 23.3117C247.429 17.8207 245.093 12.8117 242.534 12.8117C241.753 12.8117 240.413 13.8117 239.557 15.0347ZM169.03 14.4137C168.975 16.4267 173.499 22.2317 176.922 24.5377L180.296 26.8117H126.514C88.591 26.8117 71.59 27.1537 68.858 27.9727C61.014 30.3227 54.045 38.5567 52.451 47.3587C51.501 52.6027 52.912 51.1657 54.138 45.6397C55.512 39.4467 59.229 34.3487 64.728 31.1167L69.5 28.3117L124.946 28.0287L180.393 27.7467L176.97 30.0527C173.533 32.3697 168.997 38.1527 169.004 40.2097C169.006 40.8157 169.846 39.9617 170.871 38.3117C174.481 32.4987 181.473 27.9637 187.218 27.7117C188.69 27.6467 188.157 27.2947 185.718 26.7197C178.88 25.1097 173.32 21.0317 170.164 15.3117C169.557 14.2117 169.047 13.8077 169.03 14.4137ZM213.811 38.4887C212.321 38.8827 212.294 39.1327 213.579 40.6227C214.379 41.5517 216.447 44.0257 218.173 46.1207C222.498 51.3707 227.678 53.8117 234.492 53.8117C243.56 53.8117 248.678 51.0147 254.164 43.0617C256.4 39.8207 256.728 38.8117 255.548 38.8117C254.697 38.8117 254 39.4707 254 40.2767C254 42.5467 248.111 48.7147 243.885 50.8707C238.731 53.4997 230.886 53.4187 225.226 50.6787C220.469 48.3767 214.774 41.5637 215.665 39.2417C215.967 38.4557 216.053 37.8637 215.857 37.9277C215.661 37.9917 214.74 38.2437 213.811 38.4887ZM207.982 48.2827C212.518 55.6227 223.501 62.8117 230.178 62.8117C231.779 62.8117 232 63.7227 232 70.3117V77.8117H150.928H69.856L70.178 62.7287C70.468 49.1647 70.695 47.5037 72.441 46.2287C74.07 45.0397 84.97 44.8117 140.11 44.8117H205.837L207.982 48.2827ZM30 68.8117C30 78.4337 29.68 81.8117 28.77 81.8117C28.093 81.8117 23.607 77.8977 18.801 73.1137C13.995 68.3297 9.734 64.7437 9.333 65.1447C8.932 65.5457 12.518 69.8067 17.302 74.6127C22.086 79.4187 26 83.9047 26 84.5817C26 85.4917 22.622 85.8117 13 85.8117C5 85.8117 0 86.1967 0 86.8117C0 87.4267 5 87.8117 13 87.8117C22.622 87.8117 26 88.1317 26 89.0417C26 89.7187 22.086 94.2047 17.302 99.0107C12.518 103.817 8.932 108.078 9.333 108.479C9.734 108.88 13.995 105.294 18.801 100.51C23.607 95.7257 28.093 91.8117 28.77 91.8117C29.68 91.8117 30 95.1897 30 104.812C30 112.812 30.385 117.812 31 117.812C31.615 117.812 32 112.812 32 104.812C32 95.1897 32.32 91.8117 33.23 91.8117C33.907 91.8117 38.393 95.7257 43.199 100.51C48.005 105.294 52.266 108.88 52.667 108.479C53.068 108.078 49.482 103.817 44.698 99.0107C39.914 94.2047 36 89.7187 36 89.0417C36 88.1317 39.378 87.8117 49 87.8117C57 87.8117 62 87.4267 62 86.8117C62 86.1967 57 85.8117 49 85.8117C39.378 85.8117 36 85.4917 36 84.5817C36 83.9047 39.914 79.4187 44.698 74.6127C49.482 69.8067 53.068 65.5457 52.667 65.1447C52.266 64.7437 48.005 68.3297 43.199 73.1137C38.393 77.8977 33.907 81.8117 33.23 81.8117C32.32 81.8117 32 78.4337 32 68.8117C32 60.8117 31.615 55.8117 31 55.8117C30.385 55.8117 30 60.8117 30 68.8117ZM85.557 58.0347C83.551 60.8977 83.596 62.0907 85.81 64.8257C89.358 69.2067 96 66.8377 96 61.1917C96 56.0057 88.554 53.7547 85.557 58.0347ZM104.655 57.6407C102.484 60.0397 102.555 63.0987 104.829 65.1567C108.592 68.5627 115 66.0307 115 61.1377C115 56.4597 107.897 54.0587 104.655 57.6407ZM122.8 58.3517C122.014 60.0767 121.948 61.7617 122.595 63.6017C123.413 65.9277 124.106 66.3117 127.486 66.3117C130.699 66.3117 131.695 65.8267 132.902 63.6767C134.229 61.3137 134.205 60.7727 132.667 58.4267C130.25 54.7367 124.467 54.6927 122.8 58.3517ZM93.8 58.0117C94.46 58.6717 95 60.1567 95 61.3117C95 62.4667 94.46 63.9517 93.8 64.6117C93.14 65.2717 91.655 65.8117 90.5 65.8117C89.345 65.8117 87.86 65.2717 87.2 64.6117C86.54 63.9517 86 62.4667 86 61.3117C86 60.1567 86.54 58.6717 87.2 58.0117C87.86 57.3517 89.345 56.8117 90.5 56.8117C91.655 56.8117 93.14 57.3517 93.8 58.0117ZM113.068 58.9377C113.894 60.4817 113.909 61.7157 113.124 63.4377C111.605 66.7717 106.395 66.7717 104.876 63.4377C103.29 59.9567 105.247 56.8117 109 56.8117C110.964 56.8117 112.305 57.5127 113.068 58.9377ZM130.8 58.0117C131.46 58.6717 132 60.1567 132 61.3117C132 62.4667 131.46 63.9517 130.8 64.6117C130.14 65.2717 128.655 65.8117 127.5 65.8117C126.345 65.8117 124.86 65.2717 124.2 64.6117C123.54 63.9517 123 62.4667 123 61.3117C123 60.1567 123.54 58.6717 124.2 58.0117C124.86 57.3517 126.345 56.8117 127.5 56.8117C128.655 56.8117 130.14 57.3517 130.8 58.0117ZM232 149.089C232 211.078 231.816 219.629 230.443 221.589C228.901 223.791 228.637 223.812 202.693 223.794L176.5 223.776L190.19 216.271C198.727 211.591 204.116 208.022 204.507 206.789C205.354 204.123 204.301 201.149 202.212 200.306C200.226 199.505 157.384 183.684 148.5 180.471L142.5 178.301L141.475 172.306L140.449 166.312L135.221 165.421C132.153 164.898 128.238 164.899 125.746 165.425L121.5 166.32L120.716 173.316C120.285 177.164 120.06 181.662 120.216 183.312C120.486 186.165 120.762 186.336 125.868 186.812L131.236 187.312L137.618 204.652C141.128 214.189 144 222.402 144 222.902C144 223.431 129.177 223.812 108.557 223.812H73.113L71.557 221.589C70.184 219.629 70 211.078 70 149.089V78.8117H151H232V149.089ZM248.49 86.3297C270.711 88.9287 287.413 93.9767 290.041 98.8877C291.508 101.629 289.745 104.391 284.975 106.825L281.017 108.844L273.38 106.844C266.312 104.992 252.645 102.802 238.75 101.293L233 100.668V92.7397C233 87.0437 233.354 84.8117 234.256 84.8117C234.947 84.8117 241.352 85.4947 248.49 86.3297ZM196.5 97.4307C181.659 106.371 163.913 122.863 151.762 139.007C145.907 146.787 136 162.481 136 163.977C136 164.436 136.81 164.812 137.8 164.812C140.283 164.812 142 166.76 142 169.578C142 171.497 143.099 170.56 147.823 164.615C161.241 147.73 179.763 135.157 198.142 130.456L203.5 129.086L203.773 111.449C203.923 101.749 203.698 93.8127 203.273 93.8147C202.848 93.8157 199.8 95.4427 196.5 97.4307ZM245.5 103.346C253.745 103.999 272.33 107.25 276.272 108.728C278.216 109.458 277.82 109.767 273.163 111.16C267.535 112.843 252.41 115.246 240.25 116.389L233 117.07V109.422C233 102.018 233.072 101.789 235.25 102.243C236.488 102.501 241.1 102.997 245.5 103.346ZM286.008 113.062C291.189 116.59 291.84 118.289 289.118 121.187C284.782 125.802 281.948 126.292 272.748 124.018C263.558 121.747 253.489 120.093 241.5 118.884C237.1 118.441 234.921 118.018 236.658 117.945C243.559 117.654 263.893 114.619 270.5 112.894C279.99 110.415 282.156 110.439 286.008 113.062ZM252.216 121.372C266.046 123.283 277 125.688 277 126.812C277 128.591 247.652 133.745 237.25 133.792L233 133.812V126.812V119.812H236.966C239.147 119.812 246.009 120.514 252.216 121.372ZM50.7 124.153C50.417 124.89 50.587 126.128 51.077 126.903C51.568 127.678 51.976 149.053 51.985 174.403C52.001 224.198 52.191 226.262 57.367 233.049C58.81 234.941 62.192 237.687 64.881 239.151L69.771 241.812H99.826C118.785 241.812 130.11 242.181 130.5 242.812C131.328 244.151 134.712 244.087 135.559 242.716C135.932 242.113 135.531 240.914 134.669 240.052C133.426 238.81 132.799 238.734 131.648 239.689C130.566 240.587 122.279 240.82 99.182 240.603L68.168 240.312L63.849 237.275C58.358 233.414 55.434 229.061 54.075 222.726C52.546 215.596 52.598 128.614 54.133 127.079C55.548 125.664 54.549 122.812 52.638 122.812C51.855 122.812 50.982 123.415 50.7 124.153ZM285.686 129.762C289.298 131.964 291.255 134.984 290.443 137.101C290.14 137.89 287.859 139.653 285.375 141.019L280.857 143.504L274.288 141.682C268.244 140.006 257.491 138.151 241 135.939C235.493 135.2 235.144 135.047 238.716 134.939C245.662 134.729 264.052 131.927 271.517 129.941C280.734 127.489 281.933 127.474 285.686 129.762ZM245.789 137.87C256.35 139.02 274.532 142.451 276.802 143.721C279.418 145.185 258.873 149.171 238.25 151.201L233 151.718V144.265C233 138.222 233.291 136.812 234.539 136.812C235.386 136.812 240.449 137.288 245.789 137.87ZM98 153.843C98 162.596 98.341 165.98 99.25 166.261C99.938 166.474 103.118 167.431 106.319 168.388C109.519 169.346 113.907 171.411 116.069 172.977L120 175.825V171.441C120 166.952 121.069 165.299 124.38 164.67C129.721 163.653 105.508 141.812 99.04 141.812C98.378 141.812 98 146.182 98 153.843ZM285.006 146.815C292.342 150.558 292.365 155.055 285.069 158.777L281.204 160.749L271.533 158.295C266.214 156.946 256.83 155.309 250.681 154.659C239.316 153.456 234.17 151.812 241.77 151.812C247.899 151.812 265.812 148.994 273.135 146.878C281.354 144.503 280.483 144.508 285.006 146.815ZM251 155.878C263.809 157.337 278.763 160.805 276.853 161.875C273.499 163.751 242.633 168.812 234.539 168.812C233.291 168.812 233 167.399 233 161.331V153.85L237.25 154.323C239.587 154.583 245.775 155.283 251 155.878ZM288.478 166.606C291.721 169.426 291.653 170.399 287.973 173.837C284.454 177.125 280.364 178.281 276.907 176.967C272.335 175.228 257.526 172.563 246 171.404L234.5 170.247L248.617 168.509C256.382 167.553 266.732 165.756 271.617 164.517C281.29 162.062 283.578 162.345 288.478 166.606ZM134 166.862C134 167.439 133.252 169.351 132.339 171.112C131.182 173.34 130.533 173.856 130.202 172.812C129.94 171.987 129.101 170.074 128.337 168.562C126.952 165.819 126.958 165.812 130.474 165.812C132.413 165.812 134 166.284 134 166.862ZM252 173.256C264.367 174.91 277 177.666 277 178.709C277 180.415 246.737 185.74 236.75 185.792L233 185.812V178.812V171.812L237.25 171.832C239.587 171.842 246.225 172.483 252 173.256ZM141 176.371C141 177.228 140.543 177.647 139.984 177.302C139.425 176.956 139.226 176.255 139.543 175.743C140.4 174.356 141 174.614 141 176.371ZM137.482 176.783C137.812 177.316 137.377 179.116 136.515 180.783C135.412 182.917 134.217 183.812 132.474 183.812C131.113 183.812 130 184.288 130 184.869C130 185.495 128.265 185.801 125.75 185.619C121.562 185.316 121.496 185.254 121.231 181.312L120.962 177.312L123.967 180.562C127.653 184.549 129.75 184.758 129.75 181.14C129.75 177.172 135.663 173.84 137.482 176.783ZM286.008 182.062C291.189 185.59 291.84 187.289 289.118 190.187C284.715 194.873 281.882 195.342 272.195 192.986C263.928 190.976 243.558 187.942 236.699 187.699C234.939 187.637 238.704 187.019 245.064 186.327C256.268 185.108 269.343 182.776 275.5 180.899C280.32 179.429 282.496 179.67 286.008 182.062ZM260.69 191.86C266.845 192.904 273.337 194.352 275.118 195.078L278.354 196.399L271.144 198.139C264.444 199.757 248.863 202.081 237.75 203.122L233 203.566V196.06V188.554L241.25 189.258C245.788 189.646 254.536 190.816 260.69 191.86ZM285.006 198.815C289.321 201.016 291.327 203.797 290.379 206.266C290.042 207.145 287.801 209.017 285.399 210.424C281.122 212.93 280.933 212.951 276.266 211.412C270.75 209.594 249.517 205.845 244.151 205.742C242.143 205.703 239.6 205.285 238.5 204.812C236.963 204.151 237.511 203.936 240.872 203.882C247.21 203.78 264.38 201.063 272.5 198.877C281.405 196.48 280.438 196.484 285.006 198.815ZM247.01 207.274C259.759 208.765 271.517 210.937 276 212.628C278.426 213.544 278.381 213.604 274.5 214.647C265.609 217.038 257.118 218.391 238.75 220.344L233 220.956V213.384C233 209.219 233.34 205.812 233.756 205.812C234.172 205.812 240.136 206.47 247.01 207.274ZM286.651 216.946C298.425 224.069 283.687 231.902 250 236.425C236.023 238.302 196.242 238.896 179.805 237.473L170.109 236.634L172.734 231.281L175.359 225.929L202.077 225.62C224.878 225.357 229.065 225.077 230.647 223.705C231.905 222.614 236.351 221.705 244.5 220.872C258.368 219.454 270.173 217.37 275.662 215.37C279.91 213.823 281.978 214.119 286.651 216.946ZM146.44 228.43C146.802 229.87 146.88 231.266 146.613 231.532C145.922 232.223 136.659 229.024 134.399 227.313C132.686 226.016 133.149 225.872 139.142 225.844C145.483 225.813 145.813 225.93 146.44 228.43Z" fill="black"/>
</svg>
