<svg width="574" height="347" viewBox="0 0 574 347" fill="none" xmlns="http://www.w3.org/2000/svg">
<path fill-rule="evenodd" clip-rule="evenodd" d="M124.959 3.914C123.869 7.219 122.948 8.104 119.053 9.591L114.438 11.354L119.047 13.245C122.892 14.823 123.871 15.789 124.954 19.068C125.667 21.231 126.557 23 126.931 23C127.305 23 128.185 21.262 128.886 19.138C129.94 15.942 130.961 14.94 134.796 13.335L139.431 11.394L134.813 9.612C130.921 8.109 129.992 7.214 128.903 3.914C128.192 1.762 127.305 0 126.931 0C126.557 0 125.67 1.762 124.959 3.914ZM274.366 24.479C264.961 26.526 255.278 31.742 247.769 38.808C235.567 50.289 230.107 61.832 229.232 78C227.839 103.749 242.105 125.812 266.431 135.526C275.559 139.171 291.017 140.102 300.943 137.606C317.513 133.438 331.458 122.115 338.76 106.899C343.815 96.366 345.386 88.441 344.652 77.181C343.646 61.74 337.966 49.989 326.105 38.808C312.151 25.654 293.147 20.391 274.366 24.479ZM299.132 26.097C318.444 30.095 336.247 47.125 341.452 66.581C346.488 85.408 340.615 107.316 326.839 121.092C308.374 139.557 278.668 142.971 257.201 129.096C239.861 117.889 230.793 101.362 230.812 81C230.822 69.727 233.022 61.629 238.655 52.133C245.749 40.173 259.861 29.667 273.158 26.447C279.811 24.836 292.229 24.668 299.132 26.097ZM423.161 45.05C421.5 48.853 420.492 49.825 417.022 50.97C412.457 52.476 412.639 53.187 418.03 54.907C420.958 55.841 421.877 56.805 422.957 60.078C423.687 62.29 424.588 64.288 424.958 64.517C425.329 64.746 426.24 63.094 426.982 60.846C428.103 57.45 429.102 56.418 432.881 54.755L437.431 52.752L434.431 51.421C432.781 50.689 430.857 50.07 430.156 50.045C429.455 50.02 428.436 48.763 427.89 47.25C425.338 40.167 425.302 40.151 423.161 45.05ZM268.624 47.787C263.038 53.959 261.626 69.608 265.866 78.365C269.854 86.603 274.951 86.802 278.993 78.878C284.873 67.353 280.686 46 272.547 46C271.279 46 269.513 46.804 268.624 47.787ZM296.931 48.231C287.626 58.218 293.258 89.444 303.387 84.024C310.121 80.42 312.72 63.928 308.27 53.037C305.332 45.848 300.901 43.969 296.931 48.231ZM248.931 93.795C245.709 94.278 243.843 95.986 246.481 96.039C247.811 96.065 249.202 97.661 250.857 101.06C255.851 111.316 268.043 119.887 280.848 122.142C297.154 125.015 316.745 114.886 323.589 100.046C324.733 97.566 326.117 96.042 327.24 96.026C328.234 96.012 328.803 95.602 328.502 95.115C327.752 93.902 321.965 93.137 321.328 94.167C321.045 94.625 321.515 95 322.372 95C324.352 95 324.331 95.298 322.034 99.79C318.421 106.854 312.186 112.764 304.168 116.728C296.95 120.295 296.015 120.5 286.983 120.5C278.333 120.5 276.8 120.201 270.751 117.335C262.558 113.454 256.193 107.735 252.486 100.924C250.249 96.814 249.954 95.604 251.028 94.94C252.843 93.818 251.967 93.34 248.931 93.795ZM34.9585 111.914C33.8685 115.219 32.9475 116.104 29.0525 117.591L24.4375 119.354L29.1805 121.3C33.2055 122.952 34.1005 123.834 35.0855 127.124C35.7245 129.256 36.5535 131 36.9285 131C37.3035 131 38.1945 129.231 38.9075 127.068C39.9905 123.789 40.9695 122.823 44.8145 121.245L49.4235 119.354L44.8095 117.592C40.8625 116.084 40.0265 115.264 39.0235 111.915C38.3785 109.762 37.4905 108 37.0505 108C36.6105 108 35.6695 109.762 34.9585 111.914ZM528.6 113.87C527.221 117.317 526.076 118.497 522.902 119.743C520.718 120.601 518.931 121.614 518.931 121.993C518.931 122.373 520.674 123.206 522.807 123.845C526.085 124.827 526.98 125.729 528.603 129.683L530.522 134.359L532.303 129.697C533.831 125.695 534.639 124.868 538.007 123.859C540.165 123.212 541.931 122.373 541.931 121.993C541.931 121.614 540.171 120.612 538.019 119.767C534.969 118.569 533.69 117.274 532.216 113.894L530.325 109.558L528.6 113.87ZM7.43052 172.403C1.67753 174.942 0.464523 177.348 0.0855235 186.97C-0.174477 193.6 0.133526 196.492 1.35253 198.85C4.80553 205.526 -19.6145 205 286.931 205C593.476 205 569.056 205.526 572.509 198.85C574.91 194.205 574.198 179.066 571.431 175.966C566.734 170.701 583.827 170.997 286.713 171.039C59.6695 171.071 9.89552 171.314 7.43052 172.403ZM569.518 176.306C571.695 178.837 571.931 180.022 571.931 188.419C571.931 197.028 571.742 197.916 569.417 200.241C568.034 201.624 565.503 203.036 563.792 203.378C559.725 204.191 14.1365 204.191 10.0695 203.378C8.35852 203.036 5.82752 201.624 4.44452 200.241C2.12552 197.923 1.93052 197.017 1.93052 188.586C1.93052 178.818 3.07752 175.693 7.28752 173.989C8.48452 173.504 132.548 173.205 288.268 173.311L567.104 173.5L569.518 176.306ZM9.24553 177.007C5.95053 178.335 4.93052 181.153 4.93052 188.934C4.93052 199.282 5.89353 200 19.7755 200C33.5285 200 33.9305 199.666 33.9305 188.244C33.9305 180.686 33.7545 180.007 31.2955 178.073C29.0745 176.326 27.3075 176.01 20.0455 176.063C15.3075 176.098 10.4475 176.523 9.24553 177.007ZM40.2455 177.007C37.0085 178.311 35.9305 181.132 35.9305 188.299C35.9305 193.291 36.3945 195.32 38.0035 197.365C40.0125 199.92 40.4015 200 50.8485 200C64.4355 200 65.1445 199.447 65.0455 188.933C64.9625 179.979 64.5295 178.594 61.3645 177.152C58.4315 175.815 43.4585 175.713 40.2455 177.007ZM70.9935 177.217C67.9775 178.805 66.5865 183.711 67.1635 190.735C67.8545 199.16 69.1995 200 82.0125 200C92.5725 200 92.8285 199.946 94.9525 197.25C96.8205 194.88 97.0695 193.502 96.7565 187.267C96.2525 177.227 95.4495 176.575 83.1465 176.217C76.6685 176.028 72.6185 176.362 70.9935 177.217ZM102.431 177.146C99.2645 179.018 98.9625 180.013 98.9455 188.595C98.9245 199.636 99.3825 200 113.26 200C127.03 200 127.931 199.3 127.931 188.611C127.931 177.569 126.833 176.574 114.271 176.232C108.023 176.061 103.701 176.395 102.431 177.146ZM132.675 177.987C130.095 180.016 129.931 180.62 129.931 188.073C129.931 199.348 130.724 200 144.431 200C158.119 200 158.931 199.337 158.931 188.155C158.931 177.424 157.995 176.614 145.073 176.164C136.407 175.862 135.139 176.049 132.675 177.987ZM165.246 177.007C161.951 178.335 160.931 181.153 160.931 188.934C160.931 199.197 161.966 200 175.208 200C189.317 200 189.931 199.521 189.931 188.516C189.931 180.664 189.768 180.017 187.296 178.073C185.075 176.326 183.308 176.01 176.046 176.063C171.308 176.098 166.448 176.523 165.246 177.007ZM196.246 177.007C193.039 178.299 191.931 181.122 191.931 188C191.931 193.953 193.073 197.727 195.331 199.235C195.936 199.639 201.199 199.976 207.026 199.985C220.467 200.004 220.937 199.613 220.916 188.421C220.899 179.883 220.581 178.904 217.247 177.15C214.711 175.815 199.462 175.712 196.246 177.007ZM227.166 176.991C224.003 178.326 222.694 182.453 223.138 189.693C223.724 199.235 224.828 200 238.013 200C248.361 200 248.865 199.9 250.786 197.458C252.472 195.313 252.732 193.728 252.444 187.329C251.98 177.039 251.405 176.561 239.147 176.268C233.803 176.14 228.412 176.465 227.166 176.991ZM257.674 177.987C255.077 180.03 254.931 180.588 254.931 188.418C254.931 199.655 255.356 200 269.221 200C282.855 200 283.931 199.153 283.931 188.422C283.931 177.616 282.788 176.591 270.265 176.164C261.404 175.861 260.145 176.044 257.674 177.987ZM288.674 177.987C286.095 180.016 285.931 180.62 285.931 188.073C285.931 199.348 286.724 200 300.431 200C314.118 200 314.931 199.337 314.931 188.155C314.931 177.424 313.995 176.614 301.073 176.164C292.406 175.862 291.138 176.049 288.674 177.987ZM321.246 177.007C317.951 178.335 316.931 181.153 316.931 188.934C316.931 199.197 317.966 200 331.208 200C345.317 200 345.931 199.521 345.931 188.516C345.931 180.664 345.767 180.017 343.296 178.073C341.074 176.326 339.307 176.01 332.046 176.063C327.307 176.098 322.448 176.523 321.246 177.007ZM352.246 177.007C349.039 178.299 347.931 181.122 347.931 188C347.931 193.953 349.073 197.727 351.331 199.235C351.936 199.639 357.199 199.976 363.026 199.985C376.467 200.004 376.936 199.613 376.915 188.421C376.898 179.883 376.581 178.904 373.247 177.15C370.711 175.815 355.462 175.712 352.246 177.007ZM383.165 176.991C380.003 178.326 378.694 182.453 379.138 189.693C379.724 199.235 380.828 200 394.013 200C404.573 200 404.829 199.946 406.953 197.25C408.821 194.88 409.069 193.502 408.757 187.267C408.251 177.209 407.451 176.562 395.147 176.268C389.803 176.14 384.411 176.465 383.165 176.991ZM414.431 177.146C411.265 179.018 410.963 180.013 410.946 188.595C410.925 199.608 411.415 200.005 425.01 199.985C430.741 199.976 435.926 199.639 436.531 199.235C440.389 196.659 441.385 183.02 438.021 178.861C436.28 176.709 435.238 176.476 426.271 176.232C420.023 176.061 415.701 176.395 414.431 177.146ZM512.13 234.588C486.931 247.145 495.773 285.072 523.877 284.978C534.492 284.942 543.229 279.699 547.747 270.653C556.768 252.592 544.08 232 523.931 232C518.828 232 516.141 232.589 512.13 234.588ZM308.594 236.884C307.267 240.202 306.014 241.485 302.671 242.96L298.431 244.83L302.605 246.537C306.009 247.929 307.128 249.088 308.652 252.802L310.522 257.359L312.256 252.82C313.692 249.059 314.712 247.983 318.21 246.544L322.431 244.807L318.431 242.991C315.547 241.681 313.852 239.989 312.354 236.925L310.277 232.677L308.594 236.884ZM533.277 234.927L536.122 236.023L531.277 239.262C525.782 242.934 521.602 249.841 522.207 254.25C523.226 261.676 514.583 253.456 512.912 245.411C511.313 237.706 512.07 235.44 516.675 234.146C520.98 232.937 529.105 233.319 533.277 234.927ZM513.327 251.82C514.277 253.647 516.602 256.053 518.492 257.168C522.473 259.518 522.26 260.406 517.328 262.034C513.185 263.401 509.21 262.798 503.204 259.891C499.73 258.209 498.931 257.314 498.931 255.107C498.931 251.219 503.542 242.506 507.259 239.372L510.431 236.698L511.014 242.599C511.336 245.845 512.376 249.994 513.327 251.82ZM544.647 244.396C547.661 248.827 549.825 255.439 548.648 256.616C548.359 256.904 546.299 256.208 544.068 255.07C538.537 252.248 530.155 252.249 526.566 255.073L523.931 257.145L523.935 253.323C523.94 248.223 526.671 244.023 532.488 240.17C538.19 236.393 539.518 236.854 544.647 244.396ZM405.488 255.223C404.632 256.445 403.931 258.27 403.931 259.279C403.931 262.971 434.083 343.481 436.129 345.25C438.892 347.64 442.177 347.446 444.629 344.75C445.754 343.512 450.363 335.668 454.871 327.318L463.066 312.136L478.249 303.94C486.599 299.432 494.444 294.823 495.681 293.698C498.378 291.245 498.569 287.974 496.181 285.158C494.214 282.839 413.862 253 409.585 253C408.092 253 406.402 253.918 405.488 255.223ZM543.847 256.645C549.094 259.26 549.148 259.335 548.638 263.145C547.974 268.09 543.766 275.269 539.927 278.003L536.931 280.136L536.909 275.318C536.879 268.737 533.866 262.484 529.477 259.895C527.527 258.744 525.931 257.636 525.931 257.433C525.931 257.23 527.168 256.393 528.681 255.572C532.807 253.334 537.928 253.696 543.847 256.645ZM512.85 263.996C515.651 263.994 518.694 263.222 520.681 262.011L523.931 260.029V263.647C523.931 268.224 521.016 272.976 516.132 276.361C511.564 279.526 510.003 279.631 506.652 276.996C503.531 274.541 498.931 265.571 498.931 261.94V259.272L503.6 261.636C506.494 263.101 510.012 263.999 512.85 263.996ZM529.714 261.561C532.876 263.775 534.793 267.971 535.537 274.309C536.147 279.492 536.034 279.886 533.459 281.573C530.11 283.768 519.865 284.085 515.223 282.138L512.016 280.792L516.723 277.646C522.079 274.067 526.253 267.106 525.655 262.75C525.226 259.625 526.442 259.269 529.714 261.561ZM112.66 268.008C111.414 271.179 110.182 272.4 106.762 273.853L102.439 275.689L106.935 277.683C110.673 279.342 111.698 280.417 113.014 284.061L114.596 288.443L116.362 283.82C117.892 279.813 118.744 278.961 122.751 277.431L127.374 275.665L122.992 274.083C119.409 272.789 118.265 271.725 116.723 268.25C115.686 265.913 114.702 264 114.536 264C114.37 264 113.526 265.804 112.66 268.008Z" fill="black"/>
</svg>
